<?xml version="1.0" encoding="utf-8" standalone="no"?>
<!DOCTYPE svg PUBLIC "-//W3C//DTD SVG 1.1//EN"
  "http://www.w3.org/Graphics/SVG/1.1/DTD/svg11.dtd">
<!-- Created with matplotlib (https://matplotlib.org/) -->
<svg height="288pt" version="1.1" viewBox="0 0 1080 288" width="1080pt" xmlns="http://www.w3.org/2000/svg" xmlns:xlink="http://www.w3.org/1999/xlink">
 <defs>
  <style type="text/css">
*{stroke-linecap:butt;stroke-linejoin:round;}
  </style>
 </defs>
 <g id="figure_1">
  <g id="patch_1">
   <path d="M 0 288 
L 1080 288 
L 1080 0 
L 0 0 
z
" style="fill:#ffffff;"/>
  </g>
  <g id="axes_1">
   <g id="patch_2">
    <path d="M 135 256.32 
L 972 256.32 
L 972 34.56 
L 135 34.56 
z
" style="fill:#eaeaf2;"/>
   </g>
   <g id="matplotlib.axis_1">
    <g id="xtick_1">
     <g id="text_1">
      <!-- concavity_se -->
      <defs>
       <path d="M 40.4375 19 
L 49.078125 17.875 
Q 47.65625 8.9375 41.8125 3.875 
Q 35.984375 -1.171875 27.484375 -1.171875 
Q 16.84375 -1.171875 10.375 5.78125 
Q 3.90625 12.75 3.90625 25.734375 
Q 3.90625 34.125 6.6875 40.421875 
Q 9.46875 46.734375 15.15625 49.875 
Q 20.84375 53.03125 27.546875 53.03125 
Q 35.984375 53.03125 41.359375 48.75 
Q 46.734375 44.484375 48.25 36.625 
L 39.703125 35.296875 
Q 38.484375 40.53125 35.375 43.15625 
Q 32.28125 45.796875 27.875 45.796875 
Q 21.234375 45.796875 17.078125 41.03125 
Q 12.9375 36.28125 12.9375 25.984375 
Q 12.9375 15.53125 16.9375 10.796875 
Q 20.953125 6.0625 27.390625 6.0625 
Q 32.5625 6.0625 36.03125 9.234375 
Q 39.5 12.40625 40.4375 19 
z
" id="ArialMT-99"/>
       <path d="M 3.328125 25.921875 
Q 3.328125 40.328125 11.328125 47.265625 
Q 18.015625 53.03125 27.640625 53.03125 
Q 38.328125 53.03125 45.109375 46.015625 
Q 51.90625 39.015625 51.90625 26.65625 
Q 51.90625 16.65625 48.90625 10.90625 
Q 45.90625 5.171875 40.15625 2 
Q 34.421875 -1.171875 27.640625 -1.171875 
Q 16.75 -1.171875 10.03125 5.8125 
Q 3.328125 12.796875 3.328125 25.921875 
z
M 12.359375 25.921875 
Q 12.359375 15.96875 16.703125 11.015625 
Q 21.046875 6.0625 27.640625 6.0625 
Q 34.1875 6.0625 38.53125 11.03125 
Q 42.875 16.015625 42.875 26.21875 
Q 42.875 35.84375 38.5 40.796875 
Q 34.125 45.75 27.640625 45.75 
Q 21.046875 45.75 16.703125 40.8125 
Q 12.359375 35.890625 12.359375 25.921875 
z
" id="ArialMT-111"/>
       <path d="M 6.59375 0 
L 6.59375 51.859375 
L 14.5 51.859375 
L 14.5 44.484375 
Q 20.21875 53.03125 31 53.03125 
Q 35.6875 53.03125 39.625 51.34375 
Q 43.5625 49.65625 45.515625 46.921875 
Q 47.46875 44.1875 48.25 40.4375 
Q 48.734375 37.984375 48.734375 31.890625 
L 48.734375 0 
L 39.9375 0 
L 39.9375 31.546875 
Q 39.9375 36.921875 38.90625 39.578125 
Q 37.890625 42.234375 35.28125 43.8125 
Q 32.671875 45.40625 29.15625 45.40625 
Q 23.53125 45.40625 19.453125 41.84375 
Q 15.375 38.28125 15.375 28.328125 
L 15.375 0 
z
" id="ArialMT-110"/>
       <path d="M 40.4375 6.390625 
Q 35.546875 2.25 31.03125 0.53125 
Q 26.515625 -1.171875 21.34375 -1.171875 
Q 12.796875 -1.171875 8.203125 3 
Q 3.609375 7.171875 3.609375 13.671875 
Q 3.609375 17.484375 5.34375 20.625 
Q 7.078125 23.78125 9.890625 25.6875 
Q 12.703125 27.59375 16.21875 28.5625 
Q 18.796875 29.25 24.03125 29.890625 
Q 34.671875 31.15625 39.703125 32.90625 
Q 39.75 34.71875 39.75 35.203125 
Q 39.75 40.578125 37.25 42.78125 
Q 33.890625 45.75 27.25 45.75 
Q 21.046875 45.75 18.09375 43.578125 
Q 15.140625 41.40625 13.71875 35.890625 
L 5.125 37.0625 
Q 6.296875 42.578125 8.984375 45.96875 
Q 11.671875 49.359375 16.75 51.1875 
Q 21.828125 53.03125 28.515625 53.03125 
Q 35.15625 53.03125 39.296875 51.46875 
Q 43.453125 49.90625 45.40625 47.53125 
Q 47.359375 45.171875 48.140625 41.546875 
Q 48.578125 39.3125 48.578125 33.453125 
L 48.578125 21.734375 
Q 48.578125 9.46875 49.140625 6.21875 
Q 49.703125 2.984375 51.375 0 
L 42.1875 0 
Q 40.828125 2.734375 40.4375 6.390625 
z
M 39.703125 26.03125 
Q 34.90625 24.078125 25.34375 22.703125 
Q 19.921875 21.921875 17.671875 20.9375 
Q 15.4375 19.96875 14.203125 18.09375 
Q 12.984375 16.21875 12.984375 13.921875 
Q 12.984375 10.40625 15.640625 8.0625 
Q 18.3125 5.71875 23.4375 5.71875 
Q 28.515625 5.71875 32.46875 7.9375 
Q 36.421875 10.15625 38.28125 14.015625 
Q 39.703125 17 39.703125 22.796875 
z
" id="ArialMT-97"/>
       <path d="M 21 0 
L 1.265625 51.859375 
L 10.546875 51.859375 
L 21.6875 20.796875 
Q 23.484375 15.765625 25 10.359375 
Q 26.171875 14.453125 28.265625 20.21875 
L 39.796875 51.859375 
L 48.828125 51.859375 
L 29.203125 0 
z
" id="ArialMT-118"/>
       <path d="M 6.640625 61.46875 
L 6.640625 71.578125 
L 15.4375 71.578125 
L 15.4375 61.46875 
z
M 6.640625 0 
L 6.640625 51.859375 
L 15.4375 51.859375 
L 15.4375 0 
z
" id="ArialMT-105"/>
       <path d="M 25.78125 7.859375 
L 27.046875 0.09375 
Q 23.34375 -0.6875 20.40625 -0.6875 
Q 15.625 -0.6875 12.984375 0.828125 
Q 10.359375 2.34375 9.28125 4.8125 
Q 8.203125 7.28125 8.203125 15.1875 
L 8.203125 45.015625 
L 1.765625 45.015625 
L 1.765625 51.859375 
L 8.203125 51.859375 
L 8.203125 64.703125 
L 16.9375 69.96875 
L 16.9375 51.859375 
L 25.78125 51.859375 
L 25.78125 45.015625 
L 16.9375 45.015625 
L 16.9375 14.703125 
Q 16.9375 10.9375 17.40625 9.859375 
Q 17.875 8.796875 18.921875 8.15625 
Q 19.96875 7.515625 21.921875 7.515625 
Q 23.390625 7.515625 25.78125 7.859375 
z
" id="ArialMT-116"/>
       <path d="M 6.203125 -19.96875 
L 5.21875 -11.71875 
Q 8.109375 -12.5 10.25 -12.5 
Q 13.1875 -12.5 14.9375 -11.515625 
Q 16.703125 -10.546875 17.828125 -8.796875 
Q 18.65625 -7.46875 20.515625 -2.25 
Q 20.75 -1.515625 21.296875 -0.09375 
L 1.609375 51.859375 
L 11.078125 51.859375 
L 21.875 21.828125 
Q 23.96875 16.109375 25.640625 9.8125 
Q 27.15625 15.875 29.25 21.625 
L 40.328125 51.859375 
L 49.125 51.859375 
L 29.390625 -0.875 
Q 26.21875 -9.421875 24.46875 -12.640625 
Q 22.125 -17 19.09375 -19.015625 
Q 16.0625 -21.046875 11.859375 -21.046875 
Q 9.328125 -21.046875 6.203125 -19.96875 
z
" id="ArialMT-121"/>
       <path d="M -1.515625 -19.875 
L -1.515625 -13.53125 
L 56.734375 -13.53125 
L 56.734375 -19.875 
z
" id="ArialMT-95"/>
       <path d="M 3.078125 15.484375 
L 11.765625 16.84375 
Q 12.5 11.625 15.84375 8.84375 
Q 19.1875 6.0625 25.203125 6.0625 
Q 31.25 6.0625 34.171875 8.515625 
Q 37.109375 10.984375 37.109375 14.3125 
Q 37.109375 17.28125 34.515625 19 
Q 32.71875 20.171875 25.53125 21.96875 
Q 15.875 24.421875 12.140625 26.203125 
Q 8.40625 27.984375 6.46875 31.125 
Q 4.546875 34.28125 4.546875 38.09375 
Q 4.546875 41.546875 6.125 44.5 
Q 7.71875 47.46875 10.453125 49.421875 
Q 12.5 50.921875 16.03125 51.96875 
Q 19.578125 53.03125 23.640625 53.03125 
Q 29.734375 53.03125 34.34375 51.265625 
Q 38.96875 49.515625 41.15625 46.5 
Q 43.359375 43.5 44.1875 38.484375 
L 35.59375 37.3125 
Q 35.015625 41.3125 32.203125 43.546875 
Q 29.390625 45.796875 24.265625 45.796875 
Q 18.21875 45.796875 15.625 43.796875 
Q 13.03125 41.796875 13.03125 39.109375 
Q 13.03125 37.40625 14.109375 36.03125 
Q 15.1875 34.625 17.484375 33.6875 
Q 18.796875 33.203125 25.25 31.453125 
Q 34.578125 28.953125 38.25 27.359375 
Q 41.9375 25.78125 44.03125 22.75 
Q 46.140625 19.734375 46.140625 15.234375 
Q 46.140625 10.84375 43.578125 6.953125 
Q 41.015625 3.078125 36.171875 0.953125 
Q 31.34375 -1.171875 25.25 -1.171875 
Q 15.140625 -1.171875 9.84375 3.03125 
Q 4.546875 7.234375 3.078125 15.484375 
z
" id="ArialMT-115"/>
       <path d="M 42.09375 16.703125 
L 51.171875 15.578125 
Q 49.03125 7.625 43.21875 3.21875 
Q 37.40625 -1.171875 28.375 -1.171875 
Q 17 -1.171875 10.328125 5.828125 
Q 3.65625 12.84375 3.65625 25.484375 
Q 3.65625 38.578125 10.390625 45.796875 
Q 17.140625 53.03125 27.875 53.03125 
Q 38.28125 53.03125 44.875 45.953125 
Q 51.46875 38.875 51.46875 26.03125 
Q 51.46875 25.25 51.421875 23.6875 
L 12.75 23.6875 
Q 13.234375 15.140625 17.578125 10.59375 
Q 21.921875 6.0625 28.421875 6.0625 
Q 33.25 6.0625 36.671875 8.59375 
Q 40.09375 11.140625 42.09375 16.703125 
z
M 13.234375 30.90625 
L 42.1875 30.90625 
Q 41.609375 37.453125 38.875 40.71875 
Q 34.671875 45.796875 27.984375 45.796875 
Q 21.921875 45.796875 17.796875 41.75 
Q 13.671875 37.703125 13.234375 30.90625 
z
" id="ArialMT-101"/>
      </defs>
      <g style="fill:#262626;" transform="translate(158.410156 270.477813)scale(0.1 -0.1)">
       <use xlink:href="#ArialMT-99"/>
       <use x="50" xlink:href="#ArialMT-111"/>
       <use x="105.615234" xlink:href="#ArialMT-110"/>
       <use x="161.230469" xlink:href="#ArialMT-99"/>
       <use x="211.230469" xlink:href="#ArialMT-97"/>
       <use x="266.845703" xlink:href="#ArialMT-118"/>
       <use x="316.845703" xlink:href="#ArialMT-105"/>
       <use x="339.0625" xlink:href="#ArialMT-116"/>
       <use x="366.845703" xlink:href="#ArialMT-121"/>
       <use x="416.845703" xlink:href="#ArialMT-95"/>
       <use x="472.460938" xlink:href="#ArialMT-115"/>
       <use x="522.460938" xlink:href="#ArialMT-101"/>
      </g>
     </g>
    </g>
    <g id="xtick_2">
     <g id="text_2">
      <!-- concave points_se -->
      <defs>
       <path id="ArialMT-32"/>
       <path d="M 6.59375 -19.875 
L 6.59375 51.859375 
L 14.59375 51.859375 
L 14.59375 45.125 
Q 17.4375 49.078125 21 51.046875 
Q 24.5625 53.03125 29.640625 53.03125 
Q 36.28125 53.03125 41.359375 49.609375 
Q 46.4375 46.1875 49.015625 39.953125 
Q 51.609375 33.734375 51.609375 26.3125 
Q 51.609375 18.359375 48.75 11.984375 
Q 45.90625 5.609375 40.453125 2.21875 
Q 35.015625 -1.171875 29 -1.171875 
Q 24.609375 -1.171875 21.109375 0.6875 
Q 17.625 2.546875 15.375 5.375 
L 15.375 -19.875 
z
M 14.546875 25.640625 
Q 14.546875 15.625 18.59375 10.84375 
Q 22.65625 6.0625 28.421875 6.0625 
Q 34.28125 6.0625 38.453125 11.015625 
Q 42.625 15.96875 42.625 26.375 
Q 42.625 36.28125 38.546875 41.203125 
Q 34.46875 46.140625 28.8125 46.140625 
Q 23.1875 46.140625 18.859375 40.890625 
Q 14.546875 35.640625 14.546875 25.640625 
z
" id="ArialMT-112"/>
      </defs>
      <g style="fill:#262626;" transform="translate(250.524219 270.477813)scale(0.1 -0.1)">
       <use xlink:href="#ArialMT-99"/>
       <use x="50" xlink:href="#ArialMT-111"/>
       <use x="105.615234" xlink:href="#ArialMT-110"/>
       <use x="161.230469" xlink:href="#ArialMT-99"/>
       <use x="211.230469" xlink:href="#ArialMT-97"/>
       <use x="266.845703" xlink:href="#ArialMT-118"/>
       <use x="316.845703" xlink:href="#ArialMT-101"/>
       <use x="372.460938" xlink:href="#ArialMT-32"/>
       <use x="400.244141" xlink:href="#ArialMT-112"/>
       <use x="455.859375" xlink:href="#ArialMT-111"/>
       <use x="511.474609" xlink:href="#ArialMT-105"/>
       <use x="533.691406" xlink:href="#ArialMT-110"/>
       <use x="589.306641" xlink:href="#ArialMT-116"/>
       <use x="617.089844" xlink:href="#ArialMT-115"/>
       <use x="667.089844" xlink:href="#ArialMT-95"/>
       <use x="722.705078" xlink:href="#ArialMT-115"/>
       <use x="772.705078" xlink:href="#ArialMT-101"/>
      </g>
     </g>
    </g>
    <g id="xtick_3">
     <g id="text_3">
      <!-- symmetry_se -->
      <defs>
       <path d="M 6.59375 0 
L 6.59375 51.859375 
L 14.453125 51.859375 
L 14.453125 44.578125 
Q 16.890625 48.390625 20.9375 50.703125 
Q 25 53.03125 30.171875 53.03125 
Q 35.9375 53.03125 39.625 50.640625 
Q 43.3125 48.25 44.828125 43.953125 
Q 50.984375 53.03125 60.84375 53.03125 
Q 68.5625 53.03125 72.703125 48.75 
Q 76.859375 44.484375 76.859375 35.59375 
L 76.859375 0 
L 68.109375 0 
L 68.109375 32.671875 
Q 68.109375 37.9375 67.25 40.25 
Q 66.40625 42.578125 64.15625 43.984375 
Q 61.921875 45.40625 58.890625 45.40625 
Q 53.421875 45.40625 49.796875 41.765625 
Q 46.1875 38.140625 46.1875 30.125 
L 46.1875 0 
L 37.40625 0 
L 37.40625 33.6875 
Q 37.40625 39.546875 35.25 42.46875 
Q 33.109375 45.40625 28.21875 45.40625 
Q 24.515625 45.40625 21.359375 43.453125 
Q 18.21875 41.5 16.796875 37.734375 
Q 15.375 33.984375 15.375 26.90625 
L 15.375 0 
z
" id="ArialMT-109"/>
       <path d="M 6.5 0 
L 6.5 51.859375 
L 14.40625 51.859375 
L 14.40625 44 
Q 17.4375 49.515625 20 51.265625 
Q 22.5625 53.03125 25.640625 53.03125 
Q 30.078125 53.03125 34.671875 50.203125 
L 31.640625 42.046875 
Q 28.421875 43.953125 25.203125 43.953125 
Q 22.3125 43.953125 20.015625 42.21875 
Q 17.71875 40.484375 16.75 37.40625 
Q 15.28125 32.71875 15.28125 27.15625 
L 15.28125 0 
z
" id="ArialMT-114"/>
      </defs>
      <g style="fill:#262626;" transform="translate(366.8375 270.360625)scale(0.1 -0.1)">
       <use xlink:href="#ArialMT-115"/>
       <use x="50" xlink:href="#ArialMT-121"/>
       <use x="100" xlink:href="#ArialMT-109"/>
       <use x="183.300781" xlink:href="#ArialMT-109"/>
       <use x="266.601562" xlink:href="#ArialMT-101"/>
       <use x="322.216797" xlink:href="#ArialMT-116"/>
       <use x="350" xlink:href="#ArialMT-114"/>
       <use x="383.300781" xlink:href="#ArialMT-121"/>
       <use x="433.300781" xlink:href="#ArialMT-95"/>
       <use x="488.916016" xlink:href="#ArialMT-115"/>
       <use x="538.916016" xlink:href="#ArialMT-101"/>
      </g>
     </g>
    </g>
    <g id="xtick_4">
     <g id="text_4">
      <!-- fractal_dimension_se -->
      <defs>
       <path d="M 8.6875 0 
L 8.6875 45.015625 
L 0.921875 45.015625 
L 0.921875 51.859375 
L 8.6875 51.859375 
L 8.6875 57.375 
Q 8.6875 62.59375 9.625 65.140625 
Q 10.890625 68.5625 14.078125 70.671875 
Q 17.28125 72.796875 23.046875 72.796875 
Q 26.765625 72.796875 31.25 71.921875 
L 29.9375 64.265625 
Q 27.203125 64.75 24.75 64.75 
Q 20.75 64.75 19.09375 63.03125 
Q 17.4375 61.328125 17.4375 56.640625 
L 17.4375 51.859375 
L 27.546875 51.859375 
L 27.546875 45.015625 
L 17.4375 45.015625 
L 17.4375 0 
z
" id="ArialMT-102"/>
       <path d="M 6.390625 0 
L 6.390625 71.578125 
L 15.1875 71.578125 
L 15.1875 0 
z
" id="ArialMT-108"/>
       <path d="M 40.234375 0 
L 40.234375 6.546875 
Q 35.296875 -1.171875 25.734375 -1.171875 
Q 19.53125 -1.171875 14.328125 2.25 
Q 9.125 5.671875 6.265625 11.796875 
Q 3.421875 17.921875 3.421875 25.875 
Q 3.421875 33.640625 6 39.96875 
Q 8.59375 46.296875 13.765625 49.65625 
Q 18.953125 53.03125 25.34375 53.03125 
Q 30.03125 53.03125 33.6875 51.046875 
Q 37.359375 49.078125 39.65625 45.90625 
L 39.65625 71.578125 
L 48.390625 71.578125 
L 48.390625 0 
z
M 12.453125 25.875 
Q 12.453125 15.921875 16.640625 10.984375 
Q 20.84375 6.0625 26.5625 6.0625 
Q 32.328125 6.0625 36.34375 10.765625 
Q 40.375 15.484375 40.375 25.140625 
Q 40.375 35.796875 36.265625 40.765625 
Q 32.171875 45.75 26.171875 45.75 
Q 20.3125 45.75 16.375 40.96875 
Q 12.453125 36.1875 12.453125 25.875 
z
" id="ArialMT-100"/>
      </defs>
      <g style="fill:#262626;" transform="translate(453.942187 270.599688)scale(0.1 -0.1)">
       <use xlink:href="#ArialMT-102"/>
       <use x="27.783203" xlink:href="#ArialMT-114"/>
       <use x="61.083984" xlink:href="#ArialMT-97"/>
       <use x="116.699219" xlink:href="#ArialMT-99"/>
       <use x="166.699219" xlink:href="#ArialMT-116"/>
       <use x="194.482422" xlink:href="#ArialMT-97"/>
       <use x="250.097656" xlink:href="#ArialMT-108"/>
       <use x="272.314453" xlink:href="#ArialMT-95"/>
       <use x="327.929688" xlink:href="#ArialMT-100"/>
       <use x="383.544922" xlink:href="#ArialMT-105"/>
       <use x="405.761719" xlink:href="#ArialMT-109"/>
       <use x="489.0625" xlink:href="#ArialMT-101"/>
       <use x="544.677734" xlink:href="#ArialMT-110"/>
       <use x="600.292969" xlink:href="#ArialMT-115"/>
       <use x="650.292969" xlink:href="#ArialMT-105"/>
       <use x="672.509766" xlink:href="#ArialMT-111"/>
       <use x="728.125" xlink:href="#ArialMT-110"/>
       <use x="783.740234" xlink:href="#ArialMT-95"/>
       <use x="839.355469" xlink:href="#ArialMT-115"/>
       <use x="889.355469" xlink:href="#ArialMT-101"/>
      </g>
     </g>
    </g>
    <g id="xtick_5">
     <g id="text_5">
      <!-- radius_worst -->
      <defs>
       <path d="M 40.578125 0 
L 40.578125 7.625 
Q 34.515625 -1.171875 24.125 -1.171875 
Q 19.53125 -1.171875 15.546875 0.578125 
Q 11.578125 2.34375 9.640625 5 
Q 7.71875 7.671875 6.9375 11.53125 
Q 6.390625 14.109375 6.390625 19.734375 
L 6.390625 51.859375 
L 15.1875 51.859375 
L 15.1875 23.09375 
Q 15.1875 16.21875 15.71875 13.8125 
Q 16.546875 10.359375 19.234375 8.375 
Q 21.921875 6.390625 25.875 6.390625 
Q 29.828125 6.390625 33.296875 8.421875 
Q 36.765625 10.453125 38.203125 13.9375 
Q 39.65625 17.4375 39.65625 24.078125 
L 39.65625 51.859375 
L 48.4375 51.859375 
L 48.4375 0 
z
" id="ArialMT-117"/>
       <path d="M 16.15625 0 
L 0.296875 51.859375 
L 9.375 51.859375 
L 17.625 21.921875 
L 20.703125 10.796875 
Q 20.90625 11.625 23.390625 21.484375 
L 31.640625 51.859375 
L 40.671875 51.859375 
L 48.4375 21.78125 
L 51.03125 11.859375 
L 54 21.875 
L 62.890625 51.859375 
L 71.4375 51.859375 
L 55.21875 0 
L 46.09375 0 
L 37.84375 31.0625 
L 35.84375 39.890625 
L 25.34375 0 
z
" id="ArialMT-119"/>
      </defs>
      <g style="fill:#262626;" transform="translate(577.469531 270.477813)scale(0.1 -0.1)">
       <use xlink:href="#ArialMT-114"/>
       <use x="33.300781" xlink:href="#ArialMT-97"/>
       <use x="88.916016" xlink:href="#ArialMT-100"/>
       <use x="144.53125" xlink:href="#ArialMT-105"/>
       <use x="166.748047" xlink:href="#ArialMT-117"/>
       <use x="222.363281" xlink:href="#ArialMT-115"/>
       <use x="272.363281" xlink:href="#ArialMT-95"/>
       <use x="327.978516" xlink:href="#ArialMT-119"/>
       <use x="400.195312" xlink:href="#ArialMT-111"/>
       <use x="455.810547" xlink:href="#ArialMT-114"/>
       <use x="489.111328" xlink:href="#ArialMT-115"/>
       <use x="539.111328" xlink:href="#ArialMT-116"/>
      </g>
     </g>
    </g>
    <g id="xtick_6">
     <g id="text_6">
      <!-- texture_worst -->
      <defs>
       <path d="M 0.734375 0 
L 19.671875 26.953125 
L 2.15625 51.859375 
L 13.140625 51.859375 
L 21.09375 39.703125 
Q 23.34375 36.234375 24.703125 33.890625 
Q 26.859375 37.109375 28.65625 39.59375 
L 37.40625 51.859375 
L 47.90625 51.859375 
L 29.984375 27.4375 
L 49.265625 0 
L 38.484375 0 
L 27.828125 16.109375 
L 25 20.453125 
L 11.375 0 
z
" id="ArialMT-120"/>
      </defs>
      <g style="fill:#262626;" transform="translate(680.427344 270.477813)scale(0.1 -0.1)">
       <use xlink:href="#ArialMT-116"/>
       <use x="27.783203" xlink:href="#ArialMT-101"/>
       <use x="83.398438" xlink:href="#ArialMT-120"/>
       <use x="133.398438" xlink:href="#ArialMT-116"/>
       <use x="161.181641" xlink:href="#ArialMT-117"/>
       <use x="216.796875" xlink:href="#ArialMT-114"/>
       <use x="250.097656" xlink:href="#ArialMT-101"/>
       <use x="305.712891" xlink:href="#ArialMT-95"/>
       <use x="361.328125" xlink:href="#ArialMT-119"/>
       <use x="433.544922" xlink:href="#ArialMT-111"/>
       <use x="489.160156" xlink:href="#ArialMT-114"/>
       <use x="522.460938" xlink:href="#ArialMT-115"/>
       <use x="572.460938" xlink:href="#ArialMT-116"/>
      </g>
     </g>
    </g>
    <g id="xtick_7">
     <g id="text_7">
      <!-- perimeter_worst -->
      <g style="fill:#262626;" transform="translate(779.220312 270.477813)scale(0.1 -0.1)">
       <use xlink:href="#ArialMT-112"/>
       <use x="55.615234" xlink:href="#ArialMT-101"/>
       <use x="111.230469" xlink:href="#ArialMT-114"/>
       <use x="144.53125" xlink:href="#ArialMT-105"/>
       <use x="166.748047" xlink:href="#ArialMT-109"/>
       <use x="250.048828" xlink:href="#ArialMT-101"/>
       <use x="305.664062" xlink:href="#ArialMT-116"/>
       <use x="333.447266" xlink:href="#ArialMT-101"/>
       <use x="389.0625" xlink:href="#ArialMT-114"/>
       <use x="422.363281" xlink:href="#ArialMT-95"/>
       <use x="477.978516" xlink:href="#ArialMT-119"/>
       <use x="550.195312" xlink:href="#ArialMT-111"/>
       <use x="605.810547" xlink:href="#ArialMT-114"/>
       <use x="639.111328" xlink:href="#ArialMT-115"/>
       <use x="689.111328" xlink:href="#ArialMT-116"/>
      </g>
     </g>
    </g>
    <g id="xtick_8">
     <g id="text_8">
      <!-- area_worst -->
      <g style="fill:#262626;" transform="translate(894.955469 270.477813)scale(0.1 -0.1)">
       <use xlink:href="#ArialMT-97"/>
       <use x="55.615234" xlink:href="#ArialMT-114"/>
       <use x="88.916016" xlink:href="#ArialMT-101"/>
       <use x="144.53125" xlink:href="#ArialMT-97"/>
       <use x="200.146484" xlink:href="#ArialMT-95"/>
       <use x="255.761719" xlink:href="#ArialMT-119"/>
       <use x="327.978516" xlink:href="#ArialMT-111"/>
       <use x="383.59375" xlink:href="#ArialMT-114"/>
       <use x="416.894531" xlink:href="#ArialMT-115"/>
       <use x="466.894531" xlink:href="#ArialMT-116"/>
      </g>
     </g>
    </g>
   </g>
   <g id="matplotlib.axis_2">
    <g id="ytick_1">
     <g id="line2d_1">
      <path clip-path="url(#p9cc6c2ffc3)" d="M 135 235.977492 
L 972 235.977492 
" style="fill:none;stroke:#ffffff;stroke-linecap:round;"/>
     </g>
     <g id="text_9">
      <!-- −2 -->
      <defs>
       <path d="M 52.828125 31.203125 
L 5.5625 31.203125 
L 5.5625 39.40625 
L 52.828125 39.40625 
z
" id="ArialMT-8722"/>
       <path d="M 50.34375 8.453125 
L 50.34375 0 
L 3.03125 0 
Q 2.9375 3.171875 4.046875 6.109375 
Q 5.859375 10.9375 9.828125 15.625 
Q 13.8125 20.3125 21.34375 26.46875 
Q 33.015625 36.03125 37.109375 41.625 
Q 41.21875 47.21875 41.21875 52.203125 
Q 41.21875 57.421875 37.46875 61 
Q 33.734375 64.59375 27.734375 64.59375 
Q 21.390625 64.59375 17.578125 60.78125 
Q 13.765625 56.984375 13.71875 50.25 
L 4.6875 51.171875 
Q 5.609375 61.28125 11.65625 66.578125 
Q 17.71875 71.875 27.9375 71.875 
Q 38.234375 71.875 44.234375 66.15625 
Q 50.25 60.453125 50.25 52 
Q 50.25 47.703125 48.484375 43.546875 
Q 46.734375 39.40625 42.65625 34.8125 
Q 38.578125 30.21875 29.109375 22.21875 
Q 21.1875 15.578125 18.9375 13.203125 
Q 16.703125 10.84375 15.234375 8.453125 
z
" id="ArialMT-50"/>
      </defs>
      <g style="fill:#262626;" transform="translate(116.598438 239.556399)scale(0.1 -0.1)">
       <use xlink:href="#ArialMT-8722"/>
       <use x="58.398438" xlink:href="#ArialMT-50"/>
      </g>
     </g>
    </g>
    <g id="ytick_2">
     <g id="line2d_2">
      <path clip-path="url(#p9cc6c2ffc3)" d="M 135 209.81064 
L 972 209.81064 
" style="fill:none;stroke:#ffffff;stroke-linecap:round;"/>
     </g>
     <g id="text_10">
      <!-- 0 -->
      <defs>
       <path d="M 4.15625 35.296875 
Q 4.15625 48 6.765625 55.734375 
Q 9.375 63.484375 14.515625 67.671875 
Q 19.671875 71.875 27.484375 71.875 
Q 33.25 71.875 37.59375 69.546875 
Q 41.9375 67.234375 44.765625 62.859375 
Q 47.609375 58.5 49.21875 52.21875 
Q 50.828125 45.953125 50.828125 35.296875 
Q 50.828125 22.703125 48.234375 14.96875 
Q 45.65625 7.234375 40.5 3 
Q 35.359375 -1.21875 27.484375 -1.21875 
Q 17.140625 -1.21875 11.234375 6.203125 
Q 4.15625 15.140625 4.15625 35.296875 
z
M 13.1875 35.296875 
Q 13.1875 17.671875 17.3125 11.828125 
Q 21.4375 6 27.484375 6 
Q 33.546875 6 37.671875 11.859375 
Q 41.796875 17.71875 41.796875 35.296875 
Q 41.796875 52.984375 37.671875 58.78125 
Q 33.546875 64.59375 27.390625 64.59375 
Q 21.34375 64.59375 17.71875 59.46875 
Q 13.1875 52.9375 13.1875 35.296875 
z
" id="ArialMT-48"/>
      </defs>
      <g style="fill:#262626;" transform="translate(122.439063 213.389547)scale(0.1 -0.1)">
       <use xlink:href="#ArialMT-48"/>
      </g>
     </g>
    </g>
    <g id="ytick_3">
     <g id="line2d_3">
      <path clip-path="url(#p9cc6c2ffc3)" d="M 135 183.643788 
L 972 183.643788 
" style="fill:none;stroke:#ffffff;stroke-linecap:round;"/>
     </g>
     <g id="text_11">
      <!-- 2 -->
      <g style="fill:#262626;" transform="translate(122.439063 187.222695)scale(0.1 -0.1)">
       <use xlink:href="#ArialMT-50"/>
      </g>
     </g>
    </g>
    <g id="ytick_4">
     <g id="line2d_4">
      <path clip-path="url(#p9cc6c2ffc3)" d="M 135 157.476936 
L 972 157.476936 
" style="fill:none;stroke:#ffffff;stroke-linecap:round;"/>
     </g>
     <g id="text_12">
      <!-- 4 -->
      <defs>
       <path d="M 32.328125 0 
L 32.328125 17.140625 
L 1.265625 17.140625 
L 1.265625 25.203125 
L 33.9375 71.578125 
L 41.109375 71.578125 
L 41.109375 25.203125 
L 50.78125 25.203125 
L 50.78125 17.140625 
L 41.109375 17.140625 
L 41.109375 0 
z
M 32.328125 25.203125 
L 32.328125 57.46875 
L 9.90625 25.203125 
z
" id="ArialMT-52"/>
      </defs>
      <g style="fill:#262626;" transform="translate(122.439063 161.055843)scale(0.1 -0.1)">
       <use xlink:href="#ArialMT-52"/>
      </g>
     </g>
    </g>
    <g id="ytick_5">
     <g id="line2d_5">
      <path clip-path="url(#p9cc6c2ffc3)" d="M 135 131.310084 
L 972 131.310084 
" style="fill:none;stroke:#ffffff;stroke-linecap:round;"/>
     </g>
     <g id="text_13">
      <!-- 6 -->
      <defs>
       <path d="M 49.75 54.046875 
L 41.015625 53.375 
Q 39.84375 58.546875 37.703125 60.890625 
Q 34.125 64.65625 28.90625 64.65625 
Q 24.703125 64.65625 21.53125 62.3125 
Q 17.390625 59.28125 14.984375 53.46875 
Q 12.59375 47.65625 12.5 36.921875 
Q 15.671875 41.75 20.265625 44.09375 
Q 24.859375 46.4375 29.890625 46.4375 
Q 38.671875 46.4375 44.84375 39.96875 
Q 51.03125 33.5 51.03125 23.25 
Q 51.03125 16.5 48.125 10.71875 
Q 45.21875 4.9375 40.140625 1.859375 
Q 35.0625 -1.21875 28.609375 -1.21875 
Q 17.625 -1.21875 10.6875 6.859375 
Q 3.765625 14.9375 3.765625 33.5 
Q 3.765625 54.25 11.421875 63.671875 
Q 18.109375 71.875 29.4375 71.875 
Q 37.890625 71.875 43.28125 67.140625 
Q 48.6875 62.40625 49.75 54.046875 
z
M 13.875 23.1875 
Q 13.875 18.65625 15.796875 14.5 
Q 17.71875 10.359375 21.1875 8.171875 
Q 24.65625 6 28.46875 6 
Q 34.03125 6 38.03125 10.484375 
Q 42.046875 14.984375 42.046875 22.703125 
Q 42.046875 30.125 38.078125 34.390625 
Q 34.125 38.671875 28.125 38.671875 
Q 22.171875 38.671875 18.015625 34.390625 
Q 13.875 30.125 13.875 23.1875 
z
" id="ArialMT-54"/>
      </defs>
      <g style="fill:#262626;" transform="translate(122.439063 134.888991)scale(0.1 -0.1)">
       <use xlink:href="#ArialMT-54"/>
      </g>
     </g>
    </g>
    <g id="ytick_6">
     <g id="line2d_6">
      <path clip-path="url(#p9cc6c2ffc3)" d="M 135 105.143232 
L 972 105.143232 
" style="fill:none;stroke:#ffffff;stroke-linecap:round;"/>
     </g>
     <g id="text_14">
      <!-- 8 -->
      <defs>
       <path d="M 17.671875 38.8125 
Q 12.203125 40.828125 9.5625 44.53125 
Q 6.9375 48.25 6.9375 53.421875 
Q 6.9375 61.234375 12.546875 66.546875 
Q 18.171875 71.875 27.484375 71.875 
Q 36.859375 71.875 42.578125 66.421875 
Q 48.296875 60.984375 48.296875 53.171875 
Q 48.296875 48.1875 45.671875 44.5 
Q 43.0625 40.828125 37.75 38.8125 
Q 44.34375 36.671875 47.78125 31.875 
Q 51.21875 27.09375 51.21875 20.453125 
Q 51.21875 11.28125 44.71875 5.03125 
Q 38.234375 -1.21875 27.640625 -1.21875 
Q 17.046875 -1.21875 10.546875 5.046875 
Q 4.046875 11.328125 4.046875 20.703125 
Q 4.046875 27.6875 7.59375 32.390625 
Q 11.140625 37.109375 17.671875 38.8125 
z
M 15.921875 53.71875 
Q 15.921875 48.640625 19.1875 45.40625 
Q 22.46875 42.1875 27.6875 42.1875 
Q 32.765625 42.1875 36.015625 45.375 
Q 39.265625 48.578125 39.265625 53.21875 
Q 39.265625 58.0625 35.90625 61.359375 
Q 32.5625 64.65625 27.59375 64.65625 
Q 22.5625 64.65625 19.234375 61.421875 
Q 15.921875 58.203125 15.921875 53.71875 
z
M 13.09375 20.65625 
Q 13.09375 16.890625 14.875 13.375 
Q 16.65625 9.859375 20.171875 7.921875 
Q 23.6875 6 27.734375 6 
Q 34.03125 6 38.125 10.046875 
Q 42.234375 14.109375 42.234375 20.359375 
Q 42.234375 26.703125 38.015625 30.859375 
Q 33.796875 35.015625 27.4375 35.015625 
Q 21.234375 35.015625 17.15625 30.90625 
Q 13.09375 26.8125 13.09375 20.65625 
z
" id="ArialMT-56"/>
      </defs>
      <g style="fill:#262626;" transform="translate(122.439063 108.722139)scale(0.1 -0.1)">
       <use xlink:href="#ArialMT-56"/>
      </g>
     </g>
    </g>
    <g id="ytick_7">
     <g id="line2d_7">
      <path clip-path="url(#p9cc6c2ffc3)" d="M 135 78.976381 
L 972 78.976381 
" style="fill:none;stroke:#ffffff;stroke-linecap:round;"/>
     </g>
     <g id="text_15">
      <!-- 10 -->
      <defs>
       <path d="M 37.25 0 
L 28.46875 0 
L 28.46875 56 
Q 25.296875 52.984375 20.140625 49.953125 
Q 14.984375 46.921875 10.890625 45.40625 
L 10.890625 53.90625 
Q 18.265625 57.375 23.78125 62.296875 
Q 29.296875 67.234375 31.59375 71.875 
L 37.25 71.875 
z
" id="ArialMT-49"/>
      </defs>
      <g style="fill:#262626;" transform="translate(116.878125 82.555287)scale(0.1 -0.1)">
       <use xlink:href="#ArialMT-49"/>
       <use x="55.615234" xlink:href="#ArialMT-48"/>
      </g>
     </g>
    </g>
    <g id="ytick_8">
     <g id="line2d_8">
      <path clip-path="url(#p9cc6c2ffc3)" d="M 135 52.809529 
L 972 52.809529 
" style="fill:none;stroke:#ffffff;stroke-linecap:round;"/>
     </g>
     <g id="text_16">
      <!-- 12 -->
      <g style="fill:#262626;" transform="translate(116.878125 56.388435)scale(0.1 -0.1)">
       <use xlink:href="#ArialMT-49"/>
       <use x="55.615234" xlink:href="#ArialMT-50"/>
      </g>
     </g>
    </g>
   </g>
   <g id="PolyCollection_1">
    <defs>
     <path d="M 188.041117 -57.008312 
L 186.583883 -57.008312 
L 185.197493 -58.890652 
L 182.303503 -60.772993 
L 177.419578 -62.655333 
L 170.603327 -64.537673 
L 162.592473 -66.420014 
L 154.703868 -68.302354 
L 148.551839 -70.184694 
L 145.4625 -72.067034 
L 145.777064 -73.949375 
L 148.702201 -75.831715 
L 152.907307 -77.714055 
L 157.266362 -79.596396 
L 161.219962 -81.478736 
L 164.757038 -83.361076 
L 168.149616 -85.243416 
L 171.590584 -87.125757 
L 174.988143 -89.008097 
L 178.037875 -90.890437 
L 180.43341 -92.772777 
L 182.04682 -94.655118 
L 183.004511 -96.537458 
L 183.600674 -98.419798 
L 184.081563 -100.302139 
L 184.514976 -102.184479 
L 184.876545 -104.066819 
L 185.183353 -105.949159 
L 185.488345 -107.8315 
L 185.804306 -109.71384 
L 186.097086 -111.59618 
L 186.338329 -113.478521 
L 186.532246 -115.360861 
L 186.695108 -117.243201 
L 186.827498 -119.125541 
L 186.910534 -121.007882 
L 186.927614 -122.890222 
L 186.893962 -124.772562 
L 186.859955 -126.654903 
L 186.874503 -128.537243 
L 186.948194 -130.419583 
L 187.055258 -132.301923 
L 187.159993 -134.184264 
L 187.237906 -136.066604 
L 187.282996 -137.948944 
L 187.303226 -139.831285 
L 187.310212 -141.713625 
L 187.312061 -143.595965 
L 187.312435 -145.478305 
L 187.312492 -147.360646 
L 187.312499 -149.242986 
L 187.3125 -151.125326 
L 187.3125 -153.007666 
L 187.3125 -154.890007 
L 187.3125 -156.772347 
L 187.3125 -158.654687 
L 187.3125 -160.537028 
L 187.3125 -162.419368 
L 187.3125 -164.301708 
L 187.3125 -166.184048 
L 187.3125 -168.066389 
L 187.3125 -169.948729 
L 187.3125 -171.831069 
L 187.3125 -173.71341 
L 187.3125 -175.59575 
L 187.3125 -177.47809 
L 187.312494 -179.36043 
L 187.312449 -181.242771 
L 187.312149 -183.125111 
L 187.310642 -185.007451 
L 187.304936 -186.889792 
L 187.288803 -188.772132 
L 187.255365 -190.654472 
L 187.206474 -192.536812 
L 187.16107 -194.419153 
L 187.146041 -196.301493 
L 187.171669 -198.183833 
L 187.220797 -200.066174 
L 187.266542 -201.948514 
L 187.294773 -203.830854 
L 187.307237 -205.713194 
L 187.311298 -207.595535 
L 187.312289 -209.477875 
L 187.312471 -211.360215 
L 187.312497 -213.242555 
L 187.3125 -215.124896 
L 187.3125 -217.007236 
L 187.312497 -218.889576 
L 187.312468 -220.771917 
L 187.312269 -222.654257 
L 187.311203 -224.536597 
L 187.306894 -226.418937 
L 187.293847 -228.301278 
L 187.264736 -230.183618 
L 187.218365 -232.065958 
L 187.169712 -233.948299 
L 187.145804 -235.830639 
L 187.162719 -237.712979 
L 187.208919 -239.595319 
L 187.257369 -241.47766 
L 187.289915 -243.36 
L 187.335085 -243.36 
L 187.335085 -243.36 
L 187.367631 -241.47766 
L 187.416081 -239.595319 
L 187.462281 -237.712979 
L 187.479196 -235.830639 
L 187.455288 -233.948299 
L 187.406635 -232.065958 
L 187.360264 -230.183618 
L 187.331153 -228.301278 
L 187.318106 -226.418937 
L 187.313797 -224.536597 
L 187.312731 -222.654257 
L 187.312532 -220.771917 
L 187.312503 -218.889576 
L 187.3125 -217.007236 
L 187.3125 -215.124896 
L 187.312503 -213.242555 
L 187.312529 -211.360215 
L 187.312711 -209.477875 
L 187.313702 -207.595535 
L 187.317763 -205.713194 
L 187.330227 -203.830854 
L 187.358458 -201.948514 
L 187.404203 -200.066174 
L 187.453331 -198.183833 
L 187.478959 -196.301493 
L 187.46393 -194.419153 
L 187.418526 -192.536812 
L 187.369635 -190.654472 
L 187.336197 -188.772132 
L 187.320064 -186.889792 
L 187.314358 -185.007451 
L 187.312851 -183.125111 
L 187.312551 -181.242771 
L 187.312506 -179.36043 
L 187.3125 -177.47809 
L 187.3125 -175.59575 
L 187.3125 -173.71341 
L 187.3125 -171.831069 
L 187.3125 -169.948729 
L 187.3125 -168.066389 
L 187.3125 -166.184048 
L 187.3125 -164.301708 
L 187.3125 -162.419368 
L 187.3125 -160.537028 
L 187.3125 -158.654687 
L 187.3125 -156.772347 
L 187.3125 -154.890007 
L 187.3125 -153.007666 
L 187.3125 -151.125326 
L 187.312501 -149.242986 
L 187.312508 -147.360646 
L 187.312565 -145.478305 
L 187.312939 -143.595965 
L 187.314788 -141.713625 
L 187.321774 -139.831285 
L 187.342004 -137.948944 
L 187.387094 -136.066604 
L 187.465007 -134.184264 
L 187.569742 -132.301923 
L 187.676806 -130.419583 
L 187.750497 -128.537243 
L 187.765045 -126.654903 
L 187.731038 -124.772562 
L 187.697386 -122.890222 
L 187.714466 -121.007882 
L 187.797502 -119.125541 
L 187.929892 -117.243201 
L 188.092754 -115.360861 
L 188.286671 -113.478521 
L 188.527914 -111.59618 
L 188.820694 -109.71384 
L 189.136655 -107.8315 
L 189.441647 -105.949159 
L 189.748455 -104.066819 
L 190.110024 -102.184479 
L 190.543437 -100.302139 
L 191.024326 -98.419798 
L 191.620489 -96.537458 
L 192.57818 -94.655118 
L 194.19159 -92.772777 
L 196.587125 -90.890437 
L 199.636857 -89.008097 
L 203.034416 -87.125757 
L 206.475384 -85.243416 
L 209.867962 -83.361076 
L 213.405038 -81.478736 
L 217.358638 -79.596396 
L 221.717693 -77.714055 
L 225.922799 -75.831715 
L 228.847936 -73.949375 
L 229.1625 -72.067034 
L 226.073161 -70.184694 
L 219.921132 -68.302354 
L 212.032527 -66.420014 
L 204.021673 -64.537673 
L 197.205422 -62.655333 
L 192.321497 -60.772993 
L 189.427507 -58.890652 
L 188.041117 -57.008312 
z
" id="mcd51195573" style="stroke:#464646;stroke-width:3;"/>
    </defs>
    <g clip-path="url(#p9cc6c2ffc3)">
     <use style="fill:#ea96a3;stroke:#464646;stroke-width:3;" x="0" xlink:href="#mcd51195573" y="288"/>
    </g>
   </g>
   <g id="PolyCollection_2">
    <defs>
     <path d="M 292.33831 -45.819441 
L 291.53669 -45.819441 
L 291.174901 -47.098739 
L 290.644245 -48.378036 
L 289.97366 -49.657334 
L 289.244659 -50.936632 
L 288.552893 -52.21593 
L 287.938707 -53.495227 
L 287.3294 -54.774525 
L 286.537126 -56.053823 
L 285.318341 -57.33312 
L 283.458104 -58.612418 
L 280.836337 -59.891716 
L 277.46183 -61.171014 
L 273.482635 -62.450311 
L 269.17333 -63.729609 
L 264.883733 -65.008907 
L 260.947846 -66.288204 
L 257.591608 -67.567502 
L 254.895905 -68.8468 
L 252.836031 -70.126098 
L 251.359777 -71.405395 
L 250.442274 -72.684693 
L 250.0875 -73.963991 
L 250.296517 -75.243289 
L 251.042257 -76.522586 
L 252.270434 -77.801884 
L 253.915238 -79.081182 
L 255.907626 -80.360479 
L 258.168504 -81.639777 
L 260.59987 -82.919075 
L 263.091707 -84.198373 
L 265.546881 -85.47767 
L 267.908139 -86.756968 
L 270.168874 -88.036266 
L 272.361351 -89.315563 
L 274.52806 -90.594861 
L 276.687362 -91.874159 
L 278.808025 -93.153457 
L 280.808042 -94.432754 
L 282.58354 -95.712052 
L 284.054136 -96.99135 
L 285.197481 -98.270647 
L 286.052206 -99.549945 
L 286.691036 -100.829243 
L 287.185324 -102.108541 
L 287.583731 -103.387838 
L 287.912573 -104.667136 
L 288.188503 -105.946434 
L 288.429448 -107.225732 
L 288.657424 -108.505029 
L 288.895781 -109.784327 
L 289.164838 -111.063625 
L 289.476772 -112.342922 
L 289.82998 -113.62222 
L 290.205929 -114.901518 
L 290.572136 -116.180816 
L 290.891289 -117.460113 
L 291.132532 -118.739411 
L 291.280542 -120.018709 
L 291.340155 -121.298006 
L 291.335688 -122.577304 
L 291.304449 -123.856602 
L 291.285149 -125.1359 
L 291.304645 -126.415197 
L 291.368674 -127.694495 
L 291.461402 -128.973793 
L 291.554295 -130.25309 
L 291.619808 -131.532388 
L 291.643075 -132.811686 
L 291.626644 -134.090984 
L 291.58743 -135.370281 
L 291.548659 -136.649579 
L 291.530883 -137.928877 
L 291.545427 -139.208174 
L 291.592007 -140.487472 
L 291.66061 -141.76677 
L 291.736436 -143.046068 
L 291.805684 -144.325365 
L 291.859747 -145.604663 
L 291.896363 -146.883961 
L 291.918027 -148.163259 
L 291.929252 -149.442556 
L 291.934299 -150.721854 
L 291.936072 -152.001152 
L 291.935916 -153.280449 
L 291.933744 -154.559747 
L 291.928101 -155.839045 
L 291.91628 -157.118343 
L 291.89498 -158.39764 
L 291.861991 -159.676938 
L 291.81868 -160.956236 
L 291.771825 -162.235533 
L 291.732805 -163.514831 
L 291.713403 -164.794129 
L 291.720108 -166.073427 
L 291.750634 -167.352724 
L 291.79517 -168.632022 
L 291.84144 -169.91132 
L 291.880053 -171.190617 
L 291.907058 -172.469915 
L 291.967942 -172.469915 
L 291.967942 -172.469915 
L 291.994947 -171.190617 
L 292.03356 -169.91132 
L 292.07983 -168.632022 
L 292.124366 -167.352724 
L 292.154892 -166.073427 
L 292.161597 -164.794129 
L 292.142195 -163.514831 
L 292.103175 -162.235533 
L 292.05632 -160.956236 
L 292.013009 -159.676938 
L 291.98002 -158.39764 
L 291.95872 -157.118343 
L 291.946899 -155.839045 
L 291.941256 -154.559747 
L 291.939084 -153.280449 
L 291.938928 -152.001152 
L 291.940701 -150.721854 
L 291.945748 -149.442556 
L 291.956973 -148.163259 
L 291.978637 -146.883961 
L 292.015253 -145.604663 
L 292.069316 -144.325365 
L 292.138564 -143.046068 
L 292.21439 -141.76677 
L 292.282993 -140.487472 
L 292.329573 -139.208174 
L 292.344117 -137.928877 
L 292.326341 -136.649579 
L 292.28757 -135.370281 
L 292.248356 -134.090984 
L 292.231925 -132.811686 
L 292.255192 -131.532388 
L 292.320705 -130.25309 
L 292.413598 -128.973793 
L 292.506326 -127.694495 
L 292.570355 -126.415197 
L 292.589851 -125.1359 
L 292.570551 -123.856602 
L 292.539312 -122.577304 
L 292.534845 -121.298006 
L 292.594458 -120.018709 
L 292.742468 -118.739411 
L 292.983711 -117.460113 
L 293.302864 -116.180816 
L 293.669071 -114.901518 
L 294.04502 -113.62222 
L 294.398228 -112.342922 
L 294.710162 -111.063625 
L 294.979219 -109.784327 
L 295.217576 -108.505029 
L 295.445552 -107.225732 
L 295.686497 -105.946434 
L 295.962427 -104.667136 
L 296.291269 -103.387838 
L 296.689676 -102.108541 
L 297.183964 -100.829243 
L 297.822794 -99.549945 
L 298.677519 -98.270647 
L 299.820864 -96.99135 
L 301.29146 -95.712052 
L 303.066958 -94.432754 
L 305.066975 -93.153457 
L 307.187638 -91.874159 
L 309.34694 -90.594861 
L 311.513649 -89.315563 
L 313.706126 -88.036266 
L 315.966861 -86.756968 
L 318.328119 -85.47767 
L 320.783293 -84.198373 
L 323.27513 -82.919075 
L 325.706496 -81.639777 
L 327.967374 -80.360479 
L 329.959762 -79.081182 
L 331.604566 -77.801884 
L 332.832743 -76.522586 
L 333.578483 -75.243289 
L 333.7875 -73.963991 
L 333.432726 -72.684693 
L 332.515223 -71.405395 
L 331.038969 -70.126098 
L 328.979095 -68.8468 
L 326.283392 -67.567502 
L 322.927154 -66.288204 
L 318.991267 -65.008907 
L 314.70167 -63.729609 
L 310.392365 -62.450311 
L 306.41317 -61.171014 
L 303.038663 -59.891716 
L 300.416896 -58.612418 
L 298.556659 -57.33312 
L 297.337874 -56.053823 
L 296.5456 -54.774525 
L 295.936293 -53.495227 
L 295.322107 -52.21593 
L 294.630341 -50.936632 
L 293.90134 -49.657334 
L 293.230755 -48.378036 
L 292.700099 -47.098739 
L 292.33831 -45.819441 
z
" id="m93fcbb793f" style="stroke:#464646;stroke-width:3;"/>
    </defs>
    <g clip-path="url(#p9cc6c2ffc3)">
     <use style="fill:#ca984c;stroke:#464646;stroke-width:3;" x="0" xlink:href="#m93fcbb793f" y="288"/>
    </g>
   </g>
   <g id="PolyCollection_3">
    <defs>
     <path d="M 396.620454 -50.794059 
L 396.504546 -50.794059 
L 396.42034 -52.07887 
L 396.236979 -53.363682 
L 395.866742 -54.648493 
L 395.176306 -55.933305 
L 393.991419 -57.218116 
L 392.123689 -58.502928 
L 389.418848 -59.787739 
L 385.813043 -61.072551 
L 381.377473 -62.357363 
L 376.3368 -63.642174 
L 371.054988 -64.926986 
L 365.984651 -66.211797 
L 361.578982 -67.496609 
L 358.183471 -68.78142 
L 355.953099 -70.066232 
L 354.847112 -71.351043 
L 354.7125 -72.635855 
L 355.401677 -73.920666 
L 356.839838 -75.205478 
L 358.998359 -76.49029 
L 361.80832 -77.775101 
L 365.091425 -79.059913 
L 368.561554 -80.344724 
L 371.893298 -81.629536 
L 374.816897 -82.914347 
L 377.19658 -84.199159 
L 379.061385 -85.48397 
L 380.572142 -86.768782 
L 381.933476 -88.053593 
L 383.293417 -89.338405 
L 384.687632 -90.623217 
L 386.057164 -91.908028 
L 387.315802 -93.19284 
L 388.4126 -94.477651 
L 389.351488 -95.762463 
L 390.17101 -97.047274 
L 390.912626 -98.332086 
L 391.600865 -99.616897 
L 392.239935 -100.901709 
L 392.820132 -102.18652 
L 393.326941 -103.471332 
L 393.748808 -104.756143 
L 394.082027 -106.040955 
L 394.333099 -107.325767 
L 394.519207 -108.610578 
L 394.665707 -109.89539 
L 394.799225 -111.180201 
L 394.938563 -112.465013 
L 395.089406 -113.749824 
L 395.246592 -115.034636 
L 395.400861 -116.319447 
L 395.543441 -117.604259 
L 395.665812 -118.88907 
L 395.758353 -120.173882 
L 395.812579 -121.458694 
L 395.826829 -122.743505 
L 395.810472 -124.028317 
L 395.78207 -125.313128 
L 395.761586 -126.59794 
L 395.761636 -127.882751 
L 395.783684 -129.167563 
L 395.82129 -130.452374 
L 395.866877 -131.737186 
L 395.916125 -133.021997 
L 395.96709 -134.306809 
L 396.016733 -135.59162 
L 396.059913 -136.876432 
L 396.092792 -138.161244 
L 396.117377 -139.446055 
L 396.142256 -140.730867 
L 396.17799 -142.015678 
L 396.230496 -143.30049 
L 396.297315 -144.585301 
L 396.369127 -145.870113 
L 396.434847 -147.154924 
L 396.486631 -148.439736 
L 396.522057 -149.724547 
L 396.543219 -151.009359 
L 396.554296 -152.294171 
L 396.559387 -153.578982 
L 396.561432 -154.863794 
L 396.562105 -156.148605 
L 396.562116 -157.433417 
L 396.56149 -158.718228 
L 396.559609 -160.00304 
L 396.555049 -161.287851 
L 396.545478 -162.572663 
L 396.528077 -163.857474 
L 396.500881 -165.142286 
L 396.464863 -166.427097 
L 396.425557 -167.711909 
L 396.392484 -168.996721 
L 396.375662 -170.281532 
L 396.380753 -171.566344 
L 396.406008 -172.851155 
L 396.443226 -174.135967 
L 396.482032 -175.420778 
L 396.514446 -176.70559 
L 396.537099 -177.990401 
L 396.587901 -177.990401 
L 396.587901 -177.990401 
L 396.610554 -176.70559 
L 396.642968 -175.420778 
L 396.681774 -174.135967 
L 396.718992 -172.851155 
L 396.744247 -171.566344 
L 396.749338 -170.281532 
L 396.732516 -168.996721 
L 396.699443 -167.711909 
L 396.660137 -166.427097 
L 396.624119 -165.142286 
L 396.596923 -163.857474 
L 396.579522 -162.572663 
L 396.569951 -161.287851 
L 396.565391 -160.00304 
L 396.56351 -158.718228 
L 396.562884 -157.433417 
L 396.562895 -156.148605 
L 396.563568 -154.863794 
L 396.565613 -153.578982 
L 396.570704 -152.294171 
L 396.581781 -151.009359 
L 396.602943 -149.724547 
L 396.638369 -148.439736 
L 396.690153 -147.154924 
L 396.755873 -145.870113 
L 396.827685 -144.585301 
L 396.894504 -143.30049 
L 396.94701 -142.015678 
L 396.982744 -140.730867 
L 397.007623 -139.446055 
L 397.032208 -138.161244 
L 397.065087 -136.876432 
L 397.108267 -135.59162 
L 397.15791 -134.306809 
L 397.208875 -133.021997 
L 397.258123 -131.737186 
L 397.30371 -130.452374 
L 397.341316 -129.167563 
L 397.363364 -127.882751 
L 397.363414 -126.59794 
L 397.34293 -125.313128 
L 397.314528 -124.028317 
L 397.298171 -122.743505 
L 397.312421 -121.458694 
L 397.366647 -120.173882 
L 397.459188 -118.88907 
L 397.581559 -117.604259 
L 397.724139 -116.319447 
L 397.878408 -115.034636 
L 398.035594 -113.749824 
L 398.186437 -112.465013 
L 398.325775 -111.180201 
L 398.459293 -109.89539 
L 398.605793 -108.610578 
L 398.791901 -107.325767 
L 399.042973 -106.040955 
L 399.376192 -104.756143 
L 399.798059 -103.471332 
L 400.304868 -102.18652 
L 400.885065 -100.901709 
L 401.524135 -99.616897 
L 402.212374 -98.332086 
L 402.95399 -97.047274 
L 403.773512 -95.762463 
L 404.7124 -94.477651 
L 405.809198 -93.19284 
L 407.067836 -91.908028 
L 408.437368 -90.623217 
L 409.831583 -89.338405 
L 411.191524 -88.053593 
L 412.552858 -86.768782 
L 414.063615 -85.48397 
L 415.92842 -84.199159 
L 418.308103 -82.914347 
L 421.231702 -81.629536 
L 424.563446 -80.344724 
L 428.033575 -79.059913 
L 431.31668 -77.775101 
L 434.126641 -76.49029 
L 436.285162 -75.205478 
L 437.723323 -73.920666 
L 438.4125 -72.635855 
L 438.277888 -71.351043 
L 437.171901 -70.066232 
L 434.941529 -68.78142 
L 431.546018 -67.496609 
L 427.140349 -66.211797 
L 422.070012 -64.926986 
L 416.7882 -63.642174 
L 411.747527 -62.357363 
L 407.311957 -61.072551 
L 403.706152 -59.787739 
L 401.001311 -58.502928 
L 399.133581 -57.218116 
L 397.948694 -55.933305 
L 397.258258 -54.648493 
L 396.888021 -53.363682 
L 396.70466 -52.07887 
L 396.620454 -50.794059 
z
" id="m43e2fe7cb8" style="stroke:#464646;stroke-width:3;"/>
    </defs>
    <g clip-path="url(#p9cc6c2ffc3)">
     <use style="fill:#98a246;stroke:#464646;stroke-width:3;" x="0" xlink:href="#m43e2fe7cb8" y="288"/>
    </g>
   </g>
   <g id="PolyCollection_4">
    <defs>
     <path d="M 501.51406 -56.492396 
L 500.86094 -56.492396 
L 500.244012 -58.086676 
L 498.829239 -59.680956 
L 496.064839 -61.275236 
L 491.469007 -62.869516 
L 484.989672 -64.463796 
L 477.293685 -66.058076 
L 469.695209 -67.652355 
L 463.65562 -69.246635 
L 460.151871 -70.840915 
L 459.3375 -72.435195 
L 460.672978 -74.029475 
L 463.349011 -75.623755 
L 466.68385 -77.218035 
L 470.290146 -78.812315 
L 474.011233 -80.406595 
L 477.754578 -82.000875 
L 481.367551 -83.595155 
L 484.646364 -85.189435 
L 487.452525 -86.783715 
L 489.795111 -88.377995 
L 491.773588 -89.972274 
L 493.455813 -91.566554 
L 494.843527 -93.160834 
L 495.941941 -94.755114 
L 496.813153 -96.349394 
L 497.541514 -97.943674 
L 498.16769 -99.537954 
L 498.675486 -101.132234 
L 499.038965 -102.726514 
L 499.272536 -104.320794 
L 499.435344 -105.915074 
L 499.592613 -107.509354 
L 499.772619 -109.103634 
L 499.95376 -110.697913 
L 500.087743 -112.292193 
L 500.139432 -113.886473 
L 500.114787 -115.480753 
L 500.058605 -117.075033 
L 500.028402 -118.669313 
L 500.067471 -120.263593 
L 500.191542 -121.857873 
L 500.386666 -123.452153 
L 500.614724 -125.046433 
L 500.828613 -126.640713 
L 500.993041 -128.234993 
L 501.097313 -129.829273 
L 501.151971 -131.423552 
L 501.175646 -133.017832 
L 501.183987 -134.612112 
L 501.185802 -136.206392 
L 501.183963 -137.800672 
L 501.17719 -139.394952 
L 501.161601 -140.989232 
L 501.133462 -142.583512 
L 501.094047 -144.177792 
L 501.053556 -145.772072 
L 501.028394 -147.366352 
L 501.030867 -148.960632 
L 501.059703 -150.554912 
L 501.10107 -152.149191 
L 501.138972 -153.743471 
L 501.164513 -155.337751 
L 501.176856 -156.932031 
L 501.178134 -158.526311 
L 501.168476 -160.120591 
L 501.144951 -161.714871 
L 501.104826 -163.309151 
L 501.0507 -164.903431 
L 500.992903 -166.497711 
L 500.946095 -168.091991 
L 500.922768 -169.686271 
L 500.928927 -171.280551 
L 500.963012 -172.87483 
L 501.016095 -174.46911 
L 501.074064 -176.06339 
L 501.123328 -177.65767 
L 501.156805 -179.25195 
L 501.17518 -180.84623 
L 501.183371 -182.44051 
L 501.186348 -184.03479 
L 501.187233 -185.62907 
L 501.187449 -187.22335 
L 501.187491 -188.81763 
L 501.187492 -190.41191 
L 501.187459 -192.00619 
L 501.187281 -193.60047 
L 501.186535 -195.194749 
L 501.183984 -196.789029 
L 501.176881 -198.383309 
L 501.160921 -199.977589 
L 501.132364 -201.571869 
L 501.09271 -203.166149 
L 501.052441 -204.760429 
L 501.028016 -206.354709 
L 501.031421 -207.948989 
L 501.060909 -209.543269 
L 501.102407 -211.137549 
L 501.140096 -212.731829 
L 501.165614 -214.326109 
L 501.209386 -214.326109 
L 501.209386 -214.326109 
L 501.234904 -212.731829 
L 501.272593 -211.137549 
L 501.314091 -209.543269 
L 501.343579 -207.948989 
L 501.346984 -206.354709 
L 501.322559 -204.760429 
L 501.28229 -203.166149 
L 501.242636 -201.571869 
L 501.214079 -199.977589 
L 501.198119 -198.383309 
L 501.191016 -196.789029 
L 501.188465 -195.194749 
L 501.187719 -193.60047 
L 501.187541 -192.00619 
L 501.187508 -190.41191 
L 501.187509 -188.81763 
L 501.187551 -187.22335 
L 501.187767 -185.62907 
L 501.188652 -184.03479 
L 501.191629 -182.44051 
L 501.19982 -180.84623 
L 501.218195 -179.25195 
L 501.251672 -177.65767 
L 501.300936 -176.06339 
L 501.358905 -174.46911 
L 501.411988 -172.87483 
L 501.446073 -171.280551 
L 501.452232 -169.686271 
L 501.428905 -168.091991 
L 501.382097 -166.497711 
L 501.3243 -164.903431 
L 501.270174 -163.309151 
L 501.230049 -161.714871 
L 501.206524 -160.120591 
L 501.196866 -158.526311 
L 501.198144 -156.932031 
L 501.210487 -155.337751 
L 501.236028 -153.743471 
L 501.27393 -152.149191 
L 501.315297 -150.554912 
L 501.344133 -148.960632 
L 501.346606 -147.366352 
L 501.321444 -145.772072 
L 501.280953 -144.177792 
L 501.241538 -142.583512 
L 501.213399 -140.989232 
L 501.19781 -139.394952 
L 501.191037 -137.800672 
L 501.189198 -136.206392 
L 501.191013 -134.612112 
L 501.199354 -133.017832 
L 501.223029 -131.423552 
L 501.277687 -129.829273 
L 501.381959 -128.234993 
L 501.546387 -126.640713 
L 501.760276 -125.046433 
L 501.988334 -123.452153 
L 502.183458 -121.857873 
L 502.307529 -120.263593 
L 502.346598 -118.669313 
L 502.316395 -117.075033 
L 502.260213 -115.480753 
L 502.235568 -113.886473 
L 502.287257 -112.292193 
L 502.42124 -110.697913 
L 502.602381 -109.103634 
L 502.782387 -107.509354 
L 502.939656 -105.915074 
L 503.102464 -104.320794 
L 503.336035 -102.726514 
L 503.699514 -101.132234 
L 504.20731 -99.537954 
L 504.833486 -97.943674 
L 505.561847 -96.349394 
L 506.433059 -94.755114 
L 507.531473 -93.160834 
L 508.919187 -91.566554 
L 510.601412 -89.972274 
L 512.579889 -88.377995 
L 514.922475 -86.783715 
L 517.728636 -85.189435 
L 521.007449 -83.595155 
L 524.620422 -82.000875 
L 528.363767 -80.406595 
L 532.084854 -78.812315 
L 535.69115 -77.218035 
L 539.025989 -75.623755 
L 541.702022 -74.029475 
L 543.0375 -72.435195 
L 542.223129 -70.840915 
L 538.71938 -69.246635 
L 532.679791 -67.652355 
L 525.081315 -66.058076 
L 517.385328 -64.463796 
L 510.905993 -62.869516 
L 506.310161 -61.275236 
L 503.545761 -59.680956 
L 502.130988 -58.086676 
L 501.51406 -56.492396 
z
" id="m91947ffa87" style="stroke:#464646;stroke-width:3;"/>
    </defs>
    <g clip-path="url(#p9cc6c2ffc3)">
     <use style="fill:#49af72;stroke:#464646;stroke-width:3;" x="0" xlink:href="#m91947ffa87" y="288"/>
    </g>
   </g>
   <g id="PolyCollection_5">
    <defs>
     <path d="M 605.878477 -48.257968 
L 605.746523 -48.257968 
L 605.689573 -49.175219 
L 605.592846 -50.092469 
L 605.435618 -51.00972 
L 605.190829 -51.92697 
L 604.825522 -52.844221 
L 604.302522 -53.761471 
L 603.583431 -54.678722 
L 602.632615 -55.595973 
L 601.421437 -56.513223 
L 599.9318 -57.430474 
L 598.158044 -58.347724 
L 596.106654 -59.264975 
L 593.793874 -60.182225 
L 591.242182 -61.099476 
L 588.477368 -62.016726 
L 585.528416 -62.933977 
L 582.431862 -63.851227 
L 579.240566 -64.768478 
L 576.034173 -65.685728 
L 572.926043 -66.602979 
L 570.060928 -67.52023 
L 567.600217 -68.43748 
L 565.69661 -69.354731 
L 564.465446 -70.271981 
L 563.9625 -71.189232 
L 564.176167 -72.106482 
L 565.036286 -73.023733 
L 566.435201 -73.940983 
L 568.252482 -74.858234 
L 570.374691 -75.775484 
L 572.705185 -76.692735 
L 575.163874 -77.609985 
L 577.680576 -78.527236 
L 580.187084 -79.444487 
L 582.612181 -80.361737 
L 584.881967 -81.278988 
L 586.925645 -82.196238 
L 588.68516 -83.113489 
L 590.125727 -84.030739 
L 591.243645 -84.94799 
L 592.068064 -85.86524 
L 592.655 -86.782491 
L 593.074449 -87.699741 
L 593.394233 -88.616992 
L 593.665808 -89.534242 
L 593.916789 -90.451493 
L 594.152394 -91.368744 
L 594.364469 -92.285994 
L 594.543863 -93.203245 
L 594.690971 -94.120495 
L 594.820572 -95.037746 
L 594.959879 -95.954996 
L 595.141573 -96.872247 
L 595.3953 -97.789497 
L 595.740993 -98.706748 
L 596.185941 -99.623998 
L 596.725497 -100.541249 
L 597.345902 -101.458499 
L 598.027391 -102.37575 
L 598.746472 -103.293 
L 599.477428 -104.210251 
L 600.193845 -105.127502 
L 600.870854 -106.044752 
L 601.487992 -106.962003 
L 602.03174 -107.879253 
L 602.496577 -108.796504 
L 602.884059 -109.713754 
L 603.200455 -110.631005 
L 603.454226 -111.548255 
L 603.654532 -112.465506 
L 603.811067 -113.382756 
L 603.934555 -114.300007 
L 604.036794 -115.217257 
L 604.129543 -116.134508 
L 604.222515 -117.051759 
L 604.321496 -117.969009 
L 604.427722 -118.88626 
L 604.53893 -119.80351 
L 604.651557 -120.720761 
L 604.762848 -121.638011 
L 604.871807 -122.555262 
L 604.978647 -123.472512 
L 605.083311 -124.389763 
L 605.184173 -125.307013 
L 605.277793 -126.224264 
L 605.359947 -127.141514 
L 605.427358 -128.058765 
L 605.479215 -128.976016 
L 605.517692 -129.893266 
L 605.54724 -130.810517 
L 605.573041 -131.727767 
L 605.599333 -132.645018 
L 605.628285 -133.562268 
L 605.659781 -134.479519 
L 605.692015 -135.396769 
L 605.7225 -136.31402 
L 605.749043 -137.23127 
L 605.770346 -138.148521 
L 605.786146 -139.065771 
L 605.838854 -139.065771 
L 605.838854 -139.065771 
L 605.854654 -138.148521 
L 605.875957 -137.23127 
L 605.9025 -136.31402 
L 605.932985 -135.396769 
L 605.965219 -134.479519 
L 605.996715 -133.562268 
L 606.025667 -132.645018 
L 606.051959 -131.727767 
L 606.07776 -130.810517 
L 606.107308 -129.893266 
L 606.145785 -128.976016 
L 606.197642 -128.058765 
L 606.265053 -127.141514 
L 606.347207 -126.224264 
L 606.440827 -125.307013 
L 606.541689 -124.389763 
L 606.646353 -123.472512 
L 606.753193 -122.555262 
L 606.862152 -121.638011 
L 606.973443 -120.720761 
L 607.08607 -119.80351 
L 607.197278 -118.88626 
L 607.303504 -117.969009 
L 607.402485 -117.051759 
L 607.495457 -116.134508 
L 607.588206 -115.217257 
L 607.690445 -114.300007 
L 607.813933 -113.382756 
L 607.970468 -112.465506 
L 608.170774 -111.548255 
L 608.424545 -110.631005 
L 608.740941 -109.713754 
L 609.128423 -108.796504 
L 609.59326 -107.879253 
L 610.137008 -106.962003 
L 610.754146 -106.044752 
L 611.431155 -105.127502 
L 612.147572 -104.210251 
L 612.878528 -103.293 
L 613.597609 -102.37575 
L 614.279098 -101.458499 
L 614.899503 -100.541249 
L 615.439059 -99.623998 
L 615.884007 -98.706748 
L 616.2297 -97.789497 
L 616.483427 -96.872247 
L 616.665121 -95.954996 
L 616.804428 -95.037746 
L 616.934029 -94.120495 
L 617.081137 -93.203245 
L 617.260531 -92.285994 
L 617.472606 -91.368744 
L 617.708211 -90.451493 
L 617.959192 -89.534242 
L 618.230767 -88.616992 
L 618.550551 -87.699741 
L 618.97 -86.782491 
L 619.556936 -85.86524 
L 620.381355 -84.94799 
L 621.499273 -84.030739 
L 622.93984 -83.113489 
L 624.699355 -82.196238 
L 626.743033 -81.278988 
L 629.012819 -80.361737 
L 631.437916 -79.444487 
L 633.944424 -78.527236 
L 636.461126 -77.609985 
L 638.919815 -76.692735 
L 641.250309 -75.775484 
L 643.372518 -74.858234 
L 645.189799 -73.940983 
L 646.588714 -73.023733 
L 647.448833 -72.106482 
L 647.6625 -71.189232 
L 647.159554 -70.271981 
L 645.92839 -69.354731 
L 644.024783 -68.43748 
L 641.564072 -67.52023 
L 638.698957 -66.602979 
L 635.590827 -65.685728 
L 632.384434 -64.768478 
L 629.193138 -63.851227 
L 626.096584 -62.933977 
L 623.147632 -62.016726 
L 620.382818 -61.099476 
L 617.831126 -60.182225 
L 615.518346 -59.264975 
L 613.466956 -58.347724 
L 611.6932 -57.430474 
L 610.203563 -56.513223 
L 608.992385 -55.595973 
L 608.041569 -54.678722 
L 607.322478 -53.761471 
L 606.799478 -52.844221 
L 606.434171 -51.92697 
L 606.189382 -51.00972 
L 606.032154 -50.092469 
L 605.935427 -49.175219 
L 605.878477 -48.257968 
z
" id="me701fe1639" style="stroke:#464646;stroke-width:3;"/>
    </defs>
    <g clip-path="url(#p9cc6c2ffc3)">
     <use style="fill:#4baba4;stroke:#464646;stroke-width:3;" x="0" xlink:href="#me701fe1639" y="288"/>
    </g>
   </g>
   <g id="PolyCollection_6">
    <defs>
     <path d="M 710.511683 -41.76 
L 710.363317 -41.76 
L 710.308451 -42.715385 
L 710.225048 -43.67077 
L 710.105091 -44.626154 
L 709.9403 -45.581539 
L 709.721074 -46.536924 
L 709.433704 -47.492309 
L 709.056113 -48.447694 
L 708.553647 -49.403078 
L 707.877502 -50.358463 
L 706.968557 -51.313848 
L 705.767985 -52.269233 
L 704.233275 -53.224617 
L 702.35521 -54.180002 
L 700.16946 -55.135387 
L 697.75713 -56.090772 
L 695.232028 -57.046157 
L 692.717468 -58.001541 
L 690.319868 -58.956926 
L 688.108041 -59.912311 
L 686.105033 -60.867696 
L 684.294324 -61.823081 
L 682.636595 -62.778465 
L 681.089674 -63.73385 
L 679.624272 -64.689235 
L 678.231188 -65.64462 
L 676.91971 -66.600005 
L 675.709811 -67.555389 
L 674.621535 -68.510774 
L 673.664531 -69.466159 
L 672.8305 -70.421544 
L 672.091574 -71.376929 
L 671.407334 -72.332313 
L 670.740704 -73.287698 
L 670.07846 -74.243083 
L 669.447892 -75.198468 
L 668.920556 -76.153852 
L 668.598652 -77.109237 
L 668.5875 -78.064622 
L 668.964328 -79.020007 
L 669.755067 -79.975392 
L 670.926513 -80.930776 
L 672.394144 -81.886161 
L 674.040587 -82.841546 
L 675.738488 -83.796931 
L 677.373275 -84.752316 
L 678.863124 -85.7077 
L 680.173416 -86.663085 
L 681.322 -87.61847 
L 682.372029 -88.573855 
L 683.41249 -89.52924 
L 684.531623 -90.484624 
L 685.792044 -91.440009 
L 687.215982 -92.395394 
L 688.784473 -93.350779 
L 690.448363 -94.306163 
L 692.1449 -95.261548 
L 693.813242 -96.216933 
L 695.404866 -97.172318 
L 696.88811 -98.127703 
L 698.248267 -99.083087 
L 699.484995 -100.038472 
L 700.608298 -100.993857 
L 701.633725 -101.949242 
L 702.577418 -102.904627 
L 703.451852 -103.860011 
L 704.263188 -104.815396 
L 705.010922 -105.770781 
L 705.689881 -106.726166 
L 706.293892 -107.681551 
L 706.819827 -108.636935 
L 707.270434 -109.59232 
L 707.65475 -110.547705 
L 707.985832 -111.50309 
L 708.276737 -112.458475 
L 708.536642 -113.413859 
L 708.768913 -114.369244 
L 708.972007 -115.324629 
L 709.142604 -116.280014 
L 709.27925 -117.235398 
L 709.384679 -118.190783 
L 709.465801 -119.146168 
L 709.531659 -120.101553 
L 709.590606 -121.056938 
L 709.648131 -122.012322 
L 709.706168 -122.967707 
L 709.763927 -123.923092 
L 709.819579 -124.878477 
L 709.871931 -125.833862 
L 709.921391 -126.789246 
L 709.969899 -127.744631 
L 710.019999 -128.700016 
L 710.073531 -129.655401 
L 710.130604 -130.610786 
L 710.18932 -131.56617 
L 710.24634 -132.521555 
L 710.298 -133.47694 
L 710.341428 -134.432325 
L 710.375237 -135.387709 
L 710.399603 -136.343094 
L 710.475397 -136.343094 
L 710.475397 -136.343094 
L 710.499763 -135.387709 
L 710.533572 -134.432325 
L 710.577 -133.47694 
L 710.62866 -132.521555 
L 710.68568 -131.56617 
L 710.744396 -130.610786 
L 710.801469 -129.655401 
L 710.855001 -128.700016 
L 710.905101 -127.744631 
L 710.953609 -126.789246 
L 711.003069 -125.833862 
L 711.055421 -124.878477 
L 711.111073 -123.923092 
L 711.168832 -122.967707 
L 711.226869 -122.012322 
L 711.284394 -121.056938 
L 711.343341 -120.101553 
L 711.409199 -119.146168 
L 711.490321 -118.190783 
L 711.59575 -117.235398 
L 711.732396 -116.280014 
L 711.902993 -115.324629 
L 712.106087 -114.369244 
L 712.338358 -113.413859 
L 712.598263 -112.458475 
L 712.889168 -111.50309 
L 713.22025 -110.547705 
L 713.604566 -109.59232 
L 714.055173 -108.636935 
L 714.581108 -107.681551 
L 715.185119 -106.726166 
L 715.864078 -105.770781 
L 716.611812 -104.815396 
L 717.423148 -103.860011 
L 718.297582 -102.904627 
L 719.241275 -101.949242 
L 720.266702 -100.993857 
L 721.390005 -100.038472 
L 722.626733 -99.083087 
L 723.98689 -98.127703 
L 725.470134 -97.172318 
L 727.061758 -96.216933 
L 728.7301 -95.261548 
L 730.426637 -94.306163 
L 732.090527 -93.350779 
L 733.659018 -92.395394 
L 735.082956 -91.440009 
L 736.343377 -90.484624 
L 737.46251 -89.52924 
L 738.502971 -88.573855 
L 739.553 -87.61847 
L 740.701584 -86.663085 
L 742.011876 -85.7077 
L 743.501725 -84.752316 
L 745.136512 -83.796931 
L 746.834413 -82.841546 
L 748.480856 -81.886161 
L 749.948487 -80.930776 
L 751.119933 -79.975392 
L 751.910672 -79.020007 
L 752.2875 -78.064622 
L 752.276348 -77.109237 
L 751.954444 -76.153852 
L 751.427108 -75.198468 
L 750.79654 -74.243083 
L 750.134296 -73.287698 
L 749.467666 -72.332313 
L 748.783426 -71.376929 
L 748.0445 -70.421544 
L 747.210469 -69.466159 
L 746.253465 -68.510774 
L 745.165189 -67.555389 
L 743.95529 -66.600005 
L 742.643812 -65.64462 
L 741.250728 -64.689235 
L 739.785326 -63.73385 
L 738.238405 -62.778465 
L 736.580676 -61.823081 
L 734.769967 -60.867696 
L 732.766959 -59.912311 
L 730.555132 -58.956926 
L 728.157532 -58.001541 
L 725.642972 -57.046157 
L 723.11787 -56.090772 
L 720.70554 -55.135387 
L 718.51979 -54.180002 
L 716.641725 -53.224617 
L 715.107015 -52.269233 
L 713.906443 -51.313848 
L 712.997498 -50.358463 
L 712.321353 -49.403078 
L 711.818887 -48.447694 
L 711.441296 -47.492309 
L 711.153926 -46.536924 
L 710.9347 -45.581539 
L 710.769909 -44.626154 
L 710.649952 -43.67077 
L 710.566549 -42.715385 
L 710.511683 -41.76 
z
" id="m9c2425a281" style="stroke:#464646;stroke-width:3;"/>
    </defs>
    <g clip-path="url(#p9cc6c2ffc3)">
     <use style="fill:#53accd;stroke:#464646;stroke-width:3;" x="0" xlink:href="#m9c2425a281" y="288"/>
    </g>
   </g>
   <g id="PolyCollection_7">
    <defs>
     <path d="M 815.138019 -48.696394 
L 814.986981 -48.696394 
L 814.920415 -49.634719 
L 814.806984 -50.573044 
L 814.622488 -51.51137 
L 814.335554 -52.449695 
L 813.908104 -53.38802 
L 813.29709 -54.326345 
L 812.457644 -55.26467 
L 811.347472 -56.202995 
L 809.931989 -57.141321 
L 808.189236 -58.079646 
L 806.113331 -59.017971 
L 803.715319 -59.956296 
L 801.021101 -60.894621 
L 798.067636 -61.832947 
L 794.900202 -62.771272 
L 791.57389 -63.709597 
L 788.160832 -64.647922 
L 784.760843 -65.586247 
L 781.509216 -66.524573 
L 778.573966 -67.462898 
L 776.137897 -68.401223 
L 774.367676 -69.339548 
L 773.379301 -70.277873 
L 773.2125 -71.216199 
L 773.823727 -72.154524 
L 775.099715 -73.092849 
L 776.885379 -74.031174 
L 779.015346 -74.969499 
L 781.339193 -75.907825 
L 783.735099 -76.84615 
L 786.112044 -77.784475 
L 788.404445 -78.7228 
L 790.564337 -79.661125 
L 792.555352 -80.599451 
L 794.350703 -81.537776 
L 795.93488 -82.476101 
L 797.306598 -83.414426 
L 798.479684 -84.352751 
L 799.479579 -85.291077 
L 800.335738 -86.229402 
L 801.07291 -87.167727 
L 801.705395 -88.106052 
L 802.237081 -89.044377 
L 802.667077 -89.982703 
L 802.99797 -90.921028 
L 803.242691 -91.859353 
L 803.427064 -92.797678 
L 803.587399 -93.736003 
L 803.764548 -94.674329 
L 803.996748 -95.612654 
L 804.313285 -96.550979 
L 804.730162 -97.489304 
L 805.248219 -98.427629 
L 805.853746 -99.365954 
L 806.521517 -100.30428 
L 807.219867 -101.242605 
L 807.91693 -102.18093 
L 808.586577 -103.119255 
L 809.21238 -104.05758 
L 809.788428 -104.995906 
L 810.316897 -105.934231 
L 810.803481 -106.872556 
L 811.252568 -107.810881 
L 811.664038 -108.749206 
L 812.032761 -109.687532 
L 812.350779 -110.625857 
L 812.611111 -111.564182 
L 812.811612 -112.502507 
L 812.957406 -113.440832 
L 813.061028 -114.379158 
L 813.140237 -115.317483 
L 813.214251 -116.255808 
L 813.299583 -117.194133 
L 813.406751 -118.132458 
L 813.538749 -119.070784 
L 813.691594 -120.009109 
L 813.856559 -120.947434 
L 814.023215 -121.885759 
L 814.182232 -122.824084 
L 814.327092 -123.76241 
L 814.454428 -124.700735 
L 814.563232 -125.63906 
L 814.653616 -126.577385 
L 814.725833 -127.51571 
L 814.780028 -128.454036 
L 814.816725 -129.392361 
L 814.837634 -130.330686 
L 814.846233 -131.269011 
L 814.84766 -132.207336 
L 814.847832 -133.145662 
L 814.852079 -134.083987 
L 814.863847 -135.022312 
L 814.883981 -135.960637 
L 814.91085 -136.898962 
L 814.9412 -137.837288 
L 814.971344 -138.775613 
L 814.998217 -139.713938 
L 815.019989 -140.652263 
L 815.036146 -141.590588 
L 815.088854 -141.590588 
L 815.088854 -141.590588 
L 815.105011 -140.652263 
L 815.126783 -139.713938 
L 815.153656 -138.775613 
L 815.1838 -137.837288 
L 815.21415 -136.898962 
L 815.241019 -135.960637 
L 815.261153 -135.022312 
L 815.272921 -134.083987 
L 815.277168 -133.145662 
L 815.27734 -132.207336 
L 815.278767 -131.269011 
L 815.287366 -130.330686 
L 815.308275 -129.392361 
L 815.344972 -128.454036 
L 815.399167 -127.51571 
L 815.471384 -126.577385 
L 815.561768 -125.63906 
L 815.670572 -124.700735 
L 815.797908 -123.76241 
L 815.942768 -122.824084 
L 816.101785 -121.885759 
L 816.268441 -120.947434 
L 816.433406 -120.009109 
L 816.586251 -119.070784 
L 816.718249 -118.132458 
L 816.825417 -117.194133 
L 816.910749 -116.255808 
L 816.984763 -115.317483 
L 817.063972 -114.379158 
L 817.167594 -113.440832 
L 817.313388 -112.502507 
L 817.513889 -111.564182 
L 817.774221 -110.625857 
L 818.092239 -109.687532 
L 818.460962 -108.749206 
L 818.872432 -107.810881 
L 819.321519 -106.872556 
L 819.808103 -105.934231 
L 820.336572 -104.995906 
L 820.91262 -104.05758 
L 821.538423 -103.119255 
L 822.20807 -102.18093 
L 822.905133 -101.242605 
L 823.603483 -100.30428 
L 824.271254 -99.365954 
L 824.876781 -98.427629 
L 825.394838 -97.489304 
L 825.811715 -96.550979 
L 826.128252 -95.612654 
L 826.360452 -94.674329 
L 826.537601 -93.736003 
L 826.697936 -92.797678 
L 826.882309 -91.859353 
L 827.12703 -90.921028 
L 827.457923 -89.982703 
L 827.887919 -89.044377 
L 828.419605 -88.106052 
L 829.05209 -87.167727 
L 829.789262 -86.229402 
L 830.645421 -85.291077 
L 831.645316 -84.352751 
L 832.818402 -83.414426 
L 834.19012 -82.476101 
L 835.774297 -81.537776 
L 837.569648 -80.599451 
L 839.560663 -79.661125 
L 841.720555 -78.7228 
L 844.012956 -77.784475 
L 846.389901 -76.84615 
L 848.785807 -75.907825 
L 851.109654 -74.969499 
L 853.239621 -74.031174 
L 855.025285 -73.092849 
L 856.301273 -72.154524 
L 856.9125 -71.216199 
L 856.745699 -70.277873 
L 855.757324 -69.339548 
L 853.987103 -68.401223 
L 851.551034 -67.462898 
L 848.615784 -66.524573 
L 845.364157 -65.586247 
L 841.964168 -64.647922 
L 838.55111 -63.709597 
L 835.224798 -62.771272 
L 832.057364 -61.832947 
L 829.103899 -60.894621 
L 826.409681 -59.956296 
L 824.011669 -59.017971 
L 821.935764 -58.079646 
L 820.193011 -57.141321 
L 818.777528 -56.202995 
L 817.667356 -55.26467 
L 816.82791 -54.326345 
L 816.216896 -53.38802 
L 815.789446 -52.449695 
L 815.502512 -51.51137 
L 815.318016 -50.573044 
L 815.204585 -49.634719 
L 815.138019 -48.696394 
z
" id="m38dcbe2107" style="stroke:#464646;stroke-width:3;"/>
    </defs>
    <g clip-path="url(#p9cc6c2ffc3)">
     <use style="fill:#b6a8eb;stroke:#464646;stroke-width:3;" x="0" xlink:href="#m38dcbe2107" y="288"/>
    </g>
   </g>
   <g id="PolyCollection_8">
    <defs>
     <path d="M 919.912488 -54.852462 
L 919.462512 -54.852462 
L 919.206137 -55.945524 
L 918.727231 -57.038586 
L 917.897634 -58.131648 
L 916.56296 -59.22471 
L 914.565433 -60.317772 
L 911.779685 -61.410834 
L 908.154575 -62.503896 
L 903.750194 -63.596958 
L 898.758985 -64.69002 
L 893.502926 -65.783082 
L 888.402962 -66.876144 
L 883.921671 -67.969206 
L 880.486793 -69.062268 
L 878.411946 -70.15533 
L 877.8375 -71.248392 
L 878.712098 -72.341454 
L 880.821085 -73.434517 
L 883.848524 -74.527579 
L 887.446786 -75.620641 
L 891.289839 -76.713703 
L 895.100401 -77.806765 
L 898.65656 -78.899827 
L 901.790874 -79.992889 
L 904.392403 -81.085951 
L 906.413747 -82.179013 
L 907.877073 -83.272075 
L 908.869779 -84.365137 
L 909.523624 -85.458199 
L 909.979685 -86.551261 
L 910.350733 -87.644323 
L 910.696728 -88.737385 
L 911.024296 -89.830447 
L 911.309315 -90.923509 
L 911.529821 -92.016571 
L 911.691537 -93.109633 
L 911.833388 -94.202695 
L 912.012022 -95.295757 
L 912.27591 -96.388819 
L 912.644291 -97.481881 
L 913.102072 -98.574943 
L 913.611718 -99.668005 
L 914.133571 -100.761067 
L 914.64251 -101.854129 
L 915.132654 -102.947191 
L 915.609892 -104.040253 
L 916.078971 -105.133315 
L 916.53385 -106.226377 
L 916.956672 -107.319439 
L 917.324852 -108.412501 
L 917.621339 -109.505563 
L 917.842239 -110.598625 
L 917.998355 -111.691687 
L 918.110806 -112.784749 
L 918.203488 -113.877811 
L 918.295899 -114.970873 
L 918.398788 -116.063935 
L 918.513413 -117.156997 
L 918.63369 -118.250059 
L 918.749943 -119.343121 
L 918.852862 -120.436183 
L 918.936493 -121.529245 
L 918.999396 -122.622307 
L 919.043745 -123.715369 
L 919.073115 -124.808431 
L 919.090472 -125.901493 
L 919.097741 -126.994555 
L 919.097112 -128.087617 
L 919.092818 -129.180679 
L 919.091584 -130.273741 
L 919.100993 -131.366803 
L 919.126631 -132.459865 
L 919.169917 -133.552927 
L 919.227937 -134.645989 
L 919.295117 -135.739051 
L 919.365411 -136.832113 
L 919.433743 -137.925175 
L 919.496371 -139.018237 
L 919.550681 -140.111299 
L 919.595026 -141.204362 
L 919.628791 -142.297424 
L 919.652418 -143.390486 
L 919.667149 -144.483548 
L 919.674464 -145.57661 
L 919.675468 -146.669672 
L 919.67052 -147.762734 
L 919.65934 -148.855796 
L 919.641609 -149.948858 
L 919.617905 -151.04192 
L 919.590526 -152.134982 
L 919.563698 -153.228044 
L 919.542779 -154.321106 
L 919.532615 -155.414168 
L 919.535743 -156.50723 
L 919.551373 -157.600292 
L 919.57571 -158.693354 
L 919.603454 -159.786416 
L 919.629652 -160.879478 
L 919.651048 -161.97254 
L 919.666472 -163.065602 
L 919.708528 -163.065602 
L 919.708528 -163.065602 
L 919.723952 -161.97254 
L 919.745348 -160.879478 
L 919.771546 -159.786416 
L 919.79929 -158.693354 
L 919.823627 -157.600292 
L 919.839257 -156.50723 
L 919.842385 -155.414168 
L 919.832221 -154.321106 
L 919.811302 -153.228044 
L 919.784474 -152.134982 
L 919.757095 -151.04192 
L 919.733391 -149.948858 
L 919.71566 -148.855796 
L 919.70448 -147.762734 
L 919.699532 -146.669672 
L 919.700536 -145.57661 
L 919.707851 -144.483548 
L 919.722582 -143.390486 
L 919.746209 -142.297424 
L 919.779974 -141.204362 
L 919.824319 -140.111299 
L 919.878629 -139.018237 
L 919.941257 -137.925175 
L 920.009589 -136.832113 
L 920.079883 -135.739051 
L 920.147063 -134.645989 
L 920.205083 -133.552927 
L 920.248369 -132.459865 
L 920.274007 -131.366803 
L 920.283416 -130.273741 
L 920.282182 -129.180679 
L 920.277888 -128.087617 
L 920.277259 -126.994555 
L 920.284528 -125.901493 
L 920.301885 -124.808431 
L 920.331255 -123.715369 
L 920.375604 -122.622307 
L 920.438507 -121.529245 
L 920.522138 -120.436183 
L 920.625057 -119.343121 
L 920.74131 -118.250059 
L 920.861587 -117.156997 
L 920.976212 -116.063935 
L 921.079101 -114.970873 
L 921.171512 -113.877811 
L 921.264194 -112.784749 
L 921.376645 -111.691687 
L 921.532761 -110.598625 
L 921.753661 -109.505563 
L 922.050148 -108.412501 
L 922.418328 -107.319439 
L 922.84115 -106.226377 
L 923.296029 -105.133315 
L 923.765108 -104.040253 
L 924.242346 -102.947191 
L 924.73249 -101.854129 
L 925.241429 -100.761067 
L 925.763282 -99.668005 
L 926.272928 -98.574943 
L 926.730709 -97.481881 
L 927.09909 -96.388819 
L 927.362978 -95.295757 
L 927.541612 -94.202695 
L 927.683463 -93.109633 
L 927.845179 -92.016571 
L 928.065685 -90.923509 
L 928.350704 -89.830447 
L 928.678272 -88.737385 
L 929.024267 -87.644323 
L 929.395315 -86.551261 
L 929.851376 -85.458199 
L 930.505221 -84.365137 
L 931.497927 -83.272075 
L 932.961253 -82.179013 
L 934.982597 -81.085951 
L 937.584126 -79.992889 
L 940.71844 -78.899827 
L 944.274599 -77.806765 
L 948.085161 -76.713703 
L 951.928214 -75.620641 
L 955.526476 -74.527579 
L 958.553915 -73.434517 
L 960.662902 -72.341454 
L 961.5375 -71.248392 
L 960.963054 -70.15533 
L 958.888207 -69.062268 
L 955.453329 -67.969206 
L 950.972038 -66.876144 
L 945.872074 -65.783082 
L 940.616015 -64.69002 
L 935.624806 -63.596958 
L 931.220425 -62.503896 
L 927.595315 -61.410834 
L 924.809567 -60.317772 
L 922.81204 -59.22471 
L 921.477366 -58.131648 
L 920.647769 -57.038586 
L 920.168863 -55.945524 
L 919.912488 -54.852462 
z
" id="mf0d318480f" style="stroke:#464646;stroke-width:3;"/>
    </defs>
    <g clip-path="url(#p9cc6c2ffc3)">
     <use style="fill:#e78cd7;stroke:#464646;stroke-width:3;" x="0" xlink:href="#mf0d318480f" y="288"/>
    </g>
   </g>
   <g id="line2d_9">
    <path clip-path="url(#p9cc6c2ffc3)" d="M 187.3125 223.634209 
L 187.3125 187.954574 
" style="fill:none;stroke:#464646;stroke-linecap:round;stroke-width:3;"/>
   </g>
   <g id="line2d_10">
    <path clip-path="url(#p9cc6c2ffc3)" d="M 187.3125 217.093809 
L 187.3125 205.408642 
" style="fill:none;stroke:#464646;stroke-linecap:round;stroke-width:9;"/>
   </g>
   <g id="line2d_11">
    <path clip-path="url(#p9cc6c2ffc3)" d="M 291.9375 234.82308 
L 291.9375 181.240763 
" style="fill:none;stroke:#464646;stroke-linecap:round;stroke-width:3;"/>
   </g>
   <g id="line2d_12">
    <path clip-path="url(#p9cc6c2ffc3)" d="M 291.9375 218.627523 
L 291.9375 203.632107 
" style="fill:none;stroke:#464646;stroke-linecap:round;stroke-width:9;"/>
   </g>
   <g id="line2d_13">
    <path clip-path="url(#p9cc6c2ffc3)" d="M 396.5625 229.848462 
L 396.5625 186.199962 
" style="fill:none;stroke:#464646;stroke-linecap:round;stroke-width:3;"/>
   </g>
   <g id="line2d_14">
    <path clip-path="url(#p9cc6c2ffc3)" d="M 396.5625 218.329361 
L 396.5625 205.161055 
" style="fill:none;stroke:#464646;stroke-linecap:round;stroke-width:9;"/>
   </g>
   <g id="line2d_15">
    <path clip-path="url(#p9cc6c2ffc3)" d="M 501.1875 224.150125 
L 501.1875 188.94449 
" style="fill:none;stroke:#464646;stroke-linecap:round;stroke-width:3;"/>
   </g>
   <g id="line2d_16">
    <path clip-path="url(#p9cc6c2ffc3)" d="M 501.1875 217.459264 
L 501.1875 206.037532 
" style="fill:none;stroke:#464646;stroke-linecap:round;stroke-width:9;"/>
   </g>
   <g id="line2d_17">
    <path clip-path="url(#p9cc6c2ffc3)" d="M 605.8125 232.384553 
L 605.8125 179.896461 
" style="fill:none;stroke:#464646;stroke-linecap:round;stroke-width:3;"/>
   </g>
   <g id="line2d_18">
    <path clip-path="url(#p9cc6c2ffc3)" d="M 605.8125 218.63316 
L 605.8125 202.98689 
" style="fill:none;stroke:#464646;stroke-linecap:round;stroke-width:9;"/>
   </g>
   <g id="line2d_19">
    <path clip-path="url(#p9cc6c2ffc3)" d="M 710.4375 238.882521 
L 710.4375 175.383947 
" style="fill:none;stroke:#464646;stroke-linecap:round;stroke-width:3;"/>
   </g>
   <g id="line2d_20">
    <path clip-path="url(#p9cc6c2ffc3)" d="M 710.4375 219.596665 
L 710.4375 201.204855 
" style="fill:none;stroke:#464646;stroke-linecap:round;stroke-width:9;"/>
   </g>
   <g id="line2d_21">
    <path clip-path="url(#p9cc6c2ffc3)" d="M 815.0625 231.946127 
L 815.0625 178.84156 
" style="fill:none;stroke:#464646;stroke-linecap:round;stroke-width:3;"/>
   </g>
   <g id="line2d_22">
    <path clip-path="url(#p9cc6c2ffc3)" d="M 815.0625 218.824755 
L 815.0625 202.748154 
" style="fill:none;stroke:#464646;stroke-linecap:round;stroke-width:9;"/>
   </g>
   <g id="line2d_23">
    <path clip-path="url(#p9cc6c2ffc3)" d="M 919.6875 225.790059 
L 919.6875 185.626836 
" style="fill:none;stroke:#464646;stroke-linecap:round;stroke-width:3;"/>
   </g>
   <g id="line2d_24">
    <path clip-path="url(#p9cc6c2ffc3)" d="M 919.6875 218.204591 
L 919.6875 205.136263 
" style="fill:none;stroke:#464646;stroke-linecap:round;stroke-width:9;"/>
   </g>
   <g id="patch_3">
    <path d="M 135 256.32 
L 135 34.56 
" style="fill:none;"/>
   </g>
   <g id="patch_4">
    <path d="M 972 256.32 
L 972 34.56 
" style="fill:none;"/>
   </g>
   <g id="patch_5">
    <path d="M 135 256.32 
L 972 256.32 
" style="fill:none;"/>
   </g>
   <g id="patch_6">
    <path d="M 135 34.56 
L 972 34.56 
" style="fill:none;"/>
   </g>
   <g id="PathCollection_1">
    <defs>
     <path d="M 0 3 
C 0.795609 3 1.55874 2.683901 2.12132 2.12132 
C 2.683901 1.55874 3 0.795609 3 0 
C 3 -0.795609 2.683901 -1.55874 2.12132 -2.12132 
C 1.55874 -2.683901 0.795609 -3 0 -3 
C -0.795609 -3 -1.55874 -2.683901 -2.12132 -2.12132 
C -2.683901 -1.55874 -3 -0.795609 -3 0 
C -3 0.795609 -2.683901 1.55874 -2.12132 2.12132 
C -1.55874 2.683901 -0.795609 3 0 3 
z
" id="m07735a3b81" style="stroke:#464646;stroke-width:0.3;"/>
    </defs>
    <g clip-path="url(#p9cc6c2ffc3)">
     <use style="fill:#ffffff;stroke:#464646;stroke-width:0.3;" x="187.3125" xlink:href="#m07735a3b81" y="212.412808"/>
    </g>
   </g>
   <g id="PathCollection_2">
    <g clip-path="url(#p9cc6c2ffc3)">
     <use style="fill:#ffffff;stroke:#464646;stroke-width:0.3;" x="291.9375" xlink:href="#m07735a3b81" y="211.647191"/>
    </g>
   </g>
   <g id="PathCollection_3">
    <g clip-path="url(#p9cc6c2ffc3)">
     <use style="fill:#ffffff;stroke:#464646;stroke-width:0.3;" x="396.5625" xlink:href="#m07735a3b81" y="212.679018"/>
    </g>
   </g>
   <g id="PathCollection_4">
    <g clip-path="url(#p9cc6c2ffc3)">
     <use style="fill:#ffffff;stroke:#464646;stroke-width:0.3;" x="501.1875" xlink:href="#m07735a3b81" y="212.816404"/>
    </g>
   </g>
   <g id="PathCollection_5">
    <g clip-path="url(#p9cc6c2ffc3)">
     <use style="fill:#ffffff;stroke:#464646;stroke-width:0.3;" x="605.8125" xlink:href="#m07735a3b81" y="213.327504"/>
    </g>
   </g>
   <g id="PathCollection_6">
    <g clip-path="url(#p9cc6c2ffc3)">
     <use style="fill:#ffffff;stroke:#464646;stroke-width:0.3;" x="710.4375" xlink:href="#m07735a3b81" y="210.379473"/>
    </g>
   </g>
   <g id="PathCollection_7">
    <g clip-path="url(#p9cc6c2ffc3)">
     <use style="fill:#ffffff;stroke:#464646;stroke-width:0.3;" x="815.0625" xlink:href="#m07735a3b81" y="213.548951"/>
    </g>
   </g>
   <g id="PathCollection_8">
    <g clip-path="url(#p9cc6c2ffc3)">
     <use style="fill:#ffffff;stroke:#464646;stroke-width:0.3;" x="919.6875" xlink:href="#m07735a3b81" y="214.270535"/>
    </g>
   </g>
  </g>
  <g id="text_17">
   <!-- Violin Plot of all Continuous Variables -->
   <defs>
    <path d="M 28.171875 0 
L 0.4375 71.578125 
L 10.6875 71.578125 
L 29.296875 19.578125 
Q 31.546875 13.328125 33.0625 7.859375 
Q 34.71875 13.71875 36.921875 19.578125 
L 56.25 71.578125 
L 65.921875 71.578125 
L 37.890625 0 
z
" id="ArialMT-86"/>
    <path d="M 7.71875 0 
L 7.71875 71.578125 
L 34.71875 71.578125 
Q 41.84375 71.578125 45.609375 70.90625 
Q 50.875 70.015625 54.4375 67.546875 
Q 58.015625 65.09375 60.1875 60.640625 
Q 62.359375 56.203125 62.359375 50.875 
Q 62.359375 41.75 56.546875 35.421875 
Q 50.734375 29.109375 35.546875 29.109375 
L 17.1875 29.109375 
L 17.1875 0 
z
M 17.1875 37.546875 
L 35.6875 37.546875 
Q 44.875 37.546875 48.734375 40.96875 
Q 52.59375 44.390625 52.59375 50.59375 
Q 52.59375 55.078125 50.3125 58.265625 
Q 48.046875 61.46875 44.34375 62.5 
Q 41.9375 63.140625 35.5 63.140625 
L 17.1875 63.140625 
z
" id="ArialMT-80"/>
    <path d="M 58.796875 25.09375 
L 68.265625 22.703125 
Q 65.28125 11.03125 57.546875 4.90625 
Q 49.8125 -1.21875 38.625 -1.21875 
Q 27.046875 -1.21875 19.796875 3.484375 
Q 12.546875 8.203125 8.765625 17.140625 
Q 4.984375 26.078125 4.984375 36.328125 
Q 4.984375 47.515625 9.25 55.828125 
Q 13.53125 64.15625 21.40625 68.46875 
Q 29.296875 72.796875 38.765625 72.796875 
Q 49.515625 72.796875 56.828125 67.328125 
Q 64.15625 61.859375 67.046875 51.953125 
L 57.71875 49.75 
Q 55.21875 57.5625 50.484375 61.125 
Q 45.75 64.703125 38.578125 64.703125 
Q 30.328125 64.703125 24.78125 60.734375 
Q 19.234375 56.78125 16.984375 50.109375 
Q 14.75 43.453125 14.75 36.375 
Q 14.75 27.25 17.40625 20.4375 
Q 20.0625 13.625 25.671875 10.25 
Q 31.296875 6.890625 37.84375 6.890625 
Q 45.796875 6.890625 51.3125 11.46875 
Q 56.84375 16.0625 58.796875 25.09375 
z
" id="ArialMT-67"/>
    <path d="M 14.703125 0 
L 6.546875 0 
L 6.546875 71.578125 
L 15.328125 71.578125 
L 15.328125 46.046875 
Q 20.90625 53.03125 29.546875 53.03125 
Q 34.328125 53.03125 38.59375 51.09375 
Q 42.875 49.171875 45.625 45.671875 
Q 48.390625 42.1875 49.953125 37.25 
Q 51.515625 32.328125 51.515625 26.703125 
Q 51.515625 13.375 44.921875 6.09375 
Q 38.328125 -1.171875 29.109375 -1.171875 
Q 19.921875 -1.171875 14.703125 6.5 
z
M 14.59375 26.3125 
Q 14.59375 17 17.140625 12.84375 
Q 21.296875 6.0625 28.375 6.0625 
Q 34.125 6.0625 38.328125 11.0625 
Q 42.53125 16.0625 42.53125 25.984375 
Q 42.53125 36.140625 38.5 40.96875 
Q 34.46875 45.796875 28.765625 45.796875 
Q 23 45.796875 18.796875 40.796875 
Q 14.59375 35.796875 14.59375 26.3125 
z
" id="ArialMT-98"/>
   </defs>
   <g style="fill:#262626;" transform="translate(373.814062 -8.724375)scale(0.2 -0.2)">
    <use xlink:href="#ArialMT-86"/>
    <use x="66.683594" xlink:href="#ArialMT-105"/>
    <use x="88.900391" xlink:href="#ArialMT-111"/>
    <use x="144.515625" xlink:href="#ArialMT-108"/>
    <use x="166.732422" xlink:href="#ArialMT-105"/>
    <use x="188.949219" xlink:href="#ArialMT-110"/>
    <use x="244.564453" xlink:href="#ArialMT-32"/>
    <use x="272.347656" xlink:href="#ArialMT-80"/>
    <use x="339.046875" xlink:href="#ArialMT-108"/>
    <use x="361.263672" xlink:href="#ArialMT-111"/>
    <use x="416.878906" xlink:href="#ArialMT-116"/>
    <use x="444.662109" xlink:href="#ArialMT-32"/>
    <use x="472.445312" xlink:href="#ArialMT-111"/>
    <use x="528.060547" xlink:href="#ArialMT-102"/>
    <use x="555.84375" xlink:href="#ArialMT-32"/>
    <use x="583.626953" xlink:href="#ArialMT-97"/>
    <use x="639.242188" xlink:href="#ArialMT-108"/>
    <use x="661.458984" xlink:href="#ArialMT-108"/>
    <use x="683.675781" xlink:href="#ArialMT-32"/>
    <use x="711.458984" xlink:href="#ArialMT-67"/>
    <use x="783.675781" xlink:href="#ArialMT-111"/>
    <use x="839.291016" xlink:href="#ArialMT-110"/>
    <use x="894.90625" xlink:href="#ArialMT-116"/>
    <use x="922.689453" xlink:href="#ArialMT-105"/>
    <use x="944.90625" xlink:href="#ArialMT-110"/>
    <use x="1000.521484" xlink:href="#ArialMT-117"/>
    <use x="1056.136719" xlink:href="#ArialMT-111"/>
    <use x="1111.751953" xlink:href="#ArialMT-117"/>
    <use x="1167.367188" xlink:href="#ArialMT-115"/>
    <use x="1217.367188" xlink:href="#ArialMT-32"/>
    <use x="1245.150391" xlink:href="#ArialMT-86"/>
    <use x="1311.740234" xlink:href="#ArialMT-97"/>
    <use x="1367.355469" xlink:href="#ArialMT-114"/>
    <use x="1400.65625" xlink:href="#ArialMT-105"/>
    <use x="1422.873047" xlink:href="#ArialMT-97"/>
    <use x="1478.488281" xlink:href="#ArialMT-98"/>
    <use x="1534.103516" xlink:href="#ArialMT-108"/>
    <use x="1556.320312" xlink:href="#ArialMT-101"/>
    <use x="1611.935547" xlink:href="#ArialMT-115"/>
   </g>
  </g>
 </g>
 <defs>
  <clipPath id="p9cc6c2ffc3">
   <rect height="221.76" width="837" x="135" y="34.56"/>
  </clipPath>
 </defs>
</svg>
