<?xml version="1.0" encoding="utf-8" standalone="no"?>
<!DOCTYPE svg PUBLIC "-//W3C//DTD SVG 1.1//EN"
  "http://www.w3.org/Graphics/SVG/1.1/DTD/svg11.dtd">
<!-- Created with matplotlib (https://matplotlib.org/) -->
<svg height="288pt" version="1.1" viewBox="0 0 1080 288" width="1080pt" xmlns="http://www.w3.org/2000/svg" xmlns:xlink="http://www.w3.org/1999/xlink">
 <defs>
  <style type="text/css">
*{stroke-linecap:butt;stroke-linejoin:round;}
  </style>
 </defs>
 <g id="figure_1">
  <g id="patch_1">
   <path d="M 0 288 
L 1080 288 
L 1080 0 
L 0 0 
z
" style="fill:#ffffff;"/>
  </g>
  <g id="axes_1">
   <g id="patch_2">
    <path d="M 135 256.32 
L 972 256.32 
L 972 34.56 
L 135 34.56 
z
" style="fill:#eaeaf2;"/>
   </g>
   <g id="matplotlib.axis_1">
    <g id="xtick_1">
     <g id="text_1">
      <!-- symmetry_mean -->
      <defs>
       <path d="M 3.078125 15.484375 
L 11.765625 16.84375 
Q 12.5 11.625 15.84375 8.84375 
Q 19.1875 6.0625 25.203125 6.0625 
Q 31.25 6.0625 34.171875 8.515625 
Q 37.109375 10.984375 37.109375 14.3125 
Q 37.109375 17.28125 34.515625 19 
Q 32.71875 20.171875 25.53125 21.96875 
Q 15.875 24.421875 12.140625 26.203125 
Q 8.40625 27.984375 6.46875 31.125 
Q 4.546875 34.28125 4.546875 38.09375 
Q 4.546875 41.546875 6.125 44.5 
Q 7.71875 47.46875 10.453125 49.421875 
Q 12.5 50.921875 16.03125 51.96875 
Q 19.578125 53.03125 23.640625 53.03125 
Q 29.734375 53.03125 34.34375 51.265625 
Q 38.96875 49.515625 41.15625 46.5 
Q 43.359375 43.5 44.1875 38.484375 
L 35.59375 37.3125 
Q 35.015625 41.3125 32.203125 43.546875 
Q 29.390625 45.796875 24.265625 45.796875 
Q 18.21875 45.796875 15.625 43.796875 
Q 13.03125 41.796875 13.03125 39.109375 
Q 13.03125 37.40625 14.109375 36.03125 
Q 15.1875 34.625 17.484375 33.6875 
Q 18.796875 33.203125 25.25 31.453125 
Q 34.578125 28.953125 38.25 27.359375 
Q 41.9375 25.78125 44.03125 22.75 
Q 46.140625 19.734375 46.140625 15.234375 
Q 46.140625 10.84375 43.578125 6.953125 
Q 41.015625 3.078125 36.171875 0.953125 
Q 31.34375 -1.171875 25.25 -1.171875 
Q 15.140625 -1.171875 9.84375 3.03125 
Q 4.546875 7.234375 3.078125 15.484375 
z
" id="ArialMT-115"/>
       <path d="M 6.203125 -19.96875 
L 5.21875 -11.71875 
Q 8.109375 -12.5 10.25 -12.5 
Q 13.1875 -12.5 14.9375 -11.515625 
Q 16.703125 -10.546875 17.828125 -8.796875 
Q 18.65625 -7.46875 20.515625 -2.25 
Q 20.75 -1.515625 21.296875 -0.09375 
L 1.609375 51.859375 
L 11.078125 51.859375 
L 21.875 21.828125 
Q 23.96875 16.109375 25.640625 9.8125 
Q 27.15625 15.875 29.25 21.625 
L 40.328125 51.859375 
L 49.125 51.859375 
L 29.390625 -0.875 
Q 26.21875 -9.421875 24.46875 -12.640625 
Q 22.125 -17 19.09375 -19.015625 
Q 16.0625 -21.046875 11.859375 -21.046875 
Q 9.328125 -21.046875 6.203125 -19.96875 
z
" id="ArialMT-121"/>
       <path d="M 6.59375 0 
L 6.59375 51.859375 
L 14.453125 51.859375 
L 14.453125 44.578125 
Q 16.890625 48.390625 20.9375 50.703125 
Q 25 53.03125 30.171875 53.03125 
Q 35.9375 53.03125 39.625 50.640625 
Q 43.3125 48.25 44.828125 43.953125 
Q 50.984375 53.03125 60.84375 53.03125 
Q 68.5625 53.03125 72.703125 48.75 
Q 76.859375 44.484375 76.859375 35.59375 
L 76.859375 0 
L 68.109375 0 
L 68.109375 32.671875 
Q 68.109375 37.9375 67.25 40.25 
Q 66.40625 42.578125 64.15625 43.984375 
Q 61.921875 45.40625 58.890625 45.40625 
Q 53.421875 45.40625 49.796875 41.765625 
Q 46.1875 38.140625 46.1875 30.125 
L 46.1875 0 
L 37.40625 0 
L 37.40625 33.6875 
Q 37.40625 39.546875 35.25 42.46875 
Q 33.109375 45.40625 28.21875 45.40625 
Q 24.515625 45.40625 21.359375 43.453125 
Q 18.21875 41.5 16.796875 37.734375 
Q 15.375 33.984375 15.375 26.90625 
L 15.375 0 
z
" id="ArialMT-109"/>
       <path d="M 42.09375 16.703125 
L 51.171875 15.578125 
Q 49.03125 7.625 43.21875 3.21875 
Q 37.40625 -1.171875 28.375 -1.171875 
Q 17 -1.171875 10.328125 5.828125 
Q 3.65625 12.84375 3.65625 25.484375 
Q 3.65625 38.578125 10.390625 45.796875 
Q 17.140625 53.03125 27.875 53.03125 
Q 38.28125 53.03125 44.875 45.953125 
Q 51.46875 38.875 51.46875 26.03125 
Q 51.46875 25.25 51.421875 23.6875 
L 12.75 23.6875 
Q 13.234375 15.140625 17.578125 10.59375 
Q 21.921875 6.0625 28.421875 6.0625 
Q 33.25 6.0625 36.671875 8.59375 
Q 40.09375 11.140625 42.09375 16.703125 
z
M 13.234375 30.90625 
L 42.1875 30.90625 
Q 41.609375 37.453125 38.875 40.71875 
Q 34.671875 45.796875 27.984375 45.796875 
Q 21.921875 45.796875 17.796875 41.75 
Q 13.671875 37.703125 13.234375 30.90625 
z
" id="ArialMT-101"/>
       <path d="M 25.78125 7.859375 
L 27.046875 0.09375 
Q 23.34375 -0.6875 20.40625 -0.6875 
Q 15.625 -0.6875 12.984375 0.828125 
Q 10.359375 2.34375 9.28125 4.8125 
Q 8.203125 7.28125 8.203125 15.1875 
L 8.203125 45.015625 
L 1.765625 45.015625 
L 1.765625 51.859375 
L 8.203125 51.859375 
L 8.203125 64.703125 
L 16.9375 69.96875 
L 16.9375 51.859375 
L 25.78125 51.859375 
L 25.78125 45.015625 
L 16.9375 45.015625 
L 16.9375 14.703125 
Q 16.9375 10.9375 17.40625 9.859375 
Q 17.875 8.796875 18.921875 8.15625 
Q 19.96875 7.515625 21.921875 7.515625 
Q 23.390625 7.515625 25.78125 7.859375 
z
" id="ArialMT-116"/>
       <path d="M 6.5 0 
L 6.5 51.859375 
L 14.40625 51.859375 
L 14.40625 44 
Q 17.4375 49.515625 20 51.265625 
Q 22.5625 53.03125 25.640625 53.03125 
Q 30.078125 53.03125 34.671875 50.203125 
L 31.640625 42.046875 
Q 28.421875 43.953125 25.203125 43.953125 
Q 22.3125 43.953125 20.015625 42.21875 
Q 17.71875 40.484375 16.75 37.40625 
Q 15.28125 32.71875 15.28125 27.15625 
L 15.28125 0 
z
" id="ArialMT-114"/>
       <path d="M -1.515625 -19.875 
L -1.515625 -13.53125 
L 56.734375 -13.53125 
L 56.734375 -19.875 
z
" id="ArialMT-95"/>
       <path d="M 40.4375 6.390625 
Q 35.546875 2.25 31.03125 0.53125 
Q 26.515625 -1.171875 21.34375 -1.171875 
Q 12.796875 -1.171875 8.203125 3 
Q 3.609375 7.171875 3.609375 13.671875 
Q 3.609375 17.484375 5.34375 20.625 
Q 7.078125 23.78125 9.890625 25.6875 
Q 12.703125 27.59375 16.21875 28.5625 
Q 18.796875 29.25 24.03125 29.890625 
Q 34.671875 31.15625 39.703125 32.90625 
Q 39.75 34.71875 39.75 35.203125 
Q 39.75 40.578125 37.25 42.78125 
Q 33.890625 45.75 27.25 45.75 
Q 21.046875 45.75 18.09375 43.578125 
Q 15.140625 41.40625 13.71875 35.890625 
L 5.125 37.0625 
Q 6.296875 42.578125 8.984375 45.96875 
Q 11.671875 49.359375 16.75 51.1875 
Q 21.828125 53.03125 28.515625 53.03125 
Q 35.15625 53.03125 39.296875 51.46875 
Q 43.453125 49.90625 45.40625 47.53125 
Q 47.359375 45.171875 48.140625 41.546875 
Q 48.578125 39.3125 48.578125 33.453125 
L 48.578125 21.734375 
Q 48.578125 9.46875 49.140625 6.21875 
Q 49.703125 2.984375 51.375 0 
L 42.1875 0 
Q 40.828125 2.734375 40.4375 6.390625 
z
M 39.703125 26.03125 
Q 34.90625 24.078125 25.34375 22.703125 
Q 19.921875 21.921875 17.671875 20.9375 
Q 15.4375 19.96875 14.203125 18.09375 
Q 12.984375 16.21875 12.984375 13.921875 
Q 12.984375 10.40625 15.640625 8.0625 
Q 18.3125 5.71875 23.4375 5.71875 
Q 28.515625 5.71875 32.46875 7.9375 
Q 36.421875 10.15625 38.28125 14.015625 
Q 39.703125 17 39.703125 22.796875 
z
" id="ArialMT-97"/>
       <path d="M 6.59375 0 
L 6.59375 51.859375 
L 14.5 51.859375 
L 14.5 44.484375 
Q 20.21875 53.03125 31 53.03125 
Q 35.6875 53.03125 39.625 51.34375 
Q 43.5625 49.65625 45.515625 46.921875 
Q 47.46875 44.1875 48.25 40.4375 
Q 48.734375 37.984375 48.734375 31.890625 
L 48.734375 0 
L 39.9375 0 
L 39.9375 31.546875 
Q 39.9375 36.921875 38.90625 39.578125 
Q 37.890625 42.234375 35.28125 43.8125 
Q 32.671875 45.40625 29.15625 45.40625 
Q 23.53125 45.40625 19.453125 41.84375 
Q 15.375 38.28125 15.375 28.328125 
L 15.375 0 
z
" id="ArialMT-110"/>
      </defs>
      <g style="fill:#262626;" transform="translate(150.361719 270.360625)scale(0.1 -0.1)">
       <use xlink:href="#ArialMT-115"/>
       <use x="50" xlink:href="#ArialMT-121"/>
       <use x="100" xlink:href="#ArialMT-109"/>
       <use x="183.300781" xlink:href="#ArialMT-109"/>
       <use x="266.601562" xlink:href="#ArialMT-101"/>
       <use x="322.216797" xlink:href="#ArialMT-116"/>
       <use x="350" xlink:href="#ArialMT-114"/>
       <use x="383.300781" xlink:href="#ArialMT-121"/>
       <use x="433.300781" xlink:href="#ArialMT-95"/>
       <use x="488.916016" xlink:href="#ArialMT-109"/>
       <use x="572.216797" xlink:href="#ArialMT-101"/>
       <use x="627.832031" xlink:href="#ArialMT-97"/>
       <use x="683.447266" xlink:href="#ArialMT-110"/>
      </g>
     </g>
    </g>
    <g id="xtick_2">
     <g id="text_2">
      <!-- fractal_dimension_mean -->
      <defs>
       <path d="M 8.6875 0 
L 8.6875 45.015625 
L 0.921875 45.015625 
L 0.921875 51.859375 
L 8.6875 51.859375 
L 8.6875 57.375 
Q 8.6875 62.59375 9.625 65.140625 
Q 10.890625 68.5625 14.078125 70.671875 
Q 17.28125 72.796875 23.046875 72.796875 
Q 26.765625 72.796875 31.25 71.921875 
L 29.9375 64.265625 
Q 27.203125 64.75 24.75 64.75 
Q 20.75 64.75 19.09375 63.03125 
Q 17.4375 61.328125 17.4375 56.640625 
L 17.4375 51.859375 
L 27.546875 51.859375 
L 27.546875 45.015625 
L 17.4375 45.015625 
L 17.4375 0 
z
" id="ArialMT-102"/>
       <path d="M 40.4375 19 
L 49.078125 17.875 
Q 47.65625 8.9375 41.8125 3.875 
Q 35.984375 -1.171875 27.484375 -1.171875 
Q 16.84375 -1.171875 10.375 5.78125 
Q 3.90625 12.75 3.90625 25.734375 
Q 3.90625 34.125 6.6875 40.421875 
Q 9.46875 46.734375 15.15625 49.875 
Q 20.84375 53.03125 27.546875 53.03125 
Q 35.984375 53.03125 41.359375 48.75 
Q 46.734375 44.484375 48.25 36.625 
L 39.703125 35.296875 
Q 38.484375 40.53125 35.375 43.15625 
Q 32.28125 45.796875 27.875 45.796875 
Q 21.234375 45.796875 17.078125 41.03125 
Q 12.9375 36.28125 12.9375 25.984375 
Q 12.9375 15.53125 16.9375 10.796875 
Q 20.953125 6.0625 27.390625 6.0625 
Q 32.5625 6.0625 36.03125 9.234375 
Q 39.5 12.40625 40.4375 19 
z
" id="ArialMT-99"/>
       <path d="M 6.390625 0 
L 6.390625 71.578125 
L 15.1875 71.578125 
L 15.1875 0 
z
" id="ArialMT-108"/>
       <path d="M 40.234375 0 
L 40.234375 6.546875 
Q 35.296875 -1.171875 25.734375 -1.171875 
Q 19.53125 -1.171875 14.328125 2.25 
Q 9.125 5.671875 6.265625 11.796875 
Q 3.421875 17.921875 3.421875 25.875 
Q 3.421875 33.640625 6 39.96875 
Q 8.59375 46.296875 13.765625 49.65625 
Q 18.953125 53.03125 25.34375 53.03125 
Q 30.03125 53.03125 33.6875 51.046875 
Q 37.359375 49.078125 39.65625 45.90625 
L 39.65625 71.578125 
L 48.390625 71.578125 
L 48.390625 0 
z
M 12.453125 25.875 
Q 12.453125 15.921875 16.640625 10.984375 
Q 20.84375 6.0625 26.5625 6.0625 
Q 32.328125 6.0625 36.34375 10.765625 
Q 40.375 15.484375 40.375 25.140625 
Q 40.375 35.796875 36.265625 40.765625 
Q 32.171875 45.75 26.171875 45.75 
Q 20.3125 45.75 16.375 40.96875 
Q 12.453125 36.1875 12.453125 25.875 
z
" id="ArialMT-100"/>
       <path d="M 6.640625 61.46875 
L 6.640625 71.578125 
L 15.4375 71.578125 
L 15.4375 61.46875 
z
M 6.640625 0 
L 6.640625 51.859375 
L 15.4375 51.859375 
L 15.4375 0 
z
" id="ArialMT-105"/>
       <path d="M 3.328125 25.921875 
Q 3.328125 40.328125 11.328125 47.265625 
Q 18.015625 53.03125 27.640625 53.03125 
Q 38.328125 53.03125 45.109375 46.015625 
Q 51.90625 39.015625 51.90625 26.65625 
Q 51.90625 16.65625 48.90625 10.90625 
Q 45.90625 5.171875 40.15625 2 
Q 34.421875 -1.171875 27.640625 -1.171875 
Q 16.75 -1.171875 10.03125 5.8125 
Q 3.328125 12.796875 3.328125 25.921875 
z
M 12.359375 25.921875 
Q 12.359375 15.96875 16.703125 11.015625 
Q 21.046875 6.0625 27.640625 6.0625 
Q 34.1875 6.0625 38.53125 11.03125 
Q 42.875 16.015625 42.875 26.21875 
Q 42.875 35.84375 38.5 40.796875 
Q 34.125 45.75 27.640625 45.75 
Q 21.046875 45.75 16.703125 40.8125 
Q 12.359375 35.890625 12.359375 25.921875 
z
" id="ArialMT-111"/>
      </defs>
      <g style="fill:#262626;" transform="translate(237.466406 270.599688)scale(0.1 -0.1)">
       <use xlink:href="#ArialMT-102"/>
       <use x="27.783203" xlink:href="#ArialMT-114"/>
       <use x="61.083984" xlink:href="#ArialMT-97"/>
       <use x="116.699219" xlink:href="#ArialMT-99"/>
       <use x="166.699219" xlink:href="#ArialMT-116"/>
       <use x="194.482422" xlink:href="#ArialMT-97"/>
       <use x="250.097656" xlink:href="#ArialMT-108"/>
       <use x="272.314453" xlink:href="#ArialMT-95"/>
       <use x="327.929688" xlink:href="#ArialMT-100"/>
       <use x="383.544922" xlink:href="#ArialMT-105"/>
       <use x="405.761719" xlink:href="#ArialMT-109"/>
       <use x="489.0625" xlink:href="#ArialMT-101"/>
       <use x="544.677734" xlink:href="#ArialMT-110"/>
       <use x="600.292969" xlink:href="#ArialMT-115"/>
       <use x="650.292969" xlink:href="#ArialMT-105"/>
       <use x="672.509766" xlink:href="#ArialMT-111"/>
       <use x="728.125" xlink:href="#ArialMT-110"/>
       <use x="783.740234" xlink:href="#ArialMT-95"/>
       <use x="839.355469" xlink:href="#ArialMT-109"/>
       <use x="922.65625" xlink:href="#ArialMT-101"/>
       <use x="978.271484" xlink:href="#ArialMT-97"/>
       <use x="1033.886719" xlink:href="#ArialMT-110"/>
      </g>
     </g>
    </g>
    <g id="xtick_3">
     <g id="text_3">
      <!-- radius_se -->
      <defs>
       <path d="M 40.578125 0 
L 40.578125 7.625 
Q 34.515625 -1.171875 24.125 -1.171875 
Q 19.53125 -1.171875 15.546875 0.578125 
Q 11.578125 2.34375 9.640625 5 
Q 7.71875 7.671875 6.9375 11.53125 
Q 6.390625 14.109375 6.390625 19.734375 
L 6.390625 51.859375 
L 15.1875 51.859375 
L 15.1875 23.09375 
Q 15.1875 16.21875 15.71875 13.8125 
Q 16.546875 10.359375 19.234375 8.375 
Q 21.921875 6.390625 25.875 6.390625 
Q 29.828125 6.390625 33.296875 8.421875 
Q 36.765625 10.453125 38.203125 13.9375 
Q 39.65625 17.4375 39.65625 24.078125 
L 39.65625 51.859375 
L 48.4375 51.859375 
L 48.4375 0 
z
" id="ArialMT-117"/>
      </defs>
      <g style="fill:#262626;" transform="translate(374.884375 270.477813)scale(0.1 -0.1)">
       <use xlink:href="#ArialMT-114"/>
       <use x="33.300781" xlink:href="#ArialMT-97"/>
       <use x="88.916016" xlink:href="#ArialMT-100"/>
       <use x="144.53125" xlink:href="#ArialMT-105"/>
       <use x="166.748047" xlink:href="#ArialMT-117"/>
       <use x="222.363281" xlink:href="#ArialMT-115"/>
       <use x="272.363281" xlink:href="#ArialMT-95"/>
       <use x="327.978516" xlink:href="#ArialMT-115"/>
       <use x="377.978516" xlink:href="#ArialMT-101"/>
      </g>
     </g>
    </g>
    <g id="xtick_4">
     <g id="text_4">
      <!-- texture_se -->
      <defs>
       <path d="M 0.734375 0 
L 19.671875 26.953125 
L 2.15625 51.859375 
L 13.140625 51.859375 
L 21.09375 39.703125 
Q 23.34375 36.234375 24.703125 33.890625 
Q 26.859375 37.109375 28.65625 39.59375 
L 37.40625 51.859375 
L 47.90625 51.859375 
L 29.984375 27.4375 
L 49.265625 0 
L 38.484375 0 
L 27.828125 16.109375 
L 25 20.453125 
L 11.375 0 
z
" id="ArialMT-120"/>
      </defs>
      <g style="fill:#262626;" transform="translate(477.842188 270.477813)scale(0.1 -0.1)">
       <use xlink:href="#ArialMT-116"/>
       <use x="27.783203" xlink:href="#ArialMT-101"/>
       <use x="83.398438" xlink:href="#ArialMT-120"/>
       <use x="133.398438" xlink:href="#ArialMT-116"/>
       <use x="161.181641" xlink:href="#ArialMT-117"/>
       <use x="216.796875" xlink:href="#ArialMT-114"/>
       <use x="250.097656" xlink:href="#ArialMT-101"/>
       <use x="305.712891" xlink:href="#ArialMT-95"/>
       <use x="361.328125" xlink:href="#ArialMT-115"/>
       <use x="411.328125" xlink:href="#ArialMT-101"/>
      </g>
     </g>
    </g>
    <g id="xtick_5">
     <g id="text_5">
      <!-- perimeter_se -->
      <defs>
       <path d="M 6.59375 -19.875 
L 6.59375 51.859375 
L 14.59375 51.859375 
L 14.59375 45.125 
Q 17.4375 49.078125 21 51.046875 
Q 24.5625 53.03125 29.640625 53.03125 
Q 36.28125 53.03125 41.359375 49.609375 
Q 46.4375 46.1875 49.015625 39.953125 
Q 51.609375 33.734375 51.609375 26.3125 
Q 51.609375 18.359375 48.75 11.984375 
Q 45.90625 5.609375 40.453125 2.21875 
Q 35.015625 -1.171875 29 -1.171875 
Q 24.609375 -1.171875 21.109375 0.6875 
Q 17.625 2.546875 15.375 5.375 
L 15.375 -19.875 
z
M 14.546875 25.640625 
Q 14.546875 15.625 18.59375 10.84375 
Q 22.65625 6.0625 28.421875 6.0625 
Q 34.28125 6.0625 38.453125 11.015625 
Q 42.625 15.96875 42.625 26.375 
Q 42.625 36.28125 38.546875 41.203125 
Q 34.46875 46.140625 28.8125 46.140625 
Q 23.1875 46.140625 18.859375 40.890625 
Q 14.546875 35.640625 14.546875 25.640625 
z
" id="ArialMT-112"/>
      </defs>
      <g style="fill:#262626;" transform="translate(576.635156 270.477813)scale(0.1 -0.1)">
       <use xlink:href="#ArialMT-112"/>
       <use x="55.615234" xlink:href="#ArialMT-101"/>
       <use x="111.230469" xlink:href="#ArialMT-114"/>
       <use x="144.53125" xlink:href="#ArialMT-105"/>
       <use x="166.748047" xlink:href="#ArialMT-109"/>
       <use x="250.048828" xlink:href="#ArialMT-101"/>
       <use x="305.664062" xlink:href="#ArialMT-116"/>
       <use x="333.447266" xlink:href="#ArialMT-101"/>
       <use x="389.0625" xlink:href="#ArialMT-114"/>
       <use x="422.363281" xlink:href="#ArialMT-95"/>
       <use x="477.978516" xlink:href="#ArialMT-115"/>
       <use x="527.978516" xlink:href="#ArialMT-101"/>
      </g>
     </g>
    </g>
    <g id="xtick_6">
     <g id="text_6">
      <!-- area_se -->
      <g style="fill:#262626;" transform="translate(692.370312 270.477813)scale(0.1 -0.1)">
       <use xlink:href="#ArialMT-97"/>
       <use x="55.615234" xlink:href="#ArialMT-114"/>
       <use x="88.916016" xlink:href="#ArialMT-101"/>
       <use x="144.53125" xlink:href="#ArialMT-97"/>
       <use x="200.146484" xlink:href="#ArialMT-95"/>
       <use x="255.761719" xlink:href="#ArialMT-115"/>
       <use x="305.761719" xlink:href="#ArialMT-101"/>
      </g>
     </g>
    </g>
    <g id="xtick_7">
     <g id="text_7">
      <!-- smoothness_se -->
      <defs>
       <path d="M 6.59375 0 
L 6.59375 71.578125 
L 15.375 71.578125 
L 15.375 45.90625 
Q 21.53125 53.03125 30.90625 53.03125 
Q 36.671875 53.03125 40.921875 50.75 
Q 45.171875 48.484375 47 44.484375 
Q 48.828125 40.484375 48.828125 32.859375 
L 48.828125 0 
L 40.046875 0 
L 40.046875 32.859375 
Q 40.046875 39.453125 37.1875 42.453125 
Q 34.328125 45.453125 29.109375 45.453125 
Q 25.203125 45.453125 21.75 43.421875 
Q 18.3125 41.40625 16.84375 37.9375 
Q 15.375 34.46875 15.375 28.375 
L 15.375 0 
z
" id="ArialMT-104"/>
      </defs>
      <g style="fill:#262626;" transform="translate(780.045313 270.477813)scale(0.1 -0.1)">
       <use xlink:href="#ArialMT-115"/>
       <use x="50" xlink:href="#ArialMT-109"/>
       <use x="133.300781" xlink:href="#ArialMT-111"/>
       <use x="188.916016" xlink:href="#ArialMT-111"/>
       <use x="244.53125" xlink:href="#ArialMT-116"/>
       <use x="272.314453" xlink:href="#ArialMT-104"/>
       <use x="327.929688" xlink:href="#ArialMT-110"/>
       <use x="383.544922" xlink:href="#ArialMT-101"/>
       <use x="439.160156" xlink:href="#ArialMT-115"/>
       <use x="489.160156" xlink:href="#ArialMT-115"/>
       <use x="539.160156" xlink:href="#ArialMT-95"/>
       <use x="594.775391" xlink:href="#ArialMT-115"/>
       <use x="644.775391" xlink:href="#ArialMT-101"/>
      </g>
     </g>
    </g>
    <g id="xtick_8">
     <g id="text_8">
      <!-- compactness_se -->
      <g style="fill:#262626;" transform="translate(882.170313 270.477813)scale(0.1 -0.1)">
       <use xlink:href="#ArialMT-99"/>
       <use x="50" xlink:href="#ArialMT-111"/>
       <use x="105.615234" xlink:href="#ArialMT-109"/>
       <use x="188.916016" xlink:href="#ArialMT-112"/>
       <use x="244.53125" xlink:href="#ArialMT-97"/>
       <use x="300.146484" xlink:href="#ArialMT-99"/>
       <use x="350.146484" xlink:href="#ArialMT-116"/>
       <use x="377.929688" xlink:href="#ArialMT-110"/>
       <use x="433.544922" xlink:href="#ArialMT-101"/>
       <use x="489.160156" xlink:href="#ArialMT-115"/>
       <use x="539.160156" xlink:href="#ArialMT-115"/>
       <use x="589.160156" xlink:href="#ArialMT-95"/>
       <use x="644.775391" xlink:href="#ArialMT-115"/>
       <use x="694.775391" xlink:href="#ArialMT-101"/>
      </g>
     </g>
    </g>
   </g>
   <g id="matplotlib.axis_2">
    <g id="ytick_1">
     <g id="line2d_1">
      <path clip-path="url(#p827fe13087)" d="M 135 255.657187 
L 972 255.657187 
" style="fill:none;stroke:#ffffff;stroke-linecap:round;"/>
     </g>
     <g id="text_9">
      <!-- −4 -->
      <defs>
       <path d="M 52.828125 31.203125 
L 5.5625 31.203125 
L 5.5625 39.40625 
L 52.828125 39.40625 
z
" id="ArialMT-8722"/>
       <path d="M 32.328125 0 
L 32.328125 17.140625 
L 1.265625 17.140625 
L 1.265625 25.203125 
L 33.9375 71.578125 
L 41.109375 71.578125 
L 41.109375 25.203125 
L 50.78125 25.203125 
L 50.78125 17.140625 
L 41.109375 17.140625 
L 41.109375 0 
z
M 32.328125 25.203125 
L 32.328125 57.46875 
L 9.90625 25.203125 
z
" id="ArialMT-52"/>
      </defs>
      <g style="fill:#262626;" transform="translate(116.598438 259.236094)scale(0.1 -0.1)">
       <use xlink:href="#ArialMT-8722"/>
       <use x="58.398438" xlink:href="#ArialMT-52"/>
      </g>
     </g>
    </g>
    <g id="ytick_2">
     <g id="line2d_2">
      <path clip-path="url(#p827fe13087)" d="M 135 228.594136 
L 972 228.594136 
" style="fill:none;stroke:#ffffff;stroke-linecap:round;"/>
     </g>
     <g id="text_10">
      <!-- −2 -->
      <defs>
       <path d="M 50.34375 8.453125 
L 50.34375 0 
L 3.03125 0 
Q 2.9375 3.171875 4.046875 6.109375 
Q 5.859375 10.9375 9.828125 15.625 
Q 13.8125 20.3125 21.34375 26.46875 
Q 33.015625 36.03125 37.109375 41.625 
Q 41.21875 47.21875 41.21875 52.203125 
Q 41.21875 57.421875 37.46875 61 
Q 33.734375 64.59375 27.734375 64.59375 
Q 21.390625 64.59375 17.578125 60.78125 
Q 13.765625 56.984375 13.71875 50.25 
L 4.6875 51.171875 
Q 5.609375 61.28125 11.65625 66.578125 
Q 17.71875 71.875 27.9375 71.875 
Q 38.234375 71.875 44.234375 66.15625 
Q 50.25 60.453125 50.25 52 
Q 50.25 47.703125 48.484375 43.546875 
Q 46.734375 39.40625 42.65625 34.8125 
Q 38.578125 30.21875 29.109375 22.21875 
Q 21.1875 15.578125 18.9375 13.203125 
Q 16.703125 10.84375 15.234375 8.453125 
z
" id="ArialMT-50"/>
      </defs>
      <g style="fill:#262626;" transform="translate(116.598438 232.173043)scale(0.1 -0.1)">
       <use xlink:href="#ArialMT-8722"/>
       <use x="58.398438" xlink:href="#ArialMT-50"/>
      </g>
     </g>
    </g>
    <g id="ytick_3">
     <g id="line2d_3">
      <path clip-path="url(#p827fe13087)" d="M 135 201.531086 
L 972 201.531086 
" style="fill:none;stroke:#ffffff;stroke-linecap:round;"/>
     </g>
     <g id="text_11">
      <!-- 0 -->
      <defs>
       <path d="M 4.15625 35.296875 
Q 4.15625 48 6.765625 55.734375 
Q 9.375 63.484375 14.515625 67.671875 
Q 19.671875 71.875 27.484375 71.875 
Q 33.25 71.875 37.59375 69.546875 
Q 41.9375 67.234375 44.765625 62.859375 
Q 47.609375 58.5 49.21875 52.21875 
Q 50.828125 45.953125 50.828125 35.296875 
Q 50.828125 22.703125 48.234375 14.96875 
Q 45.65625 7.234375 40.5 3 
Q 35.359375 -1.21875 27.484375 -1.21875 
Q 17.140625 -1.21875 11.234375 6.203125 
Q 4.15625 15.140625 4.15625 35.296875 
z
M 13.1875 35.296875 
Q 13.1875 17.671875 17.3125 11.828125 
Q 21.4375 6 27.484375 6 
Q 33.546875 6 37.671875 11.859375 
Q 41.796875 17.71875 41.796875 35.296875 
Q 41.796875 52.984375 37.671875 58.78125 
Q 33.546875 64.59375 27.390625 64.59375 
Q 21.34375 64.59375 17.71875 59.46875 
Q 13.1875 52.9375 13.1875 35.296875 
z
" id="ArialMT-48"/>
      </defs>
      <g style="fill:#262626;" transform="translate(122.439063 205.109992)scale(0.1 -0.1)">
       <use xlink:href="#ArialMT-48"/>
      </g>
     </g>
    </g>
    <g id="ytick_4">
     <g id="line2d_4">
      <path clip-path="url(#p827fe13087)" d="M 135 174.468035 
L 972 174.468035 
" style="fill:none;stroke:#ffffff;stroke-linecap:round;"/>
     </g>
     <g id="text_12">
      <!-- 2 -->
      <g style="fill:#262626;" transform="translate(122.439063 178.046941)scale(0.1 -0.1)">
       <use xlink:href="#ArialMT-50"/>
      </g>
     </g>
    </g>
    <g id="ytick_5">
     <g id="line2d_5">
      <path clip-path="url(#p827fe13087)" d="M 135 147.404984 
L 972 147.404984 
" style="fill:none;stroke:#ffffff;stroke-linecap:round;"/>
     </g>
     <g id="text_13">
      <!-- 4 -->
      <g style="fill:#262626;" transform="translate(122.439063 150.98389)scale(0.1 -0.1)">
       <use xlink:href="#ArialMT-52"/>
      </g>
     </g>
    </g>
    <g id="ytick_6">
     <g id="line2d_6">
      <path clip-path="url(#p827fe13087)" d="M 135 120.341933 
L 972 120.341933 
" style="fill:none;stroke:#ffffff;stroke-linecap:round;"/>
     </g>
     <g id="text_14">
      <!-- 6 -->
      <defs>
       <path d="M 49.75 54.046875 
L 41.015625 53.375 
Q 39.84375 58.546875 37.703125 60.890625 
Q 34.125 64.65625 28.90625 64.65625 
Q 24.703125 64.65625 21.53125 62.3125 
Q 17.390625 59.28125 14.984375 53.46875 
Q 12.59375 47.65625 12.5 36.921875 
Q 15.671875 41.75 20.265625 44.09375 
Q 24.859375 46.4375 29.890625 46.4375 
Q 38.671875 46.4375 44.84375 39.96875 
Q 51.03125 33.5 51.03125 23.25 
Q 51.03125 16.5 48.125 10.71875 
Q 45.21875 4.9375 40.140625 1.859375 
Q 35.0625 -1.21875 28.609375 -1.21875 
Q 17.625 -1.21875 10.6875 6.859375 
Q 3.765625 14.9375 3.765625 33.5 
Q 3.765625 54.25 11.421875 63.671875 
Q 18.109375 71.875 29.4375 71.875 
Q 37.890625 71.875 43.28125 67.140625 
Q 48.6875 62.40625 49.75 54.046875 
z
M 13.875 23.1875 
Q 13.875 18.65625 15.796875 14.5 
Q 17.71875 10.359375 21.1875 8.171875 
Q 24.65625 6 28.46875 6 
Q 34.03125 6 38.03125 10.484375 
Q 42.046875 14.984375 42.046875 22.703125 
Q 42.046875 30.125 38.078125 34.390625 
Q 34.125 38.671875 28.125 38.671875 
Q 22.171875 38.671875 18.015625 34.390625 
Q 13.875 30.125 13.875 23.1875 
z
" id="ArialMT-54"/>
      </defs>
      <g style="fill:#262626;" transform="translate(122.439063 123.920839)scale(0.1 -0.1)">
       <use xlink:href="#ArialMT-54"/>
      </g>
     </g>
    </g>
    <g id="ytick_7">
     <g id="line2d_7">
      <path clip-path="url(#p827fe13087)" d="M 135 93.278882 
L 972 93.278882 
" style="fill:none;stroke:#ffffff;stroke-linecap:round;"/>
     </g>
     <g id="text_15">
      <!-- 8 -->
      <defs>
       <path d="M 17.671875 38.8125 
Q 12.203125 40.828125 9.5625 44.53125 
Q 6.9375 48.25 6.9375 53.421875 
Q 6.9375 61.234375 12.546875 66.546875 
Q 18.171875 71.875 27.484375 71.875 
Q 36.859375 71.875 42.578125 66.421875 
Q 48.296875 60.984375 48.296875 53.171875 
Q 48.296875 48.1875 45.671875 44.5 
Q 43.0625 40.828125 37.75 38.8125 
Q 44.34375 36.671875 47.78125 31.875 
Q 51.21875 27.09375 51.21875 20.453125 
Q 51.21875 11.28125 44.71875 5.03125 
Q 38.234375 -1.21875 27.640625 -1.21875 
Q 17.046875 -1.21875 10.546875 5.046875 
Q 4.046875 11.328125 4.046875 20.703125 
Q 4.046875 27.6875 7.59375 32.390625 
Q 11.140625 37.109375 17.671875 38.8125 
z
M 15.921875 53.71875 
Q 15.921875 48.640625 19.1875 45.40625 
Q 22.46875 42.1875 27.6875 42.1875 
Q 32.765625 42.1875 36.015625 45.375 
Q 39.265625 48.578125 39.265625 53.21875 
Q 39.265625 58.0625 35.90625 61.359375 
Q 32.5625 64.65625 27.59375 64.65625 
Q 22.5625 64.65625 19.234375 61.421875 
Q 15.921875 58.203125 15.921875 53.71875 
z
M 13.09375 20.65625 
Q 13.09375 16.890625 14.875 13.375 
Q 16.65625 9.859375 20.171875 7.921875 
Q 23.6875 6 27.734375 6 
Q 34.03125 6 38.125 10.046875 
Q 42.234375 14.109375 42.234375 20.359375 
Q 42.234375 26.703125 38.015625 30.859375 
Q 33.796875 35.015625 27.4375 35.015625 
Q 21.234375 35.015625 17.15625 30.90625 
Q 13.09375 26.8125 13.09375 20.65625 
z
" id="ArialMT-56"/>
      </defs>
      <g style="fill:#262626;" transform="translate(122.439063 96.857788)scale(0.1 -0.1)">
       <use xlink:href="#ArialMT-56"/>
      </g>
     </g>
    </g>
    <g id="ytick_8">
     <g id="line2d_8">
      <path clip-path="url(#p827fe13087)" d="M 135 66.215831 
L 972 66.215831 
" style="fill:none;stroke:#ffffff;stroke-linecap:round;"/>
     </g>
     <g id="text_16">
      <!-- 10 -->
      <defs>
       <path d="M 37.25 0 
L 28.46875 0 
L 28.46875 56 
Q 25.296875 52.984375 20.140625 49.953125 
Q 14.984375 46.921875 10.890625 45.40625 
L 10.890625 53.90625 
Q 18.265625 57.375 23.78125 62.296875 
Q 29.296875 67.234375 31.59375 71.875 
L 37.25 71.875 
z
" id="ArialMT-49"/>
      </defs>
      <g style="fill:#262626;" transform="translate(116.878125 69.794737)scale(0.1 -0.1)">
       <use xlink:href="#ArialMT-49"/>
       <use x="55.615234" xlink:href="#ArialMT-48"/>
      </g>
     </g>
    </g>
    <g id="ytick_9">
     <g id="line2d_9">
      <path clip-path="url(#p827fe13087)" d="M 135 39.15278 
L 972 39.15278 
" style="fill:none;stroke:#ffffff;stroke-linecap:round;"/>
     </g>
     <g id="text_17">
      <!-- 12 -->
      <g style="fill:#262626;" transform="translate(116.878125 42.731686)scale(0.1 -0.1)">
       <use xlink:href="#ArialMT-49"/>
       <use x="55.615234" xlink:href="#ArialMT-50"/>
      </g>
     </g>
    </g>
   </g>
   <g id="PolyCollection_1">
    <defs>
     <path d="M 187.348575 -41.76 
L 187.276425 -41.76 
L 187.248505 -42.900915 
L 187.207614 -44.041829 
L 187.152709 -45.182744 
L 187.084191 -46.323659 
L 187.002803 -47.464573 
L 186.907672 -48.605488 
L 186.794674 -49.746403 
L 186.656457 -50.887317 
L 186.484176 -52.028232 
L 186.269101 -53.169147 
L 186.001415 -54.310061 
L 185.66525 -55.450976 
L 185.232599 -56.591891 
L 184.661531 -57.732805 
L 183.903047 -58.87372 
L 182.915521 -60.014635 
L 181.679329 -61.155549 
L 180.20207 -62.296464 
L 178.509576 -63.437379 
L 176.627199 -64.578294 
L 174.563151 -65.719208 
L 172.305182 -66.860123 
L 169.833642 -68.001038 
L 167.144038 -69.141952 
L 164.267401 -70.282867 
L 161.2793 -71.423782 
L 158.294512 -72.564696 
L 155.449531 -73.705611 
L 152.87767 -74.846526 
L 150.683134 -75.98744 
L 148.921736 -77.128355 
L 147.59494 -78.26927 
L 146.659043 -79.410184 
L 146.044695 -80.551099 
L 145.678227 -81.692014 
L 145.497868 -82.832928 
L 145.4625 -83.973843 
L 145.554429 -85.114758 
L 145.779194 -86.255672 
L 146.165254 -87.396587 
L 146.764291 -88.537502 
L 147.648576 -89.678416 
L 148.898144 -90.819331 
L 150.572936 -91.960246 
L 152.675949 -93.10116 
L 155.126094 -94.242075 
L 157.762136 -95.38299 
L 160.385333 -96.523904 
L 162.825149 -97.664819 
L 164.995836 -98.805734 
L 166.914686 -99.946648 
L 168.674026 -101.087563 
L 170.384478 -102.228478 
L 172.119922 -103.369393 
L 173.888637 -104.510307 
L 175.637195 -105.651222 
L 177.277171 -106.792137 
L 178.718765 -107.933051 
L 179.899064 -109.073966 
L 180.79917 -110.214881 
L 181.44822 -111.355795 
L 181.913581 -112.49671 
L 182.278806 -113.637625 
L 182.615794 -114.778539 
L 182.96241 -115.919454 
L 183.316337 -117.060369 
L 183.648397 -118.201283 
L 183.927661 -119.342198 
L 184.143851 -120.483113 
L 184.314811 -121.624027 
L 184.476667 -122.764942 
L 184.664704 -123.905857 
L 184.897184 -125.046771 
L 185.170361 -126.187686 
L 185.464819 -127.328601 
L 185.756949 -128.469515 
L 186.028267 -129.61043 
L 186.268738 -130.751345 
L 186.474803 -131.892259 
L 186.645465 -133.033174 
L 186.779699 -134.174089 
L 186.876558 -135.315003 
L 186.937168 -136.455918 
L 186.966587 -137.596833 
L 186.973745 -138.737747 
L 186.969114 -139.878662 
L 186.961495 -141.019577 
L 186.956015 -142.160492 
L 186.95455 -143.301406 
L 186.957955 -144.442321 
L 186.968098 -145.583236 
L 186.987996 -146.72415 
L 187.020014 -147.865065 
L 187.06366 -149.00598 
L 187.114813 -150.146894 
L 187.166983 -151.287809 
L 187.213764 -152.428724 
L 187.25095 -153.569638 
L 187.277321 -154.710553 
L 187.347679 -154.710553 
L 187.347679 -154.710553 
L 187.37405 -153.569638 
L 187.411236 -152.428724 
L 187.458017 -151.287809 
L 187.510187 -150.146894 
L 187.56134 -149.00598 
L 187.604986 -147.865065 
L 187.637004 -146.72415 
L 187.656902 -145.583236 
L 187.667045 -144.442321 
L 187.67045 -143.301406 
L 187.668985 -142.160492 
L 187.663505 -141.019577 
L 187.655886 -139.878662 
L 187.651255 -138.737747 
L 187.658413 -137.596833 
L 187.687832 -136.455918 
L 187.748442 -135.315003 
L 187.845301 -134.174089 
L 187.979535 -133.033174 
L 188.150197 -131.892259 
L 188.356262 -130.751345 
L 188.596733 -129.61043 
L 188.868051 -128.469515 
L 189.160181 -127.328601 
L 189.454639 -126.187686 
L 189.727816 -125.046771 
L 189.960296 -123.905857 
L 190.148333 -122.764942 
L 190.310189 -121.624027 
L 190.481149 -120.483113 
L 190.697339 -119.342198 
L 190.976603 -118.201283 
L 191.308663 -117.060369 
L 191.66259 -115.919454 
L 192.009206 -114.778539 
L 192.346194 -113.637625 
L 192.711419 -112.49671 
L 193.17678 -111.355795 
L 193.82583 -110.214881 
L 194.725936 -109.073966 
L 195.906235 -107.933051 
L 197.347829 -106.792137 
L 198.987805 -105.651222 
L 200.736363 -104.510307 
L 202.505078 -103.369393 
L 204.240522 -102.228478 
L 205.950974 -101.087563 
L 207.710314 -99.946648 
L 209.629164 -98.805734 
L 211.799851 -97.664819 
L 214.239667 -96.523904 
L 216.862864 -95.38299 
L 219.498906 -94.242075 
L 221.949051 -93.10116 
L 224.052064 -91.960246 
L 225.726856 -90.819331 
L 226.976424 -89.678416 
L 227.860709 -88.537502 
L 228.459746 -87.396587 
L 228.845806 -86.255672 
L 229.070571 -85.114758 
L 229.1625 -83.973843 
L 229.127132 -82.832928 
L 228.946773 -81.692014 
L 228.580305 -80.551099 
L 227.965957 -79.410184 
L 227.03006 -78.26927 
L 225.703264 -77.128355 
L 223.941866 -75.98744 
L 221.74733 -74.846526 
L 219.175469 -73.705611 
L 216.330488 -72.564696 
L 213.3457 -71.423782 
L 210.357599 -70.282867 
L 207.480962 -69.141952 
L 204.791358 -68.001038 
L 202.319818 -66.860123 
L 200.061849 -65.719208 
L 197.997801 -64.578294 
L 196.115424 -63.437379 
L 194.42293 -62.296464 
L 192.945671 -61.155549 
L 191.709479 -60.014635 
L 190.721953 -58.87372 
L 189.963469 -57.732805 
L 189.392401 -56.591891 
L 188.95975 -55.450976 
L 188.623585 -54.310061 
L 188.355899 -53.169147 
L 188.140824 -52.028232 
L 187.968543 -50.887317 
L 187.830326 -49.746403 
L 187.717328 -48.605488 
L 187.622197 -47.464573 
L 187.540809 -46.323659 
L 187.472291 -45.182744 
L 187.417386 -44.041829 
L 187.376495 -42.900915 
L 187.348575 -41.76 
z
" id="me6be1f91d5" style="stroke:#464646;stroke-width:3;"/>
    </defs>
    <g clip-path="url(#p827fe13087)">
     <use style="fill:#ea96a3;stroke:#464646;stroke-width:3;" x="0" xlink:href="#me6be1f91d5" y="288"/>
    </g>
   </g>
   <g id="PolyCollection_2">
    <defs>
     <path d="M 292.07885 -54.255549 
L 291.79615 -54.255549 
L 291.674289 -55.328444 
L 291.47724 -56.401339 
L 291.178359 -57.474235 
L 290.750116 -58.54713 
L 290.165338 -59.620026 
L 289.396574 -60.692921 
L 288.413699 -61.765816 
L 287.181383 -62.838712 
L 285.658937 -63.911607 
L 283.804672 -64.984503 
L 281.585579 -66.057398 
L 278.99136 -67.130293 
L 276.049914 -68.203189 
L 272.839243 -69.276084 
L 269.489097 -70.348979 
L 266.16647 -71.421875 
L 263.044337 -72.49477 
L 260.2618 -73.567666 
L 257.891374 -74.640561 
L 255.929265 -75.713456 
L 254.314978 -76.786352 
L 252.972008 -77.859247 
L 251.850715 -78.932143 
L 250.954299 -80.005038 
L 250.338383 -81.077933 
L 250.0875 -82.150829 
L 250.280574 -83.223724 
L 250.959521 -84.29662 
L 252.111576 -85.369515 
L 253.669809 -86.44241 
L 255.529704 -87.515306 
L 257.574346 -88.588201 
L 259.698391 -89.661097 
L 261.822714 -90.733992 
L 263.897051 -91.806887 
L 265.893961 -92.879783 
L 267.800563 -93.952678 
L 269.6128 -95.025573 
L 271.332425 -96.098469 
L 272.963701 -97.171364 
L 274.507858 -98.24426 
L 275.95745 -99.317155 
L 277.295559 -100.39005 
L 278.502979 -101.462946 
L 279.570835 -102.535841 
L 280.511011 -103.608737 
L 281.356656 -104.681632 
L 282.150577 -105.754527 
L 282.926942 -106.827423 
L 283.696451 -107.900318 
L 284.443578 -108.973214 
L 285.137559 -110.046109 
L 285.750789 -111.119004 
L 286.274233 -112.1919 
L 286.721766 -113.264795 
L 287.122281 -114.33769 
L 287.50538 -115.410586 
L 287.889158 -116.483481 
L 288.276109 -117.556377 
L 288.657545 -118.629272 
L 289.022211 -119.702167 
L 289.363373 -120.775063 
L 289.680922 -121.847958 
L 289.978689 -122.920854 
L 290.25985 -123.993749 
L 290.523625 -125.066644 
L 290.764861 -126.13954 
L 290.976119 -127.212435 
L 291.150693 -128.285331 
L 291.285072 -129.358226 
L 291.380077 -130.431121 
L 291.440656 -131.504017 
L 291.474687 -132.576912 
L 291.491265 -133.649808 
L 291.498906 -134.722703 
L 291.504058 -135.795598 
L 291.510168 -136.868494 
L 291.517418 -137.941389 
L 291.523167 -139.014284 
L 291.523054 -140.08718 
L 291.512573 -141.160075 
L 291.488723 -142.232971 
L 291.451257 -143.305866 
L 291.403199 -144.378761 
L 291.350559 -145.451657 
L 291.301415 -146.524552 
L 291.264566 -147.597448 
L 291.247935 -148.670343 
L 291.256984 -149.743238 
L 291.293494 -150.816134 
L 291.355088 -151.889029 
L 291.435672 -152.961925 
L 291.526704 -154.03482 
L 291.618936 -155.107715 
L 291.704157 -156.180611 
L 291.776535 -157.253506 
L 291.833231 -158.326401 
L 291.874247 -159.399297 
L 291.901654 -160.472192 
L 291.973346 -160.472192 
L 291.973346 -160.472192 
L 292.000753 -159.399297 
L 292.041769 -158.326401 
L 292.098465 -157.253506 
L 292.170843 -156.180611 
L 292.256064 -155.107715 
L 292.348296 -154.03482 
L 292.439328 -152.961925 
L 292.519912 -151.889029 
L 292.581506 -150.816134 
L 292.618016 -149.743238 
L 292.627065 -148.670343 
L 292.610434 -147.597448 
L 292.573585 -146.524552 
L 292.524441 -145.451657 
L 292.471801 -144.378761 
L 292.423743 -143.305866 
L 292.386277 -142.232971 
L 292.362427 -141.160075 
L 292.351946 -140.08718 
L 292.351833 -139.014284 
L 292.357582 -137.941389 
L 292.364832 -136.868494 
L 292.370942 -135.795598 
L 292.376094 -134.722703 
L 292.383735 -133.649808 
L 292.400313 -132.576912 
L 292.434344 -131.504017 
L 292.494923 -130.431121 
L 292.589928 -129.358226 
L 292.724307 -128.285331 
L 292.898881 -127.212435 
L 293.110139 -126.13954 
L 293.351375 -125.066644 
L 293.61515 -123.993749 
L 293.896311 -122.920854 
L 294.194078 -121.847958 
L 294.511627 -120.775063 
L 294.852789 -119.702167 
L 295.217455 -118.629272 
L 295.598891 -117.556377 
L 295.985842 -116.483481 
L 296.36962 -115.410586 
L 296.752719 -114.33769 
L 297.153234 -113.264795 
L 297.600767 -112.1919 
L 298.124211 -111.119004 
L 298.737441 -110.046109 
L 299.431422 -108.973214 
L 300.178549 -107.900318 
L 300.948058 -106.827423 
L 301.724423 -105.754527 
L 302.518344 -104.681632 
L 303.363989 -103.608737 
L 304.304165 -102.535841 
L 305.372021 -101.462946 
L 306.579441 -100.39005 
L 307.91755 -99.317155 
L 309.367142 -98.24426 
L 310.911299 -97.171364 
L 312.542575 -96.098469 
L 314.2622 -95.025573 
L 316.074437 -93.952678 
L 317.981039 -92.879783 
L 319.977949 -91.806887 
L 322.052286 -90.733992 
L 324.176609 -89.661097 
L 326.300654 -88.588201 
L 328.345296 -87.515306 
L 330.205191 -86.44241 
L 331.763424 -85.369515 
L 332.915479 -84.29662 
L 333.594426 -83.223724 
L 333.7875 -82.150829 
L 333.536617 -81.077933 
L 332.920701 -80.005038 
L 332.024285 -78.932143 
L 330.902992 -77.859247 
L 329.560022 -76.786352 
L 327.945735 -75.713456 
L 325.983626 -74.640561 
L 323.6132 -73.567666 
L 320.830663 -72.49477 
L 317.70853 -71.421875 
L 314.385903 -70.348979 
L 311.035757 -69.276084 
L 307.825086 -68.203189 
L 304.88364 -67.130293 
L 302.289421 -66.057398 
L 300.070328 -64.984503 
L 298.216063 -63.911607 
L 296.693617 -62.838712 
L 295.461301 -61.765816 
L 294.478426 -60.692921 
L 293.709662 -59.620026 
L 293.124884 -58.54713 
L 292.696641 -57.474235 
L 292.39776 -56.401339 
L 292.200711 -55.328444 
L 292.07885 -54.255549 
z
" id="m1b225015c1" style="stroke:#464646;stroke-width:3;"/>
    </defs>
    <g clip-path="url(#p827fe13087)">
     <use style="fill:#ca984c;stroke:#464646;stroke-width:3;" x="0" xlink:href="#m1b225015c1" y="288"/>
    </g>
   </g>
   <g id="PolyCollection_3">
    <defs>
     <path d="M 397.051696 -64.529665 
L 396.073304 -64.529665 
L 395.307804 -66.044481 
L 393.720961 -67.559298 
L 390.853828 -69.074114 
L 386.339667 -70.588931 
L 380.162582 -72.103747 
L 372.865919 -73.618564 
L 365.534966 -75.13338 
L 359.478322 -76.648197 
L 355.738468 -78.163013 
L 354.7125 -79.67783 
L 356.105077 -81.192646 
L 359.1968 -82.707463 
L 363.203987 -84.222279 
L 367.505747 -85.737096 
L 371.681912 -87.251912 
L 375.458098 -88.766729 
L 378.670455 -90.281545 
L 381.274387 -91.796362 
L 383.344497 -93.311178 
L 385.022687 -94.825995 
L 386.437116 -96.340811 
L 387.651606 -97.855628 
L 388.675924 -99.370444 
L 389.512752 -100.885261 
L 390.19397 -102.400077 
L 390.779685 -103.914894 
L 391.327912 -105.42971 
L 391.86067 -106.944527 
L 392.351709 -108.459343 
L 392.749747 -109.97416 
L 393.026931 -111.488976 
L 393.214459 -113.003793 
L 393.389474 -114.518609 
L 393.620773 -116.033426 
L 393.92171 -117.548242 
L 394.249608 -119.063059 
L 394.545072 -120.577875 
L 394.773724 -122.092692 
L 394.94092 -123.607508 
L 395.07762 -125.122325 
L 395.215762 -126.637141 
L 395.372541 -128.151958 
L 395.549167 -129.666774 
L 395.736365 -131.181591 
L 395.918691 -132.696407 
L 396.078044 -134.211223 
L 396.199831 -135.72604 
L 396.280345 -137.240856 
L 396.329414 -138.755673 
L 396.364638 -140.270489 
L 396.400684 -141.785306 
L 396.441868 -143.300122 
L 396.483211 -144.814939 
L 396.517328 -146.329755 
L 396.540375 -147.844572 
L 396.55322 -149.359388 
L 396.559172 -150.874205 
L 396.561481 -152.389021 
L 396.562234 -153.903838 
L 396.562441 -155.418654 
L 396.562489 -156.933471 
L 396.562498 -158.448287 
L 396.5625 -159.963104 
L 396.5625 -161.47792 
L 396.5625 -162.992737 
L 396.5625 -164.507553 
L 396.5625 -166.02237 
L 396.5625 -167.537186 
L 396.5625 -169.052003 
L 396.5625 -170.566819 
L 396.562499 -172.081636 
L 396.562495 -173.596452 
L 396.562474 -175.111269 
L 396.562375 -176.626085 
L 396.561979 -178.140902 
L 396.560657 -179.655718 
L 396.556931 -181.170535 
L 396.548141 -182.685351 
L 396.530903 -184.200168 
L 396.503162 -185.714984 
L 396.467401 -187.229801 
L 396.432429 -188.744617 
L 396.410667 -190.259434 
L 396.411207 -191.77425 
L 396.433674 -193.289067 
L 396.468229 -194.803883 
L 396.501487 -196.3187 
L 396.522875 -197.833516 
L 396.527033 -199.348333 
L 396.513069 -200.863149 
L 396.484178 -202.377966 
L 396.448608 -203.892782 
L 396.41907 -205.407599 
L 396.407915 -206.922415 
L 396.42024 -208.437232 
L 396.450762 -209.952048 
L 396.487599 -211.466865 
L 396.519652 -212.981681 
L 396.541582 -214.496498 
L 396.583418 -214.496498 
L 396.583418 -214.496498 
L 396.605348 -212.981681 
L 396.637401 -211.466865 
L 396.674238 -209.952048 
L 396.70476 -208.437232 
L 396.717085 -206.922415 
L 396.70593 -205.407599 
L 396.676392 -203.892782 
L 396.640822 -202.377966 
L 396.611931 -200.863149 
L 396.597967 -199.348333 
L 396.602125 -197.833516 
L 396.623513 -196.3187 
L 396.656771 -194.803883 
L 396.691326 -193.289067 
L 396.713793 -191.77425 
L 396.714333 -190.259434 
L 396.692571 -188.744617 
L 396.657599 -187.229801 
L 396.621838 -185.714984 
L 396.594097 -184.200168 
L 396.576859 -182.685351 
L 396.568069 -181.170535 
L 396.564343 -179.655718 
L 396.563021 -178.140902 
L 396.562625 -176.626085 
L 396.562526 -175.111269 
L 396.562505 -173.596452 
L 396.562501 -172.081636 
L 396.5625 -170.566819 
L 396.5625 -169.052003 
L 396.5625 -167.537186 
L 396.5625 -166.02237 
L 396.5625 -164.507553 
L 396.5625 -162.992737 
L 396.5625 -161.47792 
L 396.5625 -159.963104 
L 396.562502 -158.448287 
L 396.562511 -156.933471 
L 396.562559 -155.418654 
L 396.562766 -153.903838 
L 396.563519 -152.389021 
L 396.565828 -150.874205 
L 396.57178 -149.359388 
L 396.584625 -147.844572 
L 396.607672 -146.329755 
L 396.641789 -144.814939 
L 396.683132 -143.300122 
L 396.724316 -141.785306 
L 396.760362 -140.270489 
L 396.795586 -138.755673 
L 396.844655 -137.240856 
L 396.925169 -135.72604 
L 397.046956 -134.211223 
L 397.206309 -132.696407 
L 397.388635 -131.181591 
L 397.575833 -129.666774 
L 397.752459 -128.151958 
L 397.909238 -126.637141 
L 398.04738 -125.122325 
L 398.18408 -123.607508 
L 398.351276 -122.092692 
L 398.579928 -120.577875 
L 398.875392 -119.063059 
L 399.20329 -117.548242 
L 399.504227 -116.033426 
L 399.735526 -114.518609 
L 399.910541 -113.003793 
L 400.098069 -111.488976 
L 400.375253 -109.97416 
L 400.773291 -108.459343 
L 401.26433 -106.944527 
L 401.797088 -105.42971 
L 402.345315 -103.914894 
L 402.93103 -102.400077 
L 403.612248 -100.885261 
L 404.449076 -99.370444 
L 405.473394 -97.855628 
L 406.687884 -96.340811 
L 408.102313 -94.825995 
L 409.780503 -93.311178 
L 411.850613 -91.796362 
L 414.454545 -90.281545 
L 417.666902 -88.766729 
L 421.443088 -87.251912 
L 425.619253 -85.737096 
L 429.921013 -84.222279 
L 433.9282 -82.707463 
L 437.019923 -81.192646 
L 438.4125 -79.67783 
L 437.386532 -78.163013 
L 433.646678 -76.648197 
L 427.590034 -75.13338 
L 420.259081 -73.618564 
L 412.962418 -72.103747 
L 406.785333 -70.588931 
L 402.271172 -69.074114 
L 399.404039 -67.559298 
L 397.817196 -66.044481 
L 397.051696 -64.529665 
z
" id="m56e453ffcd" style="stroke:#464646;stroke-width:3;"/>
    </defs>
    <g clip-path="url(#p827fe13087)">
     <use style="fill:#98a246;stroke:#464646;stroke-width:3;" x="0" xlink:href="#m56e453ffcd" y="288"/>
    </g>
   </g>
   <g id="PolyCollection_4">
    <defs>
     <path d="M 501.462859 -57.846374 
L 500.912141 -57.846374 
L 500.5934 -59.121211 
L 500.012711 -60.396049 
L 499.048838 -61.670887 
L 497.584665 -62.945724 
L 495.538241 -64.220562 
L 492.889986 -65.495399 
L 489.694615 -66.770237 
L 486.073492 -68.045075 
L 482.191984 -69.319912 
L 478.230835 -70.59475 
L 474.359991 -71.869587 
L 470.721358 -73.144425 
L 467.425621 -74.419262 
L 464.564391 -75.6941 
L 462.229854 -76.968938 
L 460.524613 -78.243775 
L 459.544921 -79.518613 
L 459.3375 -80.79345 
L 459.854851 -82.068288 
L 460.945021 -83.343125 
L 462.393941 -84.617963 
L 464.002158 -85.892801 
L 465.653199 -87.167638 
L 467.337791 -88.442476 
L 469.127078 -89.717313 
L 471.114083 -90.992151 
L 473.351936 -92.266989 
L 475.81326 -93.541826 
L 478.384813 -94.816664 
L 480.89831 -96.091501 
L 483.18475 -97.366339 
L 485.130683 -98.641176 
L 486.714175 -99.916014 
L 488.005457 -101.190852 
L 489.130651 -102.465689 
L 490.213916 -103.740527 
L 491.326222 -105.015364 
L 492.466749 -106.290202 
L 493.58301 -107.565039 
L 494.611375 -108.839877 
L 495.510048 -110.114715 
L 496.268016 -111.389552 
L 496.894127 -112.66439 
L 497.402501 -113.939227 
L 497.806715 -115.214065 
L 498.122837 -116.488903 
L 498.372719 -117.76374 
L 498.580708 -119.038578 
L 498.765206 -120.313415 
L 498.932846 -121.588253 
L 499.081555 -122.86309 
L 499.211071 -124.137928 
L 499.332245 -125.412766 
L 499.466471 -126.687603 
L 499.634488 -127.962441 
L 499.843065 -129.237278 
L 500.080023 -130.512116 
L 500.320796 -131.786953 
L 500.540373 -133.061791 
L 500.721687 -134.336629 
L 500.856602 -135.611466 
L 500.942417 -136.886304 
L 500.979033 -138.161141 
L 500.969442 -139.435979 
L 500.922305 -140.710817 
L 500.853456 -141.985654 
L 500.783651 -143.260492 
L 500.732472 -144.535329 
L 500.711364 -145.810167 
L 500.720237 -147.085004 
L 500.750178 -148.359842 
L 500.790439 -149.63468 
L 500.834629 -150.909517 
L 500.881989 -152.184355 
L 500.933942 -153.459192 
L 500.98976 -154.73403 
L 501.045102 -156.008867 
L 501.093996 -157.283705 
L 501.131968 -158.558543 
L 501.157807 -159.83338 
L 501.173202 -161.108218 
L 501.181147 -162.383055 
L 501.184371 -163.657893 
L 501.184422 -164.932731 
L 501.181338 -166.207568 
L 501.173658 -167.482406 
L 501.15881 -168.757243 
L 501.134143 -170.032081 
L 501.098767 -171.306918 
L 501.055599 -172.581756 
L 501.012251 -173.856594 
L 500.979384 -175.131431 
L 500.966599 -176.406269 
L 500.977929 -177.681106 
L 501.009792 -178.955944 
L 501.052813 -180.230781 
L 501.09626 -181.505619 
L 501.132256 -182.780457 
L 501.157603 -184.055294 
L 501.217397 -184.055294 
L 501.217397 -184.055294 
L 501.242744 -182.780457 
L 501.27874 -181.505619 
L 501.322187 -180.230781 
L 501.365208 -178.955944 
L 501.397071 -177.681106 
L 501.408401 -176.406269 
L 501.395616 -175.131431 
L 501.362749 -173.856594 
L 501.319401 -172.581756 
L 501.276233 -171.306918 
L 501.240857 -170.032081 
L 501.21619 -168.757243 
L 501.201342 -167.482406 
L 501.193662 -166.207568 
L 501.190578 -164.932731 
L 501.190629 -163.657893 
L 501.193853 -162.383055 
L 501.201798 -161.108218 
L 501.217193 -159.83338 
L 501.243032 -158.558543 
L 501.281004 -157.283705 
L 501.329898 -156.008867 
L 501.38524 -154.73403 
L 501.441058 -153.459192 
L 501.493011 -152.184355 
L 501.540371 -150.909517 
L 501.584561 -149.63468 
L 501.624822 -148.359842 
L 501.654763 -147.085004 
L 501.663636 -145.810167 
L 501.642528 -144.535329 
L 501.591349 -143.260492 
L 501.521544 -141.985654 
L 501.452695 -140.710817 
L 501.405558 -139.435979 
L 501.395967 -138.161141 
L 501.432583 -136.886304 
L 501.518398 -135.611466 
L 501.653313 -134.336629 
L 501.834627 -133.061791 
L 502.054204 -131.786953 
L 502.294977 -130.512116 
L 502.531935 -129.237278 
L 502.740512 -127.962441 
L 502.908529 -126.687603 
L 503.042755 -125.412766 
L 503.163929 -124.137928 
L 503.293445 -122.86309 
L 503.442154 -121.588253 
L 503.609794 -120.313415 
L 503.794292 -119.038578 
L 504.002281 -117.76374 
L 504.252163 -116.488903 
L 504.568285 -115.214065 
L 504.972499 -113.939227 
L 505.480873 -112.66439 
L 506.106984 -111.389552 
L 506.864952 -110.114715 
L 507.763625 -108.839877 
L 508.79199 -107.565039 
L 509.908251 -106.290202 
L 511.048778 -105.015364 
L 512.161084 -103.740527 
L 513.244349 -102.465689 
L 514.369543 -101.190852 
L 515.660825 -99.916014 
L 517.244317 -98.641176 
L 519.19025 -97.366339 
L 521.47669 -96.091501 
L 523.990187 -94.816664 
L 526.56174 -93.541826 
L 529.023064 -92.266989 
L 531.260917 -90.992151 
L 533.247922 -89.717313 
L 535.037209 -88.442476 
L 536.721801 -87.167638 
L 538.372842 -85.892801 
L 539.981059 -84.617963 
L 541.429979 -83.343125 
L 542.520149 -82.068288 
L 543.0375 -80.79345 
L 542.830079 -79.518613 
L 541.850387 -78.243775 
L 540.145146 -76.968938 
L 537.810609 -75.6941 
L 534.949379 -74.419262 
L 531.653642 -73.144425 
L 528.015009 -71.869587 
L 524.144165 -70.59475 
L 520.183016 -69.319912 
L 516.301508 -68.045075 
L 512.680385 -66.770237 
L 509.485014 -65.495399 
L 506.836759 -64.220562 
L 504.790335 -62.945724 
L 503.326162 -61.670887 
L 502.362289 -60.396049 
L 501.7816 -59.121211 
L 501.462859 -57.846374 
z
" id="m739179a2e8" style="stroke:#464646;stroke-width:3;"/>
    </defs>
    <g clip-path="url(#p827fe13087)">
     <use style="fill:#49af72;stroke:#464646;stroke-width:3;" x="0" xlink:href="#m739179a2e8" y="288"/>
    </g>
   </g>
   <g id="PolyCollection_5">
    <defs>
     <path d="M 606.230433 -64.744292 
L 605.394567 -64.744292 
L 604.646994 -66.332743 
L 602.993521 -67.921194 
L 599.875837 -69.509645 
L 594.873408 -71.098096 
L 588.066697 -72.686546 
L 580.265785 -74.274997 
L 572.845738 -75.863448 
L 567.206467 -77.451899 
L 564.209403 -79.04035 
L 563.9625 -80.628801 
L 565.998219 -82.217252 
L 569.595307 -83.805702 
L 574.016066 -85.394153 
L 578.623814 -86.982604 
L 582.941379 -88.571055 
L 586.680428 -90.159506 
L 589.737228 -91.747957 
L 592.155489 -93.336407 
L 594.066791 -94.924858 
L 595.624488 -96.513309 
L 596.953055 -98.10176 
L 598.129057 -99.690211 
L 599.19007 -101.278662 
L 600.153207 -102.867112 
L 601.02572 -104.455563 
L 601.801692 -106.044014 
L 602.453272 -107.632465 
L 602.933672 -109.220916 
L 603.204097 -110.809367 
L 603.27578 -112.397817 
L 603.233391 -113.986268 
L 603.206451 -115.574719 
L 603.297265 -117.16317 
L 603.521407 -118.751621 
L 603.812127 -120.340072 
L 604.082175 -121.928523 
L 604.286498 -123.516973 
L 604.435609 -125.105424 
L 604.561017 -126.693875 
L 604.677773 -128.282326 
L 604.781697 -129.870777 
L 604.872564 -131.459228 
L 604.966487 -133.047678 
L 605.081432 -134.636129 
L 605.216474 -136.22458 
L 605.351104 -137.813031 
L 605.464305 -139.401482 
L 605.550806 -140.989933 
L 605.618985 -142.578383 
L 605.677599 -144.166834 
L 605.727835 -145.755285 
L 605.766189 -147.343736 
L 605.790825 -148.932187 
L 605.803902 -150.520638 
L 605.809623 -152.109088 
L 605.811689 -153.697539 
L 605.812308 -155.28599 
L 605.812462 -156.874441 
L 605.812494 -158.462892 
L 605.812499 -160.051343 
L 605.8125 -161.639794 
L 605.8125 -163.228244 
L 605.8125 -164.816695 
L 605.8125 -166.405146 
L 605.8125 -167.993597 
L 605.8125 -169.582048 
L 605.8125 -171.170499 
L 605.8125 -172.758949 
L 605.812497 -174.3474 
L 605.812482 -175.935851 
L 605.812401 -177.524302 
L 605.812049 -179.112753 
L 605.810782 -180.701204 
L 605.806997 -182.289654 
L 605.797691 -183.878105 
L 605.779023 -185.466556 
L 605.74893 -187.055007 
L 605.711095 -188.643458 
L 605.676616 -190.231909 
L 605.659538 -191.820359 
L 605.667857 -193.40881 
L 605.697601 -194.997261 
L 605.735825 -196.585712 
L 605.769503 -198.174163 
L 605.792167 -199.762614 
L 605.804063 -201.351065 
L 605.808186 -202.939515 
L 605.806431 -204.527966 
L 605.797917 -206.116417 
L 605.779723 -207.704868 
L 605.749989 -209.293319 
L 605.712263 -210.88177 
L 605.67747 -212.47022 
L 605.659695 -214.058671 
L 605.66724 -215.647122 
L 605.6965 -217.235573 
L 605.734683 -218.824024 
L 605.768648 -220.412475 
L 605.791741 -222.000925 
L 605.833259 -222.000925 
L 605.833259 -222.000925 
L 605.856352 -220.412475 
L 605.890317 -218.824024 
L 605.9285 -217.235573 
L 605.95776 -215.647122 
L 605.965305 -214.058671 
L 605.94753 -212.47022 
L 605.912737 -210.88177 
L 605.875011 -209.293319 
L 605.845277 -207.704868 
L 605.827083 -206.116417 
L 605.818569 -204.527966 
L 605.816814 -202.939515 
L 605.820937 -201.351065 
L 605.832833 -199.762614 
L 605.855497 -198.174163 
L 605.889175 -196.585712 
L 605.927399 -194.997261 
L 605.957143 -193.40881 
L 605.965462 -191.820359 
L 605.948384 -190.231909 
L 605.913905 -188.643458 
L 605.87607 -187.055007 
L 605.845977 -185.466556 
L 605.827309 -183.878105 
L 605.818003 -182.289654 
L 605.814218 -180.701204 
L 605.812951 -179.112753 
L 605.812599 -177.524302 
L 605.812518 -175.935851 
L 605.812503 -174.3474 
L 605.8125 -172.758949 
L 605.8125 -171.170499 
L 605.8125 -169.582048 
L 605.8125 -167.993597 
L 605.8125 -166.405146 
L 605.8125 -164.816695 
L 605.8125 -163.228244 
L 605.8125 -161.639794 
L 605.812501 -160.051343 
L 605.812506 -158.462892 
L 605.812538 -156.874441 
L 605.812692 -155.28599 
L 605.813311 -153.697539 
L 605.815377 -152.109088 
L 605.821098 -150.520638 
L 605.834175 -148.932187 
L 605.858811 -147.343736 
L 605.897165 -145.755285 
L 605.947401 -144.166834 
L 606.006015 -142.578383 
L 606.074194 -140.989933 
L 606.160695 -139.401482 
L 606.273896 -137.813031 
L 606.408526 -136.22458 
L 606.543568 -134.636129 
L 606.658513 -133.047678 
L 606.752436 -131.459228 
L 606.843303 -129.870777 
L 606.947227 -128.282326 
L 607.063983 -126.693875 
L 607.189391 -125.105424 
L 607.338502 -123.516973 
L 607.542825 -121.928523 
L 607.812873 -120.340072 
L 608.103593 -118.751621 
L 608.327735 -117.16317 
L 608.418549 -115.574719 
L 608.391609 -113.986268 
L 608.34922 -112.397817 
L 608.420903 -110.809367 
L 608.691328 -109.220916 
L 609.171728 -107.632465 
L 609.823308 -106.044014 
L 610.59928 -104.455563 
L 611.471793 -102.867112 
L 612.43493 -101.278662 
L 613.495943 -99.690211 
L 614.671945 -98.10176 
L 616.000512 -96.513309 
L 617.558209 -94.924858 
L 619.469511 -93.336407 
L 621.887772 -91.747957 
L 624.944572 -90.159506 
L 628.683621 -88.571055 
L 633.001186 -86.982604 
L 637.608934 -85.394153 
L 642.029693 -83.805702 
L 645.626781 -82.217252 
L 647.6625 -80.628801 
L 647.415597 -79.04035 
L 644.418533 -77.451899 
L 638.779262 -75.863448 
L 631.359215 -74.274997 
L 623.558303 -72.686546 
L 616.751592 -71.098096 
L 611.749163 -69.509645 
L 608.631479 -67.921194 
L 606.978006 -66.332743 
L 606.230433 -64.744292 
z
" id="md1114854b4" style="stroke:#464646;stroke-width:3;"/>
    </defs>
    <g clip-path="url(#p827fe13087)">
     <use style="fill:#4baba4;stroke:#464646;stroke-width:3;" x="0" xlink:href="#md1114854b4" y="288"/>
    </g>
   </g>
   <g id="PolyCollection_6">
    <defs>
     <path d="M 711.347587 -68.884271 
L 709.527413 -68.884271 
L 707.752647 -70.646652 
L 703.86249 -72.409033 
L 697.022465 -74.171414 
L 687.533838 -75.933795 
L 677.533325 -77.696176 
L 670.358105 -79.458557 
L 668.5875 -81.220938 
L 672.347853 -82.983319 
L 679.44986 -84.745701 
L 687.083573 -86.508082 
L 693.398608 -88.270463 
L 697.871867 -90.032844 
L 700.777718 -91.795225 
L 702.598137 -93.557606 
L 703.745727 -95.319987 
L 704.497001 -97.082368 
L 705.003832 -98.844749 
L 705.3566 -100.60713 
L 705.652335 -102.369512 
L 705.996669 -104.131893 
L 706.448177 -105.894274 
L 706.984369 -107.656655 
L 707.53186 -109.419036 
L 708.02532 -111.181417 
L 708.438888 -112.943798 
L 708.773634 -114.706179 
L 709.031411 -116.46856 
L 709.212803 -118.230942 
L 709.336402 -119.993323 
L 709.441283 -121.755704 
L 709.560994 -123.518085 
L 709.702468 -125.280466 
L 709.851817 -127.042847 
L 709.990186 -128.805228 
L 710.10257 -130.567609 
L 710.182062 -132.32999 
L 710.230421 -134.092371 
L 710.251955 -135.854753 
L 710.249136 -137.617134 
L 710.228734 -139.379515 
L 710.208725 -141.141896 
L 710.211104 -142.904277 
L 710.245234 -144.666658 
L 710.300605 -146.429039 
L 710.356653 -148.19142 
L 710.398133 -149.953801 
L 710.421762 -151.716183 
L 710.432353 -153.478564 
L 710.436127 -155.240945 
L 710.437202 -157.003326 
L 710.437447 -158.765707 
L 710.437492 -160.528088 
L 710.437499 -162.290469 
L 710.4375 -164.05285 
L 710.4375 -165.815231 
L 710.4375 -167.577612 
L 710.4375 -169.339994 
L 710.4375 -171.102375 
L 710.4375 -172.864756 
L 710.4375 -174.627137 
L 710.4375 -176.389518 
L 710.4375 -178.151899 
L 710.4375 -179.91428 
L 710.4375 -181.676661 
L 710.4375 -183.439042 
L 710.4375 -185.201424 
L 710.4375 -186.963805 
L 710.4375 -188.726186 
L 710.4375 -190.488567 
L 710.4375 -192.250948 
L 710.4375 -194.013329 
L 710.4375 -195.77571 
L 710.4375 -197.538091 
L 710.4375 -199.300472 
L 710.4375 -201.062853 
L 710.4375 -202.825235 
L 710.4375 -204.587616 
L 710.4375 -206.349997 
L 710.4375 -208.112378 
L 710.4375 -209.874759 
L 710.4375 -211.63714 
L 710.437497 -213.399521 
L 710.437475 -215.161902 
L 710.43735 -216.924283 
L 710.436765 -218.686665 
L 710.434594 -220.449046 
L 710.428188 -222.211427 
L 710.413224 -223.973808 
L 710.385701 -225.736189 
L 710.346133 -227.49857 
L 710.302269 -229.260951 
L 710.266288 -231.023332 
L 710.248503 -232.785713 
L 710.253598 -234.548094 
L 710.280277 -236.310476 
L 710.321222 -238.072857 
L 710.364581 -239.835238 
L 710.399403 -241.597619 
L 710.421126 -243.36 
L 710.453874 -243.36 
L 710.453874 -243.36 
L 710.475597 -241.597619 
L 710.510419 -239.835238 
L 710.553778 -238.072857 
L 710.594723 -236.310476 
L 710.621402 -234.548094 
L 710.626497 -232.785713 
L 710.608712 -231.023332 
L 710.572731 -229.260951 
L 710.528867 -227.49857 
L 710.489299 -225.736189 
L 710.461776 -223.973808 
L 710.446812 -222.211427 
L 710.440406 -220.449046 
L 710.438235 -218.686665 
L 710.43765 -216.924283 
L 710.437525 -215.161902 
L 710.437503 -213.399521 
L 710.4375 -211.63714 
L 710.4375 -209.874759 
L 710.4375 -208.112378 
L 710.4375 -206.349997 
L 710.4375 -204.587616 
L 710.4375 -202.825235 
L 710.4375 -201.062853 
L 710.4375 -199.300472 
L 710.4375 -197.538091 
L 710.4375 -195.77571 
L 710.4375 -194.013329 
L 710.4375 -192.250948 
L 710.4375 -190.488567 
L 710.4375 -188.726186 
L 710.4375 -186.963805 
L 710.4375 -185.201424 
L 710.4375 -183.439042 
L 710.4375 -181.676661 
L 710.4375 -179.91428 
L 710.4375 -178.151899 
L 710.4375 -176.389518 
L 710.4375 -174.627137 
L 710.4375 -172.864756 
L 710.4375 -171.102375 
L 710.4375 -169.339994 
L 710.4375 -167.577612 
L 710.4375 -165.815231 
L 710.4375 -164.05285 
L 710.437501 -162.290469 
L 710.437508 -160.528088 
L 710.437553 -158.765707 
L 710.437798 -157.003326 
L 710.438873 -155.240945 
L 710.442647 -153.478564 
L 710.453238 -151.716183 
L 710.476867 -149.953801 
L 710.518347 -148.19142 
L 710.574395 -146.429039 
L 710.629766 -144.666658 
L 710.663896 -142.904277 
L 710.666275 -141.141896 
L 710.646266 -139.379515 
L 710.625864 -137.617134 
L 710.623045 -135.854753 
L 710.644579 -134.092371 
L 710.692938 -132.32999 
L 710.77243 -130.567609 
L 710.884814 -128.805228 
L 711.023183 -127.042847 
L 711.172532 -125.280466 
L 711.314006 -123.518085 
L 711.433717 -121.755704 
L 711.538598 -119.993323 
L 711.662197 -118.230942 
L 711.843589 -116.46856 
L 712.101366 -114.706179 
L 712.436112 -112.943798 
L 712.84968 -111.181417 
L 713.34314 -109.419036 
L 713.890631 -107.656655 
L 714.426823 -105.894274 
L 714.878331 -104.131893 
L 715.222665 -102.369512 
L 715.5184 -100.60713 
L 715.871168 -98.844749 
L 716.377999 -97.082368 
L 717.129273 -95.319987 
L 718.276863 -93.557606 
L 720.097282 -91.795225 
L 723.003133 -90.032844 
L 727.476392 -88.270463 
L 733.791427 -86.508082 
L 741.42514 -84.745701 
L 748.527147 -82.983319 
L 752.2875 -81.220938 
L 750.516895 -79.458557 
L 743.341675 -77.696176 
L 733.341162 -75.933795 
L 723.852535 -74.171414 
L 717.01251 -72.409033 
L 713.122353 -70.646652 
L 711.347587 -68.884271 
z
" id="m95c9ffd482" style="stroke:#464646;stroke-width:3;"/>
    </defs>
    <g clip-path="url(#p827fe13087)">
     <use style="fill:#53accd;stroke:#464646;stroke-width:3;" x="0" xlink:href="#m95c9ffd482" y="288"/>
    </g>
   </g>
   <g id="PolyCollection_7">
    <defs>
     <path d="M 815.094088 -54.847706 
L 815.030912 -54.847706 
L 814.988645 -56.340567 
L 814.901837 -57.833429 
L 814.729054 -59.32629 
L 814.392995 -60.819152 
L 813.765096 -62.312013 
L 812.667084 -63.804875 
L 810.90399 -65.297737 
L 808.323716 -66.790598 
L 804.875778 -68.28346 
L 800.639822 -69.776321 
L 795.815766 -71.269183 
L 790.690485 -72.762044 
L 785.603933 -74.254906 
L 780.930007 -75.747767 
L 777.065939 -77.240629 
L 774.39768 -78.73349 
L 773.2125 -80.226352 
L 773.585094 -81.719213 
L 775.319678 -83.212075 
L 778.011216 -84.704937 
L 781.198277 -86.197798 
L 784.508533 -87.69066 
L 787.714428 -89.183521 
L 790.698068 -90.676383 
L 793.391242 -92.169244 
L 795.752599 -93.662106 
L 797.785892 -95.154967 
L 799.556984 -96.647829 
L 801.175252 -98.14069 
L 802.745265 -99.633552 
L 804.31985 -101.126413 
L 805.87992 -102.619275 
L 807.347605 -104.112137 
L 808.624363 -105.604998 
L 809.63716 -107.09786 
L 810.372397 -108.590721 
L 810.881504 -110.083583 
L 811.255206 -111.576444 
L 811.58068 -113.069306 
L 811.906821 -114.562167 
L 812.236939 -116.055029 
L 812.547535 -117.54789 
L 812.814616 -119.040752 
L 813.030618 -120.533614 
L 813.208075 -122.026475 
L 813.37332 -123.519337 
L 813.552482 -125.012198 
L 813.754629 -126.50506 
L 813.964155 -127.997921 
L 814.15194 -129.490783 
L 814.297738 -130.983644 
L 814.403747 -132.476506 
L 814.488666 -133.969367 
L 814.57142 -135.462229 
L 814.659964 -136.95509 
L 814.750233 -138.447952 
L 814.830466 -139.940814 
L 814.886628 -141.433675 
L 814.908263 -142.926537 
L 814.893887 -144.419398 
L 814.852992 -145.91226 
L 814.802676 -147.405121 
L 814.760575 -148.897983 
L 814.738287 -150.390844 
L 814.738311 -151.883706 
L 814.754717 -153.376567 
L 814.776916 -154.869429 
L 814.795991 -156.362291 
L 814.810775 -157.855152 
L 814.828407 -159.348014 
L 814.857576 -160.840875 
L 814.90015 -162.333737 
L 814.949034 -163.826598 
L 814.993529 -165.31946 
L 815.026303 -166.812321 
L 815.046158 -168.305183 
L 815.056164 -169.798044 
L 815.060392 -171.290906 
L 815.061899 -172.783767 
L 815.062353 -174.276629 
L 815.062469 -175.769491 
L 815.062491 -177.262352 
L 815.062479 -178.755214 
L 815.0624 -180.248075 
L 815.062076 -181.740937 
L 815.060954 -183.233798 
L 815.057668 -184.72666 
L 815.049552 -186.219521 
L 815.032753 -187.712383 
L 815.00391 -189.205244 
L 814.963568 -190.698106 
L 814.919285 -192.190967 
L 814.884763 -193.683829 
L 814.873393 -195.176691 
L 814.890006 -196.669552 
L 814.927609 -198.162414 
L 814.972067 -199.655275 
L 815.010523 -201.148137 
L 815.036889 -202.640998 
L 815.088111 -202.640998 
L 815.088111 -202.640998 
L 815.114477 -201.148137 
L 815.152933 -199.655275 
L 815.197391 -198.162414 
L 815.234994 -196.669552 
L 815.251607 -195.176691 
L 815.240237 -193.683829 
L 815.205715 -192.190967 
L 815.161432 -190.698106 
L 815.12109 -189.205244 
L 815.092247 -187.712383 
L 815.075448 -186.219521 
L 815.067332 -184.72666 
L 815.064046 -183.233798 
L 815.062924 -181.740937 
L 815.0626 -180.248075 
L 815.062521 -178.755214 
L 815.062509 -177.262352 
L 815.062531 -175.769491 
L 815.062647 -174.276629 
L 815.063101 -172.783767 
L 815.064608 -171.290906 
L 815.068836 -169.798044 
L 815.078842 -168.305183 
L 815.098697 -166.812321 
L 815.131471 -165.31946 
L 815.175966 -163.826598 
L 815.22485 -162.333737 
L 815.267424 -160.840875 
L 815.296593 -159.348014 
L 815.314225 -157.855152 
L 815.329009 -156.362291 
L 815.348084 -154.869429 
L 815.370283 -153.376567 
L 815.386689 -151.883706 
L 815.386713 -150.390844 
L 815.364425 -148.897983 
L 815.322324 -147.405121 
L 815.272008 -145.91226 
L 815.231113 -144.419398 
L 815.216737 -142.926537 
L 815.238372 -141.433675 
L 815.294534 -139.940814 
L 815.374767 -138.447952 
L 815.465036 -136.95509 
L 815.55358 -135.462229 
L 815.636334 -133.969367 
L 815.721253 -132.476506 
L 815.827262 -130.983644 
L 815.97306 -129.490783 
L 816.160845 -127.997921 
L 816.370371 -126.50506 
L 816.572518 -125.012198 
L 816.75168 -123.519337 
L 816.916925 -122.026475 
L 817.094382 -120.533614 
L 817.310384 -119.040752 
L 817.577465 -117.54789 
L 817.888061 -116.055029 
L 818.218179 -114.562167 
L 818.54432 -113.069306 
L 818.869794 -111.576444 
L 819.243496 -110.083583 
L 819.752603 -108.590721 
L 820.48784 -107.09786 
L 821.500637 -105.604998 
L 822.777395 -104.112137 
L 824.24508 -102.619275 
L 825.80515 -101.126413 
L 827.379735 -99.633552 
L 828.949748 -98.14069 
L 830.568016 -96.647829 
L 832.339108 -95.154967 
L 834.372401 -93.662106 
L 836.733758 -92.169244 
L 839.426932 -90.676383 
L 842.410572 -89.183521 
L 845.616467 -87.69066 
L 848.926723 -86.197798 
L 852.113784 -84.704937 
L 854.805322 -83.212075 
L 856.539906 -81.719213 
L 856.9125 -80.226352 
L 855.72732 -78.73349 
L 853.059061 -77.240629 
L 849.194993 -75.747767 
L 844.521067 -74.254906 
L 839.434515 -72.762044 
L 834.309234 -71.269183 
L 829.485178 -69.776321 
L 825.249222 -68.28346 
L 821.801284 -66.790598 
L 819.22101 -65.297737 
L 817.457916 -63.804875 
L 816.359904 -62.312013 
L 815.732005 -60.819152 
L 815.395946 -59.32629 
L 815.223163 -57.833429 
L 815.136355 -56.340567 
L 815.094088 -54.847706 
z
" id="m340b5a95db" style="stroke:#464646;stroke-width:3;"/>
    </defs>
    <g clip-path="url(#p827fe13087)">
     <use style="fill:#b6a8eb;stroke:#464646;stroke-width:3;" x="0" xlink:href="#m340b5a95db" y="288"/>
    </g>
   </g>
   <g id="PolyCollection_8">
    <defs>
     <path d="M 919.914264 -61.309639 
L 919.460736 -61.309639 
L 919.193664 -62.479603 
L 918.686808 -63.649566 
L 917.796248 -64.819529 
L 916.345647 -65.989492 
L 914.152955 -67.159455 
L 911.075875 -68.329418 
L 907.068742 -69.499381 
L 902.234782 -70.669344 
L 896.852568 -71.839307 
L 891.358047 -73.00927 
L 886.275844 -74.179234 
L 882.112917 -75.349197 
L 879.246085 -76.51916 
L 877.842006 -77.689123 
L 877.8375 -78.859086 
L 878.983359 -80.029049 
L 880.928864 -81.199012 
L 883.311799 -82.368975 
L 885.825262 -83.538938 
L 888.251032 -84.708901 
L 890.465806 -85.878865 
L 892.431928 -87.048828 
L 894.179546 -88.218791 
L 895.781535 -89.388754 
L 897.322967 -90.558717 
L 898.872033 -91.72868 
L 900.461933 -92.898643 
L 902.08853 -94.068606 
L 903.719961 -95.238569 
L 905.309817 -96.408532 
L 906.808418 -97.578496 
L 908.172595 -98.748459 
L 909.375953 -99.918422 
L 910.41738 -101.088385 
L 911.321594 -102.258348 
L 912.128027 -103.428311 
L 912.872328 -104.598274 
L 913.571002 -105.768237 
L 914.218129 -106.9382 
L 914.794908 -108.108163 
L 915.284694 -109.278127 
L 915.683961 -110.44809 
L 916.003946 -111.618053 
L 916.264467 -112.788016 
L 916.485701 -113.957979 
L 916.683133 -115.127942 
L 916.867128 -116.297905 
L 917.045009 -117.467868 
L 917.222805 -118.637831 
L 917.405383 -119.807794 
L 917.595287 -120.977758 
L 917.791032 -122.147721 
L 917.985496 -123.317684 
L 918.165583 -124.487647 
L 918.314751 -125.65761 
L 918.418997 -126.827573 
L 918.474194 -127.997536 
L 918.490415 -129.167499 
L 918.4896 -130.337462 
L 918.496686 -131.507425 
L 918.528744 -132.677388 
L 918.588269 -133.847352 
L 918.664334 -135.017315 
L 918.740465 -136.187278 
L 918.804185 -137.357241 
L 918.852759 -138.527204 
L 918.892645 -139.697167 
L 918.934203 -140.86713 
L 918.98561 -142.037093 
L 919.049475 -143.207056 
L 919.123231 -144.377019 
L 919.201927 -145.546983 
L 919.281021 -146.716946 
L 919.357527 -147.886909 
L 919.429511 -149.056872 
L 919.495072 -150.226835 
L 919.55198 -151.396798 
L 919.598229 -152.566761 
L 919.632903 -153.736724 
L 919.656617 -154.906687 
L 919.671211 -156.07665 
L 919.67895 -157.246614 
L 919.681679 -158.416577 
L 919.680251 -159.58654 
L 919.674356 -160.756503 
L 919.662784 -161.926466 
L 919.644153 -163.096429 
L 919.618039 -164.266392 
L 919.586162 -165.436355 
L 919.552978 -166.606318 
L 919.525036 -167.776281 
L 919.508992 -168.946245 
L 919.50906 -170.116208 
L 919.525221 -171.286171 
L 919.553234 -172.456134 
L 919.586435 -173.626097 
L 919.618289 -174.79606 
L 919.64438 -175.966023 
L 919.663059 -177.135986 
L 919.711941 -177.135986 
L 919.711941 -177.135986 
L 919.73062 -175.966023 
L 919.756711 -174.79606 
L 919.788565 -173.626097 
L 919.821766 -172.456134 
L 919.849779 -171.286171 
L 919.86594 -170.116208 
L 919.866008 -168.946245 
L 919.849964 -167.776281 
L 919.822022 -166.606318 
L 919.788838 -165.436355 
L 919.756961 -164.266392 
L 919.730847 -163.096429 
L 919.712216 -161.926466 
L 919.700644 -160.756503 
L 919.694749 -159.58654 
L 919.693321 -158.416577 
L 919.69605 -157.246614 
L 919.703789 -156.07665 
L 919.718383 -154.906687 
L 919.742097 -153.736724 
L 919.776771 -152.566761 
L 919.82302 -151.396798 
L 919.879928 -150.226835 
L 919.945489 -149.056872 
L 920.017473 -147.886909 
L 920.093979 -146.716946 
L 920.173073 -145.546983 
L 920.251769 -144.377019 
L 920.325525 -143.207056 
L 920.38939 -142.037093 
L 920.440797 -140.86713 
L 920.482355 -139.697167 
L 920.522241 -138.527204 
L 920.570815 -137.357241 
L 920.634535 -136.187278 
L 920.710666 -135.017315 
L 920.786731 -133.847352 
L 920.846256 -132.677388 
L 920.878314 -131.507425 
L 920.8854 -130.337462 
L 920.884585 -129.167499 
L 920.900806 -127.997536 
L 920.956003 -126.827573 
L 921.060249 -125.65761 
L 921.209417 -124.487647 
L 921.389504 -123.317684 
L 921.583968 -122.147721 
L 921.779713 -120.977758 
L 921.969617 -119.807794 
L 922.152195 -118.637831 
L 922.329991 -117.467868 
L 922.507872 -116.297905 
L 922.691867 -115.127942 
L 922.889299 -113.957979 
L 923.110533 -112.788016 
L 923.371054 -111.618053 
L 923.691039 -110.44809 
L 924.090306 -109.278127 
L 924.580092 -108.108163 
L 925.156871 -106.9382 
L 925.803998 -105.768237 
L 926.502672 -104.598274 
L 927.246973 -103.428311 
L 928.053406 -102.258348 
L 928.95762 -101.088385 
L 929.999047 -99.918422 
L 931.202405 -98.748459 
L 932.566582 -97.578496 
L 934.065183 -96.408532 
L 935.655039 -95.238569 
L 937.28647 -94.068606 
L 938.913067 -92.898643 
L 940.502967 -91.72868 
L 942.052033 -90.558717 
L 943.593465 -89.388754 
L 945.195454 -88.218791 
L 946.943072 -87.048828 
L 948.909194 -85.878865 
L 951.123968 -84.708901 
L 953.549738 -83.538938 
L 956.063201 -82.368975 
L 958.446136 -81.199012 
L 960.391641 -80.029049 
L 961.5375 -78.859086 
L 961.532994 -77.689123 
L 960.128915 -76.51916 
L 957.262083 -75.349197 
L 953.099156 -74.179234 
L 948.016953 -73.00927 
L 942.522432 -71.839307 
L 937.140218 -70.669344 
L 932.306258 -69.499381 
L 928.299125 -68.329418 
L 925.222045 -67.159455 
L 923.029353 -65.989492 
L 921.578752 -64.819529 
L 920.688192 -63.649566 
L 920.181336 -62.479603 
L 919.914264 -61.309639 
z
" id="me7e89765d3" style="stroke:#464646;stroke-width:3;"/>
    </defs>
    <g clip-path="url(#p827fe13087)">
     <use style="fill:#e78cd7;stroke:#464646;stroke-width:3;" x="0" xlink:href="#me7e89765d3" y="288"/>
    </g>
   </g>
   <g id="line2d_10">
    <path clip-path="url(#p827fe13087)" d="M 187.3125 233.349076 
L 187.3125 169.576728 
" style="fill:none;stroke:#464646;stroke-linecap:round;stroke-width:3;"/>
   </g>
   <g id="line2d_11">
    <path clip-path="url(#p827fe13087)" d="M 187.3125 211.038626 
L 187.3125 194.355148 
" style="fill:none;stroke:#464646;stroke-linecap:round;stroke-width:9;"/>
   </g>
   <g id="line2d_12">
    <path clip-path="url(#p827fe13087)" d="M 291.9375 226.134983 
L 291.9375 171.034223 
" style="fill:none;stroke:#464646;stroke-linecap:round;stroke-width:3;"/>
   </g>
   <g id="line2d_13">
    <path clip-path="url(#p827fe13087)" d="M 291.9375 211.3009 
L 291.9375 195.163565 
" style="fill:none;stroke:#464646;stroke-linecap:round;stroke-width:9;"/>
   </g>
   <g id="line2d_14">
    <path clip-path="url(#p827fe13087)" d="M 396.5625 215.860867 
L 396.5625 180.186709 
" style="fill:none;stroke:#464646;stroke-linecap:round;stroke-width:3;"/>
   </g>
   <g id="line2d_15">
    <path clip-path="url(#p827fe13087)" d="M 396.5625 209.96153 
L 396.5625 197.933517 
" style="fill:none;stroke:#464646;stroke-linecap:round;stroke-width:9;"/>
   </g>
   <g id="line2d_16">
    <path clip-path="url(#p827fe13087)" d="M 501.1875 222.544158 
L 501.1875 171.871618 
" style="fill:none;stroke:#464646;stroke-linecap:round;stroke-width:3;"/>
   </g>
   <g id="line2d_17">
    <path clip-path="url(#p827fe13087)" d="M 501.1875 210.924649 
L 501.1875 195.223471 
" style="fill:none;stroke:#464646;stroke-linecap:round;stroke-width:9;"/>
   </g>
   <g id="line2d_18">
    <path clip-path="url(#p827fe13087)" d="M 605.8125 215.64624 
L 605.8125 181.460283 
" style="fill:none;stroke:#464646;stroke-linecap:round;stroke-width:3;"/>
   </g>
   <g id="line2d_19">
    <path clip-path="url(#p827fe13087)" d="M 605.8125 209.964196 
L 605.8125 198.2454 
" style="fill:none;stroke:#464646;stroke-linecap:round;stroke-width:9;"/>
   </g>
   <g id="line2d_20">
    <path clip-path="url(#p827fe13087)" d="M 710.4375 211.506261 
L 710.4375 188.69206 
" style="fill:none;stroke:#464646;stroke-linecap:round;stroke-width:3;"/>
   </g>
   <g id="line2d_21">
    <path clip-path="url(#p827fe13087)" d="M 710.4375 208.219979 
L 710.4375 200.08756 
" style="fill:none;stroke:#464646;stroke-linecap:round;stroke-width:9;"/>
   </g>
   <g id="line2d_22">
    <path clip-path="url(#p827fe13087)" d="M 815.0625 225.542826 
L 815.0625 177.244245 
" style="fill:none;stroke:#464646;stroke-linecap:round;stroke-width:3;"/>
   </g>
   <g id="line2d_23">
    <path clip-path="url(#p827fe13087)" d="M 815.0625 209.967581 
L 815.0625 196.551058 
" style="fill:none;stroke:#464646;stroke-linecap:round;stroke-width:9;"/>
   </g>
   <g id="line2d_24">
    <path clip-path="url(#p827fe13087)" d="M 919.6875 219.080892 
L 919.6875 174.970133 
" style="fill:none;stroke:#464646;stroke-linecap:round;stroke-width:3;"/>
   </g>
   <g id="line2d_25">
    <path clip-path="url(#p827fe13087)" d="M 919.6875 210.899192 
L 919.6875 196.263106 
" style="fill:none;stroke:#464646;stroke-linecap:round;stroke-width:9;"/>
   </g>
   <g id="patch_3">
    <path d="M 135 256.32 
L 135 34.56 
" style="fill:none;"/>
   </g>
   <g id="patch_4">
    <path d="M 972 256.32 
L 972 34.56 
" style="fill:none;"/>
   </g>
   <g id="patch_5">
    <path d="M 135 256.32 
L 972 256.32 
" style="fill:none;"/>
   </g>
   <g id="patch_6">
    <path d="M 135 34.56 
L 972 34.56 
" style="fill:none;"/>
   </g>
   <g id="PathCollection_1">
    <defs>
     <path d="M 0 3 
C 0.795609 3 1.55874 2.683901 2.12132 2.12132 
C 2.683901 1.55874 3 0.795609 3 0 
C 3 -0.795609 2.683901 -1.55874 2.12132 -2.12132 
C 1.55874 -2.683901 0.795609 -3 0 -3 
C -0.795609 -3 -1.55874 -2.683901 -2.12132 -2.12132 
C -2.683901 -1.55874 -3 -0.795609 -3 0 
C -3 0.795609 -2.683901 1.55874 -2.12132 2.12132 
C -1.55874 2.683901 -0.795609 3 0 3 
z
" id="mb6822fc7b9" style="stroke:#464646;stroke-width:0.3;"/>
    </defs>
    <g clip-path="url(#p827fe13087)">
     <use style="fill:#ffffff;stroke:#464646;stroke-width:0.3;" x="187.3125" xlink:href="#mb6822fc7b9" y="202.499449"/>
    </g>
   </g>
   <g id="PathCollection_2">
    <g clip-path="url(#p827fe13087)">
     <use style="fill:#ffffff;stroke:#464646;stroke-width:0.3;" x="291.9375" xlink:href="#mb6822fc7b9" y="203.941355"/>
    </g>
   </g>
   <g id="PathCollection_3">
    <g clip-path="url(#p827fe13087)">
     <use style="fill:#ffffff;stroke:#464646;stroke-width:0.3;" x="396.5625" xlink:href="#mb6822fc7b9" y="205.482132"/>
    </g>
   </g>
   <g id="PathCollection_4">
    <g clip-path="url(#p827fe13087)">
     <use style="fill:#ffffff;stroke:#464646;stroke-width:0.3;" x="501.1875" xlink:href="#mb6822fc7b9" y="204.201179"/>
    </g>
   </g>
   <g id="PathCollection_5">
    <g clip-path="url(#p827fe13087)">
     <use style="fill:#ffffff;stroke:#464646;stroke-width:0.3;" x="605.8125" xlink:href="#mb6822fc7b9" y="205.406515"/>
    </g>
   </g>
   <g id="PathCollection_6">
    <g clip-path="url(#p827fe13087)">
     <use style="fill:#ffffff;stroke:#464646;stroke-width:0.3;" x="710.4375" xlink:href="#mb6822fc7b9" y="206.23298"/>
    </g>
   </g>
   <g id="PathCollection_7">
    <g clip-path="url(#p827fe13087)">
     <use style="fill:#ffffff;stroke:#464646;stroke-width:0.3;" x="815.0625" xlink:href="#mb6822fc7b9" y="204.509936"/>
    </g>
   </g>
   <g id="PathCollection_8">
    <g clip-path="url(#p827fe13087)">
     <use style="fill:#ffffff;stroke:#464646;stroke-width:0.3;" x="919.6875" xlink:href="#mb6822fc7b9" y="205.330377"/>
    </g>
   </g>
  </g>
  <g id="text_18">
   <!-- Violin Plot of all Continuous Variables -->
   <defs>
    <path d="M 28.171875 0 
L 0.4375 71.578125 
L 10.6875 71.578125 
L 29.296875 19.578125 
Q 31.546875 13.328125 33.0625 7.859375 
Q 34.71875 13.71875 36.921875 19.578125 
L 56.25 71.578125 
L 65.921875 71.578125 
L 37.890625 0 
z
" id="ArialMT-86"/>
    <path id="ArialMT-32"/>
    <path d="M 7.71875 0 
L 7.71875 71.578125 
L 34.71875 71.578125 
Q 41.84375 71.578125 45.609375 70.90625 
Q 50.875 70.015625 54.4375 67.546875 
Q 58.015625 65.09375 60.1875 60.640625 
Q 62.359375 56.203125 62.359375 50.875 
Q 62.359375 41.75 56.546875 35.421875 
Q 50.734375 29.109375 35.546875 29.109375 
L 17.1875 29.109375 
L 17.1875 0 
z
M 17.1875 37.546875 
L 35.6875 37.546875 
Q 44.875 37.546875 48.734375 40.96875 
Q 52.59375 44.390625 52.59375 50.59375 
Q 52.59375 55.078125 50.3125 58.265625 
Q 48.046875 61.46875 44.34375 62.5 
Q 41.9375 63.140625 35.5 63.140625 
L 17.1875 63.140625 
z
" id="ArialMT-80"/>
    <path d="M 58.796875 25.09375 
L 68.265625 22.703125 
Q 65.28125 11.03125 57.546875 4.90625 
Q 49.8125 -1.21875 38.625 -1.21875 
Q 27.046875 -1.21875 19.796875 3.484375 
Q 12.546875 8.203125 8.765625 17.140625 
Q 4.984375 26.078125 4.984375 36.328125 
Q 4.984375 47.515625 9.25 55.828125 
Q 13.53125 64.15625 21.40625 68.46875 
Q 29.296875 72.796875 38.765625 72.796875 
Q 49.515625 72.796875 56.828125 67.328125 
Q 64.15625 61.859375 67.046875 51.953125 
L 57.71875 49.75 
Q 55.21875 57.5625 50.484375 61.125 
Q 45.75 64.703125 38.578125 64.703125 
Q 30.328125 64.703125 24.78125 60.734375 
Q 19.234375 56.78125 16.984375 50.109375 
Q 14.75 43.453125 14.75 36.375 
Q 14.75 27.25 17.40625 20.4375 
Q 20.0625 13.625 25.671875 10.25 
Q 31.296875 6.890625 37.84375 6.890625 
Q 45.796875 6.890625 51.3125 11.46875 
Q 56.84375 16.0625 58.796875 25.09375 
z
" id="ArialMT-67"/>
    <path d="M 14.703125 0 
L 6.546875 0 
L 6.546875 71.578125 
L 15.328125 71.578125 
L 15.328125 46.046875 
Q 20.90625 53.03125 29.546875 53.03125 
Q 34.328125 53.03125 38.59375 51.09375 
Q 42.875 49.171875 45.625 45.671875 
Q 48.390625 42.1875 49.953125 37.25 
Q 51.515625 32.328125 51.515625 26.703125 
Q 51.515625 13.375 44.921875 6.09375 
Q 38.328125 -1.171875 29.109375 -1.171875 
Q 19.921875 -1.171875 14.703125 6.5 
z
M 14.59375 26.3125 
Q 14.59375 17 17.140625 12.84375 
Q 21.296875 6.0625 28.375 6.0625 
Q 34.125 6.0625 38.328125 11.0625 
Q 42.53125 16.0625 42.53125 25.984375 
Q 42.53125 36.140625 38.5 40.96875 
Q 34.46875 45.796875 28.765625 45.796875 
Q 23 45.796875 18.796875 40.796875 
Q 14.59375 35.796875 14.59375 26.3125 
z
" id="ArialMT-98"/>
   </defs>
   <g style="fill:#262626;" transform="translate(373.814062 -8.724375)scale(0.2 -0.2)">
    <use xlink:href="#ArialMT-86"/>
    <use x="66.683594" xlink:href="#ArialMT-105"/>
    <use x="88.900391" xlink:href="#ArialMT-111"/>
    <use x="144.515625" xlink:href="#ArialMT-108"/>
    <use x="166.732422" xlink:href="#ArialMT-105"/>
    <use x="188.949219" xlink:href="#ArialMT-110"/>
    <use x="244.564453" xlink:href="#ArialMT-32"/>
    <use x="272.347656" xlink:href="#ArialMT-80"/>
    <use x="339.046875" xlink:href="#ArialMT-108"/>
    <use x="361.263672" xlink:href="#ArialMT-111"/>
    <use x="416.878906" xlink:href="#ArialMT-116"/>
    <use x="444.662109" xlink:href="#ArialMT-32"/>
    <use x="472.445312" xlink:href="#ArialMT-111"/>
    <use x="528.060547" xlink:href="#ArialMT-102"/>
    <use x="555.84375" xlink:href="#ArialMT-32"/>
    <use x="583.626953" xlink:href="#ArialMT-97"/>
    <use x="639.242188" xlink:href="#ArialMT-108"/>
    <use x="661.458984" xlink:href="#ArialMT-108"/>
    <use x="683.675781" xlink:href="#ArialMT-32"/>
    <use x="711.458984" xlink:href="#ArialMT-67"/>
    <use x="783.675781" xlink:href="#ArialMT-111"/>
    <use x="839.291016" xlink:href="#ArialMT-110"/>
    <use x="894.90625" xlink:href="#ArialMT-116"/>
    <use x="922.689453" xlink:href="#ArialMT-105"/>
    <use x="944.90625" xlink:href="#ArialMT-110"/>
    <use x="1000.521484" xlink:href="#ArialMT-117"/>
    <use x="1056.136719" xlink:href="#ArialMT-111"/>
    <use x="1111.751953" xlink:href="#ArialMT-117"/>
    <use x="1167.367188" xlink:href="#ArialMT-115"/>
    <use x="1217.367188" xlink:href="#ArialMT-32"/>
    <use x="1245.150391" xlink:href="#ArialMT-86"/>
    <use x="1311.740234" xlink:href="#ArialMT-97"/>
    <use x="1367.355469" xlink:href="#ArialMT-114"/>
    <use x="1400.65625" xlink:href="#ArialMT-105"/>
    <use x="1422.873047" xlink:href="#ArialMT-97"/>
    <use x="1478.488281" xlink:href="#ArialMT-98"/>
    <use x="1534.103516" xlink:href="#ArialMT-108"/>
    <use x="1556.320312" xlink:href="#ArialMT-101"/>
    <use x="1611.935547" xlink:href="#ArialMT-115"/>
   </g>
  </g>
 </g>
 <defs>
  <clipPath id="p827fe13087">
   <rect height="221.76" width="837" x="135" y="34.56"/>
  </clipPath>
 </defs>
</svg>
