<?xml version="1.0" encoding="utf-8" standalone="no"?>
<!DOCTYPE svg PUBLIC "-//W3C//DTD SVG 1.1//EN"
  "http://www.w3.org/Graphics/SVG/1.1/DTD/svg11.dtd">
<!-- Created with matplotlib (https://matplotlib.org/) -->
<svg height="288pt" version="1.1" viewBox="0 0 1080 288" width="1080pt" xmlns="http://www.w3.org/2000/svg" xmlns:xlink="http://www.w3.org/1999/xlink">
 <defs>
  <style type="text/css">
*{stroke-linecap:butt;stroke-linejoin:round;}
  </style>
 </defs>
 <g id="figure_1">
  <g id="patch_1">
   <path d="M 0 288 
L 1080 288 
L 1080 0 
L 0 0 
z
" style="fill:#ffffff;"/>
  </g>
  <g id="axes_1">
   <g id="patch_2">
    <path d="M 135 256.32 
L 972 256.32 
L 972 34.56 
L 135 34.56 
z
" style="fill:#eaeaf2;"/>
   </g>
   <g id="matplotlib.axis_1">
    <g id="xtick_1">
     <g id="text_1">
      <!-- crim -->
      <defs>
       <path d="M 40.4375 19 
L 49.078125 17.875 
Q 47.65625 8.9375 41.8125 3.875 
Q 35.984375 -1.171875 27.484375 -1.171875 
Q 16.84375 -1.171875 10.375 5.78125 
Q 3.90625 12.75 3.90625 25.734375 
Q 3.90625 34.125 6.6875 40.421875 
Q 9.46875 46.734375 15.15625 49.875 
Q 20.84375 53.03125 27.546875 53.03125 
Q 35.984375 53.03125 41.359375 48.75 
Q 46.734375 44.484375 48.25 36.625 
L 39.703125 35.296875 
Q 38.484375 40.53125 35.375 43.15625 
Q 32.28125 45.796875 27.875 45.796875 
Q 21.234375 45.796875 17.078125 41.03125 
Q 12.9375 36.28125 12.9375 25.984375 
Q 12.9375 15.53125 16.9375 10.796875 
Q 20.953125 6.0625 27.390625 6.0625 
Q 32.5625 6.0625 36.03125 9.234375 
Q 39.5 12.40625 40.4375 19 
z
" id="ArialMT-99"/>
       <path d="M 6.5 0 
L 6.5 51.859375 
L 14.40625 51.859375 
L 14.40625 44 
Q 17.4375 49.515625 20 51.265625 
Q 22.5625 53.03125 25.640625 53.03125 
Q 30.078125 53.03125 34.671875 50.203125 
L 31.640625 42.046875 
Q 28.421875 43.953125 25.203125 43.953125 
Q 22.3125 43.953125 20.015625 42.21875 
Q 17.71875 40.484375 16.75 37.40625 
Q 15.28125 32.71875 15.28125 27.15625 
L 15.28125 0 
z
" id="ArialMT-114"/>
       <path d="M 6.640625 61.46875 
L 6.640625 71.578125 
L 15.4375 71.578125 
L 15.4375 61.46875 
z
M 6.640625 0 
L 6.640625 51.859375 
L 15.4375 51.859375 
L 15.4375 0 
z
" id="ArialMT-105"/>
       <path d="M 6.59375 0 
L 6.59375 51.859375 
L 14.453125 51.859375 
L 14.453125 44.578125 
Q 16.890625 48.390625 20.9375 50.703125 
Q 25 53.03125 30.171875 53.03125 
Q 35.9375 53.03125 39.625 50.640625 
Q 43.3125 48.25 44.828125 43.953125 
Q 50.984375 53.03125 60.84375 53.03125 
Q 68.5625 53.03125 72.703125 48.75 
Q 76.859375 44.484375 76.859375 35.59375 
L 76.859375 0 
L 68.109375 0 
L 68.109375 32.671875 
Q 68.109375 37.9375 67.25 40.25 
Q 66.40625 42.578125 64.15625 43.984375 
Q 61.921875 45.40625 58.890625 45.40625 
Q 53.421875 45.40625 49.796875 41.765625 
Q 46.1875 38.140625 46.1875 30.125 
L 46.1875 0 
L 37.40625 0 
L 37.40625 33.6875 
Q 37.40625 39.546875 35.25 42.46875 
Q 33.109375 45.40625 28.21875 45.40625 
Q 24.515625 45.40625 21.359375 43.453125 
Q 18.21875 41.5 16.796875 37.734375 
Q 15.375 33.984375 15.375 26.90625 
L 15.375 0 
z
" id="ArialMT-109"/>
      </defs>
      <g style="fill:#262626;" transform="translate(177.871875 270.477813)scale(0.1 -0.1)">
       <use xlink:href="#ArialMT-99"/>
       <use x="50" xlink:href="#ArialMT-114"/>
       <use x="83.300781" xlink:href="#ArialMT-105"/>
       <use x="105.517578" xlink:href="#ArialMT-109"/>
      </g>
     </g>
    </g>
    <g id="xtick_2">
     <g id="text_2">
      <!-- indus -->
      <defs>
       <path d="M 6.59375 0 
L 6.59375 51.859375 
L 14.5 51.859375 
L 14.5 44.484375 
Q 20.21875 53.03125 31 53.03125 
Q 35.6875 53.03125 39.625 51.34375 
Q 43.5625 49.65625 45.515625 46.921875 
Q 47.46875 44.1875 48.25 40.4375 
Q 48.734375 37.984375 48.734375 31.890625 
L 48.734375 0 
L 39.9375 0 
L 39.9375 31.546875 
Q 39.9375 36.921875 38.90625 39.578125 
Q 37.890625 42.234375 35.28125 43.8125 
Q 32.671875 45.40625 29.15625 45.40625 
Q 23.53125 45.40625 19.453125 41.84375 
Q 15.375 38.28125 15.375 28.328125 
L 15.375 0 
z
" id="ArialMT-110"/>
       <path d="M 40.234375 0 
L 40.234375 6.546875 
Q 35.296875 -1.171875 25.734375 -1.171875 
Q 19.53125 -1.171875 14.328125 2.25 
Q 9.125 5.671875 6.265625 11.796875 
Q 3.421875 17.921875 3.421875 25.875 
Q 3.421875 33.640625 6 39.96875 
Q 8.59375 46.296875 13.765625 49.65625 
Q 18.953125 53.03125 25.34375 53.03125 
Q 30.03125 53.03125 33.6875 51.046875 
Q 37.359375 49.078125 39.65625 45.90625 
L 39.65625 71.578125 
L 48.390625 71.578125 
L 48.390625 0 
z
M 12.453125 25.875 
Q 12.453125 15.921875 16.640625 10.984375 
Q 20.84375 6.0625 26.5625 6.0625 
Q 32.328125 6.0625 36.34375 10.765625 
Q 40.375 15.484375 40.375 25.140625 
Q 40.375 35.796875 36.265625 40.765625 
Q 32.171875 45.75 26.171875 45.75 
Q 20.3125 45.75 16.375 40.96875 
Q 12.453125 36.1875 12.453125 25.875 
z
" id="ArialMT-100"/>
       <path d="M 40.578125 0 
L 40.578125 7.625 
Q 34.515625 -1.171875 24.125 -1.171875 
Q 19.53125 -1.171875 15.546875 0.578125 
Q 11.578125 2.34375 9.640625 5 
Q 7.71875 7.671875 6.9375 11.53125 
Q 6.390625 14.109375 6.390625 19.734375 
L 6.390625 51.859375 
L 15.1875 51.859375 
L 15.1875 23.09375 
Q 15.1875 16.21875 15.71875 13.8125 
Q 16.546875 10.359375 19.234375 8.375 
Q 21.921875 6.390625 25.875 6.390625 
Q 29.828125 6.390625 33.296875 8.421875 
Q 36.765625 10.453125 38.203125 13.9375 
Q 39.65625 17.4375 39.65625 24.078125 
L 39.65625 51.859375 
L 48.4375 51.859375 
L 48.4375 0 
z
" id="ArialMT-117"/>
       <path d="M 3.078125 15.484375 
L 11.765625 16.84375 
Q 12.5 11.625 15.84375 8.84375 
Q 19.1875 6.0625 25.203125 6.0625 
Q 31.25 6.0625 34.171875 8.515625 
Q 37.109375 10.984375 37.109375 14.3125 
Q 37.109375 17.28125 34.515625 19 
Q 32.71875 20.171875 25.53125 21.96875 
Q 15.875 24.421875 12.140625 26.203125 
Q 8.40625 27.984375 6.46875 31.125 
Q 4.546875 34.28125 4.546875 38.09375 
Q 4.546875 41.546875 6.125 44.5 
Q 7.71875 47.46875 10.453125 49.421875 
Q 12.5 50.921875 16.03125 51.96875 
Q 19.578125 53.03125 23.640625 53.03125 
Q 29.734375 53.03125 34.34375 51.265625 
Q 38.96875 49.515625 41.15625 46.5 
Q 43.359375 43.5 44.1875 38.484375 
L 35.59375 37.3125 
Q 35.015625 41.3125 32.203125 43.546875 
Q 29.390625 45.796875 24.265625 45.796875 
Q 18.21875 45.796875 15.625 43.796875 
Q 13.03125 41.796875 13.03125 39.109375 
Q 13.03125 37.40625 14.109375 36.03125 
Q 15.1875 34.625 17.484375 33.6875 
Q 18.796875 33.203125 25.25 31.453125 
Q 34.578125 28.953125 38.25 27.359375 
Q 41.9375 25.78125 44.03125 22.75 
Q 46.140625 19.734375 46.140625 15.234375 
Q 46.140625 10.84375 43.578125 6.953125 
Q 41.015625 3.078125 36.171875 0.953125 
Q 31.34375 -1.171875 25.25 -1.171875 
Q 15.140625 -1.171875 9.84375 3.03125 
Q 4.546875 7.234375 3.078125 15.484375 
z
" id="ArialMT-115"/>
      </defs>
      <g style="fill:#262626;" transform="translate(279.985156 270.477813)scale(0.1 -0.1)">
       <use xlink:href="#ArialMT-105"/>
       <use x="22.216797" xlink:href="#ArialMT-110"/>
       <use x="77.832031" xlink:href="#ArialMT-100"/>
       <use x="133.447266" xlink:href="#ArialMT-117"/>
       <use x="189.0625" xlink:href="#ArialMT-115"/>
      </g>
     </g>
    </g>
    <g id="xtick_3">
     <g id="text_3">
      <!-- nox -->
      <defs>
       <path d="M 3.328125 25.921875 
Q 3.328125 40.328125 11.328125 47.265625 
Q 18.015625 53.03125 27.640625 53.03125 
Q 38.328125 53.03125 45.109375 46.015625 
Q 51.90625 39.015625 51.90625 26.65625 
Q 51.90625 16.65625 48.90625 10.90625 
Q 45.90625 5.171875 40.15625 2 
Q 34.421875 -1.171875 27.640625 -1.171875 
Q 16.75 -1.171875 10.03125 5.8125 
Q 3.328125 12.796875 3.328125 25.921875 
z
M 12.359375 25.921875 
Q 12.359375 15.96875 16.703125 11.015625 
Q 21.046875 6.0625 27.640625 6.0625 
Q 34.1875 6.0625 38.53125 11.03125 
Q 42.875 16.015625 42.875 26.21875 
Q 42.875 35.84375 38.5 40.796875 
Q 34.125 45.75 27.640625 45.75 
Q 21.046875 45.75 16.703125 40.8125 
Q 12.359375 35.890625 12.359375 25.921875 
z
" id="ArialMT-111"/>
       <path d="M 0.734375 0 
L 19.671875 26.953125 
L 2.15625 51.859375 
L 13.140625 51.859375 
L 21.09375 39.703125 
Q 23.34375 36.234375 24.703125 33.890625 
Q 26.859375 37.109375 28.65625 39.59375 
L 37.40625 51.859375 
L 47.90625 51.859375 
L 29.984375 27.4375 
L 49.265625 0 
L 38.484375 0 
L 27.828125 16.109375 
L 25 20.453125 
L 11.375 0 
z
" id="ArialMT-120"/>
      </defs>
      <g style="fill:#262626;" transform="translate(388.501562 270.477813)scale(0.1 -0.1)">
       <use xlink:href="#ArialMT-110"/>
       <use x="55.615234" xlink:href="#ArialMT-111"/>
       <use x="111.230469" xlink:href="#ArialMT-120"/>
      </g>
     </g>
    </g>
    <g id="xtick_4">
     <g id="text_4">
      <!-- rm -->
      <g style="fill:#262626;" transform="translate(495.357813 270.477813)scale(0.1 -0.1)">
       <use xlink:href="#ArialMT-114"/>
       <use x="33.300781" xlink:href="#ArialMT-109"/>
      </g>
     </g>
    </g>
    <g id="xtick_5">
     <g id="text_5">
      <!-- age -->
      <defs>
       <path d="M 40.4375 6.390625 
Q 35.546875 2.25 31.03125 0.53125 
Q 26.515625 -1.171875 21.34375 -1.171875 
Q 12.796875 -1.171875 8.203125 3 
Q 3.609375 7.171875 3.609375 13.671875 
Q 3.609375 17.484375 5.34375 20.625 
Q 7.078125 23.78125 9.890625 25.6875 
Q 12.703125 27.59375 16.21875 28.5625 
Q 18.796875 29.25 24.03125 29.890625 
Q 34.671875 31.15625 39.703125 32.90625 
Q 39.75 34.71875 39.75 35.203125 
Q 39.75 40.578125 37.25 42.78125 
Q 33.890625 45.75 27.25 45.75 
Q 21.046875 45.75 18.09375 43.578125 
Q 15.140625 41.40625 13.71875 35.890625 
L 5.125 37.0625 
Q 6.296875 42.578125 8.984375 45.96875 
Q 11.671875 49.359375 16.75 51.1875 
Q 21.828125 53.03125 28.515625 53.03125 
Q 35.15625 53.03125 39.296875 51.46875 
Q 43.453125 49.90625 45.40625 47.53125 
Q 47.359375 45.171875 48.140625 41.546875 
Q 48.578125 39.3125 48.578125 33.453125 
L 48.578125 21.734375 
Q 48.578125 9.46875 49.140625 6.21875 
Q 49.703125 2.984375 51.375 0 
L 42.1875 0 
Q 40.828125 2.734375 40.4375 6.390625 
z
M 39.703125 26.03125 
Q 34.90625 24.078125 25.34375 22.703125 
Q 19.921875 21.921875 17.671875 20.9375 
Q 15.4375 19.96875 14.203125 18.09375 
Q 12.984375 16.21875 12.984375 13.921875 
Q 12.984375 10.40625 15.640625 8.0625 
Q 18.3125 5.71875 23.4375 5.71875 
Q 28.515625 5.71875 32.46875 7.9375 
Q 36.421875 10.15625 38.28125 14.015625 
Q 39.703125 17 39.703125 22.796875 
z
" id="ArialMT-97"/>
       <path d="M 4.984375 -4.296875 
L 13.53125 -5.5625 
Q 14.0625 -9.515625 16.5 -11.328125 
Q 19.78125 -13.765625 25.4375 -13.765625 
Q 31.546875 -13.765625 34.859375 -11.328125 
Q 38.1875 -8.890625 39.359375 -4.5 
Q 40.046875 -1.8125 39.984375 6.78125 
Q 34.234375 0 25.640625 0 
Q 14.9375 0 9.078125 7.71875 
Q 3.21875 15.4375 3.21875 26.21875 
Q 3.21875 33.640625 5.90625 39.90625 
Q 8.59375 46.1875 13.6875 49.609375 
Q 18.796875 53.03125 25.6875 53.03125 
Q 34.859375 53.03125 40.828125 45.609375 
L 40.828125 51.859375 
L 48.921875 51.859375 
L 48.921875 7.03125 
Q 48.921875 -5.078125 46.453125 -10.125 
Q 44 -15.1875 38.640625 -18.109375 
Q 33.296875 -21.046875 25.484375 -21.046875 
Q 16.21875 -21.046875 10.5 -16.875 
Q 4.78125 -12.703125 4.984375 -4.296875 
z
M 12.25 26.859375 
Q 12.25 16.65625 16.296875 11.96875 
Q 20.359375 7.28125 26.46875 7.28125 
Q 32.515625 7.28125 36.609375 11.9375 
Q 40.71875 16.609375 40.71875 26.5625 
Q 40.71875 36.078125 36.5 40.90625 
Q 32.28125 45.75 26.3125 45.75 
Q 20.453125 45.75 16.34375 40.984375 
Q 12.25 36.234375 12.25 26.859375 
z
" id="ArialMT-103"/>
       <path d="M 42.09375 16.703125 
L 51.171875 15.578125 
Q 49.03125 7.625 43.21875 3.21875 
Q 37.40625 -1.171875 28.375 -1.171875 
Q 17 -1.171875 10.328125 5.828125 
Q 3.65625 12.84375 3.65625 25.484375 
Q 3.65625 38.578125 10.390625 45.796875 
Q 17.140625 53.03125 27.875 53.03125 
Q 38.28125 53.03125 44.875 45.953125 
Q 51.46875 38.875 51.46875 26.03125 
Q 51.46875 25.25 51.421875 23.6875 
L 12.75 23.6875 
Q 13.234375 15.140625 17.578125 10.59375 
Q 21.921875 6.0625 28.421875 6.0625 
Q 33.25 6.0625 36.671875 8.59375 
Q 40.09375 11.140625 42.09375 16.703125 
z
M 13.234375 30.90625 
L 42.1875 30.90625 
Q 41.609375 37.453125 38.875 40.71875 
Q 34.671875 45.796875 27.984375 45.796875 
Q 21.921875 45.796875 17.796875 41.75 
Q 13.671875 37.703125 13.234375 30.90625 
z
" id="ArialMT-101"/>
      </defs>
      <g style="fill:#262626;" transform="translate(597.471094 270.360625)scale(0.1 -0.1)">
       <use xlink:href="#ArialMT-97"/>
       <use x="55.615234" xlink:href="#ArialMT-103"/>
       <use x="111.230469" xlink:href="#ArialMT-101"/>
      </g>
     </g>
    </g>
    <g id="xtick_6">
     <g id="text_6">
      <!-- dis -->
      <g style="fill:#262626;" transform="translate(704.046094 270.477813)scale(0.1 -0.1)">
       <use xlink:href="#ArialMT-100"/>
       <use x="55.615234" xlink:href="#ArialMT-105"/>
       <use x="77.832031" xlink:href="#ArialMT-115"/>
      </g>
     </g>
    </g>
    <g id="xtick_7">
     <g id="text_7">
      <!-- black -->
      <defs>
       <path d="M 14.703125 0 
L 6.546875 0 
L 6.546875 71.578125 
L 15.328125 71.578125 
L 15.328125 46.046875 
Q 20.90625 53.03125 29.546875 53.03125 
Q 34.328125 53.03125 38.59375 51.09375 
Q 42.875 49.171875 45.625 45.671875 
Q 48.390625 42.1875 49.953125 37.25 
Q 51.515625 32.328125 51.515625 26.703125 
Q 51.515625 13.375 44.921875 6.09375 
Q 38.328125 -1.171875 29.109375 -1.171875 
Q 19.921875 -1.171875 14.703125 6.5 
z
M 14.59375 26.3125 
Q 14.59375 17 17.140625 12.84375 
Q 21.296875 6.0625 28.375 6.0625 
Q 34.125 6.0625 38.328125 11.0625 
Q 42.53125 16.0625 42.53125 25.984375 
Q 42.53125 36.140625 38.5 40.96875 
Q 34.46875 45.796875 28.765625 45.796875 
Q 23 45.796875 18.796875 40.796875 
Q 14.59375 35.796875 14.59375 26.3125 
z
" id="ArialMT-98"/>
       <path d="M 6.390625 0 
L 6.390625 71.578125 
L 15.1875 71.578125 
L 15.1875 0 
z
" id="ArialMT-108"/>
       <path d="M 6.640625 0 
L 6.640625 71.578125 
L 15.4375 71.578125 
L 15.4375 30.765625 
L 36.234375 51.859375 
L 47.609375 51.859375 
L 27.78125 32.625 
L 49.609375 0 
L 38.765625 0 
L 21.625 26.515625 
L 15.4375 20.5625 
L 15.4375 0 
z
" id="ArialMT-107"/>
      </defs>
      <g style="fill:#262626;" transform="translate(803.390625 270.477813)scale(0.1 -0.1)">
       <use xlink:href="#ArialMT-98"/>
       <use x="55.615234" xlink:href="#ArialMT-108"/>
       <use x="77.832031" xlink:href="#ArialMT-97"/>
       <use x="133.447266" xlink:href="#ArialMT-99"/>
       <use x="183.447266" xlink:href="#ArialMT-107"/>
      </g>
     </g>
    </g>
    <g id="xtick_8">
     <g id="text_8">
      <!-- lstat -->
      <defs>
       <path d="M 25.78125 7.859375 
L 27.046875 0.09375 
Q 23.34375 -0.6875 20.40625 -0.6875 
Q 15.625 -0.6875 12.984375 0.828125 
Q 10.359375 2.34375 9.28125 4.8125 
Q 8.203125 7.28125 8.203125 15.1875 
L 8.203125 45.015625 
L 1.765625 45.015625 
L 1.765625 51.859375 
L 8.203125 51.859375 
L 8.203125 64.703125 
L 16.9375 69.96875 
L 16.9375 51.859375 
L 25.78125 51.859375 
L 25.78125 45.015625 
L 16.9375 45.015625 
L 16.9375 14.703125 
Q 16.9375 10.9375 17.40625 9.859375 
Q 17.875 8.796875 18.921875 8.15625 
Q 19.96875 7.515625 21.921875 7.515625 
Q 23.390625 7.515625 25.78125 7.859375 
z
" id="ArialMT-116"/>
      </defs>
      <g style="fill:#262626;" transform="translate(910.517969 270.477813)scale(0.1 -0.1)">
       <use xlink:href="#ArialMT-108"/>
       <use x="22.216797" xlink:href="#ArialMT-115"/>
       <use x="72.216797" xlink:href="#ArialMT-116"/>
       <use x="100" xlink:href="#ArialMT-97"/>
       <use x="155.615234" xlink:href="#ArialMT-116"/>
      </g>
     </g>
    </g>
   </g>
   <g id="matplotlib.axis_2">
    <g id="ytick_1">
     <g id="line2d_1">
      <path clip-path="url(#p29f678c1dd)" d="M 135 239.792674 
L 972 239.792674 
" style="fill:none;stroke:#ffffff;stroke-linecap:round;"/>
     </g>
     <g id="text_9">
      <!-- −4 -->
      <defs>
       <path d="M 52.828125 31.203125 
L 5.5625 31.203125 
L 5.5625 39.40625 
L 52.828125 39.40625 
z
" id="ArialMT-8722"/>
       <path d="M 32.328125 0 
L 32.328125 17.140625 
L 1.265625 17.140625 
L 1.265625 25.203125 
L 33.9375 71.578125 
L 41.109375 71.578125 
L 41.109375 25.203125 
L 50.78125 25.203125 
L 50.78125 17.140625 
L 41.109375 17.140625 
L 41.109375 0 
z
M 32.328125 25.203125 
L 32.328125 57.46875 
L 9.90625 25.203125 
z
" id="ArialMT-52"/>
      </defs>
      <g style="fill:#262626;" transform="translate(116.598438 243.37158)scale(0.1 -0.1)">
       <use xlink:href="#ArialMT-8722"/>
       <use x="58.398438" xlink:href="#ArialMT-52"/>
      </g>
     </g>
    </g>
    <g id="ytick_2">
     <g id="line2d_2">
      <path clip-path="url(#p29f678c1dd)" d="M 135 212.874719 
L 972 212.874719 
" style="fill:none;stroke:#ffffff;stroke-linecap:round;"/>
     </g>
     <g id="text_10">
      <!-- −2 -->
      <defs>
       <path d="M 50.34375 8.453125 
L 50.34375 0 
L 3.03125 0 
Q 2.9375 3.171875 4.046875 6.109375 
Q 5.859375 10.9375 9.828125 15.625 
Q 13.8125 20.3125 21.34375 26.46875 
Q 33.015625 36.03125 37.109375 41.625 
Q 41.21875 47.21875 41.21875 52.203125 
Q 41.21875 57.421875 37.46875 61 
Q 33.734375 64.59375 27.734375 64.59375 
Q 21.390625 64.59375 17.578125 60.78125 
Q 13.765625 56.984375 13.71875 50.25 
L 4.6875 51.171875 
Q 5.609375 61.28125 11.65625 66.578125 
Q 17.71875 71.875 27.9375 71.875 
Q 38.234375 71.875 44.234375 66.15625 
Q 50.25 60.453125 50.25 52 
Q 50.25 47.703125 48.484375 43.546875 
Q 46.734375 39.40625 42.65625 34.8125 
Q 38.578125 30.21875 29.109375 22.21875 
Q 21.1875 15.578125 18.9375 13.203125 
Q 16.703125 10.84375 15.234375 8.453125 
z
" id="ArialMT-50"/>
      </defs>
      <g style="fill:#262626;" transform="translate(116.598438 216.453625)scale(0.1 -0.1)">
       <use xlink:href="#ArialMT-8722"/>
       <use x="58.398438" xlink:href="#ArialMT-50"/>
      </g>
     </g>
    </g>
    <g id="ytick_3">
     <g id="line2d_3">
      <path clip-path="url(#p29f678c1dd)" d="M 135 185.956764 
L 972 185.956764 
" style="fill:none;stroke:#ffffff;stroke-linecap:round;"/>
     </g>
     <g id="text_11">
      <!-- 0 -->
      <defs>
       <path d="M 4.15625 35.296875 
Q 4.15625 48 6.765625 55.734375 
Q 9.375 63.484375 14.515625 67.671875 
Q 19.671875 71.875 27.484375 71.875 
Q 33.25 71.875 37.59375 69.546875 
Q 41.9375 67.234375 44.765625 62.859375 
Q 47.609375 58.5 49.21875 52.21875 
Q 50.828125 45.953125 50.828125 35.296875 
Q 50.828125 22.703125 48.234375 14.96875 
Q 45.65625 7.234375 40.5 3 
Q 35.359375 -1.21875 27.484375 -1.21875 
Q 17.140625 -1.21875 11.234375 6.203125 
Q 4.15625 15.140625 4.15625 35.296875 
z
M 13.1875 35.296875 
Q 13.1875 17.671875 17.3125 11.828125 
Q 21.4375 6 27.484375 6 
Q 33.546875 6 37.671875 11.859375 
Q 41.796875 17.71875 41.796875 35.296875 
Q 41.796875 52.984375 37.671875 58.78125 
Q 33.546875 64.59375 27.390625 64.59375 
Q 21.34375 64.59375 17.71875 59.46875 
Q 13.1875 52.9375 13.1875 35.296875 
z
" id="ArialMT-48"/>
      </defs>
      <g style="fill:#262626;" transform="translate(122.439063 189.535671)scale(0.1 -0.1)">
       <use xlink:href="#ArialMT-48"/>
      </g>
     </g>
    </g>
    <g id="ytick_4">
     <g id="line2d_4">
      <path clip-path="url(#p29f678c1dd)" d="M 135 159.03881 
L 972 159.03881 
" style="fill:none;stroke:#ffffff;stroke-linecap:round;"/>
     </g>
     <g id="text_12">
      <!-- 2 -->
      <g style="fill:#262626;" transform="translate(122.439063 162.617716)scale(0.1 -0.1)">
       <use xlink:href="#ArialMT-50"/>
      </g>
     </g>
    </g>
    <g id="ytick_5">
     <g id="line2d_5">
      <path clip-path="url(#p29f678c1dd)" d="M 135 132.120855 
L 972 132.120855 
" style="fill:none;stroke:#ffffff;stroke-linecap:round;"/>
     </g>
     <g id="text_13">
      <!-- 4 -->
      <g style="fill:#262626;" transform="translate(122.439063 135.699762)scale(0.1 -0.1)">
       <use xlink:href="#ArialMT-52"/>
      </g>
     </g>
    </g>
    <g id="ytick_6">
     <g id="line2d_6">
      <path clip-path="url(#p29f678c1dd)" d="M 135 105.202901 
L 972 105.202901 
" style="fill:none;stroke:#ffffff;stroke-linecap:round;"/>
     </g>
     <g id="text_14">
      <!-- 6 -->
      <defs>
       <path d="M 49.75 54.046875 
L 41.015625 53.375 
Q 39.84375 58.546875 37.703125 60.890625 
Q 34.125 64.65625 28.90625 64.65625 
Q 24.703125 64.65625 21.53125 62.3125 
Q 17.390625 59.28125 14.984375 53.46875 
Q 12.59375 47.65625 12.5 36.921875 
Q 15.671875 41.75 20.265625 44.09375 
Q 24.859375 46.4375 29.890625 46.4375 
Q 38.671875 46.4375 44.84375 39.96875 
Q 51.03125 33.5 51.03125 23.25 
Q 51.03125 16.5 48.125 10.71875 
Q 45.21875 4.9375 40.140625 1.859375 
Q 35.0625 -1.21875 28.609375 -1.21875 
Q 17.625 -1.21875 10.6875 6.859375 
Q 3.765625 14.9375 3.765625 33.5 
Q 3.765625 54.25 11.421875 63.671875 
Q 18.109375 71.875 29.4375 71.875 
Q 37.890625 71.875 43.28125 67.140625 
Q 48.6875 62.40625 49.75 54.046875 
z
M 13.875 23.1875 
Q 13.875 18.65625 15.796875 14.5 
Q 17.71875 10.359375 21.1875 8.171875 
Q 24.65625 6 28.46875 6 
Q 34.03125 6 38.03125 10.484375 
Q 42.046875 14.984375 42.046875 22.703125 
Q 42.046875 30.125 38.078125 34.390625 
Q 34.125 38.671875 28.125 38.671875 
Q 22.171875 38.671875 18.015625 34.390625 
Q 13.875 30.125 13.875 23.1875 
z
" id="ArialMT-54"/>
      </defs>
      <g style="fill:#262626;" transform="translate(122.439063 108.781807)scale(0.1 -0.1)">
       <use xlink:href="#ArialMT-54"/>
      </g>
     </g>
    </g>
    <g id="ytick_7">
     <g id="line2d_7">
      <path clip-path="url(#p29f678c1dd)" d="M 135 78.284946 
L 972 78.284946 
" style="fill:none;stroke:#ffffff;stroke-linecap:round;"/>
     </g>
     <g id="text_15">
      <!-- 8 -->
      <defs>
       <path d="M 17.671875 38.8125 
Q 12.203125 40.828125 9.5625 44.53125 
Q 6.9375 48.25 6.9375 53.421875 
Q 6.9375 61.234375 12.546875 66.546875 
Q 18.171875 71.875 27.484375 71.875 
Q 36.859375 71.875 42.578125 66.421875 
Q 48.296875 60.984375 48.296875 53.171875 
Q 48.296875 48.1875 45.671875 44.5 
Q 43.0625 40.828125 37.75 38.8125 
Q 44.34375 36.671875 47.78125 31.875 
Q 51.21875 27.09375 51.21875 20.453125 
Q 51.21875 11.28125 44.71875 5.03125 
Q 38.234375 -1.21875 27.640625 -1.21875 
Q 17.046875 -1.21875 10.546875 5.046875 
Q 4.046875 11.328125 4.046875 20.703125 
Q 4.046875 27.6875 7.59375 32.390625 
Q 11.140625 37.109375 17.671875 38.8125 
z
M 15.921875 53.71875 
Q 15.921875 48.640625 19.1875 45.40625 
Q 22.46875 42.1875 27.6875 42.1875 
Q 32.765625 42.1875 36.015625 45.375 
Q 39.265625 48.578125 39.265625 53.21875 
Q 39.265625 58.0625 35.90625 61.359375 
Q 32.5625 64.65625 27.59375 64.65625 
Q 22.5625 64.65625 19.234375 61.421875 
Q 15.921875 58.203125 15.921875 53.71875 
z
M 13.09375 20.65625 
Q 13.09375 16.890625 14.875 13.375 
Q 16.65625 9.859375 20.171875 7.921875 
Q 23.6875 6 27.734375 6 
Q 34.03125 6 38.125 10.046875 
Q 42.234375 14.109375 42.234375 20.359375 
Q 42.234375 26.703125 38.015625 30.859375 
Q 33.796875 35.015625 27.4375 35.015625 
Q 21.234375 35.015625 17.15625 30.90625 
Q 13.09375 26.8125 13.09375 20.65625 
z
" id="ArialMT-56"/>
      </defs>
      <g style="fill:#262626;" transform="translate(122.439063 81.863852)scale(0.1 -0.1)">
       <use xlink:href="#ArialMT-56"/>
      </g>
     </g>
    </g>
    <g id="ytick_8">
     <g id="line2d_8">
      <path clip-path="url(#p29f678c1dd)" d="M 135 51.366992 
L 972 51.366992 
" style="fill:none;stroke:#ffffff;stroke-linecap:round;"/>
     </g>
     <g id="text_16">
      <!-- 10 -->
      <defs>
       <path d="M 37.25 0 
L 28.46875 0 
L 28.46875 56 
Q 25.296875 52.984375 20.140625 49.953125 
Q 14.984375 46.921875 10.890625 45.40625 
L 10.890625 53.90625 
Q 18.265625 57.375 23.78125 62.296875 
Q 29.296875 67.234375 31.59375 71.875 
L 37.25 71.875 
z
" id="ArialMT-49"/>
      </defs>
      <g style="fill:#262626;" transform="translate(116.878125 54.945898)scale(0.1 -0.1)">
       <use xlink:href="#ArialMT-49"/>
       <use x="55.615234" xlink:href="#ArialMT-48"/>
      </g>
     </g>
    </g>
   </g>
   <g id="PolyCollection_1">
    <defs>
     <path d="M 191.847725 -88.650587 
L 182.777275 -88.650587 
L 177.62299 -90.213308 
L 169.656536 -91.77603 
L 159.837726 -93.338751 
L 150.723665 -94.901472 
L 145.4625 -96.464194 
L 145.937301 -98.026915 
L 151.541125 -99.589636 
L 159.683191 -101.152358 
L 167.517375 -102.715079 
L 173.383406 -104.2778 
L 177.05904 -105.840522 
L 179.142234 -107.403243 
L 180.356447 -108.965964 
L 181.203907 -110.528686 
L 181.924407 -112.091407 
L 182.580317 -113.654129 
L 183.160319 -115.21685 
L 183.65818 -116.779571 
L 184.101 -118.342293 
L 184.526918 -119.905014 
L 184.948767 -121.467735 
L 185.345018 -123.030457 
L 185.682802 -124.593178 
L 185.943919 -126.155899 
L 186.130436 -127.718621 
L 186.2553 -129.281342 
L 186.335762 -130.844063 
L 186.394356 -132.406785 
L 186.457786 -133.969506 
L 186.547235 -135.532227 
L 186.667137 -137.094949 
L 186.804122 -138.65767 
L 186.937708 -140.220391 
L 187.052503 -141.783113 
L 187.142221 -143.345834 
L 187.206015 -144.908555 
L 187.243749 -146.471277 
L 187.254384 -148.033998 
L 187.237375 -149.596719 
L 187.195803 -151.159441 
L 187.139426 -152.722162 
L 187.084315 -154.284883 
L 187.046911 -155.847605 
L 187.035887 -157.410326 
L 187.048579 -158.973047 
L 187.074652 -160.535769 
L 187.102822 -162.09849 
L 187.125639 -163.661211 
L 187.141221 -165.223933 
L 187.152442 -166.786654 
L 187.163382 -168.349376 
L 187.174822 -169.912097 
L 187.183329 -171.474818 
L 187.185792 -173.03754 
L 187.184672 -174.600261 
L 187.187603 -176.162982 
L 187.20118 -177.725704 
L 187.225323 -179.288425 
L 187.253626 -180.851146 
L 187.2785 -182.413868 
L 187.295769 -183.976589 
L 187.30549 -185.53931 
L 187.309972 -187.102032 
L 187.311581 -188.664753 
L 187.311653 -190.227474 
L 187.310261 -191.790196 
L 187.306207 -193.352917 
L 187.297212 -194.915638 
L 187.28088 -196.47836 
L 187.256815 -198.041081 
L 187.228783 -199.603802 
L 187.204345 -201.166524 
L 187.190573 -202.729245 
L 187.18855 -204.291966 
L 187.192164 -205.854688 
L 187.193513 -207.417409 
L 187.190359 -208.98013 
L 187.18828 -210.542852 
L 187.195336 -212.105573 
L 187.214621 -213.668294 
L 187.241762 -215.231016 
L 187.268732 -216.793737 
L 187.289412 -218.356459 
L 187.302111 -219.91918 
L 187.308402 -221.481901 
L 187.310632 -223.044623 
L 187.310147 -224.607344 
L 187.306619 -226.170065 
L 187.298198 -227.732787 
L 187.282588 -229.295508 
L 187.259279 -230.858229 
L 187.232022 -232.420951 
L 187.209076 -233.983672 
L 187.199547 -235.546393 
L 187.207662 -237.109115 
L 187.229806 -238.671836 
L 187.257067 -240.234557 
L 187.280921 -241.797279 
L 187.297211 -243.36 
L 187.327789 -243.36 
L 187.327789 -243.36 
L 187.344079 -241.797279 
L 187.367933 -240.234557 
L 187.395194 -238.671836 
L 187.417338 -237.109115 
L 187.425453 -235.546393 
L 187.415924 -233.983672 
L 187.392978 -232.420951 
L 187.365721 -230.858229 
L 187.342412 -229.295508 
L 187.326802 -227.732787 
L 187.318381 -226.170065 
L 187.314853 -224.607344 
L 187.314368 -223.044623 
L 187.316598 -221.481901 
L 187.322889 -219.91918 
L 187.335588 -218.356459 
L 187.356268 -216.793737 
L 187.383238 -215.231016 
L 187.410379 -213.668294 
L 187.429664 -212.105573 
L 187.43672 -210.542852 
L 187.434641 -208.98013 
L 187.431487 -207.417409 
L 187.432836 -205.854688 
L 187.43645 -204.291966 
L 187.434427 -202.729245 
L 187.420655 -201.166524 
L 187.396217 -199.603802 
L 187.368185 -198.041081 
L 187.34412 -196.47836 
L 187.327788 -194.915638 
L 187.318793 -193.352917 
L 187.314739 -191.790196 
L 187.313347 -190.227474 
L 187.313419 -188.664753 
L 187.315028 -187.102032 
L 187.31951 -185.53931 
L 187.329231 -183.976589 
L 187.3465 -182.413868 
L 187.371374 -180.851146 
L 187.399677 -179.288425 
L 187.42382 -177.725704 
L 187.437397 -176.162982 
L 187.440328 -174.600261 
L 187.439208 -173.03754 
L 187.441671 -171.474818 
L 187.450178 -169.912097 
L 187.461618 -168.349376 
L 187.472558 -166.786654 
L 187.483779 -165.223933 
L 187.499361 -163.661211 
L 187.522178 -162.09849 
L 187.550348 -160.535769 
L 187.576421 -158.973047 
L 187.589113 -157.410326 
L 187.578089 -155.847605 
L 187.540685 -154.284883 
L 187.485574 -152.722162 
L 187.429197 -151.159441 
L 187.387625 -149.596719 
L 187.370616 -148.033998 
L 187.381251 -146.471277 
L 187.418985 -144.908555 
L 187.482779 -143.345834 
L 187.572497 -141.783113 
L 187.687292 -140.220391 
L 187.820878 -138.65767 
L 187.957863 -137.094949 
L 188.077765 -135.532227 
L 188.167214 -133.969506 
L 188.230644 -132.406785 
L 188.289238 -130.844063 
L 188.3697 -129.281342 
L 188.494564 -127.718621 
L 188.681081 -126.155899 
L 188.942198 -124.593178 
L 189.279982 -123.030457 
L 189.676233 -121.467735 
L 190.098082 -119.905014 
L 190.524 -118.342293 
L 190.96682 -116.779571 
L 191.464681 -115.21685 
L 192.044683 -113.654129 
L 192.700593 -112.091407 
L 193.421093 -110.528686 
L 194.268553 -108.965964 
L 195.482766 -107.403243 
L 197.56596 -105.840522 
L 201.241594 -104.2778 
L 207.107625 -102.715079 
L 214.941809 -101.152358 
L 223.083875 -99.589636 
L 228.687699 -98.026915 
L 229.1625 -96.464194 
L 223.901335 -94.901472 
L 214.787274 -93.338751 
L 204.968464 -91.77603 
L 197.00201 -90.213308 
L 191.847725 -88.650587 
z
" id="m54af1e24bf" style="stroke:#464646;stroke-width:3;"/>
    </defs>
    <g clip-path="url(#p29f678c1dd)">
     <use style="fill:#ea96a3;stroke:#464646;stroke-width:3;" x="0" xlink:href="#m54af1e24bf" y="288"/>
    </g>
   </g>
   <g id="PolyCollection_2">
    <defs>
     <path d="M 292.319551 -73.348608 
L 291.555449 -73.348608 
L 291.334113 -74.04574 
L 291.010159 -74.742872 
L 290.550165 -75.440003 
L 289.916488 -76.137135 
L 289.069571 -76.834267 
L 287.971357 -77.531399 
L 286.589604 -78.22853 
L 284.902654 -78.925662 
L 282.903965 -79.622794 
L 280.605613 -80.319926 
L 278.040007 -81.017057 
L 275.259275 -81.714189 
L 272.332182 -82.411321 
L 269.338878 -83.108452 
L 266.364261 -83.805584 
L 263.491011 -84.502716 
L 260.793425 -85.199848 
L 258.333012 -85.896979 
L 256.156358 -86.594111 
L 254.295265 -87.291243 
L 252.768658 -87.988375 
L 251.585411 -88.685506 
L 250.747172 -89.382638 
L 250.250435 -90.07977 
L 250.0875 -90.776901 
L 250.246399 -91.474033 
L 250.71026 -92.171165 
L 251.456733 -92.868297 
L 252.45809 -93.565428 
L 253.682301 -94.26256 
L 255.095038 -94.959692 
L 256.662189 -95.656824 
L 258.352221 -96.353955 
L 260.137751 -97.051087 
L 261.995853 -97.748219 
L 263.90701 -98.44535 
L 265.853019 -99.142482 
L 267.814468 -99.839614 
L 269.768507 -100.536746 
L 271.687526 -101.233877 
L 273.538978 -101.931009 
L 275.286173 -102.628141 
L 276.889445 -103.325272 
L 278.306966 -104.022404 
L 279.494604 -104.719536 
L 280.404685 -105.416668 
L 280.984211 -106.113799 
L 281.173711 -106.810931 
L 280.908325 -107.508063 
L 280.122643 -108.205195 
L 278.760152 -108.902326 
L 276.786938 -109.599458 
L 274.207819 -110.29659 
L 271.081622 -110.993721 
L 267.531563 -111.690853 
L 263.746745 -112.387985 
L 259.97215 -113.085117 
L 256.486763 -113.782248 
L 253.572279 -114.47938 
L 251.477436 -115.176512 
L 250.384548 -115.873644 
L 250.384828 -116.570775 
L 251.467453 -117.267907 
L 253.524366 -117.965039 
L 256.369429 -118.66217 
L 259.767563 -119.359302 
L 263.467772 -120.056434 
L 267.233778 -120.753566 
L 270.86732 -121.450697 
L 274.22143 -122.147829 
L 277.203549 -122.844961 
L 279.7704 -123.542093 
L 281.91776 -124.239224 
L 283.668451 -124.936356 
L 285.06126 -125.633488 
L 286.142392 -126.330619 
L 286.95992 -127.027751 
L 287.560821 -127.724883 
L 287.989699 -128.422015 
L 288.288282 -129.119146 
L 288.494997 -129.816278 
L 288.644321 -130.51341 
L 288.765907 -131.210542 
L 288.883697 -131.907673 
L 289.015286 -132.604805 
L 289.171712 -133.301937 
L 289.357763 -133.999068 
L 289.572739 -134.6962 
L 289.81158 -135.393332 
L 290.066192 -136.090464 
L 290.326838 -136.787595 
L 290.583458 -137.484727 
L 290.82681 -138.181859 
L 291.049336 -138.87899 
L 291.245713 -139.576122 
L 291.413055 -140.273254 
L 291.550799 -140.970386 
L 291.660344 -141.667517 
L 291.744525 -142.364649 
L 292.130475 -142.364649 
L 292.130475 -142.364649 
L 292.214656 -141.667517 
L 292.324201 -140.970386 
L 292.461945 -140.273254 
L 292.629287 -139.576122 
L 292.825664 -138.87899 
L 293.04819 -138.181859 
L 293.291542 -137.484727 
L 293.548162 -136.787595 
L 293.808808 -136.090464 
L 294.06342 -135.393332 
L 294.302261 -134.6962 
L 294.517237 -133.999068 
L 294.703288 -133.301937 
L 294.859714 -132.604805 
L 294.991303 -131.907673 
L 295.109093 -131.210542 
L 295.230679 -130.51341 
L 295.380003 -129.816278 
L 295.586718 -129.119146 
L 295.885301 -128.422015 
L 296.314179 -127.724883 
L 296.91508 -127.027751 
L 297.732608 -126.330619 
L 298.81374 -125.633488 
L 300.206549 -124.936356 
L 301.95724 -124.239224 
L 304.1046 -123.542093 
L 306.671451 -122.844961 
L 309.65357 -122.147829 
L 313.00768 -121.450697 
L 316.641222 -120.753566 
L 320.407228 -120.056434 
L 324.107437 -119.359302 
L 327.505571 -118.66217 
L 330.350634 -117.965039 
L 332.407547 -117.267907 
L 333.490172 -116.570775 
L 333.490452 -115.873644 
L 332.397564 -115.176512 
L 330.302721 -114.47938 
L 327.388237 -113.782248 
L 323.90285 -113.085117 
L 320.128255 -112.387985 
L 316.343437 -111.690853 
L 312.793378 -110.993721 
L 309.667181 -110.29659 
L 307.088062 -109.599458 
L 305.114848 -108.902326 
L 303.752357 -108.205195 
L 302.966675 -107.508063 
L 302.701289 -106.810931 
L 302.890789 -106.113799 
L 303.470315 -105.416668 
L 304.380396 -104.719536 
L 305.568034 -104.022404 
L 306.985555 -103.325272 
L 308.588827 -102.628141 
L 310.336022 -101.931009 
L 312.187474 -101.233877 
L 314.106493 -100.536746 
L 316.060532 -99.839614 
L 318.021981 -99.142482 
L 319.96799 -98.44535 
L 321.879147 -97.748219 
L 323.737249 -97.051087 
L 325.522779 -96.353955 
L 327.212811 -95.656824 
L 328.779962 -94.959692 
L 330.192699 -94.26256 
L 331.41691 -93.565428 
L 332.418267 -92.868297 
L 333.16474 -92.171165 
L 333.628601 -91.474033 
L 333.7875 -90.776901 
L 333.624565 -90.07977 
L 333.127828 -89.382638 
L 332.289589 -88.685506 
L 331.106342 -87.988375 
L 329.579735 -87.291243 
L 327.718642 -86.594111 
L 325.541988 -85.896979 
L 323.081575 -85.199848 
L 320.383989 -84.502716 
L 317.510739 -83.805584 
L 314.536122 -83.108452 
L 311.542818 -82.411321 
L 308.615725 -81.714189 
L 305.834993 -81.017057 
L 303.269387 -80.319926 
L 300.971035 -79.622794 
L 298.972346 -78.925662 
L 297.285396 -78.22853 
L 295.903643 -77.531399 
L 294.805429 -76.834267 
L 293.958512 -76.137135 
L 293.324835 -75.440003 
L 292.864841 -74.742872 
L 292.540887 -74.04574 
L 292.319551 -73.348608 
z
" id="m06a7f8649a" style="stroke:#464646;stroke-width:3;"/>
    </defs>
    <g clip-path="url(#p29f678c1dd)">
     <use style="fill:#ca984c;stroke:#464646;stroke-width:3;" x="0" xlink:href="#m06a7f8649a" y="288"/>
    </g>
   </g>
   <g id="PolyCollection_3">
    <defs>
     <path d="M 397.102931 -74.58507 
L 396.022069 -74.58507 
L 395.700853 -75.311785 
L 395.228951 -76.038501 
L 394.558179 -76.765216 
L 393.635594 -77.491931 
L 392.407652 -78.218646 
L 390.826045 -78.945361 
L 388.85479 -79.672076 
L 386.477798 -80.398791 
L 383.705825 -81.125506 
L 380.581596 -81.852221 
L 377.181898 -82.578937 
L 373.615737 -83.305652 
L 370.018074 -84.032367 
L 366.539269 -84.759082 
L 363.33104 -85.485797 
L 360.530435 -86.212512 
L 358.24395 -86.939227 
L 356.534251 -87.665942 
L 355.411971 -88.392658 
L 354.834485 -89.119373 
L 354.7125 -89.846088 
L 354.923857 -90.572803 
L 355.332423 -91.299518 
L 355.808774 -92.026233 
L 356.248897 -92.752948 
L 356.587509 -93.479663 
L 356.803762 -94.206378 
L 356.918723 -94.933094 
L 356.985696 -95.659809 
L 357.075742 -96.386524 
L 357.261428 -97.113239 
L 357.601879 -97.839954 
L 358.131666 -98.566669 
L 358.855182 -99.293384 
L 359.747129 -100.020099 
L 360.758652 -100.746815 
L 361.827704 -101.47353 
L 362.891471 -102.200245 
L 363.898328 -102.92696 
L 364.816891 -103.653675 
L 365.640367 -104.38039 
L 366.385433 -105.107105 
L 367.086096 -105.83382 
L 367.784076 -106.560535 
L 368.517945 -107.287251 
L 369.313387 -108.013966 
L 370.176546 -108.740681 
L 371.091645 -109.467396 
L 372.023123 -110.194111 
L 372.921664 -110.920826 
L 373.73287 -111.647541 
L 374.406976 -112.374256 
L 374.907977 -113.100971 
L 375.220704 -113.827687 
L 375.354809 -114.554402 
L 375.345034 -115.281117 
L 375.247765 -116.007832 
L 375.134331 -116.734547 
L 375.082063 -117.461262 
L 375.164456 -118.187977 
L 375.441946 -118.914692 
L 375.954729 -119.641408 
L 376.718704 -120.368123 
L 377.725046 -121.094838 
L 378.943228 -121.821553 
L 380.326715 -122.548268 
L 381.820049 -123.274983 
L 383.365958 -124.001698 
L 384.911252 -124.728413 
L 386.410687 -125.455128 
L 387.828567 -126.181844 
L 389.138337 -126.908559 
L 390.320822 -127.635274 
L 391.36193 -128.361989 
L 392.250596 -129.088704 
L 392.97752 -129.815419 
L 393.535015 -130.542134 
L 393.917956 -131.268849 
L 394.125618 -131.995565 
L 394.163956 -132.72228 
L 394.047799 -133.448995 
L 393.802318 -134.17571 
L 393.463189 -134.902425 
L 393.075001 -135.62914 
L 392.687804 -136.355855 
L 392.352058 -137.08257 
L 392.112723 -137.809285 
L 392.003556 -138.536001 
L 392.042764 -139.262716 
L 392.23097 -139.989431 
L 392.55197 -140.716146 
L 392.97612 -141.442861 
L 393.465594 -142.169576 
L 393.980395 -142.896291 
L 394.483906 -143.623006 
L 394.947018 -144.349721 
L 395.35033 -145.076437 
L 395.684389 -145.803152 
L 395.948374 -146.529867 
L 397.176626 -146.529867 
L 397.176626 -146.529867 
L 397.440611 -145.803152 
L 397.77467 -145.076437 
L 398.177982 -144.349721 
L 398.641094 -143.623006 
L 399.144605 -142.896291 
L 399.659406 -142.169576 
L 400.14888 -141.442861 
L 400.57303 -140.716146 
L 400.89403 -139.989431 
L 401.082236 -139.262716 
L 401.121444 -138.536001 
L 401.012277 -137.809285 
L 400.772942 -137.08257 
L 400.437196 -136.355855 
L 400.049999 -135.62914 
L 399.661811 -134.902425 
L 399.322682 -134.17571 
L 399.077201 -133.448995 
L 398.961044 -132.72228 
L 398.999382 -131.995565 
L 399.207044 -131.268849 
L 399.589985 -130.542134 
L 400.14748 -129.815419 
L 400.874404 -129.088704 
L 401.76307 -128.361989 
L 402.804178 -127.635274 
L 403.986663 -126.908559 
L 405.296433 -126.181844 
L 406.714313 -125.455128 
L 408.213748 -124.728413 
L 409.759042 -124.001698 
L 411.304951 -123.274983 
L 412.798285 -122.548268 
L 414.181772 -121.821553 
L 415.399954 -121.094838 
L 416.406296 -120.368123 
L 417.170271 -119.641408 
L 417.683054 -118.914692 
L 417.960544 -118.187977 
L 418.042937 -117.461262 
L 417.990669 -116.734547 
L 417.877235 -116.007832 
L 417.779966 -115.281117 
L 417.770191 -114.554402 
L 417.904296 -113.827687 
L 418.217023 -113.100971 
L 418.718024 -112.374256 
L 419.39213 -111.647541 
L 420.203336 -110.920826 
L 421.101877 -110.194111 
L 422.033355 -109.467396 
L 422.948454 -108.740681 
L 423.811613 -108.013966 
L 424.607055 -107.287251 
L 425.340924 -106.560535 
L 426.038904 -105.83382 
L 426.739567 -105.107105 
L 427.484633 -104.38039 
L 428.308109 -103.653675 
L 429.226672 -102.92696 
L 430.233529 -102.200245 
L 431.297296 -101.47353 
L 432.366348 -100.746815 
L 433.377871 -100.020099 
L 434.269818 -99.293384 
L 434.993334 -98.566669 
L 435.523121 -97.839954 
L 435.863572 -97.113239 
L 436.049258 -96.386524 
L 436.139304 -95.659809 
L 436.206277 -94.933094 
L 436.321238 -94.206378 
L 436.537491 -93.479663 
L 436.876103 -92.752948 
L 437.316226 -92.026233 
L 437.792577 -91.299518 
L 438.201143 -90.572803 
L 438.4125 -89.846088 
L 438.290515 -89.119373 
L 437.713029 -88.392658 
L 436.590749 -87.665942 
L 434.88105 -86.939227 
L 432.594565 -86.212512 
L 429.79396 -85.485797 
L 426.585731 -84.759082 
L 423.106926 -84.032367 
L 419.509263 -83.305652 
L 415.943102 -82.578937 
L 412.543404 -81.852221 
L 409.419175 -81.125506 
L 406.647202 -80.398791 
L 404.27021 -79.672076 
L 402.298955 -78.945361 
L 400.717348 -78.218646 
L 399.489406 -77.491931 
L 398.566821 -76.765216 
L 397.896049 -76.038501 
L 397.424147 -75.311785 
L 397.102931 -74.58507 
z
" id="mccb029dbb0" style="stroke:#464646;stroke-width:3;"/>
    </defs>
    <g clip-path="url(#p29f678c1dd)">
     <use style="fill:#98a246;stroke:#464646;stroke-width:3;" x="0" xlink:href="#mccb029dbb0" y="288"/>
    </g>
   </g>
   <g id="PolyCollection_4">
    <defs>
     <path d="M 501.219007 -42.122279 
L 501.155993 -42.122279 
L 501.132002 -43.288636 
L 501.097742 -44.454993 
L 501.053829 -45.621349 
L 501.00339 -46.787706 
L 500.951441 -47.954063 
L 500.903109 -49.12042 
L 500.861472 -50.286776 
L 500.826209 -51.453133 
L 500.793839 -52.61949 
L 500.759389 -53.785846 
L 500.718602 -54.952203 
L 500.669739 -56.11856 
L 500.614404 -57.284916 
L 500.557145 -58.451273 
L 500.503743 -59.61763 
L 500.458552 -60.783986 
L 500.421959 -61.950343 
L 500.389362 -63.1167 
L 500.3523 -64.283056 
L 500.300817 -65.449413 
L 500.225074 -66.61577 
L 500.114905 -67.782126 
L 499.958196 -68.948483 
L 499.740964 -70.11484 
L 499.45173 -71.281196 
L 499.089436 -72.447553 
L 498.669656 -73.61391 
L 498.222133 -74.780267 
L 497.776525 -75.946623 
L 497.341399 -77.11298 
L 496.888169 -78.279337 
L 496.350727 -79.445693 
L 495.642412 -80.61205 
L 494.680707 -81.778407 
L 493.405313 -82.944763 
L 491.78061 -84.11112 
L 489.785067 -85.277477 
L 487.399434 -86.443833 
L 484.606562 -87.61019 
L 481.408522 -88.776547 
L 477.855859 -89.942903 
L 474.074641 -91.10926 
L 470.273791 -92.275617 
L 466.720958 -93.441973 
L 463.689378 -94.60833 
L 461.39436 -95.774687 
L 459.945927 -96.941043 
L 459.3375 -98.1074 
L 459.472898 -99.273757 
L 460.216127 -100.440114 
L 461.439985 -101.60647 
L 463.053083 -102.772827 
L 464.997454 -103.939184 
L 467.224502 -105.10554 
L 469.668052 -106.271897 
L 472.233077 -107.438254 
L 474.806991 -108.60461 
L 477.285073 -109.770967 
L 479.593665 -110.937324 
L 481.698976 -112.10368 
L 483.600466 -113.270037 
L 485.316679 -114.436394 
L 486.872737 -115.60275 
L 488.293918 -116.769107 
L 489.604046 -117.935464 
L 490.824726 -119.10182 
L 491.97245 -120.268177 
L 493.053647 -121.434534 
L 494.060403 -122.60089 
L 494.970403 -123.767247 
L 495.753274 -124.933604 
L 496.38246 -126.099961 
L 496.848521 -127.266317 
L 497.167763 -128.432674 
L 497.381089 -129.599031 
L 497.542133 -130.765387 
L 497.69931 -131.931744 
L 497.880196 -133.098101 
L 498.085984 -134.264457 
L 498.298617 -135.430814 
L 498.496365 -136.597171 
L 498.669012 -137.763527 
L 498.824179 -138.929884 
L 498.981649 -140.096241 
L 499.159814 -141.262597 
L 499.363175 -142.428954 
L 499.578993 -143.595311 
L 499.785024 -144.761667 
L 499.962914 -145.928024 
L 500.108387 -147.094381 
L 500.232051 -148.260737 
L 500.351278 -149.427094 
L 500.47922 -150.593451 
L 500.617907 -151.759808 
L 500.758646 -152.926164 
L 500.887949 -154.092521 
L 500.994468 -155.258878 
L 501.073115 -156.425234 
L 501.125289 -157.591591 
L 501.249711 -157.591591 
L 501.249711 -157.591591 
L 501.301885 -156.425234 
L 501.380532 -155.258878 
L 501.487051 -154.092521 
L 501.616354 -152.926164 
L 501.757093 -151.759808 
L 501.89578 -150.593451 
L 502.023722 -149.427094 
L 502.142949 -148.260737 
L 502.266613 -147.094381 
L 502.412086 -145.928024 
L 502.589976 -144.761667 
L 502.796007 -143.595311 
L 503.011825 -142.428954 
L 503.215186 -141.262597 
L 503.393351 -140.096241 
L 503.550821 -138.929884 
L 503.705988 -137.763527 
L 503.878635 -136.597171 
L 504.076383 -135.430814 
L 504.289016 -134.264457 
L 504.494804 -133.098101 
L 504.67569 -131.931744 
L 504.832867 -130.765387 
L 504.993911 -129.599031 
L 505.207237 -128.432674 
L 505.526479 -127.266317 
L 505.99254 -126.099961 
L 506.621726 -124.933604 
L 507.404597 -123.767247 
L 508.314597 -122.60089 
L 509.321353 -121.434534 
L 510.40255 -120.268177 
L 511.550274 -119.10182 
L 512.770954 -117.935464 
L 514.081082 -116.769107 
L 515.502263 -115.60275 
L 517.058321 -114.436394 
L 518.774534 -113.270037 
L 520.676024 -112.10368 
L 522.781335 -110.937324 
L 525.089927 -109.770967 
L 527.568009 -108.60461 
L 530.141923 -107.438254 
L 532.706948 -106.271897 
L 535.150498 -105.10554 
L 537.377546 -103.939184 
L 539.321917 -102.772827 
L 540.935015 -101.60647 
L 542.158873 -100.440114 
L 542.902102 -99.273757 
L 543.0375 -98.1074 
L 542.429073 -96.941043 
L 540.98064 -95.774687 
L 538.685622 -94.60833 
L 535.654042 -93.441973 
L 532.101209 -92.275617 
L 528.300359 -91.10926 
L 524.519141 -89.942903 
L 520.966478 -88.776547 
L 517.768438 -87.61019 
L 514.975566 -86.443833 
L 512.589933 -85.277477 
L 510.59439 -84.11112 
L 508.969687 -82.944763 
L 507.694293 -81.778407 
L 506.732588 -80.61205 
L 506.024273 -79.445693 
L 505.486831 -78.279337 
L 505.033601 -77.11298 
L 504.598475 -75.946623 
L 504.152867 -74.780267 
L 503.705344 -73.61391 
L 503.285564 -72.447553 
L 502.92327 -71.281196 
L 502.634036 -70.11484 
L 502.416804 -68.948483 
L 502.260095 -67.782126 
L 502.149926 -66.61577 
L 502.074183 -65.449413 
L 502.0227 -64.283056 
L 501.985638 -63.1167 
L 501.953041 -61.950343 
L 501.916448 -60.783986 
L 501.871257 -59.61763 
L 501.817855 -58.451273 
L 501.760596 -57.284916 
L 501.705261 -56.11856 
L 501.656398 -54.952203 
L 501.615611 -53.785846 
L 501.581161 -52.61949 
L 501.548791 -51.453133 
L 501.513528 -50.286776 
L 501.471891 -49.12042 
L 501.423559 -47.954063 
L 501.37161 -46.787706 
L 501.321171 -45.621349 
L 501.277258 -44.454993 
L 501.242998 -43.288636 
L 501.219007 -42.122279 
z
" id="mb06e0b020b" style="stroke:#464646;stroke-width:3;"/>
    </defs>
    <g clip-path="url(#p29f678c1dd)">
     <use style="fill:#49af72;stroke:#464646;stroke-width:3;" x="0" xlink:href="#mb06e0b020b" y="288"/>
    </g>
   </g>
   <g id="PolyCollection_5">
    <defs>
     <path d="M 605.947504 -62.893318 
L 605.677496 -62.893318 
L 605.613827 -63.518811 
L 605.526674 -64.144304 
L 605.410364 -64.769796 
L 605.259005 -65.395289 
L 605.066883 -66.020782 
L 604.828926 -66.646274 
L 604.54119 -67.271767 
L 604.201281 -67.89726 
L 603.808653 -68.522753 
L 603.36472 -69.148245 
L 602.872756 -69.773738 
L 602.337599 -70.399231 
L 601.765202 -71.024723 
L 601.162136 -71.650216 
L 600.535113 -72.275709 
L 599.890612 -72.901202 
L 599.234647 -73.526694 
L 598.572656 -74.152187 
L 597.909476 -74.77768 
L 597.249319 -75.403173 
L 596.595722 -76.028665 
L 595.951441 -76.654158 
L 595.318347 -77.279651 
L 594.697401 -77.905143 
L 594.088804 -78.530636 
L 593.492383 -79.156129 
L 592.908225 -79.781622 
L 592.337454 -80.407114 
L 591.782994 -81.032607 
L 591.250112 -81.6581 
L 590.746557 -82.283593 
L 590.282172 -82.909085 
L 589.867973 -83.534578 
L 589.514833 -84.160071 
L 589.231968 -84.785563 
L 589.025525 -85.411056 
L 588.897504 -86.036549 
L 588.845235 -86.662042 
L 588.861469 -87.287534 
L 588.935075 -87.913027 
L 589.052187 -88.53852 
L 589.197613 -89.164012 
L 589.356282 -89.789505 
L 589.514527 -90.414998 
L 589.661045 -91.040491 
L 589.787457 -91.665983 
L 589.88843 -92.291476 
L 589.961415 -92.916969 
L 590.006078 -93.542462 
L 590.02354 -94.167954 
L 590.015546 -94.793447 
L 589.983701 -95.41894 
L 589.92885 -96.044432 
L 589.850683 -96.669925 
L 589.74757 -97.295418 
L 589.616609 -97.920911 
L 589.453801 -98.546403 
L 589.254285 -99.171896 
L 589.012514 -99.797389 
L 588.722326 -100.422881 
L 588.376868 -101.048374 
L 587.968394 -101.673867 
L 587.48801 -102.29936 
L 586.925472 -102.924852 
L 586.269127 -103.550345 
L 585.506146 -104.175838 
L 584.623085 -104.801331 
L 583.60686 -105.426823 
L 582.446128 -106.052316 
L 581.133063 -106.677809 
L 579.665476 -107.303301 
L 578.049178 -107.928794 
L 576.300437 -108.554287 
L 574.448307 -109.17978 
L 572.536483 -109.805272 
L 570.624299 -110.430765 
L 568.786394 -111.056258 
L 567.110626 -111.681751 
L 565.693943 -112.307243 
L 564.636187 -112.932736 
L 564.032136 -113.558229 
L 563.9625 -114.183721 
L 564.484923 -114.809214 
L 565.626241 -115.434707 
L 567.377265 -116.0602 
L 569.691078 -116.685692 
L 572.485377 -117.311185 
L 575.648781 -117.936678 
L 579.050356 -118.56217 
L 582.551121 -119.187663 
L 586.015963 -119.813156 
L 589.324405 -120.438649 
L 592.378919 -121.064141 
L 595.109951 -121.689634 
L 597.477423 -122.315127 
L 599.469012 -122.94062 
L 601.095927 -123.566112 
L 602.387181 -124.191605 
L 603.383325 -124.817098 
L 608.241675 -124.817098 
L 608.241675 -124.817098 
L 609.237819 -124.191605 
L 610.529073 -123.566112 
L 612.155988 -122.94062 
L 614.147577 -122.315127 
L 616.515049 -121.689634 
L 619.246081 -121.064141 
L 622.300595 -120.438649 
L 625.609037 -119.813156 
L 629.073879 -119.187663 
L 632.574644 -118.56217 
L 635.976219 -117.936678 
L 639.139623 -117.311185 
L 641.933922 -116.685692 
L 644.247735 -116.0602 
L 645.998759 -115.434707 
L 647.140077 -114.809214 
L 647.6625 -114.183721 
L 647.592864 -113.558229 
L 646.988813 -112.932736 
L 645.931057 -112.307243 
L 644.514374 -111.681751 
L 642.838606 -111.056258 
L 641.000701 -110.430765 
L 639.088517 -109.805272 
L 637.176693 -109.17978 
L 635.324563 -108.554287 
L 633.575822 -107.928794 
L 631.959524 -107.303301 
L 630.491937 -106.677809 
L 629.178872 -106.052316 
L 628.01814 -105.426823 
L 627.001915 -104.801331 
L 626.118854 -104.175838 
L 625.355873 -103.550345 
L 624.699528 -102.924852 
L 624.13699 -102.29936 
L 623.656606 -101.673867 
L 623.248132 -101.048374 
L 622.902674 -100.422881 
L 622.612486 -99.797389 
L 622.370715 -99.171896 
L 622.171199 -98.546403 
L 622.008391 -97.920911 
L 621.87743 -97.295418 
L 621.774317 -96.669925 
L 621.69615 -96.044432 
L 621.641299 -95.41894 
L 621.609454 -94.793447 
L 621.60146 -94.167954 
L 621.618922 -93.542462 
L 621.663585 -92.916969 
L 621.73657 -92.291476 
L 621.837543 -91.665983 
L 621.963955 -91.040491 
L 622.110473 -90.414998 
L 622.268718 -89.789505 
L 622.427387 -89.164012 
L 622.572813 -88.53852 
L 622.689925 -87.913027 
L 622.763531 -87.287534 
L 622.779765 -86.662042 
L 622.727496 -86.036549 
L 622.599475 -85.411056 
L 622.393032 -84.785563 
L 622.110167 -84.160071 
L 621.757027 -83.534578 
L 621.342828 -82.909085 
L 620.878443 -82.283593 
L 620.374888 -81.6581 
L 619.842006 -81.032607 
L 619.287546 -80.407114 
L 618.716775 -79.781622 
L 618.132617 -79.156129 
L 617.536196 -78.530636 
L 616.927599 -77.905143 
L 616.306653 -77.279651 
L 615.673559 -76.654158 
L 615.029278 -76.028665 
L 614.375681 -75.403173 
L 613.715524 -74.77768 
L 613.052344 -74.152187 
L 612.390353 -73.526694 
L 611.734388 -72.901202 
L 611.089887 -72.275709 
L 610.462864 -71.650216 
L 609.859798 -71.024723 
L 609.287401 -70.399231 
L 608.752244 -69.773738 
L 608.26028 -69.148245 
L 607.816347 -68.522753 
L 607.423719 -67.89726 
L 607.08381 -67.271767 
L 606.796074 -66.646274 
L 606.558117 -66.020782 
L 606.365995 -65.395289 
L 606.214636 -64.769796 
L 606.098326 -64.144304 
L 606.011173 -63.518811 
L 605.947504 -62.893318 
z
" id="m76de8a2635" style="stroke:#464646;stroke-width:3;"/>
    </defs>
    <g clip-path="url(#p29f678c1dd)">
     <use style="fill:#4baba4;stroke:#464646;stroke-width:3;" x="0" xlink:href="#m76de8a2635" y="288"/>
    </g>
   </g>
   <g id="PolyCollection_6">
    <defs>
     <path d="M 711.091166 -77.258241 
L 709.783834 -77.258241 
L 709.31361 -78.124758 
L 708.584369 -78.991276 
L 707.505354 -79.857793 
L 705.982254 -80.72431 
L 703.931633 -81.590828 
L 701.299318 -82.457345 
L 698.079559 -83.323862 
L 694.330501 -84.190379 
L 690.181233 -85.056897 
L 685.826907 -85.923414 
L 681.510969 -86.789931 
L 677.496753 -87.656449 
L 674.033541 -88.522966 
L 671.323718 -89.389483 
L 669.497414 -90.256 
L 668.599067 -91.122518 
L 668.5875 -91.989035 
L 669.348171 -92.855552 
L 670.714205 -93.72207 
L 672.491835 -94.588587 
L 674.486029 -95.455104 
L 676.522838 -96.321622 
L 678.466055 -97.188139 
L 680.226762 -98.054656 
L 681.765262 -98.921173 
L 683.085836 -99.787691 
L 684.22569 -100.654208 
L 685.240289 -101.520725 
L 686.187862 -102.387243 
L 687.115943 -103.25376 
L 688.0523 -104.120277 
L 689.001666 -104.986794 
L 689.948341 -105.853312 
L 690.863474 -106.719829 
L 691.714753 -107.586346 
L 692.475789 -108.452864 
L 693.132734 -109.319381 
L 693.686644 -110.185898 
L 694.15159 -111.052416 
L 694.549852 -111.918933 
L 694.906367 -112.78545 
L 695.24443 -113.651967 
L 695.583655 -114.518485 
L 695.939928 -115.385002 
L 696.326122 -116.251519 
L 696.752236 -117.118037 
L 697.224372 -117.984554 
L 697.742987 -118.851071 
L 698.301642 -119.717588 
L 698.887426 -120.584106 
L 699.483507 -121.450623 
L 700.073194 -122.31714 
L 700.644113 -123.183658 
L 701.190965 -124.050175 
L 701.715901 -124.916692 
L 702.226446 -125.78321 
L 702.7318 -126.649727 
L 703.238871 -127.516244 
L 703.749395 -128.382761 
L 704.25912 -129.249279 
L 704.759262 -130.115796 
L 705.239669 -130.982313 
L 705.692505 -131.848831 
L 706.115049 -132.715348 
L 706.510487 -133.581865 
L 706.886341 -134.448383 
L 707.251077 -135.3149 
L 707.610144 -136.181417 
L 707.962949 -137.047934 
L 708.301933 -137.914452 
L 708.614129 -138.780969 
L 708.884732 -139.647486 
L 709.101515 -140.514004 
L 709.258698 -141.380521 
L 709.359089 -142.247038 
L 709.413871 -143.113555 
L 709.440161 -143.980073 
L 709.457073 -144.84659 
L 709.481441 -145.713107 
L 709.524393 -146.579625 
L 709.589649 -147.446142 
L 709.673856 -148.312659 
L 709.768677 -149.179177 
L 709.863823 -150.045694 
L 709.950095 -150.912211 
L 710.021576 -151.778728 
L 710.076525 -152.645246 
L 710.11697 -153.511763 
L 710.147362 -154.37828 
L 710.172868 -155.244798 
L 710.197854 -156.111315 
L 710.224936 -156.977832 
L 710.254745 -157.844349 
L 710.286287 -158.710867 
L 710.317647 -159.577384 
L 710.346758 -160.443901 
L 710.371988 -161.310419 
L 710.392445 -162.176936 
L 710.408001 -163.043453 
L 710.466999 -163.043453 
L 710.466999 -163.043453 
L 710.482555 -162.176936 
L 710.503012 -161.310419 
L 710.528242 -160.443901 
L 710.557353 -159.577384 
L 710.588713 -158.710867 
L 710.620255 -157.844349 
L 710.650064 -156.977832 
L 710.677146 -156.111315 
L 710.702132 -155.244798 
L 710.727638 -154.37828 
L 710.75803 -153.511763 
L 710.798475 -152.645246 
L 710.853424 -151.778728 
L 710.924905 -150.912211 
L 711.011177 -150.045694 
L 711.106323 -149.179177 
L 711.201144 -148.312659 
L 711.285351 -147.446142 
L 711.350607 -146.579625 
L 711.393559 -145.713107 
L 711.417927 -144.84659 
L 711.434839 -143.980073 
L 711.461129 -143.113555 
L 711.515911 -142.247038 
L 711.616302 -141.380521 
L 711.773485 -140.514004 
L 711.990268 -139.647486 
L 712.260871 -138.780969 
L 712.573067 -137.914452 
L 712.912051 -137.047934 
L 713.264856 -136.181417 
L 713.623923 -135.3149 
L 713.988659 -134.448383 
L 714.364513 -133.581865 
L 714.759951 -132.715348 
L 715.182495 -131.848831 
L 715.635331 -130.982313 
L 716.115738 -130.115796 
L 716.61588 -129.249279 
L 717.125605 -128.382761 
L 717.636129 -127.516244 
L 718.1432 -126.649727 
L 718.648554 -125.78321 
L 719.159099 -124.916692 
L 719.684035 -124.050175 
L 720.230887 -123.183658 
L 720.801806 -122.31714 
L 721.391493 -121.450623 
L 721.987574 -120.584106 
L 722.573358 -119.717588 
L 723.132013 -118.851071 
L 723.650628 -117.984554 
L 724.122764 -117.118037 
L 724.548878 -116.251519 
L 724.935072 -115.385002 
L 725.291345 -114.518485 
L 725.63057 -113.651967 
L 725.968633 -112.78545 
L 726.325148 -111.918933 
L 726.72341 -111.052416 
L 727.188356 -110.185898 
L 727.742266 -109.319381 
L 728.399211 -108.452864 
L 729.160247 -107.586346 
L 730.011526 -106.719829 
L 730.926659 -105.853312 
L 731.873334 -104.986794 
L 732.8227 -104.120277 
L 733.759057 -103.25376 
L 734.687138 -102.387243 
L 735.634711 -101.520725 
L 736.64931 -100.654208 
L 737.789164 -99.787691 
L 739.109738 -98.921173 
L 740.648238 -98.054656 
L 742.408945 -97.188139 
L 744.352162 -96.321622 
L 746.388971 -95.455104 
L 748.383165 -94.588587 
L 750.160795 -93.72207 
L 751.526829 -92.855552 
L 752.2875 -91.989035 
L 752.275933 -91.122518 
L 751.377586 -90.256 
L 749.551282 -89.389483 
L 746.841459 -88.522966 
L 743.378247 -87.656449 
L 739.364031 -86.789931 
L 735.048093 -85.923414 
L 730.693767 -85.056897 
L 726.544499 -84.190379 
L 722.795441 -83.323862 
L 719.575682 -82.457345 
L 716.943367 -81.590828 
L 714.892746 -80.72431 
L 713.369646 -79.857793 
L 712.290631 -78.991276 
L 711.56139 -78.124758 
L 711.091166 -77.258241 
z
" id="mca7ce76817" style="stroke:#464646;stroke-width:3;"/>
    </defs>
    <g clip-path="url(#p29f678c1dd)">
     <use style="fill:#53accd;stroke:#464646;stroke-width:3;" x="0" xlink:href="#mca7ce76817" y="288"/>
    </g>
   </g>
   <g id="PolyCollection_7">
    <defs>
     <path d="M 815.166628 -41.76 
L 814.958372 -41.76 
L 814.904422 -42.50709 
L 814.830543 -43.254179 
L 814.7334 -44.001269 
L 814.610849 -44.748359 
L 814.462677 -45.495448 
L 814.291232 -46.242538 
L 814.10178 -46.989627 
L 813.902435 -47.736717 
L 813.703581 -48.483807 
L 813.516814 -49.230896 
L 813.353538 -49.977986 
L 813.223446 -50.725076 
L 813.133175 -51.472165 
L 813.085382 -52.219255 
L 813.078428 -52.966344 
L 813.106716 -53.713434 
L 813.161624 -54.460524 
L 813.232844 -55.207613 
L 813.309899 -55.954703 
L 813.383585 -56.701793 
L 813.447118 -57.448882 
L 813.496852 -58.195972 
L 813.532479 -58.943062 
L 813.556716 -59.690151 
L 813.574574 -60.437241 
L 813.592315 -61.18433 
L 813.616301 -61.93142 
L 813.651901 -62.67851 
L 813.702648 -63.425599 
L 813.769746 -64.172689 
L 813.852004 -64.919779 
L 813.946148 -65.666868 
L 814.047422 -66.413958 
L 814.150347 -67.161047 
L 814.249483 -67.908137 
L 814.340092 -68.655227 
L 814.418628 -69.402316 
L 814.483003 -70.149406 
L 814.53265 -70.896496 
L 814.568381 -71.643585 
L 814.592071 -72.390675 
L 814.606214 -73.137765 
L 814.613403 -73.884854 
L 814.615826 -74.631944 
L 814.614855 -75.379033 
L 814.610827 -76.126123 
L 814.603062 -76.873213 
L 814.590115 -77.620302 
L 814.570206 -78.367392 
L 814.541735 -79.114482 
L 814.503748 -79.861571 
L 814.456263 -80.608661 
L 814.400353 -81.35575 
L 814.337991 -82.10284 
L 814.271676 -82.84993 
L 814.203912 -83.597019 
L 814.136656 -84.344109 
L 814.070832 -85.091199 
L 814.006018 -85.838288 
L 813.940347 -86.585378 
L 813.870643 -87.332467 
L 813.79275 -88.079557 
L 813.701938 -88.826647 
L 813.593274 -89.573736 
L 813.461802 -90.320826 
L 813.302399 -91.067916 
L 813.109209 -91.815005 
L 812.874608 -92.562095 
L 812.587693 -93.309185 
L 812.232373 -94.056274 
L 811.785201 -94.803364 
L 811.213206 -95.550453 
L 810.472187 -96.297543 
L 809.506118 -97.044633 
L 808.248596 -97.791722 
L 806.62738 -98.538812 
L 804.57293 -99.285902 
L 802.031314 -100.032991 
L 798.98079 -100.780081 
L 795.449902 -101.52717 
L 791.533401 -102.27426 
L 787.401305 -103.02135 
L 783.296398 -103.768439 
L 779.517089 -104.515529 
L 776.385523 -105.262619 
L 774.204766 -106.009708 
L 773.2125 -106.756798 
L 773.5408 -107.503888 
L 775.191237 -108.250977 
L 778.031528 -108.998067 
L 781.815002 -109.745156 
L 786.218739 -110.492246 
L 790.891911 -111.239336 
L 795.504045 -111.986425 
L 799.783871 -112.733515 
L 803.542721 -113.480605 
L 806.680747 -114.227694 
L 809.178279 -114.974784 
L 811.07732 -115.721873 
L 819.04768 -115.721873 
L 819.04768 -115.721873 
L 820.946721 -114.974784 
L 823.444253 -114.227694 
L 826.582279 -113.480605 
L 830.341129 -112.733515 
L 834.620955 -111.986425 
L 839.233089 -111.239336 
L 843.906261 -110.492246 
L 848.309998 -109.745156 
L 852.093472 -108.998067 
L 854.933763 -108.250977 
L 856.5842 -107.503888 
L 856.9125 -106.756798 
L 855.920234 -106.009708 
L 853.739477 -105.262619 
L 850.607911 -104.515529 
L 846.828602 -103.768439 
L 842.723695 -103.02135 
L 838.591599 -102.27426 
L 834.675098 -101.52717 
L 831.14421 -100.780081 
L 828.093686 -100.032991 
L 825.55207 -99.285902 
L 823.49762 -98.538812 
L 821.876404 -97.791722 
L 820.618882 -97.044633 
L 819.652813 -96.297543 
L 818.911794 -95.550453 
L 818.339799 -94.803364 
L 817.892627 -94.056274 
L 817.537307 -93.309185 
L 817.250392 -92.562095 
L 817.015791 -91.815005 
L 816.822601 -91.067916 
L 816.663198 -90.320826 
L 816.531726 -89.573736 
L 816.423062 -88.826647 
L 816.33225 -88.079557 
L 816.254357 -87.332467 
L 816.184653 -86.585378 
L 816.118982 -85.838288 
L 816.054168 -85.091199 
L 815.988344 -84.344109 
L 815.921088 -83.597019 
L 815.853324 -82.84993 
L 815.787009 -82.10284 
L 815.724647 -81.35575 
L 815.668737 -80.608661 
L 815.621252 -79.861571 
L 815.583265 -79.114482 
L 815.554794 -78.367392 
L 815.534885 -77.620302 
L 815.521938 -76.873213 
L 815.514173 -76.126123 
L 815.510145 -75.379033 
L 815.509174 -74.631944 
L 815.511597 -73.884854 
L 815.518786 -73.137765 
L 815.532929 -72.390675 
L 815.556619 -71.643585 
L 815.59235 -70.896496 
L 815.641997 -70.149406 
L 815.706372 -69.402316 
L 815.784908 -68.655227 
L 815.875517 -67.908137 
L 815.974653 -67.161047 
L 816.077578 -66.413958 
L 816.178852 -65.666868 
L 816.272996 -64.919779 
L 816.355254 -64.172689 
L 816.422352 -63.425599 
L 816.473099 -62.67851 
L 816.508699 -61.93142 
L 816.532685 -61.18433 
L 816.550426 -60.437241 
L 816.568284 -59.690151 
L 816.592521 -58.943062 
L 816.628148 -58.195972 
L 816.677882 -57.448882 
L 816.741415 -56.701793 
L 816.815101 -55.954703 
L 816.892156 -55.207613 
L 816.963376 -54.460524 
L 817.018284 -53.713434 
L 817.046572 -52.966344 
L 817.039618 -52.219255 
L 816.991825 -51.472165 
L 816.901554 -50.725076 
L 816.771462 -49.977986 
L 816.608186 -49.230896 
L 816.421419 -48.483807 
L 816.222565 -47.736717 
L 816.02322 -46.989627 
L 815.833768 -46.242538 
L 815.662323 -45.495448 
L 815.514151 -44.748359 
L 815.3916 -44.001269 
L 815.294457 -43.254179 
L 815.220578 -42.50709 
L 815.166628 -41.76 
z
" id="m27ba689b37" style="stroke:#464646;stroke-width:3;"/>
    </defs>
    <g clip-path="url(#p29f678c1dd)">
     <use style="fill:#b6a8eb;stroke:#464646;stroke-width:3;" x="0" xlink:href="#m27ba689b37" y="288"/>
    </g>
   </g>
   <g id="PolyCollection_8">
    <defs>
     <path d="M 920.004498 -73.707805 
L 919.370502 -73.707805 
L 919.139974 -74.554264 
L 918.77689 -75.400723 
L 918.228342 -76.247182 
L 917.433263 -77.093641 
L 916.327501 -77.9401 
L 914.851683 -78.786559 
L 912.961126 -79.633018 
L 910.636257 -80.479477 
L 907.891411 -81.325936 
L 904.77974 -82.172395 
L 901.392545 -83.018854 
L 897.852437 -83.865312 
L 894.301157 -84.711771 
L 890.884134 -85.55823 
L 887.734606 -86.404689 
L 884.960115 -87.251148 
L 882.633527 -88.097607 
L 880.78966 -88.944066 
L 879.427431 -89.790525 
L 878.516479 -90.636984 
L 878.006534 -91.483443 
L 877.8375 -92.329902 
L 877.948231 -93.176361 
L 878.282467 -94.02282 
L 878.791236 -94.869279 
L 879.432136 -95.715738 
L 880.166978 -96.562197 
L 880.959717 -97.408655 
L 881.776283 -98.255114 
L 882.586834 -99.101573 
L 883.369529 -99.948032 
L 884.114006 -100.794491 
L 884.822623 -101.64095 
L 885.508493 -102.487409 
L 886.190791 -103.333868 
L 886.88909 -104.180327 
L 887.618954 -105.026786 
L 888.390432 -105.873245 
L 889.209736 -106.719704 
L 890.082899 -107.566163 
L 891.019241 -108.412622 
L 892.032514 -109.259081 
L 893.138611 -110.10554 
L 894.350268 -110.951998 
L 895.670589 -111.798457 
L 897.087882 -112.644916 
L 898.573906 -113.491375 
L 900.086426 -114.337834 
L 901.575483 -115.184293 
L 902.991644 -116.030752 
L 904.294029 -116.877211 
L 905.456241 -117.72367 
L 906.469111 -118.570129 
L 907.340019 -119.416588 
L 908.089303 -120.263047 
L 908.744715 -121.109506 
L 909.335163 -121.955965 
L 909.885039 -122.802424 
L 910.410311 -123.648883 
L 910.917111 -124.495341 
L 911.402926 -125.3418 
L 911.859745 -126.188259 
L 912.278098 -127.034718 
L 912.650799 -127.881177 
L 912.975577 -128.727636 
L 913.25627 -129.574095 
L 913.502708 -130.420554 
L 913.729554 -131.267013 
L 913.954342 -132.113472 
L 914.194849 -132.959931 
L 914.466026 -133.80639 
L 914.776931 -134.652849 
L 915.128414 -135.499308 
L 915.512352 -136.345767 
L 915.912954 -137.192226 
L 916.31004 -138.038684 
L 916.683489 -138.885143 
L 917.01757 -139.731602 
L 917.303908 -140.578061 
L 917.542256 -141.42452 
L 917.739104 -142.270979 
L 917.904811 -143.117438 
L 918.050407 -143.963897 
L 918.185097 -144.810356 
L 918.315031 -145.656815 
L 918.443346 -146.503274 
L 918.570987 -147.349733 
L 918.697688 -148.196192 
L 918.822662 -149.042651 
L 918.944827 -149.88911 
L 919.062746 -150.735569 
L 919.174522 -151.582027 
L 919.277884 -152.428486 
L 919.37051 -153.274945 
L 919.450484 -154.121404 
L 919.516716 -154.967863 
L 919.569159 -155.814322 
L 919.608776 -156.660781 
L 919.637291 -157.50724 
L 919.737709 -157.50724 
L 919.737709 -157.50724 
L 919.766224 -156.660781 
L 919.805841 -155.814322 
L 919.858284 -154.967863 
L 919.924516 -154.121404 
L 920.00449 -153.274945 
L 920.097116 -152.428486 
L 920.200478 -151.582027 
L 920.312254 -150.735569 
L 920.430173 -149.88911 
L 920.552338 -149.042651 
L 920.677312 -148.196192 
L 920.804013 -147.349733 
L 920.931654 -146.503274 
L 921.059969 -145.656815 
L 921.189903 -144.810356 
L 921.324593 -143.963897 
L 921.470189 -143.117438 
L 921.635896 -142.270979 
L 921.832744 -141.42452 
L 922.071092 -140.578061 
L 922.35743 -139.731602 
L 922.691511 -138.885143 
L 923.06496 -138.038684 
L 923.462046 -137.192226 
L 923.862648 -136.345767 
L 924.246586 -135.499308 
L 924.598069 -134.652849 
L 924.908974 -133.80639 
L 925.180151 -132.959931 
L 925.420658 -132.113472 
L 925.645446 -131.267013 
L 925.872292 -130.420554 
L 926.11873 -129.574095 
L 926.399423 -128.727636 
L 926.724201 -127.881177 
L 927.096902 -127.034718 
L 927.515255 -126.188259 
L 927.972074 -125.3418 
L 928.457889 -124.495341 
L 928.964689 -123.648883 
L 929.489961 -122.802424 
L 930.039837 -121.955965 
L 930.630285 -121.109506 
L 931.285697 -120.263047 
L 932.034981 -119.416588 
L 932.905889 -118.570129 
L 933.918759 -117.72367 
L 935.080971 -116.877211 
L 936.383356 -116.030752 
L 937.799517 -115.184293 
L 939.288574 -114.337834 
L 940.801094 -113.491375 
L 942.287118 -112.644916 
L 943.704411 -111.798457 
L 945.024732 -110.951998 
L 946.236389 -110.10554 
L 947.342486 -109.259081 
L 948.355759 -108.412622 
L 949.292101 -107.566163 
L 950.165264 -106.719704 
L 950.984568 -105.873245 
L 951.756046 -105.026786 
L 952.48591 -104.180327 
L 953.184209 -103.333868 
L 953.866507 -102.487409 
L 954.552377 -101.64095 
L 955.260994 -100.794491 
L 956.005471 -99.948032 
L 956.788166 -99.101573 
L 957.598717 -98.255114 
L 958.415283 -97.408655 
L 959.208022 -96.562197 
L 959.942864 -95.715738 
L 960.583764 -94.869279 
L 961.092533 -94.02282 
L 961.426769 -93.176361 
L 961.5375 -92.329902 
L 961.368466 -91.483443 
L 960.858521 -90.636984 
L 959.947569 -89.790525 
L 958.58534 -88.944066 
L 956.741473 -88.097607 
L 954.414885 -87.251148 
L 951.640394 -86.404689 
L 948.490866 -85.55823 
L 945.073843 -84.711771 
L 941.522563 -83.865312 
L 937.982455 -83.018854 
L 934.59526 -82.172395 
L 931.483589 -81.325936 
L 928.738743 -80.479477 
L 926.413874 -79.633018 
L 924.523317 -78.786559 
L 923.047499 -77.9401 
L 921.941737 -77.093641 
L 921.146658 -76.247182 
L 920.59811 -75.400723 
L 920.235026 -74.554264 
L 920.004498 -73.707805 
z
" id="md2f7ff1787" style="stroke:#464646;stroke-width:3;"/>
    </defs>
    <g clip-path="url(#p29f678c1dd)">
     <use style="fill:#e78cd7;stroke:#464646;stroke-width:3;" x="0" xlink:href="#md2f7ff1787" y="288"/>
    </g>
   </g>
   <g id="line2d_9">
    <path clip-path="url(#p29f678c1dd)" d="M 187.3125 191.601014 
L 187.3125 177.55512 
" style="fill:none;stroke:#464646;stroke-linecap:round;stroke-width:3;"/>
   </g>
   <g id="line2d_10">
    <path clip-path="url(#p29f678c1dd)" d="M 187.3125 191.482526 
L 187.3125 185.857313 
" style="fill:none;stroke:#464646;stroke-linecap:round;stroke-width:9;"/>
   </g>
   <g id="line2d_11">
    <path clip-path="url(#p29f678c1dd)" d="M 291.9375 206.902993 
L 291.9375 153.383749 
" style="fill:none;stroke:#464646;stroke-linecap:round;stroke-width:3;"/>
   </g>
   <g id="line2d_12">
    <path clip-path="url(#p29f678c1dd)" d="M 291.9375 197.623447 
L 291.9375 172.295975 
" style="fill:none;stroke:#464646;stroke-linecap:round;stroke-width:9;"/>
   </g>
   <g id="line2d_13">
    <path clip-path="url(#p29f678c1dd)" d="M 396.5625 205.666531 
L 396.5625 149.218532 
" style="fill:none;stroke:#464646;stroke-linecap:round;stroke-width:3;"/>
   </g>
   <g id="line2d_14">
    <path clip-path="url(#p29f678c1dd)" d="M 396.5625 198.23305 
L 396.5625 177.907124 
" style="fill:none;stroke:#464646;stroke-linecap:round;stroke-width:9;"/>
   </g>
   <g id="line2d_15">
    <path clip-path="url(#p29f678c1dd)" d="M 501.1875 212.863228 
L 501.1875 159.017139 
" style="fill:none;stroke:#464646;stroke-linecap:round;stroke-width:3;"/>
   </g>
   <g id="line2d_16">
    <path clip-path="url(#p29f678c1dd)" d="M 501.1875 193.60238 
L 501.1875 179.465627 
" style="fill:none;stroke:#464646;stroke-linecap:round;stroke-width:9;"/>
   </g>
   <g id="line2d_17">
    <path clip-path="url(#p29f678c1dd)" d="M 605.8125 217.358283 
L 605.8125 170.931301 
" style="fill:none;stroke:#464646;stroke-linecap:round;stroke-width:3;"/>
   </g>
   <g id="line2d_18">
    <path clip-path="url(#p29f678c1dd)" d="M 605.8125 197.216814 
L 605.8125 173.764255 
" style="fill:none;stroke:#464646;stroke-linecap:round;stroke-width:9;"/>
   </g>
   <g id="line2d_19">
    <path clip-path="url(#p29f678c1dd)" d="M 710.4375 202.99336 
L 710.4375 151.263761 
" style="fill:none;stroke:#464646;stroke-linecap:round;stroke-width:3;"/>
   </g>
   <g id="line2d_20">
    <path clip-path="url(#p29f678c1dd)" d="M 710.4375 196.789778 
L 710.4375 177.050742 
" style="fill:none;stroke:#464646;stroke-linecap:round;stroke-width:9;"/>
   </g>
   <g id="line2d_21">
    <path clip-path="url(#p29f678c1dd)" d="M 815.0625 187.691055 
L 815.0625 180.026525 
" style="fill:none;stroke:#464646;stroke-linecap:round;stroke-width:3;"/>
   </g>
   <g id="line2d_22">
    <path clip-path="url(#p29f678c1dd)" d="M 815.0625 183.19944 
L 815.0625 180.126036 
" style="fill:none;stroke:#464646;stroke-linecap:round;stroke-width:9;"/>
   </g>
   <g id="line2d_23">
    <path clip-path="url(#p29f678c1dd)" d="M 919.6875 206.543796 
L 919.6875 151.73583 
" style="fill:none;stroke:#464646;stroke-linecap:round;stroke-width:3;"/>
   </g>
   <g id="line2d_24">
    <path clip-path="url(#p29f678c1dd)" d="M 919.6875 196.705502 
L 919.6875 177.848773 
" style="fill:none;stroke:#464646;stroke-linecap:round;stroke-width:9;"/>
   </g>
   <g id="patch_3">
    <path d="M 135 256.32 
L 135 34.56 
" style="fill:none;"/>
   </g>
   <g id="patch_4">
    <path d="M 972 256.32 
L 972 34.56 
" style="fill:none;"/>
   </g>
   <g id="patch_5">
    <path d="M 135 256.32 
L 972 256.32 
" style="fill:none;"/>
   </g>
   <g id="patch_6">
    <path d="M 135 34.56 
L 972 34.56 
" style="fill:none;"/>
   </g>
   <g id="PathCollection_1">
    <defs>
     <path d="M 0 3 
C 0.795609 3 1.55874 2.683901 2.12132 2.12132 
C 2.683901 1.55874 3 0.795609 3 0 
C 3 -0.795609 2.683901 -1.55874 2.12132 -2.12132 
C 1.55874 -2.683901 0.795609 -3 0 -3 
C -0.795609 -3 -1.55874 -2.683901 -2.12132 -2.12132 
C -2.683901 -1.55874 -3 -0.795609 -3 0 
C -3 0.795609 -2.683901 1.55874 -2.12132 2.12132 
C -1.55874 2.683901 -0.795609 3 0 3 
z
" id="m64df25e637" style="stroke:#464646;stroke-width:0.3;"/>
    </defs>
    <g clip-path="url(#p29f678c1dd)">
     <use style="fill:#ffffff;stroke:#464646;stroke-width:0.3;" x="187.3125" xlink:href="#m64df25e637" y="191.209538"/>
    </g>
   </g>
   <g id="PathCollection_2">
    <g clip-path="url(#p29f678c1dd)">
     <use style="fill:#ffffff;stroke:#464646;stroke-width:0.3;" x="291.9375" xlink:href="#m64df25e637" y="188.795126"/>
    </g>
   </g>
   <g id="PathCollection_3">
    <g clip-path="url(#p29f678c1dd)">
     <use style="fill:#ffffff;stroke:#464646;stroke-width:0.3;" x="396.5625" xlink:href="#m64df25e637" y="187.895865"/>
    </g>
   </g>
   <g id="PathCollection_4">
    <g clip-path="url(#p29f678c1dd)">
     <use style="fill:#ffffff;stroke:#464646;stroke-width:0.3;" x="501.1875" xlink:href="#m64df25e637" y="187.415156"/>
    </g>
   </g>
   <g id="PathCollection_5">
    <g clip-path="url(#p29f678c1dd)">
     <use style="fill:#ffffff;stroke:#464646;stroke-width:0.3;" x="605.8125" xlink:href="#m64df25e637" y="181.689356"/>
    </g>
   </g>
   <g id="PathCollection_6">
    <g clip-path="url(#p29f678c1dd)">
     <use style="fill:#ffffff;stroke:#464646;stroke-width:0.3;" x="710.4375" xlink:href="#m64df25e637" y="189.712455"/>
    </g>
   </g>
   <g id="PathCollection_7">
    <g clip-path="url(#p29f678c1dd)">
     <use style="fill:#ffffff;stroke:#464646;stroke-width:0.3;" x="815.0625" xlink:href="#m64df25e637" y="180.831456"/>
    </g>
   </g>
   <g id="PathCollection_8">
    <g clip-path="url(#p29f678c1dd)">
     <use style="fill:#ffffff;stroke:#464646;stroke-width:0.3;" x="919.6875" xlink:href="#m64df25e637" y="188.39384"/>
    </g>
   </g>
  </g>
  <g id="text_17">
   <!-- Violin Plot of all Continuous Variables -->
   <defs>
    <path d="M 28.171875 0 
L 0.4375 71.578125 
L 10.6875 71.578125 
L 29.296875 19.578125 
Q 31.546875 13.328125 33.0625 7.859375 
Q 34.71875 13.71875 36.921875 19.578125 
L 56.25 71.578125 
L 65.921875 71.578125 
L 37.890625 0 
z
" id="ArialMT-86"/>
    <path id="ArialMT-32"/>
    <path d="M 7.71875 0 
L 7.71875 71.578125 
L 34.71875 71.578125 
Q 41.84375 71.578125 45.609375 70.90625 
Q 50.875 70.015625 54.4375 67.546875 
Q 58.015625 65.09375 60.1875 60.640625 
Q 62.359375 56.203125 62.359375 50.875 
Q 62.359375 41.75 56.546875 35.421875 
Q 50.734375 29.109375 35.546875 29.109375 
L 17.1875 29.109375 
L 17.1875 0 
z
M 17.1875 37.546875 
L 35.6875 37.546875 
Q 44.875 37.546875 48.734375 40.96875 
Q 52.59375 44.390625 52.59375 50.59375 
Q 52.59375 55.078125 50.3125 58.265625 
Q 48.046875 61.46875 44.34375 62.5 
Q 41.9375 63.140625 35.5 63.140625 
L 17.1875 63.140625 
z
" id="ArialMT-80"/>
    <path d="M 8.6875 0 
L 8.6875 45.015625 
L 0.921875 45.015625 
L 0.921875 51.859375 
L 8.6875 51.859375 
L 8.6875 57.375 
Q 8.6875 62.59375 9.625 65.140625 
Q 10.890625 68.5625 14.078125 70.671875 
Q 17.28125 72.796875 23.046875 72.796875 
Q 26.765625 72.796875 31.25 71.921875 
L 29.9375 64.265625 
Q 27.203125 64.75 24.75 64.75 
Q 20.75 64.75 19.09375 63.03125 
Q 17.4375 61.328125 17.4375 56.640625 
L 17.4375 51.859375 
L 27.546875 51.859375 
L 27.546875 45.015625 
L 17.4375 45.015625 
L 17.4375 0 
z
" id="ArialMT-102"/>
    <path d="M 58.796875 25.09375 
L 68.265625 22.703125 
Q 65.28125 11.03125 57.546875 4.90625 
Q 49.8125 -1.21875 38.625 -1.21875 
Q 27.046875 -1.21875 19.796875 3.484375 
Q 12.546875 8.203125 8.765625 17.140625 
Q 4.984375 26.078125 4.984375 36.328125 
Q 4.984375 47.515625 9.25 55.828125 
Q 13.53125 64.15625 21.40625 68.46875 
Q 29.296875 72.796875 38.765625 72.796875 
Q 49.515625 72.796875 56.828125 67.328125 
Q 64.15625 61.859375 67.046875 51.953125 
L 57.71875 49.75 
Q 55.21875 57.5625 50.484375 61.125 
Q 45.75 64.703125 38.578125 64.703125 
Q 30.328125 64.703125 24.78125 60.734375 
Q 19.234375 56.78125 16.984375 50.109375 
Q 14.75 43.453125 14.75 36.375 
Q 14.75 27.25 17.40625 20.4375 
Q 20.0625 13.625 25.671875 10.25 
Q 31.296875 6.890625 37.84375 6.890625 
Q 45.796875 6.890625 51.3125 11.46875 
Q 56.84375 16.0625 58.796875 25.09375 
z
" id="ArialMT-67"/>
   </defs>
   <g style="fill:#262626;" transform="translate(373.814062 -8.724375)scale(0.2 -0.2)">
    <use xlink:href="#ArialMT-86"/>
    <use x="66.683594" xlink:href="#ArialMT-105"/>
    <use x="88.900391" xlink:href="#ArialMT-111"/>
    <use x="144.515625" xlink:href="#ArialMT-108"/>
    <use x="166.732422" xlink:href="#ArialMT-105"/>
    <use x="188.949219" xlink:href="#ArialMT-110"/>
    <use x="244.564453" xlink:href="#ArialMT-32"/>
    <use x="272.347656" xlink:href="#ArialMT-80"/>
    <use x="339.046875" xlink:href="#ArialMT-108"/>
    <use x="361.263672" xlink:href="#ArialMT-111"/>
    <use x="416.878906" xlink:href="#ArialMT-116"/>
    <use x="444.662109" xlink:href="#ArialMT-32"/>
    <use x="472.445312" xlink:href="#ArialMT-111"/>
    <use x="528.060547" xlink:href="#ArialMT-102"/>
    <use x="555.84375" xlink:href="#ArialMT-32"/>
    <use x="583.626953" xlink:href="#ArialMT-97"/>
    <use x="639.242188" xlink:href="#ArialMT-108"/>
    <use x="661.458984" xlink:href="#ArialMT-108"/>
    <use x="683.675781" xlink:href="#ArialMT-32"/>
    <use x="711.458984" xlink:href="#ArialMT-67"/>
    <use x="783.675781" xlink:href="#ArialMT-111"/>
    <use x="839.291016" xlink:href="#ArialMT-110"/>
    <use x="894.90625" xlink:href="#ArialMT-116"/>
    <use x="922.689453" xlink:href="#ArialMT-105"/>
    <use x="944.90625" xlink:href="#ArialMT-110"/>
    <use x="1000.521484" xlink:href="#ArialMT-117"/>
    <use x="1056.136719" xlink:href="#ArialMT-111"/>
    <use x="1111.751953" xlink:href="#ArialMT-117"/>
    <use x="1167.367188" xlink:href="#ArialMT-115"/>
    <use x="1217.367188" xlink:href="#ArialMT-32"/>
    <use x="1245.150391" xlink:href="#ArialMT-86"/>
    <use x="1311.740234" xlink:href="#ArialMT-97"/>
    <use x="1367.355469" xlink:href="#ArialMT-114"/>
    <use x="1400.65625" xlink:href="#ArialMT-105"/>
    <use x="1422.873047" xlink:href="#ArialMT-97"/>
    <use x="1478.488281" xlink:href="#ArialMT-98"/>
    <use x="1534.103516" xlink:href="#ArialMT-108"/>
    <use x="1556.320312" xlink:href="#ArialMT-101"/>
    <use x="1611.935547" xlink:href="#ArialMT-115"/>
   </g>
  </g>
 </g>
 <defs>
  <clipPath id="p29f678c1dd">
   <rect height="221.76" width="837" x="135" y="34.56"/>
  </clipPath>
 </defs>
</svg>
