<?xml version="1.0" encoding="utf-8" standalone="no"?>
<!DOCTYPE svg PUBLIC "-//W3C//DTD SVG 1.1//EN"
  "http://www.w3.org/Graphics/SVG/1.1/DTD/svg11.dtd">
<!-- Created with matplotlib (https://matplotlib.org/) -->
<svg height="288pt" version="1.1" viewBox="0 0 1080 288" width="1080pt" xmlns="http://www.w3.org/2000/svg" xmlns:xlink="http://www.w3.org/1999/xlink">
 <defs>
  <style type="text/css">
*{stroke-linecap:butt;stroke-linejoin:round;}
  </style>
 </defs>
 <g id="figure_1">
  <g id="patch_1">
   <path d="M 0 288 
L 1080 288 
L 1080 0 
L 0 0 
z
" style="fill:#ffffff;"/>
  </g>
  <g id="axes_1">
   <g id="patch_2">
    <path d="M 135 256.32 
L 972 256.32 
L 972 34.56 
L 135 34.56 
z
" style="fill:#eaeaf2;"/>
   </g>
   <g id="matplotlib.axis_1">
    <g id="xtick_1">
     <g id="text_1">
      <!-- Confirmed -->
      <defs>
       <path d="M 58.796875 25.09375 
L 68.265625 22.703125 
Q 65.28125 11.03125 57.546875 4.90625 
Q 49.8125 -1.21875 38.625 -1.21875 
Q 27.046875 -1.21875 19.796875 3.484375 
Q 12.546875 8.203125 8.765625 17.140625 
Q 4.984375 26.078125 4.984375 36.328125 
Q 4.984375 47.515625 9.25 55.828125 
Q 13.53125 64.15625 21.40625 68.46875 
Q 29.296875 72.796875 38.765625 72.796875 
Q 49.515625 72.796875 56.828125 67.328125 
Q 64.15625 61.859375 67.046875 51.953125 
L 57.71875 49.75 
Q 55.21875 57.5625 50.484375 61.125 
Q 45.75 64.703125 38.578125 64.703125 
Q 30.328125 64.703125 24.78125 60.734375 
Q 19.234375 56.78125 16.984375 50.109375 
Q 14.75 43.453125 14.75 36.375 
Q 14.75 27.25 17.40625 20.4375 
Q 20.0625 13.625 25.671875 10.25 
Q 31.296875 6.890625 37.84375 6.890625 
Q 45.796875 6.890625 51.3125 11.46875 
Q 56.84375 16.0625 58.796875 25.09375 
z
" id="ArialMT-67"/>
       <path d="M 3.328125 25.921875 
Q 3.328125 40.328125 11.328125 47.265625 
Q 18.015625 53.03125 27.640625 53.03125 
Q 38.328125 53.03125 45.109375 46.015625 
Q 51.90625 39.015625 51.90625 26.65625 
Q 51.90625 16.65625 48.90625 10.90625 
Q 45.90625 5.171875 40.15625 2 
Q 34.421875 -1.171875 27.640625 -1.171875 
Q 16.75 -1.171875 10.03125 5.8125 
Q 3.328125 12.796875 3.328125 25.921875 
z
M 12.359375 25.921875 
Q 12.359375 15.96875 16.703125 11.015625 
Q 21.046875 6.0625 27.640625 6.0625 
Q 34.1875 6.0625 38.53125 11.03125 
Q 42.875 16.015625 42.875 26.21875 
Q 42.875 35.84375 38.5 40.796875 
Q 34.125 45.75 27.640625 45.75 
Q 21.046875 45.75 16.703125 40.8125 
Q 12.359375 35.890625 12.359375 25.921875 
z
" id="ArialMT-111"/>
       <path d="M 6.59375 0 
L 6.59375 51.859375 
L 14.5 51.859375 
L 14.5 44.484375 
Q 20.21875 53.03125 31 53.03125 
Q 35.6875 53.03125 39.625 51.34375 
Q 43.5625 49.65625 45.515625 46.921875 
Q 47.46875 44.1875 48.25 40.4375 
Q 48.734375 37.984375 48.734375 31.890625 
L 48.734375 0 
L 39.9375 0 
L 39.9375 31.546875 
Q 39.9375 36.921875 38.90625 39.578125 
Q 37.890625 42.234375 35.28125 43.8125 
Q 32.671875 45.40625 29.15625 45.40625 
Q 23.53125 45.40625 19.453125 41.84375 
Q 15.375 38.28125 15.375 28.328125 
L 15.375 0 
z
" id="ArialMT-110"/>
       <path d="M 8.6875 0 
L 8.6875 45.015625 
L 0.921875 45.015625 
L 0.921875 51.859375 
L 8.6875 51.859375 
L 8.6875 57.375 
Q 8.6875 62.59375 9.625 65.140625 
Q 10.890625 68.5625 14.078125 70.671875 
Q 17.28125 72.796875 23.046875 72.796875 
Q 26.765625 72.796875 31.25 71.921875 
L 29.9375 64.265625 
Q 27.203125 64.75 24.75 64.75 
Q 20.75 64.75 19.09375 63.03125 
Q 17.4375 61.328125 17.4375 56.640625 
L 17.4375 51.859375 
L 27.546875 51.859375 
L 27.546875 45.015625 
L 17.4375 45.015625 
L 17.4375 0 
z
" id="ArialMT-102"/>
       <path d="M 6.640625 61.46875 
L 6.640625 71.578125 
L 15.4375 71.578125 
L 15.4375 61.46875 
z
M 6.640625 0 
L 6.640625 51.859375 
L 15.4375 51.859375 
L 15.4375 0 
z
" id="ArialMT-105"/>
       <path d="M 6.5 0 
L 6.5 51.859375 
L 14.40625 51.859375 
L 14.40625 44 
Q 17.4375 49.515625 20 51.265625 
Q 22.5625 53.03125 25.640625 53.03125 
Q 30.078125 53.03125 34.671875 50.203125 
L 31.640625 42.046875 
Q 28.421875 43.953125 25.203125 43.953125 
Q 22.3125 43.953125 20.015625 42.21875 
Q 17.71875 40.484375 16.75 37.40625 
Q 15.28125 32.71875 15.28125 27.15625 
L 15.28125 0 
z
" id="ArialMT-114"/>
       <path d="M 6.59375 0 
L 6.59375 51.859375 
L 14.453125 51.859375 
L 14.453125 44.578125 
Q 16.890625 48.390625 20.9375 50.703125 
Q 25 53.03125 30.171875 53.03125 
Q 35.9375 53.03125 39.625 50.640625 
Q 43.3125 48.25 44.828125 43.953125 
Q 50.984375 53.03125 60.84375 53.03125 
Q 68.5625 53.03125 72.703125 48.75 
Q 76.859375 44.484375 76.859375 35.59375 
L 76.859375 0 
L 68.109375 0 
L 68.109375 32.671875 
Q 68.109375 37.9375 67.25 40.25 
Q 66.40625 42.578125 64.15625 43.984375 
Q 61.921875 45.40625 58.890625 45.40625 
Q 53.421875 45.40625 49.796875 41.765625 
Q 46.1875 38.140625 46.1875 30.125 
L 46.1875 0 
L 37.40625 0 
L 37.40625 33.6875 
Q 37.40625 39.546875 35.25 42.46875 
Q 33.109375 45.40625 28.21875 45.40625 
Q 24.515625 45.40625 21.359375 43.453125 
Q 18.21875 41.5 16.796875 37.734375 
Q 15.375 33.984375 15.375 26.90625 
L 15.375 0 
z
" id="ArialMT-109"/>
       <path d="M 42.09375 16.703125 
L 51.171875 15.578125 
Q 49.03125 7.625 43.21875 3.21875 
Q 37.40625 -1.171875 28.375 -1.171875 
Q 17 -1.171875 10.328125 5.828125 
Q 3.65625 12.84375 3.65625 25.484375 
Q 3.65625 38.578125 10.390625 45.796875 
Q 17.140625 53.03125 27.875 53.03125 
Q 38.28125 53.03125 44.875 45.953125 
Q 51.46875 38.875 51.46875 26.03125 
Q 51.46875 25.25 51.421875 23.6875 
L 12.75 23.6875 
Q 13.234375 15.140625 17.578125 10.59375 
Q 21.921875 6.0625 28.421875 6.0625 
Q 33.25 6.0625 36.671875 8.59375 
Q 40.09375 11.140625 42.09375 16.703125 
z
M 13.234375 30.90625 
L 42.1875 30.90625 
Q 41.609375 37.453125 38.875 40.71875 
Q 34.671875 45.796875 27.984375 45.796875 
Q 21.921875 45.796875 17.796875 41.75 
Q 13.671875 37.703125 13.234375 30.90625 
z
" id="ArialMT-101"/>
       <path d="M 40.234375 0 
L 40.234375 6.546875 
Q 35.296875 -1.171875 25.734375 -1.171875 
Q 19.53125 -1.171875 14.328125 2.25 
Q 9.125 5.671875 6.265625 11.796875 
Q 3.421875 17.921875 3.421875 25.875 
Q 3.421875 33.640625 6 39.96875 
Q 8.59375 46.296875 13.765625 49.65625 
Q 18.953125 53.03125 25.34375 53.03125 
Q 30.03125 53.03125 33.6875 51.046875 
Q 37.359375 49.078125 39.65625 45.90625 
L 39.65625 71.578125 
L 48.390625 71.578125 
L 48.390625 0 
z
M 12.453125 25.875 
Q 12.453125 15.921875 16.640625 10.984375 
Q 20.84375 6.0625 26.5625 6.0625 
Q 32.328125 6.0625 36.34375 10.765625 
Q 40.375 15.484375 40.375 25.140625 
Q 40.375 35.796875 36.265625 40.765625 
Q 32.171875 45.75 26.171875 45.75 
Q 20.3125 45.75 16.375 40.96875 
Q 12.453125 36.1875 12.453125 25.875 
z
" id="ArialMT-100"/>
      </defs>
      <g style="fill:#262626;" transform="translate(321.1875 270.477813)scale(0.1 -0.1)">
       <use xlink:href="#ArialMT-67"/>
       <use x="72.216797" xlink:href="#ArialMT-111"/>
       <use x="127.832031" xlink:href="#ArialMT-110"/>
       <use x="183.447266" xlink:href="#ArialMT-102"/>
       <use x="211.230469" xlink:href="#ArialMT-105"/>
       <use x="233.447266" xlink:href="#ArialMT-114"/>
       <use x="266.748047" xlink:href="#ArialMT-109"/>
       <use x="350.048828" xlink:href="#ArialMT-101"/>
       <use x="405.664062" xlink:href="#ArialMT-100"/>
      </g>
     </g>
    </g>
    <g id="xtick_2">
     <g id="text_2">
      <!-- Recovered -->
      <defs>
       <path d="M 7.859375 0 
L 7.859375 71.578125 
L 39.59375 71.578125 
Q 49.171875 71.578125 54.140625 69.640625 
Q 59.125 67.71875 62.109375 62.828125 
Q 65.09375 57.953125 65.09375 52.046875 
Q 65.09375 44.4375 60.15625 39.203125 
Q 55.21875 33.984375 44.921875 32.5625 
Q 48.6875 30.765625 50.640625 29 
Q 54.78125 25.203125 58.5 19.484375 
L 70.953125 0 
L 59.03125 0 
L 49.5625 14.890625 
Q 45.40625 21.34375 42.71875 24.75 
Q 40.046875 28.171875 37.921875 29.53125 
Q 35.796875 30.90625 33.59375 31.453125 
Q 31.984375 31.78125 28.328125 31.78125 
L 17.328125 31.78125 
L 17.328125 0 
z
M 17.328125 39.984375 
L 37.703125 39.984375 
Q 44.1875 39.984375 47.84375 41.328125 
Q 51.515625 42.671875 53.421875 45.625 
Q 55.328125 48.578125 55.328125 52.046875 
Q 55.328125 57.125 51.640625 60.390625 
Q 47.953125 63.671875 39.984375 63.671875 
L 17.328125 63.671875 
z
" id="ArialMT-82"/>
       <path d="M 40.4375 19 
L 49.078125 17.875 
Q 47.65625 8.9375 41.8125 3.875 
Q 35.984375 -1.171875 27.484375 -1.171875 
Q 16.84375 -1.171875 10.375 5.78125 
Q 3.90625 12.75 3.90625 25.734375 
Q 3.90625 34.125 6.6875 40.421875 
Q 9.46875 46.734375 15.15625 49.875 
Q 20.84375 53.03125 27.546875 53.03125 
Q 35.984375 53.03125 41.359375 48.75 
Q 46.734375 44.484375 48.25 36.625 
L 39.703125 35.296875 
Q 38.484375 40.53125 35.375 43.15625 
Q 32.28125 45.796875 27.875 45.796875 
Q 21.234375 45.796875 17.078125 41.03125 
Q 12.9375 36.28125 12.9375 25.984375 
Q 12.9375 15.53125 16.9375 10.796875 
Q 20.953125 6.0625 27.390625 6.0625 
Q 32.5625 6.0625 36.03125 9.234375 
Q 39.5 12.40625 40.4375 19 
z
" id="ArialMT-99"/>
       <path d="M 21 0 
L 1.265625 51.859375 
L 10.546875 51.859375 
L 21.6875 20.796875 
Q 23.484375 15.765625 25 10.359375 
Q 26.171875 14.453125 28.265625 20.21875 
L 39.796875 51.859375 
L 48.828125 51.859375 
L 29.203125 0 
z
" id="ArialMT-118"/>
      </defs>
      <g style="fill:#262626;" transform="translate(738.571875 270.477813)scale(0.1 -0.1)">
       <use xlink:href="#ArialMT-82"/>
       <use x="72.216797" xlink:href="#ArialMT-101"/>
       <use x="127.832031" xlink:href="#ArialMT-99"/>
       <use x="177.832031" xlink:href="#ArialMT-111"/>
       <use x="233.447266" xlink:href="#ArialMT-118"/>
       <use x="283.447266" xlink:href="#ArialMT-101"/>
       <use x="339.0625" xlink:href="#ArialMT-114"/>
       <use x="372.363281" xlink:href="#ArialMT-101"/>
       <use x="427.978516" xlink:href="#ArialMT-100"/>
      </g>
     </g>
    </g>
   </g>
   <g id="matplotlib.axis_2">
    <g id="ytick_1">
     <g id="line2d_1">
      <path clip-path="url(#pc5e5b48205)" d="M 135 241.245315 
L 972 241.245315 
" style="fill:none;stroke:#ffffff;stroke-linecap:round;"/>
     </g>
     <g id="text_3">
      <!-- 0 -->
      <defs>
       <path d="M 4.15625 35.296875 
Q 4.15625 48 6.765625 55.734375 
Q 9.375 63.484375 14.515625 67.671875 
Q 19.671875 71.875 27.484375 71.875 
Q 33.25 71.875 37.59375 69.546875 
Q 41.9375 67.234375 44.765625 62.859375 
Q 47.609375 58.5 49.21875 52.21875 
Q 50.828125 45.953125 50.828125 35.296875 
Q 50.828125 22.703125 48.234375 14.96875 
Q 45.65625 7.234375 40.5 3 
Q 35.359375 -1.21875 27.484375 -1.21875 
Q 17.140625 -1.21875 11.234375 6.203125 
Q 4.15625 15.140625 4.15625 35.296875 
z
M 13.1875 35.296875 
Q 13.1875 17.671875 17.3125 11.828125 
Q 21.4375 6 27.484375 6 
Q 33.546875 6 37.671875 11.859375 
Q 41.796875 17.71875 41.796875 35.296875 
Q 41.796875 52.984375 37.671875 58.78125 
Q 33.546875 64.59375 27.390625 64.59375 
Q 21.34375 64.59375 17.71875 59.46875 
Q 13.1875 52.9375 13.1875 35.296875 
z
" id="ArialMT-48"/>
      </defs>
      <g style="fill:#262626;" transform="translate(122.439063 244.824221)scale(0.1 -0.1)">
       <use xlink:href="#ArialMT-48"/>
      </g>
     </g>
    </g>
    <g id="ytick_2">
     <g id="line2d_2">
      <path clip-path="url(#pc5e5b48205)" d="M 135 197.975006 
L 972 197.975006 
" style="fill:none;stroke:#ffffff;stroke-linecap:round;"/>
     </g>
     <g id="text_4">
      <!-- 5 -->
      <defs>
       <path d="M 4.15625 18.75 
L 13.375 19.53125 
Q 14.40625 12.796875 18.140625 9.390625 
Q 21.875 6 27.15625 6 
Q 33.5 6 37.890625 10.78125 
Q 42.28125 15.578125 42.28125 23.484375 
Q 42.28125 31 38.0625 35.34375 
Q 33.84375 39.703125 27 39.703125 
Q 22.75 39.703125 19.328125 37.765625 
Q 15.921875 35.84375 13.96875 32.765625 
L 5.71875 33.84375 
L 12.640625 70.609375 
L 48.25 70.609375 
L 48.25 62.203125 
L 19.671875 62.203125 
L 15.828125 42.96875 
Q 22.265625 47.46875 29.34375 47.46875 
Q 38.71875 47.46875 45.15625 40.96875 
Q 51.609375 34.46875 51.609375 24.265625 
Q 51.609375 14.546875 45.953125 7.46875 
Q 39.0625 -1.21875 27.15625 -1.21875 
Q 17.390625 -1.21875 11.203125 4.25 
Q 5.03125 9.71875 4.15625 18.75 
z
" id="ArialMT-53"/>
      </defs>
      <g style="fill:#262626;" transform="translate(122.439063 201.553912)scale(0.1 -0.1)">
       <use xlink:href="#ArialMT-53"/>
      </g>
     </g>
    </g>
    <g id="ytick_3">
     <g id="line2d_3">
      <path clip-path="url(#pc5e5b48205)" d="M 135 154.704697 
L 972 154.704697 
" style="fill:none;stroke:#ffffff;stroke-linecap:round;"/>
     </g>
     <g id="text_5">
      <!-- 10 -->
      <defs>
       <path d="M 37.25 0 
L 28.46875 0 
L 28.46875 56 
Q 25.296875 52.984375 20.140625 49.953125 
Q 14.984375 46.921875 10.890625 45.40625 
L 10.890625 53.90625 
Q 18.265625 57.375 23.78125 62.296875 
Q 29.296875 67.234375 31.59375 71.875 
L 37.25 71.875 
z
" id="ArialMT-49"/>
      </defs>
      <g style="fill:#262626;" transform="translate(116.878125 158.283604)scale(0.1 -0.1)">
       <use xlink:href="#ArialMT-49"/>
       <use x="55.615234" xlink:href="#ArialMT-48"/>
      </g>
     </g>
    </g>
    <g id="ytick_4">
     <g id="line2d_4">
      <path clip-path="url(#pc5e5b48205)" d="M 135 111.434389 
L 972 111.434389 
" style="fill:none;stroke:#ffffff;stroke-linecap:round;"/>
     </g>
     <g id="text_6">
      <!-- 15 -->
      <g style="fill:#262626;" transform="translate(116.878125 115.013295)scale(0.1 -0.1)">
       <use xlink:href="#ArialMT-49"/>
       <use x="55.615234" xlink:href="#ArialMT-53"/>
      </g>
     </g>
    </g>
    <g id="ytick_5">
     <g id="line2d_5">
      <path clip-path="url(#pc5e5b48205)" d="M 135 68.16408 
L 972 68.16408 
" style="fill:none;stroke:#ffffff;stroke-linecap:round;"/>
     </g>
     <g id="text_7">
      <!-- 20 -->
      <defs>
       <path d="M 50.34375 8.453125 
L 50.34375 0 
L 3.03125 0 
Q 2.9375 3.171875 4.046875 6.109375 
Q 5.859375 10.9375 9.828125 15.625 
Q 13.8125 20.3125 21.34375 26.46875 
Q 33.015625 36.03125 37.109375 41.625 
Q 41.21875 47.21875 41.21875 52.203125 
Q 41.21875 57.421875 37.46875 61 
Q 33.734375 64.59375 27.734375 64.59375 
Q 21.390625 64.59375 17.578125 60.78125 
Q 13.765625 56.984375 13.71875 50.25 
L 4.6875 51.171875 
Q 5.609375 61.28125 11.65625 66.578125 
Q 17.71875 71.875 27.9375 71.875 
Q 38.234375 71.875 44.234375 66.15625 
Q 50.25 60.453125 50.25 52 
Q 50.25 47.703125 48.484375 43.546875 
Q 46.734375 39.40625 42.65625 34.8125 
Q 38.578125 30.21875 29.109375 22.21875 
Q 21.1875 15.578125 18.9375 13.203125 
Q 16.703125 10.84375 15.234375 8.453125 
z
" id="ArialMT-50"/>
      </defs>
      <g style="fill:#262626;" transform="translate(116.878125 71.742986)scale(0.1 -0.1)">
       <use xlink:href="#ArialMT-50"/>
       <use x="55.615234" xlink:href="#ArialMT-48"/>
      </g>
     </g>
    </g>
   </g>
   <g id="PolyCollection_1">
    <defs>
     <path d="M 364.012747 -41.793831 
L 324.487253 -41.793831 
L 273.063101 -43.285137 
L 199.536403 -44.776442 
L 176.85 -46.267747 
L 232.298081 -47.759053 
L 299.645828 -49.250358 
L 333.070264 -50.741663 
L 342.256138 -52.232969 
L 343.833616 -53.724274 
L 344.024518 -55.215579 
L 344.056055 -56.706885 
L 344.071523 -58.19819 
L 344.08276 -59.689495 
L 344.094563 -61.180801 
L 344.114848 -62.672106 
L 344.13769 -64.163411 
L 344.137809 -65.654717 
L 344.136097 -67.146022 
L 344.152459 -68.637327 
L 344.15136 -70.128633 
L 344.139817 -71.619938 
L 344.156958 -73.111243 
L 344.172236 -74.602549 
L 344.15356 -76.093854 
L 344.146796 -77.585159 
L 344.180326 -79.076465 
L 344.201182 -80.56777 
L 344.154961 -82.059075 
L 344.068952 -83.550381 
L 344.048818 -85.041686 
L 344.125071 -86.532991 
L 344.206751 -88.024296 
L 344.241574 -89.515602 
L 344.247845 -91.006907 
L 344.239147 -92.498212 
L 344.198301 -93.989518 
L 344.112063 -95.480823 
L 344.044867 -96.972128 
L 344.079965 -98.463434 
L 344.171441 -99.954739 
L 344.229697 -101.446044 
L 344.246076 -102.93735 
L 344.241984 -104.428655 
L 344.2169 -105.91996 
L 344.171527 -107.411266 
L 344.145357 -108.902571 
L 344.165415 -110.393876 
L 344.183924 -111.885182 
L 344.161943 -113.376487 
L 344.140593 -114.867792 
L 344.150777 -116.359098 
L 344.151205 -117.850403 
L 344.130185 -119.341708 
L 344.121483 -120.833014 
L 344.122312 -122.324319 
L 344.13742 -123.815624 
L 344.181914 -125.30693 
L 344.225672 -126.798235 
L 344.245087 -128.28954 
L 344.249445 -129.780846 
L 344.249965 -131.272151 
L 344.249999 -132.763456 
L 344.25 -134.254762 
L 344.25 -135.746067 
L 344.25 -137.237372 
L 344.25 -138.728678 
L 344.25 -140.219983 
L 344.25 -141.711288 
L 344.25 -143.202594 
L 344.25 -144.693899 
L 344.25 -146.185204 
L 344.25 -147.67651 
L 344.249997 -149.167815 
L 344.249923 -150.65912 
L 344.248957 -152.150426 
L 344.242087 -153.641731 
L 344.216551 -155.133036 
L 344.17119 -156.624342 
L 344.146499 -158.115647 
L 344.174145 -159.606952 
L 344.217807 -161.098258 
L 344.233721 -162.589563 
L 344.212032 -164.080868 
L 344.166966 -165.572174 
L 344.144864 -167.063479 
L 344.165337 -168.554784 
L 344.175705 -170.04609 
L 344.150123 -171.537395 
L 344.133479 -173.0287 
L 344.13673 -174.520006 
L 344.131496 -176.011311 
L 344.133494 -177.502616 
L 344.14291 -178.993922 
L 344.134244 -180.485227 
L 344.129394 -181.976532 
L 344.13409 -183.467838 
L 344.13266 -184.959143 
L 344.154078 -186.450448 
L 344.20141 -187.941754 
L 344.23597 -189.433059 
L 344.26403 -189.433059 
L 344.26403 -189.433059 
L 344.29859 -187.941754 
L 344.345922 -186.450448 
L 344.36734 -184.959143 
L 344.36591 -183.467838 
L 344.370606 -181.976532 
L 344.365756 -180.485227 
L 344.35709 -178.993922 
L 344.366506 -177.502616 
L 344.368504 -176.011311 
L 344.36327 -174.520006 
L 344.366521 -173.0287 
L 344.349877 -171.537395 
L 344.324295 -170.04609 
L 344.334663 -168.554784 
L 344.355136 -167.063479 
L 344.333034 -165.572174 
L 344.287968 -164.080868 
L 344.266279 -162.589563 
L 344.282193 -161.098258 
L 344.325855 -159.606952 
L 344.353501 -158.115647 
L 344.32881 -156.624342 
L 344.283449 -155.133036 
L 344.257913 -153.641731 
L 344.251043 -152.150426 
L 344.250077 -150.65912 
L 344.250003 -149.167815 
L 344.25 -147.67651 
L 344.25 -146.185204 
L 344.25 -144.693899 
L 344.25 -143.202594 
L 344.25 -141.711288 
L 344.25 -140.219983 
L 344.25 -138.728678 
L 344.25 -137.237372 
L 344.25 -135.746067 
L 344.25 -134.254762 
L 344.250001 -132.763456 
L 344.250035 -131.272151 
L 344.250555 -129.780846 
L 344.254913 -128.28954 
L 344.274328 -126.798235 
L 344.318086 -125.30693 
L 344.36258 -123.815624 
L 344.377688 -122.324319 
L 344.378517 -120.833014 
L 344.369815 -119.341708 
L 344.348795 -117.850403 
L 344.349223 -116.359098 
L 344.359407 -114.867792 
L 344.338057 -113.376487 
L 344.316076 -111.885182 
L 344.334585 -110.393876 
L 344.354643 -108.902571 
L 344.328473 -107.411266 
L 344.2831 -105.91996 
L 344.258016 -104.428655 
L 344.253924 -102.93735 
L 344.270303 -101.446044 
L 344.328559 -99.954739 
L 344.420035 -98.463434 
L 344.455133 -96.972128 
L 344.387937 -95.480823 
L 344.301699 -93.989518 
L 344.260853 -92.498212 
L 344.252155 -91.006907 
L 344.258426 -89.515602 
L 344.293249 -88.024296 
L 344.374929 -86.532991 
L 344.451182 -85.041686 
L 344.431048 -83.550381 
L 344.345039 -82.059075 
L 344.298818 -80.56777 
L 344.319674 -79.076465 
L 344.353204 -77.585159 
L 344.34644 -76.093854 
L 344.327764 -74.602549 
L 344.343042 -73.111243 
L 344.360183 -71.619938 
L 344.34864 -70.128633 
L 344.347541 -68.637327 
L 344.363903 -67.146022 
L 344.362191 -65.654717 
L 344.36231 -64.163411 
L 344.385152 -62.672106 
L 344.405437 -61.180801 
L 344.41724 -59.689495 
L 344.428477 -58.19819 
L 344.443945 -56.706885 
L 344.475482 -55.215579 
L 344.666384 -53.724274 
L 346.243862 -52.232969 
L 355.429736 -50.741663 
L 388.854172 -49.250358 
L 456.201919 -47.759053 
L 511.65 -46.267747 
L 488.963597 -44.776442 
L 415.436899 -43.285137 
L 364.012747 -41.793831 
z
" id="m0d2e2a0561" style="stroke:#4c4c4c;stroke-width:3;"/>
    </defs>
    <g clip-path="url(#pc5e5b48205)">
     <use style="fill:#5875a4;stroke:#4c4c4c;stroke-width:3;" x="0" xlink:href="#m0d2e2a0561" y="288"/>
    </g>
   </g>
   <g id="PolyCollection_2">
    <defs>
     <path d="M 782.926924 -41.76 
L 742.573076 -41.76 
L 663.811276 -43.796364 
L 595.35 -45.832727 
L 660.918007 -47.869091 
L 735.986152 -49.905455 
L 756.377628 -51.941818 
L 759.724304 -53.978182 
L 760.619178 -56.014545 
L 761.317978 -58.050909 
L 762.138889 -60.087273 
L 762.607331 -62.123636 
L 762.631462 -64.16 
L 762.551149 -66.196364 
L 762.614888 -68.232727 
L 762.71589 -70.269091 
L 762.746874 -72.305455 
L 762.749664 -74.341818 
L 762.744779 -76.378182 
L 762.710932 -78.414545 
L 762.651683 -80.450909 
L 762.66673 -82.487273 
L 762.724002 -84.523636 
L 762.723667 -86.56 
L 762.666187 -88.596364 
L 762.65203 -90.632727 
L 762.711422 -92.669091 
L 762.743494 -94.705455 
L 762.73226 -96.741818 
L 762.676758 -98.778182 
L 762.647011 -100.814545 
L 762.701272 -102.850909 
L 762.741042 -104.887273 
L 762.733669 -106.923636 
L 762.679873 -108.96 
L 762.646132 -110.996364 
L 762.698265 -113.032727 
L 762.741335 -115.069091 
L 762.749512 -117.105455 
L 762.749991 -119.141818 
L 762.749999 -121.178182 
L 762.749898 -123.214545 
L 762.747119 -125.250909 
L 762.722536 -127.287273 
L 762.661983 -129.323636 
L 762.655149 -131.36 
L 762.715629 -133.396364 
L 762.745812 -135.432727 
L 762.749828 -137.469091 
L 762.749974 -139.505455 
L 762.748996 -141.541818 
L 762.735947 -143.578182 
L 762.683878 -145.614545 
L 762.645382 -147.650909 
L 762.694341 -149.687273 
L 762.740043 -151.723636 
L 762.7494 -153.76 
L 762.749929 -155.796364 
L 762.748049 -157.832727 
L 762.728444 -159.869091 
L 762.669896 -161.905455 
L 762.649907 -163.941818 
L 762.707944 -165.978182 
L 762.744058 -168.014545 
L 762.749718 -170.050909 
L 762.749995 -172.087273 
L 762.75 -174.123636 
L 762.749981 -176.16 
L 762.749173 -178.196364 
L 762.737643 -180.232727 
L 762.687896 -182.269091 
L 762.645045 -184.305455 
L 762.690358 -186.341818 
L 762.738603 -188.378182 
L 762.749268 -190.414545 
L 762.749984 -192.450909 
L 762.75 -194.487273 
L 762.75 -196.523636 
L 762.75 -198.56 
L 762.749995 -200.596364 
L 762.749701 -202.632727 
L 762.743823 -204.669091 
L 762.707013 -206.705455 
L 762.649415 -208.741818 
L 762.67086 -210.778182 
L 762.729063 -212.814545 
L 762.748137 -214.850909 
L 762.749944 -216.887273 
L 762.749999 -218.923636 
L 762.75 -220.96 
L 762.75 -222.996364 
L 762.75 -225.032727 
L 762.75 -227.069091 
L 762.75 -229.105455 
L 762.749988 -231.141818 
L 762.749411 -233.178182 
L 762.74016 -235.214545 
L 762.694683 -237.250909 
L 762.645431 -239.287273 
L 762.683531 -241.323636 
L 762.735793 -243.36 
L 762.764207 -243.36 
L 762.764207 -243.36 
L 762.816469 -241.323636 
L 762.854569 -239.287273 
L 762.805317 -237.250909 
L 762.75984 -235.214545 
L 762.750589 -233.178182 
L 762.750012 -231.141818 
L 762.75 -229.105455 
L 762.75 -227.069091 
L 762.75 -225.032727 
L 762.75 -222.996364 
L 762.75 -220.96 
L 762.750001 -218.923636 
L 762.750056 -216.887273 
L 762.751863 -214.850909 
L 762.770937 -212.814545 
L 762.82914 -210.778182 
L 762.850585 -208.741818 
L 762.792987 -206.705455 
L 762.756177 -204.669091 
L 762.750299 -202.632727 
L 762.750005 -200.596364 
L 762.75 -198.56 
L 762.75 -196.523636 
L 762.75 -194.487273 
L 762.750016 -192.450909 
L 762.750732 -190.414545 
L 762.761397 -188.378182 
L 762.809642 -186.341818 
L 762.854955 -184.305455 
L 762.812104 -182.269091 
L 762.762357 -180.232727 
L 762.750827 -178.196364 
L 762.750019 -176.16 
L 762.75 -174.123636 
L 762.750005 -172.087273 
L 762.750282 -170.050909 
L 762.755942 -168.014545 
L 762.792056 -165.978182 
L 762.850093 -163.941818 
L 762.830104 -161.905455 
L 762.771556 -159.869091 
L 762.751951 -157.832727 
L 762.750071 -155.796364 
L 762.7506 -153.76 
L 762.759957 -151.723636 
L 762.805659 -149.687273 
L 762.854618 -147.650909 
L 762.816122 -145.614545 
L 762.764053 -143.578182 
L 762.751004 -141.541818 
L 762.750026 -139.505455 
L 762.750172 -137.469091 
L 762.754188 -135.432727 
L 762.784371 -133.396364 
L 762.844851 -131.36 
L 762.838017 -129.323636 
L 762.777464 -127.287273 
L 762.752881 -125.250909 
L 762.750102 -123.214545 
L 762.750001 -121.178182 
L 762.750009 -119.141818 
L 762.750488 -117.105455 
L 762.758665 -115.069091 
L 762.801735 -113.032727 
L 762.853868 -110.996364 
L 762.820127 -108.96 
L 762.766331 -106.923636 
L 762.758958 -104.887273 
L 762.798728 -102.850909 
L 762.852989 -100.814545 
L 762.823242 -98.778182 
L 762.76774 -96.741818 
L 762.756506 -94.705455 
L 762.788578 -92.669091 
L 762.84797 -90.632727 
L 762.833813 -88.596364 
L 762.776333 -86.56 
L 762.775998 -84.523636 
L 762.83327 -82.487273 
L 762.848317 -80.450909 
L 762.789068 -78.414545 
L 762.755221 -76.378182 
L 762.750336 -74.341818 
L 762.753126 -72.305455 
L 762.78411 -70.269091 
L 762.885112 -68.232727 
L 762.948851 -66.196364 
L 762.868538 -64.16 
L 762.892669 -62.123636 
L 763.361111 -60.087273 
L 764.182022 -58.050909 
L 764.880822 -56.014545 
L 765.775696 -53.978182 
L 769.122372 -51.941818 
L 789.513848 -49.905455 
L 864.581993 -47.869091 
L 930.15 -45.832727 
L 861.688724 -43.796364 
L 782.926924 -41.76 
z
" id="m3f3fd770a8" style="stroke:#4c4c4c;stroke-width:3;"/>
    </defs>
    <g clip-path="url(#pc5e5b48205)">
     <use style="fill:#5f9e6e;stroke:#4c4c4c;stroke-width:3;" x="0" xlink:href="#m3f3fd770a8" y="288"/>
    </g>
   </g>
   <g id="line2d_6">
    <path clip-path="url(#pc5e5b48205)" d="M 344.25 242.304999 
L 344.25 241.687273 
" style="fill:none;stroke:#4c4c4c;stroke-linecap:round;stroke-width:3;"/>
   </g>
   <g id="line2d_7">
    <path clip-path="url(#pc5e5b48205)" d="M 344.25 242.300337 
L 344.25 242.050916 
" style="fill:none;stroke:#4c4c4c;stroke-linecap:round;stroke-width:9;"/>
   </g>
   <g id="line2d_8">
    <path clip-path="url(#pc5e5b48205)" d="M 762.75 242.338831 
L 762.75 241.919782 
" style="fill:none;stroke:#4c4c4c;stroke-linecap:round;stroke-width:3;"/>
   </g>
   <g id="line2d_9">
    <path clip-path="url(#pc5e5b48205)" d="M 762.75 242.338831 
L 762.75 242.166281 
" style="fill:none;stroke:#4c4c4c;stroke-linecap:round;stroke-width:9;"/>
   </g>
   <g id="patch_3">
    <path d="M 135 256.32 
L 135 34.56 
" style="fill:none;"/>
   </g>
   <g id="patch_4">
    <path d="M 972 256.32 
L 972 34.56 
" style="fill:none;"/>
   </g>
   <g id="patch_5">
    <path d="M 135 256.32 
L 972 256.32 
" style="fill:none;"/>
   </g>
   <g id="patch_6">
    <path d="M 135 34.56 
L 972 34.56 
" style="fill:none;"/>
   </g>
   <g id="PathCollection_1">
    <defs>
     <path d="M 0 3 
C 0.795609 3 1.55874 2.683901 2.12132 2.12132 
C 2.683901 1.55874 3 0.795609 3 0 
C 3 -0.795609 2.683901 -1.55874 2.12132 -2.12132 
C 1.55874 -2.683901 0.795609 -3 0 -3 
C -0.795609 -3 -1.55874 -2.683901 -2.12132 -2.12132 
C -2.683901 -1.55874 -3 -0.795609 -3 0 
C -3 0.795609 -2.683901 1.55874 -2.12132 2.12132 
C -1.55874 2.683901 -0.795609 3 0 3 
z
" id="me65abe059e" style="stroke:#4c4c4c;stroke-width:0.3;"/>
    </defs>
    <g clip-path="url(#pc5e5b48205)">
     <use style="fill:#ffffff;stroke:#4c4c4c;stroke-width:0.3;" x="344.25" xlink:href="#me65abe059e" y="242.277027"/>
    </g>
   </g>
   <g id="PathCollection_2">
    <g clip-path="url(#pc5e5b48205)">
     <use style="fill:#ffffff;stroke:#4c4c4c;stroke-width:0.3;" x="762.75" xlink:href="#me65abe059e" y="242.338831"/>
    </g>
   </g>
  </g>
  <g id="text_8">
   <!-- Violin Plot of all Continuous Variables -->
   <defs>
    <path d="M 28.171875 0 
L 0.4375 71.578125 
L 10.6875 71.578125 
L 29.296875 19.578125 
Q 31.546875 13.328125 33.0625 7.859375 
Q 34.71875 13.71875 36.921875 19.578125 
L 56.25 71.578125 
L 65.921875 71.578125 
L 37.890625 0 
z
" id="ArialMT-86"/>
    <path d="M 6.390625 0 
L 6.390625 71.578125 
L 15.1875 71.578125 
L 15.1875 0 
z
" id="ArialMT-108"/>
    <path id="ArialMT-32"/>
    <path d="M 7.71875 0 
L 7.71875 71.578125 
L 34.71875 71.578125 
Q 41.84375 71.578125 45.609375 70.90625 
Q 50.875 70.015625 54.4375 67.546875 
Q 58.015625 65.09375 60.1875 60.640625 
Q 62.359375 56.203125 62.359375 50.875 
Q 62.359375 41.75 56.546875 35.421875 
Q 50.734375 29.109375 35.546875 29.109375 
L 17.1875 29.109375 
L 17.1875 0 
z
M 17.1875 37.546875 
L 35.6875 37.546875 
Q 44.875 37.546875 48.734375 40.96875 
Q 52.59375 44.390625 52.59375 50.59375 
Q 52.59375 55.078125 50.3125 58.265625 
Q 48.046875 61.46875 44.34375 62.5 
Q 41.9375 63.140625 35.5 63.140625 
L 17.1875 63.140625 
z
" id="ArialMT-80"/>
    <path d="M 25.78125 7.859375 
L 27.046875 0.09375 
Q 23.34375 -0.6875 20.40625 -0.6875 
Q 15.625 -0.6875 12.984375 0.828125 
Q 10.359375 2.34375 9.28125 4.8125 
Q 8.203125 7.28125 8.203125 15.1875 
L 8.203125 45.015625 
L 1.765625 45.015625 
L 1.765625 51.859375 
L 8.203125 51.859375 
L 8.203125 64.703125 
L 16.9375 69.96875 
L 16.9375 51.859375 
L 25.78125 51.859375 
L 25.78125 45.015625 
L 16.9375 45.015625 
L 16.9375 14.703125 
Q 16.9375 10.9375 17.40625 9.859375 
Q 17.875 8.796875 18.921875 8.15625 
Q 19.96875 7.515625 21.921875 7.515625 
Q 23.390625 7.515625 25.78125 7.859375 
z
" id="ArialMT-116"/>
    <path d="M 40.4375 6.390625 
Q 35.546875 2.25 31.03125 0.53125 
Q 26.515625 -1.171875 21.34375 -1.171875 
Q 12.796875 -1.171875 8.203125 3 
Q 3.609375 7.171875 3.609375 13.671875 
Q 3.609375 17.484375 5.34375 20.625 
Q 7.078125 23.78125 9.890625 25.6875 
Q 12.703125 27.59375 16.21875 28.5625 
Q 18.796875 29.25 24.03125 29.890625 
Q 34.671875 31.15625 39.703125 32.90625 
Q 39.75 34.71875 39.75 35.203125 
Q 39.75 40.578125 37.25 42.78125 
Q 33.890625 45.75 27.25 45.75 
Q 21.046875 45.75 18.09375 43.578125 
Q 15.140625 41.40625 13.71875 35.890625 
L 5.125 37.0625 
Q 6.296875 42.578125 8.984375 45.96875 
Q 11.671875 49.359375 16.75 51.1875 
Q 21.828125 53.03125 28.515625 53.03125 
Q 35.15625 53.03125 39.296875 51.46875 
Q 43.453125 49.90625 45.40625 47.53125 
Q 47.359375 45.171875 48.140625 41.546875 
Q 48.578125 39.3125 48.578125 33.453125 
L 48.578125 21.734375 
Q 48.578125 9.46875 49.140625 6.21875 
Q 49.703125 2.984375 51.375 0 
L 42.1875 0 
Q 40.828125 2.734375 40.4375 6.390625 
z
M 39.703125 26.03125 
Q 34.90625 24.078125 25.34375 22.703125 
Q 19.921875 21.921875 17.671875 20.9375 
Q 15.4375 19.96875 14.203125 18.09375 
Q 12.984375 16.21875 12.984375 13.921875 
Q 12.984375 10.40625 15.640625 8.0625 
Q 18.3125 5.71875 23.4375 5.71875 
Q 28.515625 5.71875 32.46875 7.9375 
Q 36.421875 10.15625 38.28125 14.015625 
Q 39.703125 17 39.703125 22.796875 
z
" id="ArialMT-97"/>
    <path d="M 40.578125 0 
L 40.578125 7.625 
Q 34.515625 -1.171875 24.125 -1.171875 
Q 19.53125 -1.171875 15.546875 0.578125 
Q 11.578125 2.34375 9.640625 5 
Q 7.71875 7.671875 6.9375 11.53125 
Q 6.390625 14.109375 6.390625 19.734375 
L 6.390625 51.859375 
L 15.1875 51.859375 
L 15.1875 23.09375 
Q 15.1875 16.21875 15.71875 13.8125 
Q 16.546875 10.359375 19.234375 8.375 
Q 21.921875 6.390625 25.875 6.390625 
Q 29.828125 6.390625 33.296875 8.421875 
Q 36.765625 10.453125 38.203125 13.9375 
Q 39.65625 17.4375 39.65625 24.078125 
L 39.65625 51.859375 
L 48.4375 51.859375 
L 48.4375 0 
z
" id="ArialMT-117"/>
    <path d="M 3.078125 15.484375 
L 11.765625 16.84375 
Q 12.5 11.625 15.84375 8.84375 
Q 19.1875 6.0625 25.203125 6.0625 
Q 31.25 6.0625 34.171875 8.515625 
Q 37.109375 10.984375 37.109375 14.3125 
Q 37.109375 17.28125 34.515625 19 
Q 32.71875 20.171875 25.53125 21.96875 
Q 15.875 24.421875 12.140625 26.203125 
Q 8.40625 27.984375 6.46875 31.125 
Q 4.546875 34.28125 4.546875 38.09375 
Q 4.546875 41.546875 6.125 44.5 
Q 7.71875 47.46875 10.453125 49.421875 
Q 12.5 50.921875 16.03125 51.96875 
Q 19.578125 53.03125 23.640625 53.03125 
Q 29.734375 53.03125 34.34375 51.265625 
Q 38.96875 49.515625 41.15625 46.5 
Q 43.359375 43.5 44.1875 38.484375 
L 35.59375 37.3125 
Q 35.015625 41.3125 32.203125 43.546875 
Q 29.390625 45.796875 24.265625 45.796875 
Q 18.21875 45.796875 15.625 43.796875 
Q 13.03125 41.796875 13.03125 39.109375 
Q 13.03125 37.40625 14.109375 36.03125 
Q 15.1875 34.625 17.484375 33.6875 
Q 18.796875 33.203125 25.25 31.453125 
Q 34.578125 28.953125 38.25 27.359375 
Q 41.9375 25.78125 44.03125 22.75 
Q 46.140625 19.734375 46.140625 15.234375 
Q 46.140625 10.84375 43.578125 6.953125 
Q 41.015625 3.078125 36.171875 0.953125 
Q 31.34375 -1.171875 25.25 -1.171875 
Q 15.140625 -1.171875 9.84375 3.03125 
Q 4.546875 7.234375 3.078125 15.484375 
z
" id="ArialMT-115"/>
    <path d="M 14.703125 0 
L 6.546875 0 
L 6.546875 71.578125 
L 15.328125 71.578125 
L 15.328125 46.046875 
Q 20.90625 53.03125 29.546875 53.03125 
Q 34.328125 53.03125 38.59375 51.09375 
Q 42.875 49.171875 45.625 45.671875 
Q 48.390625 42.1875 49.953125 37.25 
Q 51.515625 32.328125 51.515625 26.703125 
Q 51.515625 13.375 44.921875 6.09375 
Q 38.328125 -1.171875 29.109375 -1.171875 
Q 19.921875 -1.171875 14.703125 6.5 
z
M 14.59375 26.3125 
Q 14.59375 17 17.140625 12.84375 
Q 21.296875 6.0625 28.375 6.0625 
Q 34.125 6.0625 38.328125 11.0625 
Q 42.53125 16.0625 42.53125 25.984375 
Q 42.53125 36.140625 38.5 40.96875 
Q 34.46875 45.796875 28.765625 45.796875 
Q 23 45.796875 18.796875 40.796875 
Q 14.59375 35.796875 14.59375 26.3125 
z
" id="ArialMT-98"/>
   </defs>
   <g style="fill:#262626;" transform="translate(373.814062 -8.724375)scale(0.2 -0.2)">
    <use xlink:href="#ArialMT-86"/>
    <use x="66.683594" xlink:href="#ArialMT-105"/>
    <use x="88.900391" xlink:href="#ArialMT-111"/>
    <use x="144.515625" xlink:href="#ArialMT-108"/>
    <use x="166.732422" xlink:href="#ArialMT-105"/>
    <use x="188.949219" xlink:href="#ArialMT-110"/>
    <use x="244.564453" xlink:href="#ArialMT-32"/>
    <use x="272.347656" xlink:href="#ArialMT-80"/>
    <use x="339.046875" xlink:href="#ArialMT-108"/>
    <use x="361.263672" xlink:href="#ArialMT-111"/>
    <use x="416.878906" xlink:href="#ArialMT-116"/>
    <use x="444.662109" xlink:href="#ArialMT-32"/>
    <use x="472.445312" xlink:href="#ArialMT-111"/>
    <use x="528.060547" xlink:href="#ArialMT-102"/>
    <use x="555.84375" xlink:href="#ArialMT-32"/>
    <use x="583.626953" xlink:href="#ArialMT-97"/>
    <use x="639.242188" xlink:href="#ArialMT-108"/>
    <use x="661.458984" xlink:href="#ArialMT-108"/>
    <use x="683.675781" xlink:href="#ArialMT-32"/>
    <use x="711.458984" xlink:href="#ArialMT-67"/>
    <use x="783.675781" xlink:href="#ArialMT-111"/>
    <use x="839.291016" xlink:href="#ArialMT-110"/>
    <use x="894.90625" xlink:href="#ArialMT-116"/>
    <use x="922.689453" xlink:href="#ArialMT-105"/>
    <use x="944.90625" xlink:href="#ArialMT-110"/>
    <use x="1000.521484" xlink:href="#ArialMT-117"/>
    <use x="1056.136719" xlink:href="#ArialMT-111"/>
    <use x="1111.751953" xlink:href="#ArialMT-117"/>
    <use x="1167.367188" xlink:href="#ArialMT-115"/>
    <use x="1217.367188" xlink:href="#ArialMT-32"/>
    <use x="1245.150391" xlink:href="#ArialMT-86"/>
    <use x="1311.740234" xlink:href="#ArialMT-97"/>
    <use x="1367.355469" xlink:href="#ArialMT-114"/>
    <use x="1400.65625" xlink:href="#ArialMT-105"/>
    <use x="1422.873047" xlink:href="#ArialMT-97"/>
    <use x="1478.488281" xlink:href="#ArialMT-98"/>
    <use x="1534.103516" xlink:href="#ArialMT-108"/>
    <use x="1556.320312" xlink:href="#ArialMT-101"/>
    <use x="1611.935547" xlink:href="#ArialMT-115"/>
   </g>
  </g>
 </g>
 <defs>
  <clipPath id="pc5e5b48205">
   <rect height="221.76" width="837" x="135" y="34.56"/>
  </clipPath>
 </defs>
</svg>
