<?xml version="1.0" encoding="utf-8" standalone="no"?>
<!DOCTYPE svg PUBLIC "-//W3C//DTD SVG 1.1//EN"
  "http://www.w3.org/Graphics/SVG/1.1/DTD/svg11.dtd">
<!-- Created with matplotlib (https://matplotlib.org/) -->
<svg height="288pt" version="1.1" viewBox="0 0 1080 288" width="1080pt" xmlns="http://www.w3.org/2000/svg" xmlns:xlink="http://www.w3.org/1999/xlink">
 <defs>
  <style type="text/css">
*{stroke-linecap:butt;stroke-linejoin:round;}
  </style>
 </defs>
 <g id="figure_1">
  <g id="patch_1">
   <path d="M 0 288 
L 1080 288 
L 1080 0 
L 0 0 
z
" style="fill:#ffffff;"/>
  </g>
  <g id="axes_1">
   <g id="patch_2">
    <path d="M 135 256.32 
L 972 256.32 
L 972 34.56 
L 135 34.56 
z
" style="fill:#eaeaf2;"/>
   </g>
   <g id="matplotlib.axis_1">
    <g id="xtick_1">
     <g id="text_1">
      <!-- smoothness_worst -->
      <defs>
       <path d="M 3.078125 15.484375 
L 11.765625 16.84375 
Q 12.5 11.625 15.84375 8.84375 
Q 19.1875 6.0625 25.203125 6.0625 
Q 31.25 6.0625 34.171875 8.515625 
Q 37.109375 10.984375 37.109375 14.3125 
Q 37.109375 17.28125 34.515625 19 
Q 32.71875 20.171875 25.53125 21.96875 
Q 15.875 24.421875 12.140625 26.203125 
Q 8.40625 27.984375 6.46875 31.125 
Q 4.546875 34.28125 4.546875 38.09375 
Q 4.546875 41.546875 6.125 44.5 
Q 7.71875 47.46875 10.453125 49.421875 
Q 12.5 50.921875 16.03125 51.96875 
Q 19.578125 53.03125 23.640625 53.03125 
Q 29.734375 53.03125 34.34375 51.265625 
Q 38.96875 49.515625 41.15625 46.5 
Q 43.359375 43.5 44.1875 38.484375 
L 35.59375 37.3125 
Q 35.015625 41.3125 32.203125 43.546875 
Q 29.390625 45.796875 24.265625 45.796875 
Q 18.21875 45.796875 15.625 43.796875 
Q 13.03125 41.796875 13.03125 39.109375 
Q 13.03125 37.40625 14.109375 36.03125 
Q 15.1875 34.625 17.484375 33.6875 
Q 18.796875 33.203125 25.25 31.453125 
Q 34.578125 28.953125 38.25 27.359375 
Q 41.9375 25.78125 44.03125 22.75 
Q 46.140625 19.734375 46.140625 15.234375 
Q 46.140625 10.84375 43.578125 6.953125 
Q 41.015625 3.078125 36.171875 0.953125 
Q 31.34375 -1.171875 25.25 -1.171875 
Q 15.140625 -1.171875 9.84375 3.03125 
Q 4.546875 7.234375 3.078125 15.484375 
z
" id="ArialMT-115"/>
       <path d="M 6.59375 0 
L 6.59375 51.859375 
L 14.453125 51.859375 
L 14.453125 44.578125 
Q 16.890625 48.390625 20.9375 50.703125 
Q 25 53.03125 30.171875 53.03125 
Q 35.9375 53.03125 39.625 50.640625 
Q 43.3125 48.25 44.828125 43.953125 
Q 50.984375 53.03125 60.84375 53.03125 
Q 68.5625 53.03125 72.703125 48.75 
Q 76.859375 44.484375 76.859375 35.59375 
L 76.859375 0 
L 68.109375 0 
L 68.109375 32.671875 
Q 68.109375 37.9375 67.25 40.25 
Q 66.40625 42.578125 64.15625 43.984375 
Q 61.921875 45.40625 58.890625 45.40625 
Q 53.421875 45.40625 49.796875 41.765625 
Q 46.1875 38.140625 46.1875 30.125 
L 46.1875 0 
L 37.40625 0 
L 37.40625 33.6875 
Q 37.40625 39.546875 35.25 42.46875 
Q 33.109375 45.40625 28.21875 45.40625 
Q 24.515625 45.40625 21.359375 43.453125 
Q 18.21875 41.5 16.796875 37.734375 
Q 15.375 33.984375 15.375 26.90625 
L 15.375 0 
z
" id="ArialMT-109"/>
       <path d="M 3.328125 25.921875 
Q 3.328125 40.328125 11.328125 47.265625 
Q 18.015625 53.03125 27.640625 53.03125 
Q 38.328125 53.03125 45.109375 46.015625 
Q 51.90625 39.015625 51.90625 26.65625 
Q 51.90625 16.65625 48.90625 10.90625 
Q 45.90625 5.171875 40.15625 2 
Q 34.421875 -1.171875 27.640625 -1.171875 
Q 16.75 -1.171875 10.03125 5.8125 
Q 3.328125 12.796875 3.328125 25.921875 
z
M 12.359375 25.921875 
Q 12.359375 15.96875 16.703125 11.015625 
Q 21.046875 6.0625 27.640625 6.0625 
Q 34.1875 6.0625 38.53125 11.03125 
Q 42.875 16.015625 42.875 26.21875 
Q 42.875 35.84375 38.5 40.796875 
Q 34.125 45.75 27.640625 45.75 
Q 21.046875 45.75 16.703125 40.8125 
Q 12.359375 35.890625 12.359375 25.921875 
z
" id="ArialMT-111"/>
       <path d="M 25.78125 7.859375 
L 27.046875 0.09375 
Q 23.34375 -0.6875 20.40625 -0.6875 
Q 15.625 -0.6875 12.984375 0.828125 
Q 10.359375 2.34375 9.28125 4.8125 
Q 8.203125 7.28125 8.203125 15.1875 
L 8.203125 45.015625 
L 1.765625 45.015625 
L 1.765625 51.859375 
L 8.203125 51.859375 
L 8.203125 64.703125 
L 16.9375 69.96875 
L 16.9375 51.859375 
L 25.78125 51.859375 
L 25.78125 45.015625 
L 16.9375 45.015625 
L 16.9375 14.703125 
Q 16.9375 10.9375 17.40625 9.859375 
Q 17.875 8.796875 18.921875 8.15625 
Q 19.96875 7.515625 21.921875 7.515625 
Q 23.390625 7.515625 25.78125 7.859375 
z
" id="ArialMT-116"/>
       <path d="M 6.59375 0 
L 6.59375 71.578125 
L 15.375 71.578125 
L 15.375 45.90625 
Q 21.53125 53.03125 30.90625 53.03125 
Q 36.671875 53.03125 40.921875 50.75 
Q 45.171875 48.484375 47 44.484375 
Q 48.828125 40.484375 48.828125 32.859375 
L 48.828125 0 
L 40.046875 0 
L 40.046875 32.859375 
Q 40.046875 39.453125 37.1875 42.453125 
Q 34.328125 45.453125 29.109375 45.453125 
Q 25.203125 45.453125 21.75 43.421875 
Q 18.3125 41.40625 16.84375 37.9375 
Q 15.375 34.46875 15.375 28.375 
L 15.375 0 
z
" id="ArialMT-104"/>
       <path d="M 6.59375 0 
L 6.59375 51.859375 
L 14.5 51.859375 
L 14.5 44.484375 
Q 20.21875 53.03125 31 53.03125 
Q 35.6875 53.03125 39.625 51.34375 
Q 43.5625 49.65625 45.515625 46.921875 
Q 47.46875 44.1875 48.25 40.4375 
Q 48.734375 37.984375 48.734375 31.890625 
L 48.734375 0 
L 39.9375 0 
L 39.9375 31.546875 
Q 39.9375 36.921875 38.90625 39.578125 
Q 37.890625 42.234375 35.28125 43.8125 
Q 32.671875 45.40625 29.15625 45.40625 
Q 23.53125 45.40625 19.453125 41.84375 
Q 15.375 38.28125 15.375 28.328125 
L 15.375 0 
z
" id="ArialMT-110"/>
       <path d="M 42.09375 16.703125 
L 51.171875 15.578125 
Q 49.03125 7.625 43.21875 3.21875 
Q 37.40625 -1.171875 28.375 -1.171875 
Q 17 -1.171875 10.328125 5.828125 
Q 3.65625 12.84375 3.65625 25.484375 
Q 3.65625 38.578125 10.390625 45.796875 
Q 17.140625 53.03125 27.875 53.03125 
Q 38.28125 53.03125 44.875 45.953125 
Q 51.46875 38.875 51.46875 26.03125 
Q 51.46875 25.25 51.421875 23.6875 
L 12.75 23.6875 
Q 13.234375 15.140625 17.578125 10.59375 
Q 21.921875 6.0625 28.421875 6.0625 
Q 33.25 6.0625 36.671875 8.59375 
Q 40.09375 11.140625 42.09375 16.703125 
z
M 13.234375 30.90625 
L 42.1875 30.90625 
Q 41.609375 37.453125 38.875 40.71875 
Q 34.671875 45.796875 27.984375 45.796875 
Q 21.921875 45.796875 17.796875 41.75 
Q 13.671875 37.703125 13.234375 30.90625 
z
" id="ArialMT-101"/>
       <path d="M -1.515625 -19.875 
L -1.515625 -13.53125 
L 56.734375 -13.53125 
L 56.734375 -19.875 
z
" id="ArialMT-95"/>
       <path d="M 16.15625 0 
L 0.296875 51.859375 
L 9.375 51.859375 
L 17.625 21.921875 
L 20.703125 10.796875 
Q 20.90625 11.625 23.390625 21.484375 
L 31.640625 51.859375 
L 40.671875 51.859375 
L 48.4375 21.78125 
L 51.03125 11.859375 
L 54 21.875 
L 62.890625 51.859375 
L 71.4375 51.859375 
L 55.21875 0 
L 46.09375 0 
L 37.84375 31.0625 
L 35.84375 39.890625 
L 25.34375 0 
z
" id="ArialMT-119"/>
       <path d="M 6.5 0 
L 6.5 51.859375 
L 14.40625 51.859375 
L 14.40625 44 
Q 17.4375 49.515625 20 51.265625 
Q 22.5625 53.03125 25.640625 53.03125 
Q 30.078125 53.03125 34.671875 50.203125 
L 31.640625 42.046875 
Q 28.421875 43.953125 25.203125 43.953125 
Q 22.3125 43.953125 20.015625 42.21875 
Q 17.71875 40.484375 16.75 37.40625 
Q 15.28125 32.71875 15.28125 27.15625 
L 15.28125 0 
z
" id="ArialMT-114"/>
      </defs>
      <g style="fill:#262626;" transform="translate(163.067969 270.477813)scale(0.1 -0.1)">
       <use xlink:href="#ArialMT-115"/>
       <use x="50" xlink:href="#ArialMT-109"/>
       <use x="133.300781" xlink:href="#ArialMT-111"/>
       <use x="188.916016" xlink:href="#ArialMT-111"/>
       <use x="244.53125" xlink:href="#ArialMT-116"/>
       <use x="272.314453" xlink:href="#ArialMT-104"/>
       <use x="327.929688" xlink:href="#ArialMT-110"/>
       <use x="383.544922" xlink:href="#ArialMT-101"/>
       <use x="439.160156" xlink:href="#ArialMT-115"/>
       <use x="489.160156" xlink:href="#ArialMT-115"/>
       <use x="539.160156" xlink:href="#ArialMT-95"/>
       <use x="594.775391" xlink:href="#ArialMT-119"/>
       <use x="666.992188" xlink:href="#ArialMT-111"/>
       <use x="722.607422" xlink:href="#ArialMT-114"/>
       <use x="755.908203" xlink:href="#ArialMT-115"/>
       <use x="805.908203" xlink:href="#ArialMT-116"/>
      </g>
     </g>
    </g>
    <g id="xtick_2">
     <g id="text_2">
      <!-- compactness_worst -->
      <defs>
       <path d="M 40.4375 19 
L 49.078125 17.875 
Q 47.65625 8.9375 41.8125 3.875 
Q 35.984375 -1.171875 27.484375 -1.171875 
Q 16.84375 -1.171875 10.375 5.78125 
Q 3.90625 12.75 3.90625 25.734375 
Q 3.90625 34.125 6.6875 40.421875 
Q 9.46875 46.734375 15.15625 49.875 
Q 20.84375 53.03125 27.546875 53.03125 
Q 35.984375 53.03125 41.359375 48.75 
Q 46.734375 44.484375 48.25 36.625 
L 39.703125 35.296875 
Q 38.484375 40.53125 35.375 43.15625 
Q 32.28125 45.796875 27.875 45.796875 
Q 21.234375 45.796875 17.078125 41.03125 
Q 12.9375 36.28125 12.9375 25.984375 
Q 12.9375 15.53125 16.9375 10.796875 
Q 20.953125 6.0625 27.390625 6.0625 
Q 32.5625 6.0625 36.03125 9.234375 
Q 39.5 12.40625 40.4375 19 
z
" id="ArialMT-99"/>
       <path d="M 6.59375 -19.875 
L 6.59375 51.859375 
L 14.59375 51.859375 
L 14.59375 45.125 
Q 17.4375 49.078125 21 51.046875 
Q 24.5625 53.03125 29.640625 53.03125 
Q 36.28125 53.03125 41.359375 49.609375 
Q 46.4375 46.1875 49.015625 39.953125 
Q 51.609375 33.734375 51.609375 26.3125 
Q 51.609375 18.359375 48.75 11.984375 
Q 45.90625 5.609375 40.453125 2.21875 
Q 35.015625 -1.171875 29 -1.171875 
Q 24.609375 -1.171875 21.109375 0.6875 
Q 17.625 2.546875 15.375 5.375 
L 15.375 -19.875 
z
M 14.546875 25.640625 
Q 14.546875 15.625 18.59375 10.84375 
Q 22.65625 6.0625 28.421875 6.0625 
Q 34.28125 6.0625 38.453125 11.015625 
Q 42.625 15.96875 42.625 26.375 
Q 42.625 36.28125 38.546875 41.203125 
Q 34.46875 46.140625 28.8125 46.140625 
Q 23.1875 46.140625 18.859375 40.890625 
Q 14.546875 35.640625 14.546875 25.640625 
z
" id="ArialMT-112"/>
       <path d="M 40.4375 6.390625 
Q 35.546875 2.25 31.03125 0.53125 
Q 26.515625 -1.171875 21.34375 -1.171875 
Q 12.796875 -1.171875 8.203125 3 
Q 3.609375 7.171875 3.609375 13.671875 
Q 3.609375 17.484375 5.34375 20.625 
Q 7.078125 23.78125 9.890625 25.6875 
Q 12.703125 27.59375 16.21875 28.5625 
Q 18.796875 29.25 24.03125 29.890625 
Q 34.671875 31.15625 39.703125 32.90625 
Q 39.75 34.71875 39.75 35.203125 
Q 39.75 40.578125 37.25 42.78125 
Q 33.890625 45.75 27.25 45.75 
Q 21.046875 45.75 18.09375 43.578125 
Q 15.140625 41.40625 13.71875 35.890625 
L 5.125 37.0625 
Q 6.296875 42.578125 8.984375 45.96875 
Q 11.671875 49.359375 16.75 51.1875 
Q 21.828125 53.03125 28.515625 53.03125 
Q 35.15625 53.03125 39.296875 51.46875 
Q 43.453125 49.90625 45.40625 47.53125 
Q 47.359375 45.171875 48.140625 41.546875 
Q 48.578125 39.3125 48.578125 33.453125 
L 48.578125 21.734375 
Q 48.578125 9.46875 49.140625 6.21875 
Q 49.703125 2.984375 51.375 0 
L 42.1875 0 
Q 40.828125 2.734375 40.4375 6.390625 
z
M 39.703125 26.03125 
Q 34.90625 24.078125 25.34375 22.703125 
Q 19.921875 21.921875 17.671875 20.9375 
Q 15.4375 19.96875 14.203125 18.09375 
Q 12.984375 16.21875 12.984375 13.921875 
Q 12.984375 10.40625 15.640625 8.0625 
Q 18.3125 5.71875 23.4375 5.71875 
Q 28.515625 5.71875 32.46875 7.9375 
Q 36.421875 10.15625 38.28125 14.015625 
Q 39.703125 17 39.703125 22.796875 
z
" id="ArialMT-97"/>
      </defs>
      <g style="fill:#262626;" transform="translate(300.067969 270.477813)scale(0.1 -0.1)">
       <use xlink:href="#ArialMT-99"/>
       <use x="50" xlink:href="#ArialMT-111"/>
       <use x="105.615234" xlink:href="#ArialMT-109"/>
       <use x="188.916016" xlink:href="#ArialMT-112"/>
       <use x="244.53125" xlink:href="#ArialMT-97"/>
       <use x="300.146484" xlink:href="#ArialMT-99"/>
       <use x="350.146484" xlink:href="#ArialMT-116"/>
       <use x="377.929688" xlink:href="#ArialMT-110"/>
       <use x="433.544922" xlink:href="#ArialMT-101"/>
       <use x="489.160156" xlink:href="#ArialMT-115"/>
       <use x="539.160156" xlink:href="#ArialMT-115"/>
       <use x="589.160156" xlink:href="#ArialMT-95"/>
       <use x="644.775391" xlink:href="#ArialMT-119"/>
       <use x="716.992188" xlink:href="#ArialMT-111"/>
       <use x="772.607422" xlink:href="#ArialMT-114"/>
       <use x="805.908203" xlink:href="#ArialMT-115"/>
       <use x="855.908203" xlink:href="#ArialMT-116"/>
      </g>
     </g>
    </g>
    <g id="xtick_3">
     <g id="text_3">
      <!-- concavity_worst -->
      <defs>
       <path d="M 21 0 
L 1.265625 51.859375 
L 10.546875 51.859375 
L 21.6875 20.796875 
Q 23.484375 15.765625 25 10.359375 
Q 26.171875 14.453125 28.265625 20.21875 
L 39.796875 51.859375 
L 48.828125 51.859375 
L 29.203125 0 
z
" id="ArialMT-118"/>
       <path d="M 6.640625 61.46875 
L 6.640625 71.578125 
L 15.4375 71.578125 
L 15.4375 61.46875 
z
M 6.640625 0 
L 6.640625 51.859375 
L 15.4375 51.859375 
L 15.4375 0 
z
" id="ArialMT-105"/>
       <path d="M 6.203125 -19.96875 
L 5.21875 -11.71875 
Q 8.109375 -12.5 10.25 -12.5 
Q 13.1875 -12.5 14.9375 -11.515625 
Q 16.703125 -10.546875 17.828125 -8.796875 
Q 18.65625 -7.46875 20.515625 -2.25 
Q 20.75 -1.515625 21.296875 -0.09375 
L 1.609375 51.859375 
L 11.078125 51.859375 
L 21.875 21.828125 
Q 23.96875 16.109375 25.640625 9.8125 
Q 27.15625 15.875 29.25 21.625 
L 40.328125 51.859375 
L 49.125 51.859375 
L 29.390625 -0.875 
Q 26.21875 -9.421875 24.46875 -12.640625 
Q 22.125 -17 19.09375 -19.015625 
Q 16.0625 -21.046875 11.859375 -21.046875 
Q 9.328125 -21.046875 6.203125 -19.96875 
z
" id="ArialMT-121"/>
      </defs>
      <g style="fill:#262626;" transform="translate(448.182813 270.477813)scale(0.1 -0.1)">
       <use xlink:href="#ArialMT-99"/>
       <use x="50" xlink:href="#ArialMT-111"/>
       <use x="105.615234" xlink:href="#ArialMT-110"/>
       <use x="161.230469" xlink:href="#ArialMT-99"/>
       <use x="211.230469" xlink:href="#ArialMT-97"/>
       <use x="266.845703" xlink:href="#ArialMT-118"/>
       <use x="316.845703" xlink:href="#ArialMT-105"/>
       <use x="339.0625" xlink:href="#ArialMT-116"/>
       <use x="366.845703" xlink:href="#ArialMT-121"/>
       <use x="416.845703" xlink:href="#ArialMT-95"/>
       <use x="472.460938" xlink:href="#ArialMT-119"/>
       <use x="544.677734" xlink:href="#ArialMT-111"/>
       <use x="600.292969" xlink:href="#ArialMT-114"/>
       <use x="633.59375" xlink:href="#ArialMT-115"/>
       <use x="683.59375" xlink:href="#ArialMT-116"/>
      </g>
     </g>
    </g>
    <g id="xtick_4">
     <g id="text_4">
      <!-- concave points_worst -->
      <defs>
       <path id="ArialMT-32"/>
      </defs>
      <g style="fill:#262626;" transform="translate(575.171875 270.477813)scale(0.1 -0.1)">
       <use xlink:href="#ArialMT-99"/>
       <use x="50" xlink:href="#ArialMT-111"/>
       <use x="105.615234" xlink:href="#ArialMT-110"/>
       <use x="161.230469" xlink:href="#ArialMT-99"/>
       <use x="211.230469" xlink:href="#ArialMT-97"/>
       <use x="266.845703" xlink:href="#ArialMT-118"/>
       <use x="316.845703" xlink:href="#ArialMT-101"/>
       <use x="372.460938" xlink:href="#ArialMT-32"/>
       <use x="400.244141" xlink:href="#ArialMT-112"/>
       <use x="455.859375" xlink:href="#ArialMT-111"/>
       <use x="511.474609" xlink:href="#ArialMT-105"/>
       <use x="533.691406" xlink:href="#ArialMT-110"/>
       <use x="589.306641" xlink:href="#ArialMT-116"/>
       <use x="617.089844" xlink:href="#ArialMT-115"/>
       <use x="667.089844" xlink:href="#ArialMT-95"/>
       <use x="722.705078" xlink:href="#ArialMT-119"/>
       <use x="794.921875" xlink:href="#ArialMT-111"/>
       <use x="850.537109" xlink:href="#ArialMT-114"/>
       <use x="883.837891" xlink:href="#ArialMT-115"/>
       <use x="933.837891" xlink:href="#ArialMT-116"/>
      </g>
     </g>
    </g>
    <g id="xtick_5">
     <g id="text_5">
      <!-- symmetry_worst -->
      <g style="fill:#262626;" transform="translate(726.360156 270.360625)scale(0.1 -0.1)">
       <use xlink:href="#ArialMT-115"/>
       <use x="50" xlink:href="#ArialMT-121"/>
       <use x="100" xlink:href="#ArialMT-109"/>
       <use x="183.300781" xlink:href="#ArialMT-109"/>
       <use x="266.601562" xlink:href="#ArialMT-101"/>
       <use x="322.216797" xlink:href="#ArialMT-116"/>
       <use x="350" xlink:href="#ArialMT-114"/>
       <use x="383.300781" xlink:href="#ArialMT-121"/>
       <use x="433.300781" xlink:href="#ArialMT-95"/>
       <use x="488.916016" xlink:href="#ArialMT-119"/>
       <use x="561.132812" xlink:href="#ArialMT-111"/>
       <use x="616.748047" xlink:href="#ArialMT-114"/>
       <use x="650.048828" xlink:href="#ArialMT-115"/>
       <use x="700.048828" xlink:href="#ArialMT-116"/>
      </g>
     </g>
    </g>
    <g id="xtick_6">
     <g id="text_6">
      <!-- fractal_dimension_worst -->
      <defs>
       <path d="M 8.6875 0 
L 8.6875 45.015625 
L 0.921875 45.015625 
L 0.921875 51.859375 
L 8.6875 51.859375 
L 8.6875 57.375 
Q 8.6875 62.59375 9.625 65.140625 
Q 10.890625 68.5625 14.078125 70.671875 
Q 17.28125 72.796875 23.046875 72.796875 
Q 26.765625 72.796875 31.25 71.921875 
L 29.9375 64.265625 
Q 27.203125 64.75 24.75 64.75 
Q 20.75 64.75 19.09375 63.03125 
Q 17.4375 61.328125 17.4375 56.640625 
L 17.4375 51.859375 
L 27.546875 51.859375 
L 27.546875 45.015625 
L 17.4375 45.015625 
L 17.4375 0 
z
" id="ArialMT-102"/>
       <path d="M 6.390625 0 
L 6.390625 71.578125 
L 15.1875 71.578125 
L 15.1875 0 
z
" id="ArialMT-108"/>
       <path d="M 40.234375 0 
L 40.234375 6.546875 
Q 35.296875 -1.171875 25.734375 -1.171875 
Q 19.53125 -1.171875 14.328125 2.25 
Q 9.125 5.671875 6.265625 11.796875 
Q 3.421875 17.921875 3.421875 25.875 
Q 3.421875 33.640625 6 39.96875 
Q 8.59375 46.296875 13.765625 49.65625 
Q 18.953125 53.03125 25.34375 53.03125 
Q 30.03125 53.03125 33.6875 51.046875 
Q 37.359375 49.078125 39.65625 45.90625 
L 39.65625 71.578125 
L 48.390625 71.578125 
L 48.390625 0 
z
M 12.453125 25.875 
Q 12.453125 15.921875 16.640625 10.984375 
Q 20.84375 6.0625 26.5625 6.0625 
Q 32.328125 6.0625 36.34375 10.765625 
Q 40.375 15.484375 40.375 25.140625 
Q 40.375 35.796875 36.265625 40.765625 
Q 32.171875 45.75 26.171875 45.75 
Q 20.3125 45.75 16.375 40.96875 
Q 12.453125 36.1875 12.453125 25.875 
z
" id="ArialMT-100"/>
      </defs>
      <g style="fill:#262626;" transform="translate(848.339844 270.599688)scale(0.1 -0.1)">
       <use xlink:href="#ArialMT-102"/>
       <use x="27.783203" xlink:href="#ArialMT-114"/>
       <use x="61.083984" xlink:href="#ArialMT-97"/>
       <use x="116.699219" xlink:href="#ArialMT-99"/>
       <use x="166.699219" xlink:href="#ArialMT-116"/>
       <use x="194.482422" xlink:href="#ArialMT-97"/>
       <use x="250.097656" xlink:href="#ArialMT-108"/>
       <use x="272.314453" xlink:href="#ArialMT-95"/>
       <use x="327.929688" xlink:href="#ArialMT-100"/>
       <use x="383.544922" xlink:href="#ArialMT-105"/>
       <use x="405.761719" xlink:href="#ArialMT-109"/>
       <use x="489.0625" xlink:href="#ArialMT-101"/>
       <use x="544.677734" xlink:href="#ArialMT-110"/>
       <use x="600.292969" xlink:href="#ArialMT-115"/>
       <use x="650.292969" xlink:href="#ArialMT-105"/>
       <use x="672.509766" xlink:href="#ArialMT-111"/>
       <use x="728.125" xlink:href="#ArialMT-110"/>
       <use x="783.740234" xlink:href="#ArialMT-95"/>
       <use x="839.355469" xlink:href="#ArialMT-119"/>
       <use x="911.572266" xlink:href="#ArialMT-111"/>
       <use x="967.1875" xlink:href="#ArialMT-114"/>
       <use x="1000.488281" xlink:href="#ArialMT-115"/>
       <use x="1050.488281" xlink:href="#ArialMT-116"/>
      </g>
     </g>
    </g>
   </g>
   <g id="matplotlib.axis_2">
    <g id="ytick_1">
     <g id="line2d_1">
      <path clip-path="url(#pdeaf2004f7)" d="M 135 222.707335 
L 972 222.707335 
" style="fill:none;stroke:#ffffff;stroke-linecap:round;"/>
     </g>
     <g id="text_7">
      <!-- −2 -->
      <defs>
       <path d="M 52.828125 31.203125 
L 5.5625 31.203125 
L 5.5625 39.40625 
L 52.828125 39.40625 
z
" id="ArialMT-8722"/>
       <path d="M 50.34375 8.453125 
L 50.34375 0 
L 3.03125 0 
Q 2.9375 3.171875 4.046875 6.109375 
Q 5.859375 10.9375 9.828125 15.625 
Q 13.8125 20.3125 21.34375 26.46875 
Q 33.015625 36.03125 37.109375 41.625 
Q 41.21875 47.21875 41.21875 52.203125 
Q 41.21875 57.421875 37.46875 61 
Q 33.734375 64.59375 27.734375 64.59375 
Q 21.390625 64.59375 17.578125 60.78125 
Q 13.765625 56.984375 13.71875 50.25 
L 4.6875 51.171875 
Q 5.609375 61.28125 11.65625 66.578125 
Q 17.71875 71.875 27.9375 71.875 
Q 38.234375 71.875 44.234375 66.15625 
Q 50.25 60.453125 50.25 52 
Q 50.25 47.703125 48.484375 43.546875 
Q 46.734375 39.40625 42.65625 34.8125 
Q 38.578125 30.21875 29.109375 22.21875 
Q 21.1875 15.578125 18.9375 13.203125 
Q 16.703125 10.84375 15.234375 8.453125 
z
" id="ArialMT-50"/>
      </defs>
      <g style="fill:#262626;" transform="translate(116.598438 226.286242)scale(0.1 -0.1)">
       <use xlink:href="#ArialMT-8722"/>
       <use x="58.398438" xlink:href="#ArialMT-50"/>
      </g>
     </g>
    </g>
    <g id="ytick_2">
     <g id="line2d_2">
      <path clip-path="url(#pdeaf2004f7)" d="M 135 184.833513 
L 972 184.833513 
" style="fill:none;stroke:#ffffff;stroke-linecap:round;"/>
     </g>
     <g id="text_8">
      <!-- 0 -->
      <defs>
       <path d="M 4.15625 35.296875 
Q 4.15625 48 6.765625 55.734375 
Q 9.375 63.484375 14.515625 67.671875 
Q 19.671875 71.875 27.484375 71.875 
Q 33.25 71.875 37.59375 69.546875 
Q 41.9375 67.234375 44.765625 62.859375 
Q 47.609375 58.5 49.21875 52.21875 
Q 50.828125 45.953125 50.828125 35.296875 
Q 50.828125 22.703125 48.234375 14.96875 
Q 45.65625 7.234375 40.5 3 
Q 35.359375 -1.21875 27.484375 -1.21875 
Q 17.140625 -1.21875 11.234375 6.203125 
Q 4.15625 15.140625 4.15625 35.296875 
z
M 13.1875 35.296875 
Q 13.1875 17.671875 17.3125 11.828125 
Q 21.4375 6 27.484375 6 
Q 33.546875 6 37.671875 11.859375 
Q 41.796875 17.71875 41.796875 35.296875 
Q 41.796875 52.984375 37.671875 58.78125 
Q 33.546875 64.59375 27.390625 64.59375 
Q 21.34375 64.59375 17.71875 59.46875 
Q 13.1875 52.9375 13.1875 35.296875 
z
" id="ArialMT-48"/>
      </defs>
      <g style="fill:#262626;" transform="translate(122.439063 188.412419)scale(0.1 -0.1)">
       <use xlink:href="#ArialMT-48"/>
      </g>
     </g>
    </g>
    <g id="ytick_3">
     <g id="line2d_3">
      <path clip-path="url(#pdeaf2004f7)" d="M 135 146.95969 
L 972 146.95969 
" style="fill:none;stroke:#ffffff;stroke-linecap:round;"/>
     </g>
     <g id="text_9">
      <!-- 2 -->
      <g style="fill:#262626;" transform="translate(122.439063 150.538596)scale(0.1 -0.1)">
       <use xlink:href="#ArialMT-50"/>
      </g>
     </g>
    </g>
    <g id="ytick_4">
     <g id="line2d_4">
      <path clip-path="url(#pdeaf2004f7)" d="M 135 109.085868 
L 972 109.085868 
" style="fill:none;stroke:#ffffff;stroke-linecap:round;"/>
     </g>
     <g id="text_10">
      <!-- 4 -->
      <defs>
       <path d="M 32.328125 0 
L 32.328125 17.140625 
L 1.265625 17.140625 
L 1.265625 25.203125 
L 33.9375 71.578125 
L 41.109375 71.578125 
L 41.109375 25.203125 
L 50.78125 25.203125 
L 50.78125 17.140625 
L 41.109375 17.140625 
L 41.109375 0 
z
M 32.328125 25.203125 
L 32.328125 57.46875 
L 9.90625 25.203125 
z
" id="ArialMT-52"/>
      </defs>
      <g style="fill:#262626;" transform="translate(122.439063 112.664774)scale(0.1 -0.1)">
       <use xlink:href="#ArialMT-52"/>
      </g>
     </g>
    </g>
    <g id="ytick_5">
     <g id="line2d_5">
      <path clip-path="url(#pdeaf2004f7)" d="M 135 71.212045 
L 972 71.212045 
" style="fill:none;stroke:#ffffff;stroke-linecap:round;"/>
     </g>
     <g id="text_11">
      <!-- 6 -->
      <defs>
       <path d="M 49.75 54.046875 
L 41.015625 53.375 
Q 39.84375 58.546875 37.703125 60.890625 
Q 34.125 64.65625 28.90625 64.65625 
Q 24.703125 64.65625 21.53125 62.3125 
Q 17.390625 59.28125 14.984375 53.46875 
Q 12.59375 47.65625 12.5 36.921875 
Q 15.671875 41.75 20.265625 44.09375 
Q 24.859375 46.4375 29.890625 46.4375 
Q 38.671875 46.4375 44.84375 39.96875 
Q 51.03125 33.5 51.03125 23.25 
Q 51.03125 16.5 48.125 10.71875 
Q 45.21875 4.9375 40.140625 1.859375 
Q 35.0625 -1.21875 28.609375 -1.21875 
Q 17.625 -1.21875 10.6875 6.859375 
Q 3.765625 14.9375 3.765625 33.5 
Q 3.765625 54.25 11.421875 63.671875 
Q 18.109375 71.875 29.4375 71.875 
Q 37.890625 71.875 43.28125 67.140625 
Q 48.6875 62.40625 49.75 54.046875 
z
M 13.875 23.1875 
Q 13.875 18.65625 15.796875 14.5 
Q 17.71875 10.359375 21.1875 8.171875 
Q 24.65625 6 28.46875 6 
Q 34.03125 6 38.03125 10.484375 
Q 42.046875 14.984375 42.046875 22.703125 
Q 42.046875 30.125 38.078125 34.390625 
Q 34.125 38.671875 28.125 38.671875 
Q 22.171875 38.671875 18.015625 34.390625 
Q 13.875 30.125 13.875 23.1875 
z
" id="ArialMT-54"/>
      </defs>
      <g style="fill:#262626;" transform="translate(122.439063 74.790951)scale(0.1 -0.1)">
       <use xlink:href="#ArialMT-54"/>
      </g>
     </g>
    </g>
   </g>
   <g id="PolyCollection_1">
    <defs>
     <path d="M 204.798265 -41.76 
L 204.701735 -41.76 
L 204.668022 -43.243762 
L 204.620215 -44.727523 
L 204.557555 -46.211285 
L 204.480636 -47.695046 
L 204.389753 -49.178808 
L 204.281615 -50.66257 
L 204.145245 -52.146331 
L 203.95875 -53.630093 
L 203.688729 -55.113855 
L 203.293187 -56.597616 
L 202.727404 -58.081378 
L 201.95105 -59.565139 
L 200.934721 -61.048901 
L 199.664703 -62.532663 
L 198.145581 -64.016424 
L 196.400494 -65.500186 
L 194.468539 -66.983947 
L 192.398852 -68.467709 
L 190.241917 -69.951471 
L 188.040299 -71.435232 
L 185.822065 -72.918994 
L 183.599505 -74.402756 
L 181.373622 -75.886517 
L 179.142448 -77.370279 
L 176.909694 -78.85404 
L 174.689726 -80.337802 
L 172.50564 -81.821564 
L 170.379601 -83.305325 
L 168.318937 -84.789087 
L 166.30592 -86.272849 
L 164.300011 -87.75661 
L 162.256097 -89.240372 
L 160.152553 -90.724133 
L 158.01505 -92.207895 
L 155.922018 -93.691657 
L 153.986398 -95.175418 
L 152.320719 -96.65918 
L 151.001154 -98.142941 
L 150.046806 -99.626703 
L 149.423761 -101.110465 
L 149.072909 -102.594226 
L 148.95 -104.077988 
L 149.059503 -105.56175 
L 149.464426 -107.045511 
L 150.264386 -108.529273 
L 151.550812 -110.013034 
L 153.362156 -111.496796 
L 155.663361 -112.980558 
L 158.359742 -114.464319 
L 161.33428 -115.948081 
L 164.483608 -117.431842 
L 167.731508 -118.915604 
L 171.01666 -120.399366 
L 174.270164 -121.883127 
L 177.40423 -123.366889 
L 180.323161 -124.850651 
L 182.950019 -126.334412 
L 185.250797 -127.818174 
L 187.240147 -129.301935 
L 188.965748 -130.785697 
L 190.481945 -132.269459 
L 191.828291 -133.75322 
L 193.023071 -135.236982 
L 194.071266 -136.720744 
L 194.97834 -138.204505 
L 195.760297 -139.688267 
L 196.445466 -141.172028 
L 197.069767 -142.65579 
L 197.670091 -144.139552 
L 198.278936 -145.623313 
L 198.920271 -147.107075 
L 199.605232 -148.590836 
L 200.327922 -150.074598 
L 201.063991 -151.55836 
L 201.774907 -153.042121 
L 202.417986 -154.525883 
L 202.958509 -156.009645 
L 203.378648 -157.493406 
L 203.679685 -158.977168 
L 203.877701 -160.460929 
L 203.995934 -161.944691 
L 204.0576 -163.428453 
L 204.081521 -164.912214 
L 204.080879 -166.395976 
L 204.064218 -167.879737 
L 204.037595 -169.363499 
L 204.006956 -170.847261 
L 203.979866 -172.331022 
L 203.965772 -173.814784 
L 203.974394 -175.298546 
L 204.012766 -176.782307 
L 204.082361 -178.266069 
L 204.177862 -179.74983 
L 204.288377 -181.233592 
L 204.400616 -182.717354 
L 204.502607 -184.201115 
L 204.586437 -185.684877 
L 204.64918 -187.168639 
L 204.692129 -188.6524 
L 204.807871 -188.6524 
L 204.807871 -188.6524 
L 204.85082 -187.168639 
L 204.913563 -185.684877 
L 204.997393 -184.201115 
L 205.099384 -182.717354 
L 205.211623 -181.233592 
L 205.322138 -179.74983 
L 205.417639 -178.266069 
L 205.487234 -176.782307 
L 205.525606 -175.298546 
L 205.534228 -173.814784 
L 205.520134 -172.331022 
L 205.493044 -170.847261 
L 205.462405 -169.363499 
L 205.435782 -167.879737 
L 205.419121 -166.395976 
L 205.418479 -164.912214 
L 205.4424 -163.428453 
L 205.504066 -161.944691 
L 205.622299 -160.460929 
L 205.820315 -158.977168 
L 206.121352 -157.493406 
L 206.541491 -156.009645 
L 207.082014 -154.525883 
L 207.725093 -153.042121 
L 208.436009 -151.55836 
L 209.172078 -150.074598 
L 209.894768 -148.590836 
L 210.579729 -147.107075 
L 211.221064 -145.623313 
L 211.829909 -144.139552 
L 212.430233 -142.65579 
L 213.054534 -141.172028 
L 213.739703 -139.688267 
L 214.52166 -138.204505 
L 215.428734 -136.720744 
L 216.476929 -135.236982 
L 217.671709 -133.75322 
L 219.018055 -132.269459 
L 220.534252 -130.785697 
L 222.259853 -129.301935 
L 224.249203 -127.818174 
L 226.549981 -126.334412 
L 229.176839 -124.850651 
L 232.09577 -123.366889 
L 235.229836 -121.883127 
L 238.48334 -120.399366 
L 241.768492 -118.915604 
L 245.016392 -117.431842 
L 248.16572 -115.948081 
L 251.140258 -114.464319 
L 253.836639 -112.980558 
L 256.137844 -111.496796 
L 257.949188 -110.013034 
L 259.235614 -108.529273 
L 260.035574 -107.045511 
L 260.440497 -105.56175 
L 260.55 -104.077988 
L 260.427091 -102.594226 
L 260.076239 -101.110465 
L 259.453194 -99.626703 
L 258.498846 -98.142941 
L 257.179281 -96.65918 
L 255.513602 -95.175418 
L 253.577982 -93.691657 
L 251.48495 -92.207895 
L 249.347447 -90.724133 
L 247.243903 -89.240372 
L 245.199989 -87.75661 
L 243.19408 -86.272849 
L 241.181063 -84.789087 
L 239.120399 -83.305325 
L 236.99436 -81.821564 
L 234.810274 -80.337802 
L 232.590306 -78.85404 
L 230.357552 -77.370279 
L 228.126378 -75.886517 
L 225.900495 -74.402756 
L 223.677935 -72.918994 
L 221.459701 -71.435232 
L 219.258083 -69.951471 
L 217.101148 -68.467709 
L 215.031461 -66.983947 
L 213.099506 -65.500186 
L 211.354419 -64.016424 
L 209.835297 -62.532663 
L 208.565279 -61.048901 
L 207.54895 -59.565139 
L 206.772596 -58.081378 
L 206.206813 -56.597616 
L 205.811271 -55.113855 
L 205.54125 -53.630093 
L 205.354755 -52.146331 
L 205.218385 -50.66257 
L 205.110247 -49.178808 
L 205.019364 -47.695046 
L 204.942445 -46.211285 
L 204.879785 -44.727523 
L 204.831978 -43.243762 
L 204.798265 -41.76 
z
" id="mf5f92c4908" style="stroke:#4c4c4c;stroke-width:3;"/>
    </defs>
    <g clip-path="url(#pdeaf2004f7)">
     <use style="fill:#5875a4;stroke:#4c4c4c;stroke-width:3;" x="0" xlink:href="#mf5f92c4908" y="288"/>
    </g>
   </g>
   <g id="PolyCollection_2">
    <defs>
     <path d="M 344.568576 -65.198735 
L 343.931424 -65.198735 
L 343.610778 -66.666956 
L 343.043571 -68.135178 
L 342.105586 -69.603399 
L 340.654972 -71.071621 
L 338.55595 -72.539842 
L 335.712396 -74.008064 
L 332.102737 -75.476285 
L 327.803435 -76.944507 
L 322.989136 -78.412728 
L 317.904736 -79.88095 
L 312.816073 -81.349172 
L 307.956439 -82.817393 
L 303.489695 -84.285615 
L 299.504492 -85.753836 
L 296.039846 -87.222058 
L 293.127067 -88.690279 
L 290.824956 -90.158501 
L 289.229092 -91.626722 
L 288.45 -93.094944 
L 288.571304 -94.563165 
L 289.608472 -96.031387 
L 291.486883 -97.499608 
L 294.047041 -98.96783 
L 297.072095 -100.436051 
L 300.325232 -101.904273 
L 303.58449 -103.372494 
L 306.667522 -104.840716 
L 309.444629 -106.308937 
L 311.841947 -107.777159 
L 313.837795 -109.24538 
L 315.4549 -110.713602 
L 316.750691 -112.181823 
L 317.807289 -113.650045 
L 318.722093 -115.118266 
L 319.598875 -116.586488 
L 320.538373 -118.054709 
L 321.627174 -119.522931 
L 322.924861 -120.991152 
L 324.451793 -122.459374 
L 326.182051 -123.927595 
L 328.045991 -125.395817 
L 329.943636 -126.864039 
L 331.765402 -128.33226 
L 333.413472 -129.800482 
L 334.817516 -131.268703 
L 335.941993 -132.736925 
L 336.786151 -134.205146 
L 337.379636 -135.673368 
L 337.77591 -137.141589 
L 338.043869 -138.609811 
L 338.2572 -140.078032 
L 338.481913 -141.546254 
L 338.764426 -143.014475 
L 339.123897 -144.482697 
L 339.551826 -145.950918 
L 340.019285 -147.41914 
L 340.488835 -148.887361 
L 340.9263 -150.355583 
L 341.308248 -151.823804 
L 341.623802 -153.292026 
L 341.872395 -154.760247 
L 342.060472 -156.228469 
L 342.199261 -157.69669 
L 342.30383 -159.164912 
L 342.392055 -160.633133 
L 342.482164 -162.101355 
L 342.588718 -163.569576 
L 342.718398 -165.037798 
L 342.86764 -166.506019 
L 343.023626 -167.974241 
L 343.168673 -169.442462 
L 343.286432 -170.910684 
L 343.367367 -172.378905 
L 343.411274 -173.847127 
L 343.426042 -175.315349 
L 343.423752 -176.78357 
L 343.416432 -178.251792 
L 343.413537 -179.720013 
L 343.421738 -181.188235 
L 343.445901 -182.656456 
L 343.489507 -184.124678 
L 343.553668 -185.592899 
L 343.635373 -187.061121 
L 343.726609 -188.529342 
L 343.815604 -189.997564 
L 343.890125 -191.465785 
L 343.941474 -192.934007 
L 343.967398 -194.402228 
L 343.972684 -195.87045 
L 343.967274 -197.338671 
L 343.962726 -198.806893 
L 343.968438 -200.275114 
L 343.989009 -201.743336 
L 344.023578 -203.211557 
L 344.067099 -204.679779 
L 344.112771 -206.148 
L 344.154479 -207.616222 
L 344.188349 -209.084443 
L 344.213114 -210.552665 
L 344.286886 -210.552665 
L 344.286886 -210.552665 
L 344.311651 -209.084443 
L 344.345521 -207.616222 
L 344.387229 -206.148 
L 344.432901 -204.679779 
L 344.476422 -203.211557 
L 344.510991 -201.743336 
L 344.531562 -200.275114 
L 344.537274 -198.806893 
L 344.532726 -197.338671 
L 344.527316 -195.87045 
L 344.532602 -194.402228 
L 344.558526 -192.934007 
L 344.609875 -191.465785 
L 344.684396 -189.997564 
L 344.773391 -188.529342 
L 344.864627 -187.061121 
L 344.946332 -185.592899 
L 345.010493 -184.124678 
L 345.054099 -182.656456 
L 345.078262 -181.188235 
L 345.086463 -179.720013 
L 345.083568 -178.251792 
L 345.076248 -176.78357 
L 345.073958 -175.315349 
L 345.088726 -173.847127 
L 345.132633 -172.378905 
L 345.213568 -170.910684 
L 345.331327 -169.442462 
L 345.476374 -167.974241 
L 345.63236 -166.506019 
L 345.781602 -165.037798 
L 345.911282 -163.569576 
L 346.017836 -162.101355 
L 346.107945 -160.633133 
L 346.19617 -159.164912 
L 346.300739 -157.69669 
L 346.439528 -156.228469 
L 346.627605 -154.760247 
L 346.876198 -153.292026 
L 347.191752 -151.823804 
L 347.5737 -150.355583 
L 348.011165 -148.887361 
L 348.480715 -147.41914 
L 348.948174 -145.950918 
L 349.376103 -144.482697 
L 349.735574 -143.014475 
L 350.018087 -141.546254 
L 350.2428 -140.078032 
L 350.456131 -138.609811 
L 350.72409 -137.141589 
L 351.120364 -135.673368 
L 351.713849 -134.205146 
L 352.558007 -132.736925 
L 353.682484 -131.268703 
L 355.086528 -129.800482 
L 356.734598 -128.33226 
L 358.556364 -126.864039 
L 360.454009 -125.395817 
L 362.317949 -123.927595 
L 364.048207 -122.459374 
L 365.575139 -120.991152 
L 366.872826 -119.522931 
L 367.961627 -118.054709 
L 368.901125 -116.586488 
L 369.777907 -115.118266 
L 370.692711 -113.650045 
L 371.749309 -112.181823 
L 373.0451 -110.713602 
L 374.662205 -109.24538 
L 376.658053 -107.777159 
L 379.055371 -106.308937 
L 381.832478 -104.840716 
L 384.91551 -103.372494 
L 388.174768 -101.904273 
L 391.427905 -100.436051 
L 394.452959 -98.96783 
L 397.013117 -97.499608 
L 398.891528 -96.031387 
L 399.928696 -94.563165 
L 400.05 -93.094944 
L 399.270908 -91.626722 
L 397.675044 -90.158501 
L 395.372933 -88.690279 
L 392.460154 -87.222058 
L 388.995508 -85.753836 
L 385.010305 -84.285615 
L 380.543561 -82.817393 
L 375.683927 -81.349172 
L 370.595264 -79.88095 
L 365.510864 -78.412728 
L 360.696565 -76.944507 
L 356.397263 -75.476285 
L 352.787604 -74.008064 
L 349.94405 -72.539842 
L 347.845028 -71.071621 
L 346.394414 -69.603399 
L 345.456429 -68.135178 
L 344.889222 -66.666956 
L 344.568576 -65.198735 
z
" id="me951a17cc0" style="stroke:#4c4c4c;stroke-width:3;"/>
    </defs>
    <g clip-path="url(#pdeaf2004f7)">
     <use style="fill:#5f9e6e;stroke:#4c4c4c;stroke-width:3;" x="0" xlink:href="#me951a17cc0" y="288"/>
    </g>
   </g>
   <g id="PolyCollection_3">
    <defs>
     <path d="M 485.232094 -67.810635 
L 482.267906 -67.810635 
L 481.177468 -69.173695 
L 479.528626 -70.536755 
L 477.190145 -71.899815 
L 474.076892 -73.262875 
L 470.18196 -74.625934 
L 465.595928 -75.988994 
L 460.50407 -77.352054 
L 455.159729 -78.715114 
L 449.841458 -80.078174 
L 444.80802 -81.441234 
L 440.265532 -82.804294 
L 436.354769 -84.167354 
L 433.157501 -85.530414 
L 430.713352 -86.893474 
L 429.036337 -88.256534 
L 428.123 -89.619594 
L 427.95 -90.982654 
L 428.464829 -92.345714 
L 429.576803 -93.708774 
L 431.155372 -95.071834 
L 433.039439 -96.434894 
L 435.056556 -97.797954 
L 437.04677 -99.161014 
L 438.884483 -100.524074 
L 440.493221 -101.887134 
L 441.851376 -103.250194 
L 442.989761 -104.613254 
L 443.98283 -105.976314 
L 444.934896 -107.339374 
L 445.962021 -108.702434 
L 447.17059 -110.065494 
L 448.635374 -111.428554 
L 450.381912 -112.791614 
L 452.378818 -114.154674 
L 454.54383 -115.517734 
L 456.763186 -116.880794 
L 458.918856 -118.243854 
L 460.914882 -119.606914 
L 462.694413 -120.969974 
L 464.243038 -122.333034 
L 465.579723 -123.696094 
L 466.741065 -125.059154 
L 467.765778 -126.422214 
L 468.684382 -127.785274 
L 469.515595 -129.148333 
L 470.268172 -130.511393 
L 470.94579 -131.874453 
L 471.552889 -133.237513 
L 472.100003 -134.600573 
L 472.607349 -135.963633 
L 473.105285 -137.326693 
L 473.630558 -138.689753 
L 474.218422 -140.052813 
L 474.892644 -141.415873 
L 475.656934 -142.778933 
L 476.491454 -144.141993 
L 477.3563 -145.505053 
L 478.201089 -146.868113 
L 478.977332 -148.231173 
L 479.649343 -149.594233 
L 480.200397 -150.957293 
L 480.632955 -152.320353 
L 480.964065 -153.683413 
L 481.218428 -155.046473 
L 481.421834 -156.409533 
L 481.596726 -157.772593 
L 481.760329 -159.135653 
L 481.924591 -160.498713 
L 482.096752 -161.861773 
L 482.27967 -163.224833 
L 482.471743 -164.587893 
L 482.666903 -165.950953 
L 482.855328 -167.314013 
L 483.025164 -168.677073 
L 483.165054 -170.040133 
L 483.266761 -171.403193 
L 483.327102 -172.766253 
L 483.348609 -174.129313 
L 483.338782 -175.492373 
L 483.308249 -176.855433 
L 483.268415 -178.218493 
L 483.229302 -179.581553 
L 483.198072 -180.944613 
L 483.178497 -182.307672 
L 483.171321 -183.670732 
L 483.175268 -185.033792 
L 483.188325 -186.396852 
L 483.208888 -187.759912 
L 483.236416 -189.122972 
L 483.271364 -190.486032 
L 483.314464 -191.849092 
L 483.365695 -193.212152 
L 483.423495 -194.575212 
L 483.48462 -195.938272 
L 483.544759 -197.301332 
L 483.599608 -198.664392 
L 483.645927 -200.027452 
L 483.682147 -201.390512 
L 483.708394 -202.753572 
L 483.791606 -202.753572 
L 483.791606 -202.753572 
L 483.817853 -201.390512 
L 483.854073 -200.027452 
L 483.900392 -198.664392 
L 483.955241 -197.301332 
L 484.01538 -195.938272 
L 484.076505 -194.575212 
L 484.134305 -193.212152 
L 484.185536 -191.849092 
L 484.228636 -190.486032 
L 484.263584 -189.122972 
L 484.291112 -187.759912 
L 484.311675 -186.396852 
L 484.324732 -185.033792 
L 484.328679 -183.670732 
L 484.321503 -182.307672 
L 484.301928 -180.944613 
L 484.270698 -179.581553 
L 484.231585 -178.218493 
L 484.191751 -176.855433 
L 484.161218 -175.492373 
L 484.151391 -174.129313 
L 484.172898 -172.766253 
L 484.233239 -171.403193 
L 484.334946 -170.040133 
L 484.474836 -168.677073 
L 484.644672 -167.314013 
L 484.833097 -165.950953 
L 485.028257 -164.587893 
L 485.22033 -163.224833 
L 485.403248 -161.861773 
L 485.575409 -160.498713 
L 485.739671 -159.135653 
L 485.903274 -157.772593 
L 486.078166 -156.409533 
L 486.281572 -155.046473 
L 486.535935 -153.683413 
L 486.867045 -152.320353 
L 487.299603 -150.957293 
L 487.850657 -149.594233 
L 488.522668 -148.231173 
L 489.298911 -146.868113 
L 490.1437 -145.505053 
L 491.008546 -144.141993 
L 491.843066 -142.778933 
L 492.607356 -141.415873 
L 493.281578 -140.052813 
L 493.869442 -138.689753 
L 494.394715 -137.326693 
L 494.892651 -135.963633 
L 495.399997 -134.600573 
L 495.947111 -133.237513 
L 496.55421 -131.874453 
L 497.231828 -130.511393 
L 497.984405 -129.148333 
L 498.815618 -127.785274 
L 499.734222 -126.422214 
L 500.758935 -125.059154 
L 501.920277 -123.696094 
L 503.256962 -122.333034 
L 504.805587 -120.969974 
L 506.585118 -119.606914 
L 508.581144 -118.243854 
L 510.736814 -116.880794 
L 512.95617 -115.517734 
L 515.121182 -114.154674 
L 517.118088 -112.791614 
L 518.864626 -111.428554 
L 520.32941 -110.065494 
L 521.537979 -108.702434 
L 522.565104 -107.339374 
L 523.51717 -105.976314 
L 524.510239 -104.613254 
L 525.648624 -103.250194 
L 527.006779 -101.887134 
L 528.615517 -100.524074 
L 530.45323 -99.161014 
L 532.443444 -97.797954 
L 534.460561 -96.434894 
L 536.344628 -95.071834 
L 537.923197 -93.708774 
L 539.035171 -92.345714 
L 539.55 -90.982654 
L 539.377 -89.619594 
L 538.463663 -88.256534 
L 536.786648 -86.893474 
L 534.342499 -85.530414 
L 531.145231 -84.167354 
L 527.234468 -82.804294 
L 522.69198 -81.441234 
L 517.658542 -80.078174 
L 512.340271 -78.715114 
L 506.99593 -77.352054 
L 501.904072 -75.988994 
L 497.31804 -74.625934 
L 493.423108 -73.262875 
L 490.309855 -71.899815 
L 487.971374 -70.536755 
L 486.322532 -69.173695 
L 485.232094 -67.810635 
z
" id="m0a561e0006" style="stroke:#4c4c4c;stroke-width:3;"/>
    </defs>
    <g clip-path="url(#pdeaf2004f7)">
     <use style="fill:#b55d60;stroke:#4c4c4c;stroke-width:3;" x="0" xlink:href="#m0a561e0006" y="288"/>
    </g>
   </g>
   <g id="PolyCollection_4">
    <defs>
     <path d="M 623.915879 -59.500246 
L 622.584121 -59.500246 
L 622.247854 -60.562195 
L 621.792316 -61.624144 
L 621.198308 -62.686093 
L 620.451665 -63.748042 
L 619.545218 -64.80999 
L 618.479568 -65.871939 
L 617.262281 -66.933888 
L 615.905582 -67.995837 
L 614.423068 -69.057786 
L 612.826298 -70.119735 
L 611.122172 -71.181683 
L 609.311717 -72.243632 
L 607.390441 -73.305581 
L 605.349929 -74.36753 
L 603.180126 -75.429479 
L 600.871781 -76.491428 
L 598.418812 -77.553376 
L 595.820659 -78.615325 
L 593.08477 -79.677274 
L 590.229249 -80.739223 
L 587.285316 -81.801172 
L 584.298928 -82.863121 
L 581.330802 -83.925069 
L 578.454392 -84.987018 
L 575.751824 -86.048967 
L 573.308361 -87.110916 
L 571.206286 -88.172865 
L 569.519042 -89.234814 
L 568.306209 -90.296762 
L 567.609535 -91.358711 
L 567.45 -92.42066 
L 567.8259 -93.482609 
L 568.712074 -94.544558 
L 570.060533 -95.606507 
L 571.80267 -96.668455 
L 573.853054 -97.730404 
L 576.11446 -98.792353 
L 578.483626 -99.854302 
L 580.857216 -100.916251 
L 583.137659 -101.9782 
L 585.238744 -103.040148 
L 587.090886 -104.102097 
L 588.645836 -105.164046 
L 589.880283 -106.225995 
L 590.797546 -107.287944 
L 591.426571 -108.349893 
L 591.817777 -109.411841 
L 592.036017 -110.47379 
L 592.151647 -111.535739 
L 592.231283 -112.597688 
L 592.330011 -113.659637 
L 592.486461 -114.721586 
L 592.721447 -115.783534 
L 593.03997 -116.845483 
L 593.435624 -117.907432 
L 593.896059 -118.969381 
L 594.408164 -120.03133 
L 594.962067 -121.093279 
L 595.553508 -122.155227 
L 596.184642 -123.217176 
L 596.863497 -124.279125 
L 597.602367 -125.341074 
L 598.415329 -126.403023 
L 599.315106 -127.464972 
L 600.309589 -128.52692 
L 601.398587 -129.588869 
L 602.571532 -130.650818 
L 603.806869 -131.712767 
L 605.073571 -132.774716 
L 606.334771 -133.836665 
L 607.552899 -134.898613 
L 608.69532 -135.960562 
L 609.739235 -137.022511 
L 610.6748 -138.08446 
L 611.505808 -139.146409 
L 612.247867 -140.208358 
L 612.9246 -141.270306 
L 613.562763 -142.332255 
L 614.187373 -143.394204 
L 614.817792 -144.456153 
L 615.465404 -145.518102 
L 616.133078 -146.580051 
L 616.816201 -147.641999 
L 617.50478 -148.703948 
L 618.185966 -149.765897 
L 618.846428 -150.827846 
L 619.474148 -151.889795 
L 620.059479 -152.951744 
L 620.595483 -154.013692 
L 621.077787 -155.075641 
L 621.504182 -156.13759 
L 621.874223 -157.199539 
L 622.188938 -158.261488 
L 622.450672 -159.323437 
L 622.662985 -160.385385 
L 622.83054 -161.447334 
L 622.958871 -162.509283 
L 623.05405 -163.571232 
L 623.122281 -164.633181 
L 623.377719 -164.633181 
L 623.377719 -164.633181 
L 623.44595 -163.571232 
L 623.541129 -162.509283 
L 623.66946 -161.447334 
L 623.837015 -160.385385 
L 624.049328 -159.323437 
L 624.311062 -158.261488 
L 624.625777 -157.199539 
L 624.995818 -156.13759 
L 625.422213 -155.075641 
L 625.904517 -154.013692 
L 626.440521 -152.951744 
L 627.025852 -151.889795 
L 627.653572 -150.827846 
L 628.314034 -149.765897 
L 628.99522 -148.703948 
L 629.683799 -147.641999 
L 630.366922 -146.580051 
L 631.034596 -145.518102 
L 631.682208 -144.456153 
L 632.312627 -143.394204 
L 632.937237 -142.332255 
L 633.5754 -141.270306 
L 634.252133 -140.208358 
L 634.994192 -139.146409 
L 635.8252 -138.08446 
L 636.760765 -137.022511 
L 637.80468 -135.960562 
L 638.947101 -134.898613 
L 640.165229 -133.836665 
L 641.426429 -132.774716 
L 642.693131 -131.712767 
L 643.928468 -130.650818 
L 645.101413 -129.588869 
L 646.190411 -128.52692 
L 647.184894 -127.464972 
L 648.084671 -126.403023 
L 648.897633 -125.341074 
L 649.636503 -124.279125 
L 650.315358 -123.217176 
L 650.946492 -122.155227 
L 651.537933 -121.093279 
L 652.091836 -120.03133 
L 652.603941 -118.969381 
L 653.064376 -117.907432 
L 653.46003 -116.845483 
L 653.778553 -115.783534 
L 654.013539 -114.721586 
L 654.169989 -113.659637 
L 654.268717 -112.597688 
L 654.348353 -111.535739 
L 654.463983 -110.47379 
L 654.682223 -109.411841 
L 655.073429 -108.349893 
L 655.702454 -107.287944 
L 656.619717 -106.225995 
L 657.854164 -105.164046 
L 659.409114 -104.102097 
L 661.261256 -103.040148 
L 663.362341 -101.9782 
L 665.642784 -100.916251 
L 668.016374 -99.854302 
L 670.38554 -98.792353 
L 672.646946 -97.730404 
L 674.69733 -96.668455 
L 676.439467 -95.606507 
L 677.787926 -94.544558 
L 678.6741 -93.482609 
L 679.05 -92.42066 
L 678.890465 -91.358711 
L 678.193791 -90.296762 
L 676.980958 -89.234814 
L 675.293714 -88.172865 
L 673.191639 -87.110916 
L 670.748176 -86.048967 
L 668.045608 -84.987018 
L 665.169198 -83.925069 
L 662.201072 -82.863121 
L 659.214684 -81.801172 
L 656.270751 -80.739223 
L 653.41523 -79.677274 
L 650.679341 -78.615325 
L 648.081188 -77.553376 
L 645.628219 -76.491428 
L 643.319874 -75.429479 
L 641.150071 -74.36753 
L 639.109559 -73.305581 
L 637.188283 -72.243632 
L 635.377828 -71.181683 
L 633.673702 -70.119735 
L 632.076932 -69.057786 
L 630.594418 -67.995837 
L 629.237719 -66.933888 
L 628.020432 -65.871939 
L 626.954782 -64.80999 
L 626.048335 -63.748042 
L 625.301692 -62.686093 
L 624.707684 -61.624144 
L 624.252146 -60.562195 
L 623.915879 -59.500246 
z
" id="ma9b0a119ed" style="stroke:#4c4c4c;stroke-width:3;"/>
    </defs>
    <g clip-path="url(#pdeaf2004f7)">
     <use style="fill:#857aaa;stroke:#4c4c4c;stroke-width:3;" x="0" xlink:href="#ma9b0a119ed" y="288"/>
    </g>
   </g>
   <g id="PolyCollection_5">
    <defs>
     <path d="M 762.892198 -51.631368 
L 762.607802 -51.631368 
L 762.46595 -53.414974 
L 762.23466 -55.19858 
L 761.896362 -56.982186 
L 761.449434 -58.765792 
L 760.909107 -60.549399 
L 760.297352 -62.333005 
L 759.625313 -64.116611 
L 758.877335 -65.900217 
L 758.00338 -67.683823 
L 756.918621 -69.467429 
L 755.505045 -71.251035 
L 753.616438 -73.034642 
L 751.098146 -74.818248 
L 747.831399 -76.601854 
L 743.793247 -78.38546 
L 739.101373 -80.169066 
L 734.010986 -81.952672 
L 728.855975 -83.736278 
L 723.960795 -85.519884 
L 719.566326 -87.303491 
L 715.801146 -89.087097 
L 712.701855 -90.870703 
L 710.261967 -92.654309 
L 708.478419 -94.437915 
L 707.368769 -96.221521 
L 706.95 -98.005127 
L 707.19761 -99.788734 
L 708.024332 -101.57234 
L 709.309136 -103.355946 
L 710.967262 -105.139552 
L 713.011368 -106.923158 
L 715.550281 -108.706764 
L 718.711994 -110.49037 
L 722.530814 -112.273976 
L 726.86621 -114.057583 
L 731.406369 -115.841189 
L 735.763269 -117.624795 
L 739.614007 -119.408401 
L 742.814199 -121.192007 
L 745.422545 -122.975613 
L 747.626389 -124.759219 
L 749.615787 -126.542826 
L 751.480758 -128.326432 
L 753.185982 -130.110038 
L 754.625178 -131.893644 
L 755.710255 -133.67725 
L 756.437255 -135.460856 
L 756.895193 -137.244462 
L 757.223563 -139.028068 
L 757.551809 -140.811675 
L 757.955143 -142.595281 
L 758.441937 -144.378887 
L 758.966982 -146.162493 
L 759.456637 -147.946099 
L 759.836056 -149.729705 
L 760.05488 -151.513311 
L 760.107786 -153.296918 
L 760.042254 -155.080524 
L 759.946199 -156.86413 
L 759.916785 -158.647736 
L 760.023355 -160.431342 
L 760.282413 -162.214948 
L 760.656343 -163.998554 
L 761.074488 -165.78216 
L 761.463998 -167.565767 
L 761.774765 -169.349373 
L 761.988442 -171.132979 
L 762.111963 -172.916585 
L 762.164318 -174.700191 
L 762.166412 -176.483797 
L 762.137932 -178.267403 
L 762.098071 -180.05101 
L 762.064993 -181.834616 
L 762.052563 -183.618222 
L 762.067234 -185.401828 
L 762.108302 -187.185434 
L 762.171208 -188.96904 
L 762.250658 -190.752646 
L 762.341153 -192.536252 
L 762.435788 -194.319859 
L 762.525943 -196.103465 
L 762.603127 -197.887071 
L 762.66165 -199.670677 
L 762.69988 -201.454283 
L 762.719168 -203.237889 
L 762.721465 -205.021495 
L 762.707484 -206.805102 
L 762.676827 -208.588708 
L 762.630209 -210.372314 
L 762.57252 -212.15592 
L 762.514402 -213.939526 
L 762.470324 -215.723132 
L 762.453212 -217.506738 
L 762.468479 -219.290344 
L 762.511303 -221.073951 
L 762.569095 -222.857557 
L 762.627447 -224.641163 
L 762.675789 -226.424769 
L 762.709832 -228.208375 
L 762.790168 -228.208375 
L 762.790168 -228.208375 
L 762.824211 -226.424769 
L 762.872553 -224.641163 
L 762.930905 -222.857557 
L 762.988697 -221.073951 
L 763.031521 -219.290344 
L 763.046788 -217.506738 
L 763.029676 -215.723132 
L 762.985598 -213.939526 
L 762.92748 -212.15592 
L 762.869791 -210.372314 
L 762.823173 -208.588708 
L 762.792516 -206.805102 
L 762.778535 -205.021495 
L 762.780832 -203.237889 
L 762.80012 -201.454283 
L 762.83835 -199.670677 
L 762.896873 -197.887071 
L 762.974057 -196.103465 
L 763.064212 -194.319859 
L 763.158847 -192.536252 
L 763.249342 -190.752646 
L 763.328792 -188.96904 
L 763.391698 -187.185434 
L 763.432766 -185.401828 
L 763.447437 -183.618222 
L 763.435007 -181.834616 
L 763.401929 -180.05101 
L 763.362068 -178.267403 
L 763.333588 -176.483797 
L 763.335682 -174.700191 
L 763.388037 -172.916585 
L 763.511558 -171.132979 
L 763.725235 -169.349373 
L 764.036002 -167.565767 
L 764.425512 -165.78216 
L 764.843657 -163.998554 
L 765.217587 -162.214948 
L 765.476645 -160.431342 
L 765.583215 -158.647736 
L 765.553801 -156.86413 
L 765.457746 -155.080524 
L 765.392214 -153.296918 
L 765.44512 -151.513311 
L 765.663944 -149.729705 
L 766.043363 -147.946099 
L 766.533018 -146.162493 
L 767.058063 -144.378887 
L 767.544857 -142.595281 
L 767.948191 -140.811675 
L 768.276437 -139.028068 
L 768.604807 -137.244462 
L 769.062745 -135.460856 
L 769.789745 -133.67725 
L 770.874822 -131.893644 
L 772.314018 -130.110038 
L 774.019242 -128.326432 
L 775.884213 -126.542826 
L 777.873611 -124.759219 
L 780.077455 -122.975613 
L 782.685801 -121.192007 
L 785.885993 -119.408401 
L 789.736731 -117.624795 
L 794.093631 -115.841189 
L 798.63379 -114.057583 
L 802.969186 -112.273976 
L 806.788006 -110.49037 
L 809.949719 -108.706764 
L 812.488632 -106.923158 
L 814.532738 -105.139552 
L 816.190864 -103.355946 
L 817.475668 -101.57234 
L 818.30239 -99.788734 
L 818.55 -98.005127 
L 818.131231 -96.221521 
L 817.021581 -94.437915 
L 815.238033 -92.654309 
L 812.798145 -90.870703 
L 809.698854 -89.087097 
L 805.933674 -87.303491 
L 801.539205 -85.519884 
L 796.644025 -83.736278 
L 791.489014 -81.952672 
L 786.398627 -80.169066 
L 781.706753 -78.38546 
L 777.668601 -76.601854 
L 774.401854 -74.818248 
L 771.883562 -73.034642 
L 769.994955 -71.251035 
L 768.581379 -69.467429 
L 767.49662 -67.683823 
L 766.622665 -65.900217 
L 765.874687 -64.116611 
L 765.202648 -62.333005 
L 764.590893 -60.549399 
L 764.050566 -58.765792 
L 763.603638 -56.982186 
L 763.26534 -55.19858 
L 763.03405 -53.414974 
L 762.892198 -51.631368 
z
" id="m4882837703" style="stroke:#4c4c4c;stroke-width:3;"/>
    </defs>
    <g clip-path="url(#pdeaf2004f7)">
     <use style="fill:#c1b37f;stroke:#4c4c4c;stroke-width:3;" x="0" xlink:href="#m4882837703" y="288"/>
    </g>
   </g>
   <g id="PolyCollection_6">
    <defs>
     <path d="M 902.462141 -62.210069 
L 902.037859 -62.210069 
L 901.781284 -64.039867 
L 901.297966 -65.869664 
L 900.462444 -67.699461 
L 899.129529 -69.529259 
L 897.155996 -71.359056 
L 894.428366 -73.188853 
L 890.889667 -75.01865 
L 886.559538 -76.848448 
L 881.546531 -78.678245 
L 876.0526 -80.508042 
L 870.363694 -82.337839 
L 864.814142 -84.167637 
L 859.721947 -85.997434 
L 855.319904 -87.827231 
L 851.728611 -89.657029 
L 848.999061 -91.486826 
L 847.196278 -93.316623 
L 846.45 -95.14642 
L 846.9148 -96.976218 
L 848.654889 -98.806015 
L 851.536279 -100.635812 
L 855.211882 -102.46561 
L 859.221708 -104.295407 
L 863.151202 -106.125204 
L 866.753199 -107.955001 
L 869.967117 -109.784799 
L 872.841356 -111.614596 
L 875.428744 -113.444393 
L 877.733196 -115.274191 
L 879.734841 -117.103988 
L 881.45538 -118.933785 
L 882.998354 -120.763582 
L 884.525524 -122.59338 
L 886.181794 -124.423177 
L 888.016575 -126.252974 
L 889.949919 -128.082771 
L 891.803584 -129.912569 
L 893.380261 -131.742366 
L 894.548868 -133.572163 
L 895.29313 -135.401961 
L 895.704263 -137.231758 
L 895.930972 -139.061555 
L 896.119961 -140.891352 
L 896.376101 -142.72115 
L 896.750444 -144.550947 
L 897.245816 -146.380744 
L 897.827115 -148.210542 
L 898.432726 -150.040339 
L 898.990279 -151.870136 
L 899.437369 -153.699933 
L 899.741251 -155.529731 
L 899.909413 -157.359528 
L 899.986482 -159.189325 
L 900.038201 -161.019122 
L 900.12788 -162.84892 
L 900.294478 -164.678717 
L 900.542018 -166.508514 
L 900.844653 -168.338312 
L 901.162681 -170.168109 
L 901.459306 -171.997906 
L 901.710275 -173.827703 
L 901.905325 -175.657501 
L 902.045001 -177.487298 
L 902.136438 -179.317095 
L 902.189524 -181.146893 
L 902.21362 -182.97669 
L 902.215245 -184.806487 
L 902.197545 -186.636284 
L 902.162052 -188.466082 
L 902.112115 -190.295879 
L 902.055986 -192.125676 
L 902.006959 -193.955473 
L 901.979361 -195.785271 
L 901.98218 -197.615068 
L 902.014488 -199.444865 
L 902.065966 -201.274663 
L 902.122211 -203.10446 
L 902.17115 -204.934257 
L 902.206765 -206.764054 
L 902.228926 -208.593852 
L 902.240837 -210.423649 
L 902.246321 -212.253446 
L 902.248199 -214.083244 
L 902.247749 -215.913041 
L 902.244644 -217.742838 
L 902.236955 -219.572635 
L 902.221335 -221.402433 
L 902.193946 -223.23223 
L 902.152583 -225.062027 
L 902.099554 -226.891824 
L 902.043538 -228.721622 
L 901.998227 -230.551419 
L 901.97717 -232.381216 
L 901.987284 -234.211014 
L 902.025202 -236.040811 
L 902.079073 -237.870608 
L 902.134511 -239.700405 
L 902.18066 -241.530203 
L 902.213006 -243.36 
L 902.286994 -243.36 
L 902.286994 -243.36 
L 902.31934 -241.530203 
L 902.365489 -239.700405 
L 902.420927 -237.870608 
L 902.474798 -236.040811 
L 902.512716 -234.211014 
L 902.52283 -232.381216 
L 902.501773 -230.551419 
L 902.456462 -228.721622 
L 902.400446 -226.891824 
L 902.347417 -225.062027 
L 902.306054 -223.23223 
L 902.278665 -221.402433 
L 902.263045 -219.572635 
L 902.255356 -217.742838 
L 902.252251 -215.913041 
L 902.251801 -214.083244 
L 902.253679 -212.253446 
L 902.259163 -210.423649 
L 902.271074 -208.593852 
L 902.293235 -206.764054 
L 902.32885 -204.934257 
L 902.377789 -203.10446 
L 902.434034 -201.274663 
L 902.485512 -199.444865 
L 902.51782 -197.615068 
L 902.520639 -195.785271 
L 902.493041 -193.955473 
L 902.444014 -192.125676 
L 902.387885 -190.295879 
L 902.337948 -188.466082 
L 902.302455 -186.636284 
L 902.284755 -184.806487 
L 902.28638 -182.97669 
L 902.310476 -181.146893 
L 902.363562 -179.317095 
L 902.454999 -177.487298 
L 902.594675 -175.657501 
L 902.789725 -173.827703 
L 903.040694 -171.997906 
L 903.337319 -170.168109 
L 903.655347 -168.338312 
L 903.957982 -166.508514 
L 904.205522 -164.678717 
L 904.37212 -162.84892 
L 904.461799 -161.019122 
L 904.513518 -159.189325 
L 904.590587 -157.359528 
L 904.758749 -155.529731 
L 905.062631 -153.699933 
L 905.509721 -151.870136 
L 906.067274 -150.040339 
L 906.672885 -148.210542 
L 907.254184 -146.380744 
L 907.749556 -144.550947 
L 908.123899 -142.72115 
L 908.380039 -140.891352 
L 908.569028 -139.061555 
L 908.795737 -137.231758 
L 909.20687 -135.401961 
L 909.951132 -133.572163 
L 911.119739 -131.742366 
L 912.696416 -129.912569 
L 914.550081 -128.082771 
L 916.483425 -126.252974 
L 918.318206 -124.423177 
L 919.974476 -122.59338 
L 921.501646 -120.763582 
L 923.04462 -118.933785 
L 924.765159 -117.103988 
L 926.766804 -115.274191 
L 929.071256 -113.444393 
L 931.658644 -111.614596 
L 934.532883 -109.784799 
L 937.746801 -107.955001 
L 941.348798 -106.125204 
L 945.278292 -104.295407 
L 949.288118 -102.46561 
L 952.963721 -100.635812 
L 955.845111 -98.806015 
L 957.5852 -96.976218 
L 958.05 -95.14642 
L 957.303722 -93.316623 
L 955.500939 -91.486826 
L 952.771389 -89.657029 
L 949.180096 -87.827231 
L 944.778053 -85.997434 
L 939.685858 -84.167637 
L 934.136306 -82.337839 
L 928.4474 -80.508042 
L 922.953469 -78.678245 
L 917.940462 -76.848448 
L 913.610333 -75.01865 
L 910.071634 -73.188853 
L 907.344004 -71.359056 
L 905.370471 -69.529259 
L 904.037556 -67.699461 
L 903.202034 -65.869664 
L 902.718716 -64.039867 
L 902.462141 -62.210069 
z
" id="md85cb430a5" style="stroke:#4c4c4c;stroke-width:3;"/>
    </defs>
    <g clip-path="url(#pdeaf2004f7)">
     <use style="fill:#71aec0;stroke:#4c4c4c;stroke-width:3;" x="0" xlink:href="#md85cb430a5" y="288"/>
    </g>
   </g>
   <g id="line2d_6">
    <path clip-path="url(#pdeaf2004f7)" d="M 204.75 227.23059 
L 204.75 138.444753 
" style="fill:none;stroke:#4c4c4c;stroke-linecap:round;stroke-width:3;"/>
   </g>
   <g id="line2d_7">
    <path clip-path="url(#pdeaf2004f7)" d="M 204.75 197.911773 
L 204.75 173.527807 
" style="fill:none;stroke:#4c4c4c;stroke-linecap:round;stroke-width:9;"/>
   </g>
   <g id="line2d_8">
    <path clip-path="url(#pdeaf2004f7)" d="M 344.25 212.152072 
L 344.25 140.248217 
" style="fill:none;stroke:#4c4c4c;stroke-linecap:round;stroke-width:3;"/>
   </g>
   <g id="line2d_9">
    <path clip-path="url(#pdeaf2004f7)" d="M 344.25 197.719788 
L 344.25 174.622836 
" style="fill:none;stroke:#4c4c4c;stroke-linecap:round;stroke-width:9;"/>
   </g>
   <g id="line2d_10">
    <path clip-path="url(#pdeaf2004f7)" d="M 483.75 209.540173 
L 483.75 139.401878 
" style="fill:none;stroke:#4c4c4c;stroke-linecap:round;stroke-width:3;"/>
   </g>
   <g id="line2d_11">
    <path clip-path="url(#pdeaf2004f7)" d="M 483.75 199.146961 
L 483.75 174.784183 
" style="fill:none;stroke:#4c4c4c;stroke-linecap:round;stroke-width:9;"/>
   </g>
   <g id="line2d_12">
    <path clip-path="url(#pdeaf2004f7)" d="M 623.25 217.850561 
L 623.25 134.016012 
" style="fill:none;stroke:#4c4c4c;stroke-linecap:round;stroke-width:3;"/>
   </g>
   <g id="line2d_13">
    <path clip-path="url(#pdeaf2004f7)" d="M 623.25 199.144797 
L 623.25 171.352636 
" style="fill:none;stroke:#4c4c4c;stroke-linecap:round;stroke-width:9;"/>
   </g>
   <g id="line2d_14">
    <path clip-path="url(#pdeaf2004f7)" d="M 762.75 225.719439 
L 762.75 146.473165 
" style="fill:none;stroke:#4c4c4c;stroke-linecap:round;stroke-width:3;"/>
   </g>
   <g id="line2d_15">
    <path clip-path="url(#pdeaf2004f7)" d="M 762.75 196.977743 
L 762.75 176.316779 
" style="fill:none;stroke:#4c4c4c;stroke-linecap:round;stroke-width:9;"/>
   </g>
   <g id="line2d_16">
    <path clip-path="url(#pdeaf2004f7)" d="M 902.25 215.140738 
L 902.25 144.514999 
" style="fill:none;stroke:#4c4c4c;stroke-linecap:round;stroke-width:3;"/>
   </g>
   <g id="line2d_17">
    <path clip-path="url(#pdeaf2004f7)" d="M 902.25 197.924666 
L 902.25 176.30497 
" style="fill:none;stroke:#4c4c4c;stroke-linecap:round;stroke-width:9;"/>
   </g>
   <g id="patch_3">
    <path d="M 135 256.32 
L 135 34.56 
" style="fill:none;"/>
   </g>
   <g id="patch_4">
    <path d="M 972 256.32 
L 972 34.56 
" style="fill:none;"/>
   </g>
   <g id="patch_5">
    <path d="M 135 256.32 
L 972 256.32 
" style="fill:none;"/>
   </g>
   <g id="patch_6">
    <path d="M 135 34.56 
L 972 34.56 
" style="fill:none;"/>
   </g>
   <g id="PathCollection_1">
    <defs>
     <path d="M 0 3 
C 0.795609 3 1.55874 2.683901 2.12132 2.12132 
C 2.683901 1.55874 3 0.795609 3 0 
C 3 -0.795609 2.683901 -1.55874 2.12132 -2.12132 
C 1.55874 -2.683901 0.795609 -3 0 -3 
C -0.795609 -3 -1.55874 -2.683901 -2.12132 -2.12132 
C -2.683901 -1.55874 -3 -0.795609 -3 0 
C -3 0.795609 -2.683901 1.55874 -2.12132 2.12132 
C -1.55874 2.683901 -0.795609 3 0 3 
z
" id="m442ddb8ccf" style="stroke:#4c4c4c;stroke-width:0.3;"/>
    </defs>
    <g clip-path="url(#pdeaf2004f7)">
     <use style="fill:#ffffff;stroke:#4c4c4c;stroke-width:0.3;" x="204.75" xlink:href="#m442ddb8ccf" y="185.71979"/>
    </g>
   </g>
   <g id="PathCollection_2">
    <g clip-path="url(#pdeaf2004f7)">
     <use style="fill:#ffffff;stroke:#4c4c4c;stroke-width:0.3;" x="344.25" xlink:href="#m442ddb8ccf" y="189.93254"/>
    </g>
   </g>
   <g id="PathCollection_3">
    <g clip-path="url(#pdeaf2004f7)">
     <use style="fill:#ffffff;stroke:#4c4c4c;stroke-width:0.3;" x="483.75" xlink:href="#m442ddb8ccf" y="188.962521"/>
    </g>
   </g>
   <g id="PathCollection_4">
    <g clip-path="url(#pdeaf2004f7)">
     <use style="fill:#ffffff;stroke:#4c4c4c;stroke-width:0.3;" x="623.25" xlink:href="#m442ddb8ccf" y="189.061604"/>
    </g>
   </g>
   <g id="PathCollection_5">
    <g clip-path="url(#pdeaf2004f7)">
     <use style="fill:#ffffff;stroke:#4c4c4c;stroke-width:0.3;" x="762.75" xlink:href="#m442ddb8ccf" y="187.244133"/>
    </g>
   </g>
   <g id="PathCollection_6">
    <g clip-path="url(#pdeaf2004f7)">
     <use style="fill:#ffffff;stroke:#4c4c4c;stroke-width:0.3;" x="902.25" xlink:href="#m442ddb8ccf" y="188.928691"/>
    </g>
   </g>
  </g>
  <g id="text_12">
   <!-- Violin Plot of all Continuous Variables -->
   <defs>
    <path d="M 28.171875 0 
L 0.4375 71.578125 
L 10.6875 71.578125 
L 29.296875 19.578125 
Q 31.546875 13.328125 33.0625 7.859375 
Q 34.71875 13.71875 36.921875 19.578125 
L 56.25 71.578125 
L 65.921875 71.578125 
L 37.890625 0 
z
" id="ArialMT-86"/>
    <path d="M 7.71875 0 
L 7.71875 71.578125 
L 34.71875 71.578125 
Q 41.84375 71.578125 45.609375 70.90625 
Q 50.875 70.015625 54.4375 67.546875 
Q 58.015625 65.09375 60.1875 60.640625 
Q 62.359375 56.203125 62.359375 50.875 
Q 62.359375 41.75 56.546875 35.421875 
Q 50.734375 29.109375 35.546875 29.109375 
L 17.1875 29.109375 
L 17.1875 0 
z
M 17.1875 37.546875 
L 35.6875 37.546875 
Q 44.875 37.546875 48.734375 40.96875 
Q 52.59375 44.390625 52.59375 50.59375 
Q 52.59375 55.078125 50.3125 58.265625 
Q 48.046875 61.46875 44.34375 62.5 
Q 41.9375 63.140625 35.5 63.140625 
L 17.1875 63.140625 
z
" id="ArialMT-80"/>
    <path d="M 58.796875 25.09375 
L 68.265625 22.703125 
Q 65.28125 11.03125 57.546875 4.90625 
Q 49.8125 -1.21875 38.625 -1.21875 
Q 27.046875 -1.21875 19.796875 3.484375 
Q 12.546875 8.203125 8.765625 17.140625 
Q 4.984375 26.078125 4.984375 36.328125 
Q 4.984375 47.515625 9.25 55.828125 
Q 13.53125 64.15625 21.40625 68.46875 
Q 29.296875 72.796875 38.765625 72.796875 
Q 49.515625 72.796875 56.828125 67.328125 
Q 64.15625 61.859375 67.046875 51.953125 
L 57.71875 49.75 
Q 55.21875 57.5625 50.484375 61.125 
Q 45.75 64.703125 38.578125 64.703125 
Q 30.328125 64.703125 24.78125 60.734375 
Q 19.234375 56.78125 16.984375 50.109375 
Q 14.75 43.453125 14.75 36.375 
Q 14.75 27.25 17.40625 20.4375 
Q 20.0625 13.625 25.671875 10.25 
Q 31.296875 6.890625 37.84375 6.890625 
Q 45.796875 6.890625 51.3125 11.46875 
Q 56.84375 16.0625 58.796875 25.09375 
z
" id="ArialMT-67"/>
    <path d="M 40.578125 0 
L 40.578125 7.625 
Q 34.515625 -1.171875 24.125 -1.171875 
Q 19.53125 -1.171875 15.546875 0.578125 
Q 11.578125 2.34375 9.640625 5 
Q 7.71875 7.671875 6.9375 11.53125 
Q 6.390625 14.109375 6.390625 19.734375 
L 6.390625 51.859375 
L 15.1875 51.859375 
L 15.1875 23.09375 
Q 15.1875 16.21875 15.71875 13.8125 
Q 16.546875 10.359375 19.234375 8.375 
Q 21.921875 6.390625 25.875 6.390625 
Q 29.828125 6.390625 33.296875 8.421875 
Q 36.765625 10.453125 38.203125 13.9375 
Q 39.65625 17.4375 39.65625 24.078125 
L 39.65625 51.859375 
L 48.4375 51.859375 
L 48.4375 0 
z
" id="ArialMT-117"/>
    <path d="M 14.703125 0 
L 6.546875 0 
L 6.546875 71.578125 
L 15.328125 71.578125 
L 15.328125 46.046875 
Q 20.90625 53.03125 29.546875 53.03125 
Q 34.328125 53.03125 38.59375 51.09375 
Q 42.875 49.171875 45.625 45.671875 
Q 48.390625 42.1875 49.953125 37.25 
Q 51.515625 32.328125 51.515625 26.703125 
Q 51.515625 13.375 44.921875 6.09375 
Q 38.328125 -1.171875 29.109375 -1.171875 
Q 19.921875 -1.171875 14.703125 6.5 
z
M 14.59375 26.3125 
Q 14.59375 17 17.140625 12.84375 
Q 21.296875 6.0625 28.375 6.0625 
Q 34.125 6.0625 38.328125 11.0625 
Q 42.53125 16.0625 42.53125 25.984375 
Q 42.53125 36.140625 38.5 40.96875 
Q 34.46875 45.796875 28.765625 45.796875 
Q 23 45.796875 18.796875 40.796875 
Q 14.59375 35.796875 14.59375 26.3125 
z
" id="ArialMT-98"/>
   </defs>
   <g style="fill:#262626;" transform="translate(373.814062 -8.724375)scale(0.2 -0.2)">
    <use xlink:href="#ArialMT-86"/>
    <use x="66.683594" xlink:href="#ArialMT-105"/>
    <use x="88.900391" xlink:href="#ArialMT-111"/>
    <use x="144.515625" xlink:href="#ArialMT-108"/>
    <use x="166.732422" xlink:href="#ArialMT-105"/>
    <use x="188.949219" xlink:href="#ArialMT-110"/>
    <use x="244.564453" xlink:href="#ArialMT-32"/>
    <use x="272.347656" xlink:href="#ArialMT-80"/>
    <use x="339.046875" xlink:href="#ArialMT-108"/>
    <use x="361.263672" xlink:href="#ArialMT-111"/>
    <use x="416.878906" xlink:href="#ArialMT-116"/>
    <use x="444.662109" xlink:href="#ArialMT-32"/>
    <use x="472.445312" xlink:href="#ArialMT-111"/>
    <use x="528.060547" xlink:href="#ArialMT-102"/>
    <use x="555.84375" xlink:href="#ArialMT-32"/>
    <use x="583.626953" xlink:href="#ArialMT-97"/>
    <use x="639.242188" xlink:href="#ArialMT-108"/>
    <use x="661.458984" xlink:href="#ArialMT-108"/>
    <use x="683.675781" xlink:href="#ArialMT-32"/>
    <use x="711.458984" xlink:href="#ArialMT-67"/>
    <use x="783.675781" xlink:href="#ArialMT-111"/>
    <use x="839.291016" xlink:href="#ArialMT-110"/>
    <use x="894.90625" xlink:href="#ArialMT-116"/>
    <use x="922.689453" xlink:href="#ArialMT-105"/>
    <use x="944.90625" xlink:href="#ArialMT-110"/>
    <use x="1000.521484" xlink:href="#ArialMT-117"/>
    <use x="1056.136719" xlink:href="#ArialMT-111"/>
    <use x="1111.751953" xlink:href="#ArialMT-117"/>
    <use x="1167.367188" xlink:href="#ArialMT-115"/>
    <use x="1217.367188" xlink:href="#ArialMT-32"/>
    <use x="1245.150391" xlink:href="#ArialMT-86"/>
    <use x="1311.740234" xlink:href="#ArialMT-97"/>
    <use x="1367.355469" xlink:href="#ArialMT-114"/>
    <use x="1400.65625" xlink:href="#ArialMT-105"/>
    <use x="1422.873047" xlink:href="#ArialMT-97"/>
    <use x="1478.488281" xlink:href="#ArialMT-98"/>
    <use x="1534.103516" xlink:href="#ArialMT-108"/>
    <use x="1556.320312" xlink:href="#ArialMT-101"/>
    <use x="1611.935547" xlink:href="#ArialMT-115"/>
   </g>
  </g>
 </g>
 <defs>
  <clipPath id="pdeaf2004f7">
   <rect height="221.76" width="837" x="135" y="34.56"/>
  </clipPath>
 </defs>
</svg>
