<?xml version="1.0" encoding="utf-8" standalone="no"?>
<!DOCTYPE svg PUBLIC "-//W3C//DTD SVG 1.1//EN"
  "http://www.w3.org/Graphics/SVG/1.1/DTD/svg11.dtd">
<!-- Created with matplotlib (https://matplotlib.org/) -->
<svg height="288pt" version="1.1" viewBox="0 0 1080 288" width="1080pt" xmlns="http://www.w3.org/2000/svg" xmlns:xlink="http://www.w3.org/1999/xlink">
 <defs>
  <style type="text/css">
*{stroke-linecap:butt;stroke-linejoin:round;}
  </style>
 </defs>
 <g id="figure_1">
  <g id="patch_1">
   <path d="M 0 288 
L 1080 288 
L 1080 0 
L 0 0 
z
" style="fill:#ffffff;"/>
  </g>
  <g id="axes_1">
   <g id="patch_2">
    <path d="M 135 256.32 
L 972 256.32 
L 972 34.56 
L 135 34.56 
z
" style="fill:#eaeaf2;"/>
   </g>
   <g id="matplotlib.axis_1">
    <g id="xtick_1">
     <g id="text_1">
      <!-- radius_mean -->
      <defs>
       <path d="M 6.5 0 
L 6.5 51.859375 
L 14.40625 51.859375 
L 14.40625 44 
Q 17.4375 49.515625 20 51.265625 
Q 22.5625 53.03125 25.640625 53.03125 
Q 30.078125 53.03125 34.671875 50.203125 
L 31.640625 42.046875 
Q 28.421875 43.953125 25.203125 43.953125 
Q 22.3125 43.953125 20.015625 42.21875 
Q 17.71875 40.484375 16.75 37.40625 
Q 15.28125 32.71875 15.28125 27.15625 
L 15.28125 0 
z
" id="ArialMT-114"/>
       <path d="M 40.4375 6.390625 
Q 35.546875 2.25 31.03125 0.53125 
Q 26.515625 -1.171875 21.34375 -1.171875 
Q 12.796875 -1.171875 8.203125 3 
Q 3.609375 7.171875 3.609375 13.671875 
Q 3.609375 17.484375 5.34375 20.625 
Q 7.078125 23.78125 9.890625 25.6875 
Q 12.703125 27.59375 16.21875 28.5625 
Q 18.796875 29.25 24.03125 29.890625 
Q 34.671875 31.15625 39.703125 32.90625 
Q 39.75 34.71875 39.75 35.203125 
Q 39.75 40.578125 37.25 42.78125 
Q 33.890625 45.75 27.25 45.75 
Q 21.046875 45.75 18.09375 43.578125 
Q 15.140625 41.40625 13.71875 35.890625 
L 5.125 37.0625 
Q 6.296875 42.578125 8.984375 45.96875 
Q 11.671875 49.359375 16.75 51.1875 
Q 21.828125 53.03125 28.515625 53.03125 
Q 35.15625 53.03125 39.296875 51.46875 
Q 43.453125 49.90625 45.40625 47.53125 
Q 47.359375 45.171875 48.140625 41.546875 
Q 48.578125 39.3125 48.578125 33.453125 
L 48.578125 21.734375 
Q 48.578125 9.46875 49.140625 6.21875 
Q 49.703125 2.984375 51.375 0 
L 42.1875 0 
Q 40.828125 2.734375 40.4375 6.390625 
z
M 39.703125 26.03125 
Q 34.90625 24.078125 25.34375 22.703125 
Q 19.921875 21.921875 17.671875 20.9375 
Q 15.4375 19.96875 14.203125 18.09375 
Q 12.984375 16.21875 12.984375 13.921875 
Q 12.984375 10.40625 15.640625 8.0625 
Q 18.3125 5.71875 23.4375 5.71875 
Q 28.515625 5.71875 32.46875 7.9375 
Q 36.421875 10.15625 38.28125 14.015625 
Q 39.703125 17 39.703125 22.796875 
z
" id="ArialMT-97"/>
       <path d="M 40.234375 0 
L 40.234375 6.546875 
Q 35.296875 -1.171875 25.734375 -1.171875 
Q 19.53125 -1.171875 14.328125 2.25 
Q 9.125 5.671875 6.265625 11.796875 
Q 3.421875 17.921875 3.421875 25.875 
Q 3.421875 33.640625 6 39.96875 
Q 8.59375 46.296875 13.765625 49.65625 
Q 18.953125 53.03125 25.34375 53.03125 
Q 30.03125 53.03125 33.6875 51.046875 
Q 37.359375 49.078125 39.65625 45.90625 
L 39.65625 71.578125 
L 48.390625 71.578125 
L 48.390625 0 
z
M 12.453125 25.875 
Q 12.453125 15.921875 16.640625 10.984375 
Q 20.84375 6.0625 26.5625 6.0625 
Q 32.328125 6.0625 36.34375 10.765625 
Q 40.375 15.484375 40.375 25.140625 
Q 40.375 35.796875 36.265625 40.765625 
Q 32.171875 45.75 26.171875 45.75 
Q 20.3125 45.75 16.375 40.96875 
Q 12.453125 36.1875 12.453125 25.875 
z
" id="ArialMT-100"/>
       <path d="M 6.640625 61.46875 
L 6.640625 71.578125 
L 15.4375 71.578125 
L 15.4375 61.46875 
z
M 6.640625 0 
L 6.640625 51.859375 
L 15.4375 51.859375 
L 15.4375 0 
z
" id="ArialMT-105"/>
       <path d="M 40.578125 0 
L 40.578125 7.625 
Q 34.515625 -1.171875 24.125 -1.171875 
Q 19.53125 -1.171875 15.546875 0.578125 
Q 11.578125 2.34375 9.640625 5 
Q 7.71875 7.671875 6.9375 11.53125 
Q 6.390625 14.109375 6.390625 19.734375 
L 6.390625 51.859375 
L 15.1875 51.859375 
L 15.1875 23.09375 
Q 15.1875 16.21875 15.71875 13.8125 
Q 16.546875 10.359375 19.234375 8.375 
Q 21.921875 6.390625 25.875 6.390625 
Q 29.828125 6.390625 33.296875 8.421875 
Q 36.765625 10.453125 38.203125 13.9375 
Q 39.65625 17.4375 39.65625 24.078125 
L 39.65625 51.859375 
L 48.4375 51.859375 
L 48.4375 0 
z
" id="ArialMT-117"/>
       <path d="M 3.078125 15.484375 
L 11.765625 16.84375 
Q 12.5 11.625 15.84375 8.84375 
Q 19.1875 6.0625 25.203125 6.0625 
Q 31.25 6.0625 34.171875 8.515625 
Q 37.109375 10.984375 37.109375 14.3125 
Q 37.109375 17.28125 34.515625 19 
Q 32.71875 20.171875 25.53125 21.96875 
Q 15.875 24.421875 12.140625 26.203125 
Q 8.40625 27.984375 6.46875 31.125 
Q 4.546875 34.28125 4.546875 38.09375 
Q 4.546875 41.546875 6.125 44.5 
Q 7.71875 47.46875 10.453125 49.421875 
Q 12.5 50.921875 16.03125 51.96875 
Q 19.578125 53.03125 23.640625 53.03125 
Q 29.734375 53.03125 34.34375 51.265625 
Q 38.96875 49.515625 41.15625 46.5 
Q 43.359375 43.5 44.1875 38.484375 
L 35.59375 37.3125 
Q 35.015625 41.3125 32.203125 43.546875 
Q 29.390625 45.796875 24.265625 45.796875 
Q 18.21875 45.796875 15.625 43.796875 
Q 13.03125 41.796875 13.03125 39.109375 
Q 13.03125 37.40625 14.109375 36.03125 
Q 15.1875 34.625 17.484375 33.6875 
Q 18.796875 33.203125 25.25 31.453125 
Q 34.578125 28.953125 38.25 27.359375 
Q 41.9375 25.78125 44.03125 22.75 
Q 46.140625 19.734375 46.140625 15.234375 
Q 46.140625 10.84375 43.578125 6.953125 
Q 41.015625 3.078125 36.171875 0.953125 
Q 31.34375 -1.171875 25.25 -1.171875 
Q 15.140625 -1.171875 9.84375 3.03125 
Q 4.546875 7.234375 3.078125 15.484375 
z
" id="ArialMT-115"/>
       <path d="M -1.515625 -19.875 
L -1.515625 -13.53125 
L 56.734375 -13.53125 
L 56.734375 -19.875 
z
" id="ArialMT-95"/>
       <path d="M 6.59375 0 
L 6.59375 51.859375 
L 14.453125 51.859375 
L 14.453125 44.578125 
Q 16.890625 48.390625 20.9375 50.703125 
Q 25 53.03125 30.171875 53.03125 
Q 35.9375 53.03125 39.625 50.640625 
Q 43.3125 48.25 44.828125 43.953125 
Q 50.984375 53.03125 60.84375 53.03125 
Q 68.5625 53.03125 72.703125 48.75 
Q 76.859375 44.484375 76.859375 35.59375 
L 76.859375 0 
L 68.109375 0 
L 68.109375 32.671875 
Q 68.109375 37.9375 67.25 40.25 
Q 66.40625 42.578125 64.15625 43.984375 
Q 61.921875 45.40625 58.890625 45.40625 
Q 53.421875 45.40625 49.796875 41.765625 
Q 46.1875 38.140625 46.1875 30.125 
L 46.1875 0 
L 37.40625 0 
L 37.40625 33.6875 
Q 37.40625 39.546875 35.25 42.46875 
Q 33.109375 45.40625 28.21875 45.40625 
Q 24.515625 45.40625 21.359375 43.453125 
Q 18.21875 41.5 16.796875 37.734375 
Q 15.375 33.984375 15.375 26.90625 
L 15.375 0 
z
" id="ArialMT-109"/>
       <path d="M 42.09375 16.703125 
L 51.171875 15.578125 
Q 49.03125 7.625 43.21875 3.21875 
Q 37.40625 -1.171875 28.375 -1.171875 
Q 17 -1.171875 10.328125 5.828125 
Q 3.65625 12.84375 3.65625 25.484375 
Q 3.65625 38.578125 10.390625 45.796875 
Q 17.140625 53.03125 27.875 53.03125 
Q 38.28125 53.03125 44.875 45.953125 
Q 51.46875 38.875 51.46875 26.03125 
Q 51.46875 25.25 51.421875 23.6875 
L 12.75 23.6875 
Q 13.234375 15.140625 17.578125 10.59375 
Q 21.921875 6.0625 28.421875 6.0625 
Q 33.25 6.0625 36.671875 8.59375 
Q 40.09375 11.140625 42.09375 16.703125 
z
M 13.234375 30.90625 
L 42.1875 30.90625 
Q 41.609375 37.453125 38.875 40.71875 
Q 34.671875 45.796875 27.984375 45.796875 
Q 21.921875 45.796875 17.796875 41.75 
Q 13.671875 37.703125 13.234375 30.90625 
z
" id="ArialMT-101"/>
       <path d="M 6.59375 0 
L 6.59375 51.859375 
L 14.5 51.859375 
L 14.5 44.484375 
Q 20.21875 53.03125 31 53.03125 
Q 35.6875 53.03125 39.625 51.34375 
Q 43.5625 49.65625 45.515625 46.921875 
Q 47.46875 44.1875 48.25 40.4375 
Q 48.734375 37.984375 48.734375 31.890625 
L 48.734375 0 
L 39.9375 0 
L 39.9375 31.546875 
Q 39.9375 36.921875 38.90625 39.578125 
Q 37.890625 42.234375 35.28125 43.8125 
Q 32.671875 45.40625 29.15625 45.40625 
Q 23.53125 45.40625 19.453125 41.84375 
Q 15.375 38.28125 15.375 28.328125 
L 15.375 0 
z
" id="ArialMT-110"/>
      </defs>
      <g style="fill:#262626;" transform="translate(158.408594 270.477813)scale(0.1 -0.1)">
       <use xlink:href="#ArialMT-114"/>
       <use x="33.300781" xlink:href="#ArialMT-97"/>
       <use x="88.916016" xlink:href="#ArialMT-100"/>
       <use x="144.53125" xlink:href="#ArialMT-105"/>
       <use x="166.748047" xlink:href="#ArialMT-117"/>
       <use x="222.363281" xlink:href="#ArialMT-115"/>
       <use x="272.363281" xlink:href="#ArialMT-95"/>
       <use x="327.978516" xlink:href="#ArialMT-109"/>
       <use x="411.279297" xlink:href="#ArialMT-101"/>
       <use x="466.894531" xlink:href="#ArialMT-97"/>
       <use x="522.509766" xlink:href="#ArialMT-110"/>
      </g>
     </g>
    </g>
    <g id="xtick_2">
     <g id="text_2">
      <!-- texture_mean -->
      <defs>
       <path d="M 25.78125 7.859375 
L 27.046875 0.09375 
Q 23.34375 -0.6875 20.40625 -0.6875 
Q 15.625 -0.6875 12.984375 0.828125 
Q 10.359375 2.34375 9.28125 4.8125 
Q 8.203125 7.28125 8.203125 15.1875 
L 8.203125 45.015625 
L 1.765625 45.015625 
L 1.765625 51.859375 
L 8.203125 51.859375 
L 8.203125 64.703125 
L 16.9375 69.96875 
L 16.9375 51.859375 
L 25.78125 51.859375 
L 25.78125 45.015625 
L 16.9375 45.015625 
L 16.9375 14.703125 
Q 16.9375 10.9375 17.40625 9.859375 
Q 17.875 8.796875 18.921875 8.15625 
Q 19.96875 7.515625 21.921875 7.515625 
Q 23.390625 7.515625 25.78125 7.859375 
z
" id="ArialMT-116"/>
       <path d="M 0.734375 0 
L 19.671875 26.953125 
L 2.15625 51.859375 
L 13.140625 51.859375 
L 21.09375 39.703125 
Q 23.34375 36.234375 24.703125 33.890625 
Q 26.859375 37.109375 28.65625 39.59375 
L 37.40625 51.859375 
L 47.90625 51.859375 
L 29.984375 27.4375 
L 49.265625 0 
L 38.484375 0 
L 27.828125 16.109375 
L 25 20.453125 
L 11.375 0 
z
" id="ArialMT-120"/>
      </defs>
      <g style="fill:#262626;" transform="translate(261.366406 270.477813)scale(0.1 -0.1)">
       <use xlink:href="#ArialMT-116"/>
       <use x="27.783203" xlink:href="#ArialMT-101"/>
       <use x="83.398438" xlink:href="#ArialMT-120"/>
       <use x="133.398438" xlink:href="#ArialMT-116"/>
       <use x="161.181641" xlink:href="#ArialMT-117"/>
       <use x="216.796875" xlink:href="#ArialMT-114"/>
       <use x="250.097656" xlink:href="#ArialMT-101"/>
       <use x="305.712891" xlink:href="#ArialMT-95"/>
       <use x="361.328125" xlink:href="#ArialMT-109"/>
       <use x="444.628906" xlink:href="#ArialMT-101"/>
       <use x="500.244141" xlink:href="#ArialMT-97"/>
       <use x="555.859375" xlink:href="#ArialMT-110"/>
      </g>
     </g>
    </g>
    <g id="xtick_3">
     <g id="text_3">
      <!-- perimeter_mean -->
      <defs>
       <path d="M 6.59375 -19.875 
L 6.59375 51.859375 
L 14.59375 51.859375 
L 14.59375 45.125 
Q 17.4375 49.078125 21 51.046875 
Q 24.5625 53.03125 29.640625 53.03125 
Q 36.28125 53.03125 41.359375 49.609375 
Q 46.4375 46.1875 49.015625 39.953125 
Q 51.609375 33.734375 51.609375 26.3125 
Q 51.609375 18.359375 48.75 11.984375 
Q 45.90625 5.609375 40.453125 2.21875 
Q 35.015625 -1.171875 29 -1.171875 
Q 24.609375 -1.171875 21.109375 0.6875 
Q 17.625 2.546875 15.375 5.375 
L 15.375 -19.875 
z
M 14.546875 25.640625 
Q 14.546875 15.625 18.59375 10.84375 
Q 22.65625 6.0625 28.421875 6.0625 
Q 34.28125 6.0625 38.453125 11.015625 
Q 42.625 15.96875 42.625 26.375 
Q 42.625 36.28125 38.546875 41.203125 
Q 34.46875 46.140625 28.8125 46.140625 
Q 23.1875 46.140625 18.859375 40.890625 
Q 14.546875 35.640625 14.546875 25.640625 
z
" id="ArialMT-112"/>
      </defs>
      <g style="fill:#262626;" transform="translate(360.159375 270.477813)scale(0.1 -0.1)">
       <use xlink:href="#ArialMT-112"/>
       <use x="55.615234" xlink:href="#ArialMT-101"/>
       <use x="111.230469" xlink:href="#ArialMT-114"/>
       <use x="144.53125" xlink:href="#ArialMT-105"/>
       <use x="166.748047" xlink:href="#ArialMT-109"/>
       <use x="250.048828" xlink:href="#ArialMT-101"/>
       <use x="305.664062" xlink:href="#ArialMT-116"/>
       <use x="333.447266" xlink:href="#ArialMT-101"/>
       <use x="389.0625" xlink:href="#ArialMT-114"/>
       <use x="422.363281" xlink:href="#ArialMT-95"/>
       <use x="477.978516" xlink:href="#ArialMT-109"/>
       <use x="561.279297" xlink:href="#ArialMT-101"/>
       <use x="616.894531" xlink:href="#ArialMT-97"/>
       <use x="672.509766" xlink:href="#ArialMT-110"/>
      </g>
     </g>
    </g>
    <g id="xtick_4">
     <g id="text_4">
      <!-- area_mean -->
      <g style="fill:#262626;" transform="translate(475.894531 270.477813)scale(0.1 -0.1)">
       <use xlink:href="#ArialMT-97"/>
       <use x="55.615234" xlink:href="#ArialMT-114"/>
       <use x="88.916016" xlink:href="#ArialMT-101"/>
       <use x="144.53125" xlink:href="#ArialMT-97"/>
       <use x="200.146484" xlink:href="#ArialMT-95"/>
       <use x="255.761719" xlink:href="#ArialMT-109"/>
       <use x="339.0625" xlink:href="#ArialMT-101"/>
       <use x="394.677734" xlink:href="#ArialMT-97"/>
       <use x="450.292969" xlink:href="#ArialMT-110"/>
      </g>
     </g>
    </g>
    <g id="xtick_5">
     <g id="text_5">
      <!-- smoothness_mean -->
      <defs>
       <path d="M 3.328125 25.921875 
Q 3.328125 40.328125 11.328125 47.265625 
Q 18.015625 53.03125 27.640625 53.03125 
Q 38.328125 53.03125 45.109375 46.015625 
Q 51.90625 39.015625 51.90625 26.65625 
Q 51.90625 16.65625 48.90625 10.90625 
Q 45.90625 5.171875 40.15625 2 
Q 34.421875 -1.171875 27.640625 -1.171875 
Q 16.75 -1.171875 10.03125 5.8125 
Q 3.328125 12.796875 3.328125 25.921875 
z
M 12.359375 25.921875 
Q 12.359375 15.96875 16.703125 11.015625 
Q 21.046875 6.0625 27.640625 6.0625 
Q 34.1875 6.0625 38.53125 11.03125 
Q 42.875 16.015625 42.875 26.21875 
Q 42.875 35.84375 38.5 40.796875 
Q 34.125 45.75 27.640625 45.75 
Q 21.046875 45.75 16.703125 40.8125 
Q 12.359375 35.890625 12.359375 25.921875 
z
" id="ArialMT-111"/>
       <path d="M 6.59375 0 
L 6.59375 71.578125 
L 15.375 71.578125 
L 15.375 45.90625 
Q 21.53125 53.03125 30.90625 53.03125 
Q 36.671875 53.03125 40.921875 50.75 
Q 45.171875 48.484375 47 44.484375 
Q 48.828125 40.484375 48.828125 32.859375 
L 48.828125 0 
L 40.046875 0 
L 40.046875 32.859375 
Q 40.046875 39.453125 37.1875 42.453125 
Q 34.328125 45.453125 29.109375 45.453125 
Q 25.203125 45.453125 21.75 43.421875 
Q 18.3125 41.40625 16.84375 37.9375 
Q 15.375 34.46875 15.375 28.375 
L 15.375 0 
z
" id="ArialMT-104"/>
      </defs>
      <g style="fill:#262626;" transform="translate(563.569531 270.477813)scale(0.1 -0.1)">
       <use xlink:href="#ArialMT-115"/>
       <use x="50" xlink:href="#ArialMT-109"/>
       <use x="133.300781" xlink:href="#ArialMT-111"/>
       <use x="188.916016" xlink:href="#ArialMT-111"/>
       <use x="244.53125" xlink:href="#ArialMT-116"/>
       <use x="272.314453" xlink:href="#ArialMT-104"/>
       <use x="327.929688" xlink:href="#ArialMT-110"/>
       <use x="383.544922" xlink:href="#ArialMT-101"/>
       <use x="439.160156" xlink:href="#ArialMT-115"/>
       <use x="489.160156" xlink:href="#ArialMT-115"/>
       <use x="539.160156" xlink:href="#ArialMT-95"/>
       <use x="594.775391" xlink:href="#ArialMT-109"/>
       <use x="678.076172" xlink:href="#ArialMT-101"/>
       <use x="733.691406" xlink:href="#ArialMT-97"/>
       <use x="789.306641" xlink:href="#ArialMT-110"/>
      </g>
     </g>
    </g>
    <g id="xtick_6">
     <g id="text_6">
      <!-- compactness_mean -->
      <defs>
       <path d="M 40.4375 19 
L 49.078125 17.875 
Q 47.65625 8.9375 41.8125 3.875 
Q 35.984375 -1.171875 27.484375 -1.171875 
Q 16.84375 -1.171875 10.375 5.78125 
Q 3.90625 12.75 3.90625 25.734375 
Q 3.90625 34.125 6.6875 40.421875 
Q 9.46875 46.734375 15.15625 49.875 
Q 20.84375 53.03125 27.546875 53.03125 
Q 35.984375 53.03125 41.359375 48.75 
Q 46.734375 44.484375 48.25 36.625 
L 39.703125 35.296875 
Q 38.484375 40.53125 35.375 43.15625 
Q 32.28125 45.796875 27.875 45.796875 
Q 21.234375 45.796875 17.078125 41.03125 
Q 12.9375 36.28125 12.9375 25.984375 
Q 12.9375 15.53125 16.9375 10.796875 
Q 20.953125 6.0625 27.390625 6.0625 
Q 32.5625 6.0625 36.03125 9.234375 
Q 39.5 12.40625 40.4375 19 
z
" id="ArialMT-99"/>
      </defs>
      <g style="fill:#262626;" transform="translate(665.694531 270.477813)scale(0.1 -0.1)">
       <use xlink:href="#ArialMT-99"/>
       <use x="50" xlink:href="#ArialMT-111"/>
       <use x="105.615234" xlink:href="#ArialMT-109"/>
       <use x="188.916016" xlink:href="#ArialMT-112"/>
       <use x="244.53125" xlink:href="#ArialMT-97"/>
       <use x="300.146484" xlink:href="#ArialMT-99"/>
       <use x="350.146484" xlink:href="#ArialMT-116"/>
       <use x="377.929688" xlink:href="#ArialMT-110"/>
       <use x="433.544922" xlink:href="#ArialMT-101"/>
       <use x="489.160156" xlink:href="#ArialMT-115"/>
       <use x="539.160156" xlink:href="#ArialMT-115"/>
       <use x="589.160156" xlink:href="#ArialMT-95"/>
       <use x="644.775391" xlink:href="#ArialMT-109"/>
       <use x="728.076172" xlink:href="#ArialMT-101"/>
       <use x="783.691406" xlink:href="#ArialMT-97"/>
       <use x="839.306641" xlink:href="#ArialMT-110"/>
      </g>
     </g>
    </g>
    <g id="xtick_7">
     <g id="text_7">
      <!-- concavity_mean -->
      <defs>
       <path d="M 21 0 
L 1.265625 51.859375 
L 10.546875 51.859375 
L 21.6875 20.796875 
Q 23.484375 15.765625 25 10.359375 
Q 26.171875 14.453125 28.265625 20.21875 
L 39.796875 51.859375 
L 48.828125 51.859375 
L 29.203125 0 
z
" id="ArialMT-118"/>
       <path d="M 6.203125 -19.96875 
L 5.21875 -11.71875 
Q 8.109375 -12.5 10.25 -12.5 
Q 13.1875 -12.5 14.9375 -11.515625 
Q 16.703125 -10.546875 17.828125 -8.796875 
Q 18.65625 -7.46875 20.515625 -2.25 
Q 20.75 -1.515625 21.296875 -0.09375 
L 1.609375 51.859375 
L 11.078125 51.859375 
L 21.875 21.828125 
Q 23.96875 16.109375 25.640625 9.8125 
Q 27.15625 15.875 29.25 21.625 
L 40.328125 51.859375 
L 49.125 51.859375 
L 29.390625 -0.875 
Q 26.21875 -9.421875 24.46875 -12.640625 
Q 22.125 -17 19.09375 -19.015625 
Q 16.0625 -21.046875 11.859375 -21.046875 
Q 9.328125 -21.046875 6.203125 -19.96875 
z
" id="ArialMT-121"/>
      </defs>
      <g style="fill:#262626;" transform="translate(778.934375 270.477813)scale(0.1 -0.1)">
       <use xlink:href="#ArialMT-99"/>
       <use x="50" xlink:href="#ArialMT-111"/>
       <use x="105.615234" xlink:href="#ArialMT-110"/>
       <use x="161.230469" xlink:href="#ArialMT-99"/>
       <use x="211.230469" xlink:href="#ArialMT-97"/>
       <use x="266.845703" xlink:href="#ArialMT-118"/>
       <use x="316.845703" xlink:href="#ArialMT-105"/>
       <use x="339.0625" xlink:href="#ArialMT-116"/>
       <use x="366.845703" xlink:href="#ArialMT-121"/>
       <use x="416.845703" xlink:href="#ArialMT-95"/>
       <use x="472.460938" xlink:href="#ArialMT-109"/>
       <use x="555.761719" xlink:href="#ArialMT-101"/>
       <use x="611.376953" xlink:href="#ArialMT-97"/>
       <use x="666.992188" xlink:href="#ArialMT-110"/>
      </g>
     </g>
    </g>
    <g id="xtick_8">
     <g id="text_8">
      <!-- concave points_mean -->
      <defs>
       <path id="ArialMT-32"/>
      </defs>
      <g style="fill:#262626;" transform="translate(871.048437 270.477813)scale(0.1 -0.1)">
       <use xlink:href="#ArialMT-99"/>
       <use x="50" xlink:href="#ArialMT-111"/>
       <use x="105.615234" xlink:href="#ArialMT-110"/>
       <use x="161.230469" xlink:href="#ArialMT-99"/>
       <use x="211.230469" xlink:href="#ArialMT-97"/>
       <use x="266.845703" xlink:href="#ArialMT-118"/>
       <use x="316.845703" xlink:href="#ArialMT-101"/>
       <use x="372.460938" xlink:href="#ArialMT-32"/>
       <use x="400.244141" xlink:href="#ArialMT-112"/>
       <use x="455.859375" xlink:href="#ArialMT-111"/>
       <use x="511.474609" xlink:href="#ArialMT-105"/>
       <use x="533.691406" xlink:href="#ArialMT-110"/>
       <use x="589.306641" xlink:href="#ArialMT-116"/>
       <use x="617.089844" xlink:href="#ArialMT-115"/>
       <use x="667.089844" xlink:href="#ArialMT-95"/>
       <use x="722.705078" xlink:href="#ArialMT-109"/>
       <use x="806.005859" xlink:href="#ArialMT-101"/>
       <use x="861.621094" xlink:href="#ArialMT-97"/>
       <use x="917.236328" xlink:href="#ArialMT-110"/>
      </g>
     </g>
    </g>
   </g>
   <g id="matplotlib.axis_2">
    <g id="ytick_1">
     <g id="line2d_1">
      <path clip-path="url(#p3221c73b1a)" d="M 135 253.221597 
L 972 253.221597 
" style="fill:none;stroke:#ffffff;stroke-linecap:round;"/>
     </g>
     <g id="text_9">
      <!-- −4 -->
      <defs>
       <path d="M 52.828125 31.203125 
L 5.5625 31.203125 
L 5.5625 39.40625 
L 52.828125 39.40625 
z
" id="ArialMT-8722"/>
       <path d="M 32.328125 0 
L 32.328125 17.140625 
L 1.265625 17.140625 
L 1.265625 25.203125 
L 33.9375 71.578125 
L 41.109375 71.578125 
L 41.109375 25.203125 
L 50.78125 25.203125 
L 50.78125 17.140625 
L 41.109375 17.140625 
L 41.109375 0 
z
M 32.328125 25.203125 
L 32.328125 57.46875 
L 9.90625 25.203125 
z
" id="ArialMT-52"/>
      </defs>
      <g style="fill:#262626;" transform="translate(116.598438 256.800503)scale(0.1 -0.1)">
       <use xlink:href="#ArialMT-8722"/>
       <use x="58.398438" xlink:href="#ArialMT-52"/>
      </g>
     </g>
    </g>
    <g id="ytick_2">
     <g id="line2d_2">
      <path clip-path="url(#p3221c73b1a)" d="M 135 210.68979 
L 972 210.68979 
" style="fill:none;stroke:#ffffff;stroke-linecap:round;"/>
     </g>
     <g id="text_10">
      <!-- −2 -->
      <defs>
       <path d="M 50.34375 8.453125 
L 50.34375 0 
L 3.03125 0 
Q 2.9375 3.171875 4.046875 6.109375 
Q 5.859375 10.9375 9.828125 15.625 
Q 13.8125 20.3125 21.34375 26.46875 
Q 33.015625 36.03125 37.109375 41.625 
Q 41.21875 47.21875 41.21875 52.203125 
Q 41.21875 57.421875 37.46875 61 
Q 33.734375 64.59375 27.734375 64.59375 
Q 21.390625 64.59375 17.578125 60.78125 
Q 13.765625 56.984375 13.71875 50.25 
L 4.6875 51.171875 
Q 5.609375 61.28125 11.65625 66.578125 
Q 17.71875 71.875 27.9375 71.875 
Q 38.234375 71.875 44.234375 66.15625 
Q 50.25 60.453125 50.25 52 
Q 50.25 47.703125 48.484375 43.546875 
Q 46.734375 39.40625 42.65625 34.8125 
Q 38.578125 30.21875 29.109375 22.21875 
Q 21.1875 15.578125 18.9375 13.203125 
Q 16.703125 10.84375 15.234375 8.453125 
z
" id="ArialMT-50"/>
      </defs>
      <g style="fill:#262626;" transform="translate(116.598438 214.268696)scale(0.1 -0.1)">
       <use xlink:href="#ArialMT-8722"/>
       <use x="58.398438" xlink:href="#ArialMT-50"/>
      </g>
     </g>
    </g>
    <g id="ytick_3">
     <g id="line2d_3">
      <path clip-path="url(#p3221c73b1a)" d="M 135 168.157983 
L 972 168.157983 
" style="fill:none;stroke:#ffffff;stroke-linecap:round;"/>
     </g>
     <g id="text_11">
      <!-- 0 -->
      <defs>
       <path d="M 4.15625 35.296875 
Q 4.15625 48 6.765625 55.734375 
Q 9.375 63.484375 14.515625 67.671875 
Q 19.671875 71.875 27.484375 71.875 
Q 33.25 71.875 37.59375 69.546875 
Q 41.9375 67.234375 44.765625 62.859375 
Q 47.609375 58.5 49.21875 52.21875 
Q 50.828125 45.953125 50.828125 35.296875 
Q 50.828125 22.703125 48.234375 14.96875 
Q 45.65625 7.234375 40.5 3 
Q 35.359375 -1.21875 27.484375 -1.21875 
Q 17.140625 -1.21875 11.234375 6.203125 
Q 4.15625 15.140625 4.15625 35.296875 
z
M 13.1875 35.296875 
Q 13.1875 17.671875 17.3125 11.828125 
Q 21.4375 6 27.484375 6 
Q 33.546875 6 37.671875 11.859375 
Q 41.796875 17.71875 41.796875 35.296875 
Q 41.796875 52.984375 37.671875 58.78125 
Q 33.546875 64.59375 27.390625 64.59375 
Q 21.34375 64.59375 17.71875 59.46875 
Q 13.1875 52.9375 13.1875 35.296875 
z
" id="ArialMT-48"/>
      </defs>
      <g style="fill:#262626;" transform="translate(122.439063 171.736889)scale(0.1 -0.1)">
       <use xlink:href="#ArialMT-48"/>
      </g>
     </g>
    </g>
    <g id="ytick_4">
     <g id="line2d_4">
      <path clip-path="url(#p3221c73b1a)" d="M 135 125.626176 
L 972 125.626176 
" style="fill:none;stroke:#ffffff;stroke-linecap:round;"/>
     </g>
     <g id="text_12">
      <!-- 2 -->
      <g style="fill:#262626;" transform="translate(122.439063 129.205082)scale(0.1 -0.1)">
       <use xlink:href="#ArialMT-50"/>
      </g>
     </g>
    </g>
    <g id="ytick_5">
     <g id="line2d_5">
      <path clip-path="url(#p3221c73b1a)" d="M 135 83.094369 
L 972 83.094369 
" style="fill:none;stroke:#ffffff;stroke-linecap:round;"/>
     </g>
     <g id="text_13">
      <!-- 4 -->
      <g style="fill:#262626;" transform="translate(122.439063 86.673275)scale(0.1 -0.1)">
       <use xlink:href="#ArialMT-52"/>
      </g>
     </g>
    </g>
    <g id="ytick_6">
     <g id="line2d_6">
      <path clip-path="url(#p3221c73b1a)" d="M 135 40.562562 
L 972 40.562562 
" style="fill:none;stroke:#ffffff;stroke-linecap:round;"/>
     </g>
     <g id="text_14">
      <!-- 6 -->
      <defs>
       <path d="M 49.75 54.046875 
L 41.015625 53.375 
Q 39.84375 58.546875 37.703125 60.890625 
Q 34.125 64.65625 28.90625 64.65625 
Q 24.703125 64.65625 21.53125 62.3125 
Q 17.390625 59.28125 14.984375 53.46875 
Q 12.59375 47.65625 12.5 36.921875 
Q 15.671875 41.75 20.265625 44.09375 
Q 24.859375 46.4375 29.890625 46.4375 
Q 38.671875 46.4375 44.84375 39.96875 
Q 51.03125 33.5 51.03125 23.25 
Q 51.03125 16.5 48.125 10.71875 
Q 45.21875 4.9375 40.140625 1.859375 
Q 35.0625 -1.21875 28.609375 -1.21875 
Q 17.625 -1.21875 10.6875 6.859375 
Q 3.765625 14.9375 3.765625 33.5 
Q 3.765625 54.25 11.421875 63.671875 
Q 18.109375 71.875 29.4375 71.875 
Q 37.890625 71.875 43.28125 67.140625 
Q 48.6875 62.40625 49.75 54.046875 
z
M 13.875 23.1875 
Q 13.875 18.65625 15.796875 14.5 
Q 17.71875 10.359375 21.1875 8.171875 
Q 24.65625 6 28.46875 6 
Q 34.03125 6 38.03125 10.484375 
Q 42.046875 14.984375 42.046875 22.703125 
Q 42.046875 30.125 38.078125 34.390625 
Q 34.125 38.671875 28.125 38.671875 
Q 22.171875 38.671875 18.015625 34.390625 
Q 13.875 30.125 13.875 23.1875 
z
" id="ArialMT-54"/>
      </defs>
      <g style="fill:#262626;" transform="translate(122.439063 44.141468)scale(0.1 -0.1)">
       <use xlink:href="#ArialMT-54"/>
      </g>
     </g>
    </g>
   </g>
   <g id="PolyCollection_1">
    <defs>
     <path d="M 187.359934 -64.758753 
L 187.265066 -64.758753 
L 187.227472 -66.288258 
L 187.1668 -67.817762 
L 187.07304 -69.347267 
L 186.933691 -70.876771 
L 186.733607 -72.406276 
L 186.454902 -73.93578 
L 186.077005 -75.465285 
L 185.577162 -76.994789 
L 184.93172 -78.524294 
L 184.118476 -80.053798 
L 183.119954 -81.583303 
L 181.926902 -83.112807 
L 180.540694 -84.642311 
L 178.973062 -86.171816 
L 177.242148 -87.70132 
L 175.365206 -89.230825 
L 173.350295 -90.760329 
L 171.190898 -92.289834 
L 168.867608 -93.819338 
L 166.35893 -95.348843 
L 163.659234 -96.878347 
L 160.797698 -98.407852 
L 157.850021 -99.937356 
L 154.936547 -101.466861 
L 152.205792 -102.996365 
L 149.80867 -104.52587 
L 147.872519 -106.055374 
L 146.483442 -107.584879 
L 145.680846 -109.114383 
L 145.4625 -110.643888 
L 145.794879 -112.173392 
L 146.623624 -113.702897 
L 147.881593 -115.232401 
L 149.49483 -116.761905 
L 151.387858 -118.29141 
L 153.488703 -119.820914 
L 155.732445 -121.350419 
L 158.061599 -122.879923 
L 160.422893 -124.409428 
L 162.762253 -125.938932 
L 165.021233 -127.468437 
L 167.13765 -128.997941 
L 169.051045 -130.527446 
L 170.711145 -132.05695 
L 172.086042 -133.586455 
L 173.167064 -135.115959 
L 173.968698 -136.645464 
L 174.523795 -138.174968 
L 174.875832 -139.704473 
L 175.070808 -141.233977 
L 175.151296 -142.763482 
L 175.15422 -144.292986 
L 175.112392 -145.822491 
L 175.058315 -147.351995 
L 175.027824 -148.881499 
L 175.061311 -150.411004 
L 175.201357 -151.940508 
L 175.487059 -153.470013 
L 175.946642 -154.999517 
L 176.590554 -156.529022 
L 177.407191 -158.058526 
L 178.362705 -159.588031 
L 179.405269 -161.117535 
L 180.472959 -162.64704 
L 181.503437 -164.176544 
L 182.443279 -165.706049 
L 183.255023 -167.235553 
L 183.920799 -168.765058 
L 184.442175 -170.294562 
L 184.836579 -171.824067 
L 185.131269 -173.353571 
L 185.356295 -174.883076 
L 185.538229 -176.41258 
L 185.696205 -177.942085 
L 185.840969 -179.471589 
L 185.976535 -181.001093 
L 186.103093 -182.530598 
L 186.219629 -184.060102 
L 186.325253 -185.589607 
L 186.419182 -187.119111 
L 186.50008 -188.648616 
L 186.565733 -190.17812 
L 186.613649 -191.707625 
L 186.642538 -193.237129 
L 186.653971 -194.766634 
L 186.653303 -196.296138 
L 186.649189 -197.825643 
L 186.651701 -199.355147 
L 186.669666 -200.884652 
L 186.708269 -202.414156 
L 186.767778 -203.943661 
L 186.843793 -205.473165 
L 186.928778 -207.00267 
L 187.014226 -208.532174 
L 187.092686 -210.061679 
L 187.159096 -211.591183 
L 187.21122 -213.120687 
L 187.249302 -214.650192 
L 187.275262 -216.179696 
L 187.349738 -216.179696 
L 187.349738 -216.179696 
L 187.375698 -214.650192 
L 187.41378 -213.120687 
L 187.465904 -211.591183 
L 187.532314 -210.061679 
L 187.610774 -208.532174 
L 187.696222 -207.00267 
L 187.781207 -205.473165 
L 187.857222 -203.943661 
L 187.916731 -202.414156 
L 187.955334 -200.884652 
L 187.973299 -199.355147 
L 187.975811 -197.825643 
L 187.971697 -196.296138 
L 187.971029 -194.766634 
L 187.982462 -193.237129 
L 188.011351 -191.707625 
L 188.059267 -190.17812 
L 188.12492 -188.648616 
L 188.205818 -187.119111 
L 188.299747 -185.589607 
L 188.405371 -184.060102 
L 188.521907 -182.530598 
L 188.648465 -181.001093 
L 188.784031 -179.471589 
L 188.928795 -177.942085 
L 189.086771 -176.41258 
L 189.268705 -174.883076 
L 189.493731 -173.353571 
L 189.788421 -171.824067 
L 190.182825 -170.294562 
L 190.704201 -168.765058 
L 191.369977 -167.235553 
L 192.181721 -165.706049 
L 193.121563 -164.176544 
L 194.152041 -162.64704 
L 195.219731 -161.117535 
L 196.262295 -159.588031 
L 197.217809 -158.058526 
L 198.034446 -156.529022 
L 198.678358 -154.999517 
L 199.137941 -153.470013 
L 199.423643 -151.940508 
L 199.563689 -150.411004 
L 199.597176 -148.881499 
L 199.566685 -147.351995 
L 199.512608 -145.822491 
L 199.47078 -144.292986 
L 199.473704 -142.763482 
L 199.554192 -141.233977 
L 199.749168 -139.704473 
L 200.101205 -138.174968 
L 200.656302 -136.645464 
L 201.457936 -135.115959 
L 202.538958 -133.586455 
L 203.913855 -132.05695 
L 205.573955 -130.527446 
L 207.48735 -128.997941 
L 209.603767 -127.468437 
L 211.862747 -125.938932 
L 214.202107 -124.409428 
L 216.563401 -122.879923 
L 218.892555 -121.350419 
L 221.136297 -119.820914 
L 223.237142 -118.29141 
L 225.13017 -116.761905 
L 226.743407 -115.232401 
L 228.001376 -113.702897 
L 228.830121 -112.173392 
L 229.1625 -110.643888 
L 228.944154 -109.114383 
L 228.141558 -107.584879 
L 226.752481 -106.055374 
L 224.81633 -104.52587 
L 222.419208 -102.996365 
L 219.688453 -101.466861 
L 216.774979 -99.937356 
L 213.827302 -98.407852 
L 210.965766 -96.878347 
L 208.26607 -95.348843 
L 205.757392 -93.819338 
L 203.434102 -92.289834 
L 201.274705 -90.760329 
L 199.259794 -89.230825 
L 197.382852 -87.70132 
L 195.651938 -86.171816 
L 194.084306 -84.642311 
L 192.698098 -83.112807 
L 191.505046 -81.583303 
L 190.506524 -80.053798 
L 189.69328 -78.524294 
L 189.047838 -76.994789 
L 188.547995 -75.465285 
L 188.170098 -73.93578 
L 187.891393 -72.406276 
L 187.691309 -70.876771 
L 187.55196 -69.347267 
L 187.4582 -67.817762 
L 187.397528 -66.288258 
L 187.359934 -64.758753 
z
" id="mf614f31faa" style="stroke:#464646;stroke-width:3;"/>
    </defs>
    <g clip-path="url(#p3221c73b1a)">
     <use style="fill:#ea96a3;stroke:#464646;stroke-width:3;" x="0" xlink:href="#mf614f31faa" y="288"/>
    </g>
   </g>
   <g id="PolyCollection_2">
    <defs>
     <path d="M 292.001733 -60.517806 
L 291.873267 -60.517806 
L 291.813918 -62.236218 
L 291.714006 -63.95463 
L 291.556572 -65.673042 
L 291.323664 -67.391453 
L 290.998634 -69.109865 
L 290.567587 -70.828277 
L 290.018394 -72.546689 
L 289.33658 -74.265101 
L 288.499655 -75.983512 
L 287.473889 -77.701924 
L 286.218155 -79.420336 
L 284.696487 -81.138748 
L 282.895255 -82.85716 
L 280.83595 -84.575571 
L 278.574923 -86.293983 
L 276.188194 -88.012395 
L 273.748906 -89.730807 
L 271.310101 -91.449219 
L 268.902042 -93.16763 
L 266.543233 -94.886042 
L 264.255104 -96.604454 
L 262.068833 -98.322866 
L 260.019883 -100.041278 
L 258.135635 -101.759689 
L 256.426598 -103.478101 
L 254.888742 -105.196513 
L 253.516415 -106.914925 
L 252.318072 -108.633337 
L 251.325225 -110.351748 
L 250.588809 -112.07016 
L 250.163662 -113.788572 
L 250.0875 -115.506984 
L 250.363342 -117.225396 
L 250.953319 -118.943807 
L 251.787665 -120.662219 
L 252.787003 -122.380631 
L 253.890569 -124.099043 
L 255.079444 -125.817455 
L 256.38376 -127.535866 
L 257.867417 -129.254278 
L 259.593118 -130.97269 
L 261.581432 -132.691102 
L 263.783817 -134.409514 
L 266.085454 -136.127925 
L 268.339541 -137.846337 
L 270.417867 -139.564749 
L 272.25337 -141.283161 
L 273.85456 -143.001573 
L 275.286368 -144.719984 
L 276.628724 -146.438396 
L 277.934108 -148.156808 
L 279.204238 -149.87522 
L 280.395276 -151.593632 
L 281.446242 -153.312043 
L 282.31435 -155.030455 
L 282.999141 -156.748867 
L 283.544977 -158.467279 
L 284.023455 -160.185691 
L 284.50659 -161.904102 
L 285.043864 -163.622514 
L 285.651753 -165.340926 
L 286.316954 -167.059338 
L 287.008476 -168.77775 
L 287.691425 -170.496162 
L 288.336803 -172.214573 
L 288.925135 -173.932985 
L 289.445176 -175.651397 
L 289.890667 -177.369809 
L 290.257994 -179.088221 
L 290.546119 -180.806632 
L 290.758429 -182.525044 
L 290.904853 -184.243456 
L 291.002348 -185.961868 
L 291.072655 -187.68028 
L 291.137625 -189.398691 
L 291.213817 -191.117103 
L 291.308601 -192.835515 
L 291.419426 -194.553927 
L 291.536462 -196.272339 
L 291.647247 -197.99075 
L 291.74118 -199.709162 
L 291.812125 -201.427574 
L 291.858584 -203.145986 
L 291.882153 -204.864398 
L 291.885591 -206.582809 
L 291.871663 -208.301221 
L 291.8432 -210.019633 
L 291.804058 -211.738045 
L 291.760074 -213.456457 
L 291.71909 -215.174868 
L 291.689586 -216.89328 
L 291.6783 -218.611692 
L 291.687958 -220.330104 
L 291.716294 -222.048516 
L 291.756955 -223.766927 
L 291.801824 -225.485339 
L 291.843624 -227.203751 
L 291.877695 -228.922163 
L 291.902421 -230.640575 
L 291.972579 -230.640575 
L 291.972579 -230.640575 
L 291.997305 -228.922163 
L 292.031376 -227.203751 
L 292.073176 -225.485339 
L 292.118045 -223.766927 
L 292.158706 -222.048516 
L 292.187042 -220.330104 
L 292.1967 -218.611692 
L 292.185414 -216.89328 
L 292.15591 -215.174868 
L 292.114926 -213.456457 
L 292.070942 -211.738045 
L 292.0318 -210.019633 
L 292.003337 -208.301221 
L 291.989409 -206.582809 
L 291.992847 -204.864398 
L 292.016416 -203.145986 
L 292.062875 -201.427574 
L 292.13382 -199.709162 
L 292.227753 -197.99075 
L 292.338538 -196.272339 
L 292.455574 -194.553927 
L 292.566399 -192.835515 
L 292.661183 -191.117103 
L 292.737375 -189.398691 
L 292.802345 -187.68028 
L 292.872652 -185.961868 
L 292.970147 -184.243456 
L 293.116571 -182.525044 
L 293.328881 -180.806632 
L 293.617006 -179.088221 
L 293.984333 -177.369809 
L 294.429824 -175.651397 
L 294.949865 -173.932985 
L 295.538197 -172.214573 
L 296.183575 -170.496162 
L 296.866524 -168.77775 
L 297.558046 -167.059338 
L 298.223247 -165.340926 
L 298.831136 -163.622514 
L 299.36841 -161.904102 
L 299.851545 -160.185691 
L 300.330023 -158.467279 
L 300.875859 -156.748867 
L 301.56065 -155.030455 
L 302.428758 -153.312043 
L 303.479724 -151.593632 
L 304.670762 -149.87522 
L 305.940892 -148.156808 
L 307.246276 -146.438396 
L 308.588632 -144.719984 
L 310.02044 -143.001573 
L 311.62163 -141.283161 
L 313.457133 -139.564749 
L 315.535459 -137.846337 
L 317.789546 -136.127925 
L 320.091183 -134.409514 
L 322.293568 -132.691102 
L 324.281882 -130.97269 
L 326.007583 -129.254278 
L 327.49124 -127.535866 
L 328.795556 -125.817455 
L 329.984431 -124.099043 
L 331.087997 -122.380631 
L 332.087335 -120.662219 
L 332.921681 -118.943807 
L 333.511658 -117.225396 
L 333.7875 -115.506984 
L 333.711338 -113.788572 
L 333.286191 -112.07016 
L 332.549775 -110.351748 
L 331.556928 -108.633337 
L 330.358585 -106.914925 
L 328.986258 -105.196513 
L 327.448402 -103.478101 
L 325.739365 -101.759689 
L 323.855117 -100.041278 
L 321.806167 -98.322866 
L 319.619896 -96.604454 
L 317.331767 -94.886042 
L 314.972958 -93.16763 
L 312.564899 -91.449219 
L 310.126094 -89.730807 
L 307.686806 -88.012395 
L 305.300077 -86.293983 
L 303.03905 -84.575571 
L 300.979745 -82.85716 
L 299.178513 -81.138748 
L 297.656845 -79.420336 
L 296.401111 -77.701924 
L 295.375345 -75.983512 
L 294.53842 -74.265101 
L 293.856606 -72.546689 
L 293.307413 -70.828277 
L 292.876366 -69.109865 
L 292.551336 -67.391453 
L 292.318428 -65.673042 
L 292.160994 -63.95463 
L 292.061082 -62.236218 
L 292.001733 -60.517806 
z
" id="m287a1188c7" style="stroke:#464646;stroke-width:3;"/>
    </defs>
    <g clip-path="url(#p3221c73b1a)">
     <use style="fill:#ca984c;stroke:#464646;stroke-width:3;" x="0" xlink:href="#m287a1188c7" y="288"/>
    </g>
   </g>
   <g id="PolyCollection_3">
    <defs>
     <path d="M 396.615261 -65.717943 
L 396.509739 -65.717943 
L 396.468275 -67.238798 
L 396.401962 -68.759653 
L 396.300706 -70.280508 
L 396.152351 -71.801363 
L 395.942588 -73.322218 
L 395.65462 -74.843072 
L 395.268639 -76.363927 
L 394.761447 -77.884782 
L 394.106879 -79.405637 
L 393.277725 -80.926492 
L 392.249402 -82.447347 
L 391.004741 -83.968202 
L 389.538184 -85.489057 
L 387.857162 -87.009912 
L 385.979028 -88.530767 
L 383.923747 -90.051622 
L 381.70517 -91.572477 
L 379.325589 -93.093331 
L 376.778057 -94.614186 
L 374.05804 -96.135041 
L 371.181268 -97.655896 
L 368.200591 -99.176751 
L 365.213647 -100.697606 
L 362.356319 -102.218461 
L 359.78295 -103.739316 
L 357.640039 -105.260171 
L 356.042519 -106.781026 
L 355.059651 -108.301881 
L 354.7125 -109.822736 
L 354.980007 -111.34359 
L 355.808599 -112.864445 
L 357.121462 -114.3853 
L 358.826474 -115.906155 
L 360.823767 -117.42701 
L 363.013721 -118.947865 
L 365.304541 -120.46872 
L 367.617458 -121.989575 
L 369.888114 -123.51043 
L 372.064724 -125.031285 
L 374.105261 -126.55214 
L 375.975971 -128.072995 
L 377.65199 -129.593849 
L 379.118964 -131.114704 
L 380.373891 -132.635559 
L 381.424006 -134.156414 
L 382.283891 -135.677269 
L 382.971914 -137.198124 
L 383.507183 -138.718979 
L 383.907747 -140.239834 
L 384.190252 -141.760689 
L 384.371096 -143.281544 
L 384.46899 -144.802399 
L 384.508462 -146.323253 
L 384.523076 -147.844108 
L 384.556515 -149.364963 
L 384.659746 -150.885818 
L 384.883691 -152.406673 
L 385.268892 -153.927528 
L 385.835402 -155.448383 
L 386.576642 -156.969238 
L 387.45969 -158.490093 
L 388.432018 -160.010948 
L 389.43236 -161.531803 
L 390.402226 -163.052658 
L 391.294991 -164.573512 
L 392.080946 -166.094367 
L 392.7482 -167.615222 
L 393.300282 -169.136077 
L 393.751579 -170.656932 
L 394.121749 -172.177787 
L 394.430267 -173.698642 
L 394.6923 -175.219497 
L 394.916833 -176.740352 
L 395.10735 -178.261207 
L 395.264375 -179.782062 
L 395.388585 -181.302917 
L 395.483038 -182.823771 
L 395.553714 -184.344626 
L 395.608367 -185.865481 
L 395.654455 -187.386336 
L 395.697169 -188.907191 
L 395.738374 -190.428046 
L 395.776847 -191.948901 
L 395.809685 -193.469756 
L 395.834328 -194.990611 
L 395.850469 -196.511466 
L 395.861093 -198.032321 
L 395.872216 -199.553176 
L 395.891318 -201.07403 
L 395.925041 -202.594885 
L 395.976986 -204.11574 
L 396.046466 -205.636595 
L 396.128658 -207.15745 
L 396.216035 -208.678305 
L 396.300474 -210.19916 
L 396.375244 -211.720015 
L 396.436247 -213.24087 
L 396.482287 -214.761725 
L 396.514522 -216.28258 
L 396.610478 -216.28258 
L 396.610478 -216.28258 
L 396.642713 -214.761725 
L 396.688753 -213.24087 
L 396.749756 -211.720015 
L 396.824526 -210.19916 
L 396.908965 -208.678305 
L 396.996342 -207.15745 
L 397.078534 -205.636595 
L 397.148014 -204.11574 
L 397.199959 -202.594885 
L 397.233682 -201.07403 
L 397.252784 -199.553176 
L 397.263907 -198.032321 
L 397.274531 -196.511466 
L 397.290672 -194.990611 
L 397.315315 -193.469756 
L 397.348153 -191.948901 
L 397.386626 -190.428046 
L 397.427831 -188.907191 
L 397.470545 -187.386336 
L 397.516633 -185.865481 
L 397.571286 -184.344626 
L 397.641962 -182.823771 
L 397.736415 -181.302917 
L 397.860625 -179.782062 
L 398.01765 -178.261207 
L 398.208167 -176.740352 
L 398.4327 -175.219497 
L 398.694733 -173.698642 
L 399.003251 -172.177787 
L 399.373421 -170.656932 
L 399.824718 -169.136077 
L 400.3768 -167.615222 
L 401.044054 -166.094367 
L 401.830009 -164.573512 
L 402.722774 -163.052658 
L 403.69264 -161.531803 
L 404.692982 -160.010948 
L 405.66531 -158.490093 
L 406.548358 -156.969238 
L 407.289598 -155.448383 
L 407.856108 -153.927528 
L 408.241309 -152.406673 
L 408.465254 -150.885818 
L 408.568485 -149.364963 
L 408.601924 -147.844108 
L 408.616538 -146.323253 
L 408.65601 -144.802399 
L 408.753904 -143.281544 
L 408.934748 -141.760689 
L 409.217253 -140.239834 
L 409.617817 -138.718979 
L 410.153086 -137.198124 
L 410.841109 -135.677269 
L 411.700994 -134.156414 
L 412.751109 -132.635559 
L 414.006036 -131.114704 
L 415.47301 -129.593849 
L 417.149029 -128.072995 
L 419.019739 -126.55214 
L 421.060276 -125.031285 
L 423.236886 -123.51043 
L 425.507542 -121.989575 
L 427.820459 -120.46872 
L 430.111279 -118.947865 
L 432.301233 -117.42701 
L 434.298526 -115.906155 
L 436.003538 -114.3853 
L 437.316401 -112.864445 
L 438.144993 -111.34359 
L 438.4125 -109.822736 
L 438.065349 -108.301881 
L 437.082481 -106.781026 
L 435.484961 -105.260171 
L 433.34205 -103.739316 
L 430.768681 -102.218461 
L 427.911353 -100.697606 
L 424.924409 -99.176751 
L 421.943732 -97.655896 
L 419.06696 -96.135041 
L 416.346943 -94.614186 
L 413.799411 -93.093331 
L 411.41983 -91.572477 
L 409.201253 -90.051622 
L 407.145972 -88.530767 
L 405.267838 -87.009912 
L 403.586816 -85.489057 
L 402.120259 -83.968202 
L 400.875598 -82.447347 
L 399.847275 -80.926492 
L 399.018121 -79.405637 
L 398.363553 -77.884782 
L 397.856361 -76.363927 
L 397.47038 -74.843072 
L 397.182412 -73.322218 
L 396.972649 -71.801363 
L 396.824294 -70.280508 
L 396.723038 -68.759653 
L 396.656725 -67.238798 
L 396.615261 -65.717943 
z
" id="m748b2968bd" style="stroke:#464646;stroke-width:3;"/>
    </defs>
    <g clip-path="url(#p3221c73b1a)">
     <use style="fill:#98a246;stroke:#464646;stroke-width:3;" x="0" xlink:href="#m748b2968bd" y="288"/>
    </g>
   </g>
   <g id="PolyCollection_4">
    <defs>
     <path d="M 501.311399 -76.980258 
L 501.063601 -76.980258 
L 500.93582 -78.660862 
L 500.70506 -80.341465 
L 500.313212 -82.022069 
L 499.686657 -83.702672 
L 498.741782 -85.383276 
L 497.39533 -87.063879 
L 495.578 -88.744482 
L 493.247966 -90.425086 
L 490.400636 -92.105689 
L 487.072769 -93.786293 
L 483.342122 -95.466896 
L 479.325962 -97.1475 
L 475.180738 -98.828103 
L 471.101171 -100.508707 
L 467.313044 -102.18931 
L 464.054117 -103.869913 
L 461.543048 -105.550517 
L 459.943805 -107.23112 
L 459.3375 -108.911724 
L 459.711536 -110.592327 
L 460.96897 -112.272931 
L 462.953354 -113.953534 
L 465.479795 -115.634138 
L 468.362843 -117.314741 
L 471.434825 -118.995345 
L 474.552892 -120.675948 
L 477.597491 -122.356551 
L 480.467643 -124.037155 
L 483.078189 -125.717758 
L 485.361528 -127.398362 
L 487.272936 -129.078965 
L 488.796395 -130.759569 
L 489.947416 -132.440172 
L 490.770331 -134.120776 
L 491.329424 -135.801379 
L 491.695619 -137.481983 
L 491.932649 -139.162586 
L 492.087496 -140.843189 
L 492.188322 -142.523793 
L 492.249835 -144.204396 
L 492.282711 -145.885 
L 492.302433 -147.565603 
L 492.33399 -149.246207 
L 492.411282 -150.92681 
L 492.572086 -152.607414 
L 492.85037 -154.288017 
L 493.267965 -155.96862 
L 493.827717 -157.649224 
L 494.510366 -159.329827 
L 495.276833 -161.010431 
L 496.075954 -162.691034 
L 496.855443 -164.371638 
L 497.572201 -166.052241 
L 498.198314 -167.732845 
L 498.721234 -169.413448 
L 499.139561 -171.094052 
L 499.457805 -172.774655 
L 499.683337 -174.455258 
L 499.826603 -176.135862 
L 499.903098 -177.816465 
L 499.934248 -179.497069 
L 499.945182 -181.177672 
L 499.959693 -182.858276 
L 499.994761 -184.538879 
L 500.05741 -186.219483 
L 500.145228 -187.900086 
L 500.249782 -189.58069 
L 500.360868 -191.261293 
L 500.469708 -192.941896 
L 500.570404 -194.6225 
L 500.660011 -196.303103 
L 500.737948 -197.983707 
L 500.805161 -199.66431 
L 500.863126 -201.344914 
L 500.912792 -203.025517 
L 500.953866 -204.706121 
L 500.984897 -206.386724 
L 501.004286 -208.067328 
L 501.011762 -209.747931 
L 501.009419 -211.428534 
L 501.001576 -213.109138 
L 500.993283 -214.789741 
L 500.98812 -216.470345 
L 500.986376 -218.150948 
L 500.984683 -219.831552 
L 500.977492 -221.512155 
L 500.95991 -223.192759 
L 500.93068 -224.873362 
L 500.893849 -226.553965 
L 500.858191 -228.234569 
L 500.834406 -229.915172 
L 500.831237 -231.595776 
L 500.852232 -233.276379 
L 500.894587 -234.956983 
L 500.950477 -236.637586 
L 501.010067 -238.31819 
L 501.064694 -239.998793 
L 501.108936 -241.679397 
L 501.141051 -243.36 
L 501.233949 -243.36 
L 501.233949 -243.36 
L 501.266064 -241.679397 
L 501.310306 -239.998793 
L 501.364933 -238.31819 
L 501.424523 -236.637586 
L 501.480413 -234.956983 
L 501.522768 -233.276379 
L 501.543763 -231.595776 
L 501.540594 -229.915172 
L 501.516809 -228.234569 
L 501.481151 -226.553965 
L 501.44432 -224.873362 
L 501.41509 -223.192759 
L 501.397508 -221.512155 
L 501.390317 -219.831552 
L 501.388624 -218.150948 
L 501.38688 -216.470345 
L 501.381717 -214.789741 
L 501.373424 -213.109138 
L 501.365581 -211.428534 
L 501.363238 -209.747931 
L 501.370714 -208.067328 
L 501.390103 -206.386724 
L 501.421134 -204.706121 
L 501.462208 -203.025517 
L 501.511874 -201.344914 
L 501.569839 -199.66431 
L 501.637052 -197.983707 
L 501.714989 -196.303103 
L 501.804596 -194.6225 
L 501.905292 -192.941896 
L 502.014132 -191.261293 
L 502.125218 -189.58069 
L 502.229772 -187.900086 
L 502.31759 -186.219483 
L 502.380239 -184.538879 
L 502.415307 -182.858276 
L 502.429818 -181.177672 
L 502.440752 -179.497069 
L 502.471902 -177.816465 
L 502.548397 -176.135862 
L 502.691663 -174.455258 
L 502.917195 -172.774655 
L 503.235439 -171.094052 
L 503.653766 -169.413448 
L 504.176686 -167.732845 
L 504.802799 -166.052241 
L 505.519557 -164.371638 
L 506.299046 -162.691034 
L 507.098167 -161.010431 
L 507.864634 -159.329827 
L 508.547283 -157.649224 
L 509.107035 -155.96862 
L 509.52463 -154.288017 
L 509.802914 -152.607414 
L 509.963718 -150.92681 
L 510.04101 -149.246207 
L 510.072567 -147.565603 
L 510.092289 -145.885 
L 510.125165 -144.204396 
L 510.186678 -142.523793 
L 510.287504 -140.843189 
L 510.442351 -139.162586 
L 510.679381 -137.481983 
L 511.045576 -135.801379 
L 511.604669 -134.120776 
L 512.427584 -132.440172 
L 513.578605 -130.759569 
L 515.102064 -129.078965 
L 517.013472 -127.398362 
L 519.296811 -125.717758 
L 521.907357 -124.037155 
L 524.777509 -122.356551 
L 527.822108 -120.675948 
L 530.940175 -118.995345 
L 534.012157 -117.314741 
L 536.895205 -115.634138 
L 539.421646 -113.953534 
L 541.40603 -112.272931 
L 542.663464 -110.592327 
L 543.0375 -108.911724 
L 542.431195 -107.23112 
L 540.831952 -105.550517 
L 538.320883 -103.869913 
L 535.061956 -102.18931 
L 531.273829 -100.508707 
L 527.194262 -98.828103 
L 523.049038 -97.1475 
L 519.032878 -95.466896 
L 515.302231 -93.786293 
L 511.974364 -92.105689 
L 509.127034 -90.425086 
L 506.797 -88.744482 
L 504.97967 -87.063879 
L 503.633218 -85.383276 
L 502.688343 -83.702672 
L 502.061788 -82.022069 
L 501.66994 -80.341465 
L 501.43918 -78.660862 
L 501.311399 -76.980258 
z
" id="m052ca40ade" style="stroke:#464646;stroke-width:3;"/>
    </defs>
    <g clip-path="url(#p3221c73b1a)">
     <use style="fill:#49af72;stroke:#464646;stroke-width:3;" x="0" xlink:href="#m052ca40ade" y="288"/>
    </g>
   </g>
   <g id="PolyCollection_5">
    <defs>
     <path d="M 605.850234 -41.76 
L 605.774766 -41.76 
L 605.744097 -43.693429 
L 605.700745 -45.626858 
L 605.647817 -47.560287 
L 605.593211 -49.493716 
L 605.547486 -51.427145 
L 605.518848 -53.360574 
L 605.507259 -55.294003 
L 605.500891 -57.227432 
L 605.477188 -59.16086 
L 605.408218 -61.094289 
L 605.267504 -63.027718 
L 605.034852 -64.961147 
L 604.697085 -66.894576 
L 604.245043 -68.828005 
L 603.669207 -70.761434 
L 602.956616 -72.694863 
L 602.090278 -74.628292 
L 601.050341 -76.561721 
L 599.815556 -78.49515 
L 598.364056 -80.428579 
L 596.672989 -82.362008 
L 594.71735 -84.295437 
L 592.470607 -86.228866 
L 589.91246 -88.162295 
L 587.047234 -90.095723 
L 583.927508 -92.029152 
L 580.668193 -93.962581 
L 577.437221 -95.89601 
L 574.422482 -97.829439 
L 571.789496 -99.762868 
L 569.648098 -101.696297 
L 568.037597 -103.629726 
L 566.92828 -105.563155 
L 566.232416 -107.496584 
L 565.821109 -109.430013 
L 565.548399 -111.363442 
L 565.284095 -113.296871 
L 564.950632 -115.2303 
L 564.551211 -117.163729 
L 564.17377 -119.097158 
L 563.9625 -121.030586 
L 564.064814 -122.964015 
L 564.578157 -124.897444 
L 565.524913 -126.830873 
L 566.86748 -128.764302 
L 568.547838 -130.697731 
L 570.51827 -132.63116 
L 572.738893 -134.564589 
L 575.147905 -136.498018 
L 577.637 -138.431447 
L 580.063827 -140.364876 
L 582.304205 -142.298305 
L 584.311703 -144.231734 
L 586.140278 -146.165163 
L 587.908384 -148.098592 
L 589.724279 -150.032021 
L 591.620173 -151.965449 
L 593.536061 -153.898878 
L 595.358622 -155.832307 
L 596.984367 -157.765736 
L 598.365421 -159.699165 
L 599.51514 -161.632594 
L 600.480959 -163.566023 
L 601.30999 -165.499452 
L 602.029512 -167.432881 
L 602.647804 -169.36631 
L 603.166147 -171.299739 
L 603.589317 -173.233168 
L 603.928021 -175.166597 
L 604.195057 -177.100026 
L 604.401108 -179.033455 
L 604.554401 -180.966884 
L 604.663913 -182.900312 
L 604.742745 -184.833741 
L 604.808462 -186.76717 
L 604.879712 -188.700599 
L 604.970819 -190.634028 
L 605.0871 -192.567457 
L 605.2233 -194.500886 
L 605.366041 -196.434315 
L 605.499239 -198.367744 
L 605.609837 -200.301173 
L 605.691231 -202.234602 
L 605.74322 -204.168031 
L 605.769359 -206.10146 
L 605.77375 -208.034889 
L 605.759169 -209.968318 
L 605.727431 -211.901747 
L 605.681543 -213.835175 
L 605.628081 -215.768604 
L 605.577798 -217.702033 
L 605.543267 -219.635462 
L 605.534274 -221.568891 
L 605.553515 -223.50232 
L 605.595355 -225.435749 
L 605.64851 -227.369178 
L 605.700947 -229.302607 
L 605.744151 -231.236036 
L 605.774779 -233.169465 
L 605.850221 -233.169465 
L 605.850221 -233.169465 
L 605.880849 -231.236036 
L 605.924053 -229.302607 
L 605.97649 -227.369178 
L 606.029645 -225.435749 
L 606.071485 -223.50232 
L 606.090726 -221.568891 
L 606.081733 -219.635462 
L 606.047202 -217.702033 
L 605.996919 -215.768604 
L 605.943457 -213.835175 
L 605.897569 -211.901747 
L 605.865831 -209.968318 
L 605.85125 -208.034889 
L 605.855641 -206.10146 
L 605.88178 -204.168031 
L 605.933769 -202.234602 
L 606.015163 -200.301173 
L 606.125761 -198.367744 
L 606.258959 -196.434315 
L 606.4017 -194.500886 
L 606.5379 -192.567457 
L 606.654181 -190.634028 
L 606.745288 -188.700599 
L 606.816538 -186.76717 
L 606.882255 -184.833741 
L 606.961087 -182.900312 
L 607.070599 -180.966884 
L 607.223892 -179.033455 
L 607.429943 -177.100026 
L 607.696979 -175.166597 
L 608.035683 -173.233168 
L 608.458853 -171.299739 
L 608.977196 -169.36631 
L 609.595488 -167.432881 
L 610.31501 -165.499452 
L 611.144041 -163.566023 
L 612.10986 -161.632594 
L 613.259579 -159.699165 
L 614.640633 -157.765736 
L 616.266378 -155.832307 
L 618.088939 -153.898878 
L 620.004827 -151.965449 
L 621.900721 -150.032021 
L 623.716616 -148.098592 
L 625.484722 -146.165163 
L 627.313297 -144.231734 
L 629.320795 -142.298305 
L 631.561173 -140.364876 
L 633.988 -138.431447 
L 636.477095 -136.498018 
L 638.886107 -134.564589 
L 641.10673 -132.63116 
L 643.077162 -130.697731 
L 644.75752 -128.764302 
L 646.100087 -126.830873 
L 647.046843 -124.897444 
L 647.560186 -122.964015 
L 647.6625 -121.030586 
L 647.45123 -119.097158 
L 647.073789 -117.163729 
L 646.674368 -115.2303 
L 646.340905 -113.296871 
L 646.076601 -111.363442 
L 645.803891 -109.430013 
L 645.392584 -107.496584 
L 644.69672 -105.563155 
L 643.587403 -103.629726 
L 641.976902 -101.696297 
L 639.835504 -99.762868 
L 637.202518 -97.829439 
L 634.187779 -95.89601 
L 630.956807 -93.962581 
L 627.697492 -92.029152 
L 624.577766 -90.095723 
L 621.71254 -88.162295 
L 619.154393 -86.228866 
L 616.90765 -84.295437 
L 614.952011 -82.362008 
L 613.260944 -80.428579 
L 611.809444 -78.49515 
L 610.574659 -76.561721 
L 609.534722 -74.628292 
L 608.668384 -72.694863 
L 607.955793 -70.761434 
L 607.379957 -68.828005 
L 606.927915 -66.894576 
L 606.590148 -64.961147 
L 606.357496 -63.027718 
L 606.216782 -61.094289 
L 606.147812 -59.16086 
L 606.124109 -57.227432 
L 606.117741 -55.294003 
L 606.106152 -53.360574 
L 606.077514 -51.427145 
L 606.031789 -49.493716 
L 605.977183 -47.560287 
L 605.924255 -45.626858 
L 605.880903 -43.693429 
L 605.850234 -41.76 
z
" id="m29b7c68296" style="stroke:#464646;stroke-width:3;"/>
    </defs>
    <g clip-path="url(#p3221c73b1a)">
     <use style="fill:#4baba4;stroke:#464646;stroke-width:3;" x="0" xlink:href="#m29b7c68296" y="288"/>
    </g>
   </g>
   <g id="PolyCollection_6">
    <defs>
     <path d="M 710.553344 -73.672211 
L 710.321656 -73.672211 
L 710.212148 -75.239837 
L 710.018938 -76.807463 
L 709.694206 -78.37509 
L 709.174088 -79.942716 
L 708.380202 -81.510342 
L 707.225736 -83.077968 
L 705.626889 -84.645594 
L 703.51879 -86.21322 
L 700.873032 -87.780846 
L 697.712329 -89.348472 
L 694.117705 -90.916099 
L 690.225221 -92.483725 
L 686.212147 -94.051351 
L 682.275498 -95.618977 
L 678.60783 -97.186603 
L 675.375689 -98.754229 
L 672.704989 -100.321855 
L 670.675215 -101.889481 
L 669.321211 -103.457108 
L 668.638514 -105.024734 
L 668.5875 -106.59236 
L 669.093811 -108.159986 
L 670.047083 -109.727612 
L 671.303926 -111.295238 
L 672.701251 -112.862864 
L 674.08128 -114.43049 
L 675.322345 -115.998117 
L 676.364401 -117.565743 
L 677.218855 -119.133369 
L 677.958626 -120.700995 
L 678.692694 -122.268621 
L 679.534763 -123.836247 
L 680.575616 -125.403873 
L 681.864641 -126.971499 
L 683.401576 -128.539126 
L 685.137605 -130.106752 
L 686.985324 -131.674378 
L 688.837165 -133.242004 
L 690.589782 -134.80963 
L 692.168218 -136.377256 
L 693.541733 -137.944882 
L 694.725241 -139.512508 
L 695.766122 -141.080135 
L 696.722475 -142.647761 
L 697.641978 -144.215387 
L 698.549089 -145.783013 
L 699.443533 -147.350639 
L 700.307877 -148.918265 
L 701.118894 -150.485891 
L 701.857376 -152.053517 
L 702.513276 -153.621144 
L 703.086033 -155.18877 
L 703.581998 -156.756396 
L 704.011459 -158.324022 
L 704.386851 -159.891648 
L 704.722354 -161.459274 
L 705.033967 -163.0269 
L 705.33892 -164.594526 
L 705.653786 -166.162153 
L 705.99159 -167.729779 
L 706.358839 -169.297405 
L 706.753571 -170.865031 
L 707.165091 -172.432657 
L 707.57547 -174.000283 
L 707.962399 -175.567909 
L 708.30285 -177.135535 
L 708.576989 -178.703162 
L 708.771922 -180.270788 
L 708.884727 -181.838414 
L 708.92414 -183.40604 
L 708.910191 -184.973666 
L 708.871299 -186.541292 
L 708.838936 -188.108918 
L 708.840857 -189.676544 
L 708.894757 -191.244171 
L 709.004436 -192.811797 
L 709.159973 -194.379423 
L 709.341903 -195.947049 
L 709.527796 -197.514675 
L 709.698692 -199.082301 
L 709.843088 -200.649927 
L 709.957486 -202.217553 
L 710.044105 -203.78518 
L 710.107508 -205.352806 
L 710.15192 -206.920432 
L 710.18027 -208.488058 
L 710.194842 -210.055684 
L 710.198588 -211.62331 
L 710.195992 -213.190936 
L 710.192828 -214.758562 
L 710.194865 -216.326189 
L 710.206213 -217.893815 
L 710.228119 -219.461441 
L 710.258808 -221.029067 
L 710.29435 -222.596693 
L 710.330115 -224.164319 
L 710.36217 -225.731945 
L 710.388121 -227.299571 
L 710.407267 -228.867198 
L 710.467733 -228.867198 
L 710.467733 -228.867198 
L 710.486879 -227.299571 
L 710.51283 -225.731945 
L 710.544885 -224.164319 
L 710.58065 -222.596693 
L 710.616192 -221.029067 
L 710.646881 -219.461441 
L 710.668787 -217.893815 
L 710.680135 -216.326189 
L 710.682172 -214.758562 
L 710.679008 -213.190936 
L 710.676412 -211.62331 
L 710.680158 -210.055684 
L 710.69473 -208.488058 
L 710.72308 -206.920432 
L 710.767492 -205.352806 
L 710.830895 -203.78518 
L 710.917514 -202.217553 
L 711.031912 -200.649927 
L 711.176308 -199.082301 
L 711.347204 -197.514675 
L 711.533097 -195.947049 
L 711.715027 -194.379423 
L 711.870564 -192.811797 
L 711.980243 -191.244171 
L 712.034143 -189.676544 
L 712.036064 -188.108918 
L 712.003701 -186.541292 
L 711.964809 -184.973666 
L 711.95086 -183.40604 
L 711.990273 -181.838414 
L 712.103078 -180.270788 
L 712.298011 -178.703162 
L 712.57215 -177.135535 
L 712.912601 -175.567909 
L 713.29953 -174.000283 
L 713.709909 -172.432657 
L 714.121429 -170.865031 
L 714.516161 -169.297405 
L 714.88341 -167.729779 
L 715.221214 -166.162153 
L 715.53608 -164.594526 
L 715.841033 -163.0269 
L 716.152646 -161.459274 
L 716.488149 -159.891648 
L 716.863541 -158.324022 
L 717.293002 -156.756396 
L 717.788967 -155.18877 
L 718.361724 -153.621144 
L 719.017624 -152.053517 
L 719.756106 -150.485891 
L 720.567123 -148.918265 
L 721.431467 -147.350639 
L 722.325911 -145.783013 
L 723.233022 -144.215387 
L 724.152525 -142.647761 
L 725.108878 -141.080135 
L 726.149759 -139.512508 
L 727.333267 -137.944882 
L 728.706782 -136.377256 
L 730.285218 -134.80963 
L 732.037835 -133.242004 
L 733.889676 -131.674378 
L 735.737395 -130.106752 
L 737.473424 -128.539126 
L 739.010359 -126.971499 
L 740.299384 -125.403873 
L 741.340237 -123.836247 
L 742.182306 -122.268621 
L 742.916374 -120.700995 
L 743.656145 -119.133369 
L 744.510599 -117.565743 
L 745.552655 -115.998117 
L 746.79372 -114.43049 
L 748.173749 -112.862864 
L 749.571074 -111.295238 
L 750.827917 -109.727612 
L 751.781189 -108.159986 
L 752.2875 -106.59236 
L 752.236486 -105.024734 
L 751.553789 -103.457108 
L 750.199785 -101.889481 
L 748.170011 -100.321855 
L 745.499311 -98.754229 
L 742.26717 -97.186603 
L 738.599502 -95.618977 
L 734.662853 -94.051351 
L 730.649779 -92.483725 
L 726.757295 -90.916099 
L 723.162671 -89.348472 
L 720.001968 -87.780846 
L 717.35621 -86.21322 
L 715.248111 -84.645594 
L 713.649264 -83.077968 
L 712.494798 -81.510342 
L 711.700912 -79.942716 
L 711.180794 -78.37509 
L 710.856062 -76.807463 
L 710.662852 -75.239837 
L 710.553344 -73.672211 
z
" id="mf765bdbfb1" style="stroke:#464646;stroke-width:3;"/>
    </defs>
    <g clip-path="url(#p3221c73b1a)">
     <use style="fill:#53accd;stroke:#464646;stroke-width:3;" x="0" xlink:href="#mf765bdbfb1" y="288"/>
    </g>
   </g>
   <g id="PolyCollection_7">
    <defs>
     <path d="M 816.181897 -84.195178 
L 813.943103 -84.195178 
L 813.186534 -85.586796 
L 812.057681 -86.978413 
L 810.457131 -88.370031 
L 808.299975 -89.761649 
L 805.535879 -91.153267 
L 802.168819 -92.544884 
L 798.271661 -93.936502 
L 793.99114 -95.32812 
L 789.540563 -96.719738 
L 785.180151 -98.111355 
L 781.187676 -99.502973 
L 777.824128 -100.894591 
L 775.300229 -102.286209 
L 773.749505 -103.677827 
L 773.2125 -105.069444 
L 773.634749 -106.461062 
L 774.878598 -107.85268 
L 776.746431 -109.244298 
L 779.01077 -110.635915 
L 781.445775 -112.027533 
L 783.854853 -113.419151 
L 786.090437 -114.810769 
L 788.063833 -116.202386 
L 789.744916 -117.594004 
L 791.153 -118.985622 
L 792.341369 -120.37724 
L 793.378693 -121.768857 
L 794.33093 -123.160475 
L 795.247177 -124.552093 
L 796.152087 -125.943711 
L 797.045963 -127.335328 
L 797.911646 -128.726946 
L 798.725505 -130.118564 
L 799.468772 -131.510182 
L 800.135589 -132.901799 
L 800.735481 -134.293417 
L 801.290012 -135.685035 
L 801.825376 -137.076653 
L 802.363896 -138.468271 
L 802.917502 -139.859888 
L 803.485254 -141.251506 
L 804.055377 -142.643124 
L 804.610696 -144.034742 
L 805.135305 -145.426359 
L 805.620144 -146.817977 
L 806.065799 -148.209595 
L 806.481989 -149.601213 
L 806.884358 -150.99283 
L 807.290002 -152.384448 
L 807.713267 -153.776066 
L 808.162954 -155.167684 
L 808.641316 -156.559301 
L 809.144545 -157.950919 
L 809.664065 -159.342537 
L 810.187982 -160.734155 
L 810.702353 -162.125772 
L 811.192304 -163.51739 
L 811.643208 -164.909008 
L 812.042094 -166.300626 
L 812.379168 -167.692244 
L 812.649172 -169.083861 
L 812.852162 -170.475479 
L 812.993508 -171.867097 
L 813.083097 -173.258715 
L 813.133963 -174.650332 
L 813.160614 -176.04195 
L 813.177316 -177.433568 
L 813.196509 -178.825186 
L 813.227552 -180.216803 
L 813.275964 -181.608421 
L 813.34335 -183.000039 
L 813.428034 -184.391657 
L 813.526259 -185.783274 
L 813.633571 -187.174892 
L 813.745949 -188.56651 
L 813.860352 -189.958128 
L 813.974589 -191.349745 
L 814.086694 -192.741363 
L 814.194199 -194.132981 
L 814.293695 -195.524599 
L 814.38095 -196.916216 
L 814.451621 -198.307834 
L 814.502387 -199.699452 
L 814.532118 -201.09107 
L 814.542704 -202.482688 
L 814.539195 -203.874305 
L 814.529121 -205.265923 
L 814.521099 -206.657541 
L 814.523064 -208.049159 
L 814.540611 -209.440776 
L 814.575898 -210.832394 
L 814.62742 -212.224012 
L 814.69066 -213.61563 
L 814.759387 -215.007247 
L 814.827164 -216.398865 
L 814.888655 -217.790483 
L 814.940404 -219.182101 
L 814.98102 -220.573718 
L 815.010856 -221.965336 
L 815.114144 -221.965336 
L 815.114144 -221.965336 
L 815.14398 -220.573718 
L 815.184596 -219.182101 
L 815.236345 -217.790483 
L 815.297836 -216.398865 
L 815.365613 -215.007247 
L 815.43434 -213.61563 
L 815.49758 -212.224012 
L 815.549102 -210.832394 
L 815.584389 -209.440776 
L 815.601936 -208.049159 
L 815.603901 -206.657541 
L 815.595879 -205.265923 
L 815.585805 -203.874305 
L 815.582296 -202.482688 
L 815.592882 -201.09107 
L 815.622613 -199.699452 
L 815.673379 -198.307834 
L 815.74405 -196.916216 
L 815.831305 -195.524599 
L 815.930801 -194.132981 
L 816.038306 -192.741363 
L 816.150411 -191.349745 
L 816.264648 -189.958128 
L 816.379051 -188.56651 
L 816.491429 -187.174892 
L 816.598741 -185.783274 
L 816.696966 -184.391657 
L 816.78165 -183.000039 
L 816.849036 -181.608421 
L 816.897448 -180.216803 
L 816.928491 -178.825186 
L 816.947684 -177.433568 
L 816.964386 -176.04195 
L 816.991037 -174.650332 
L 817.041903 -173.258715 
L 817.131492 -171.867097 
L 817.272838 -170.475479 
L 817.475828 -169.083861 
L 817.745832 -167.692244 
L 818.082906 -166.300626 
L 818.481792 -164.909008 
L 818.932696 -163.51739 
L 819.422647 -162.125772 
L 819.937018 -160.734155 
L 820.460935 -159.342537 
L 820.980455 -157.950919 
L 821.483684 -156.559301 
L 821.962046 -155.167684 
L 822.411733 -153.776066 
L 822.834998 -152.384448 
L 823.240642 -150.99283 
L 823.643011 -149.601213 
L 824.059201 -148.209595 
L 824.504856 -146.817977 
L 824.989695 -145.426359 
L 825.514304 -144.034742 
L 826.069623 -142.643124 
L 826.639746 -141.251506 
L 827.207498 -139.859888 
L 827.761104 -138.468271 
L 828.299624 -137.076653 
L 828.834988 -135.685035 
L 829.389519 -134.293417 
L 829.989411 -132.901799 
L 830.656228 -131.510182 
L 831.399495 -130.118564 
L 832.213354 -128.726946 
L 833.079037 -127.335328 
L 833.972913 -125.943711 
L 834.877823 -124.552093 
L 835.79407 -123.160475 
L 836.746307 -121.768857 
L 837.783631 -120.37724 
L 838.972 -118.985622 
L 840.380084 -117.594004 
L 842.061167 -116.202386 
L 844.034563 -114.810769 
L 846.270147 -113.419151 
L 848.679225 -112.027533 
L 851.11423 -110.635915 
L 853.378569 -109.244298 
L 855.246402 -107.85268 
L 856.490251 -106.461062 
L 856.9125 -105.069444 
L 856.375495 -103.677827 
L 854.824771 -102.286209 
L 852.300872 -100.894591 
L 848.937324 -99.502973 
L 844.944849 -98.111355 
L 840.584437 -96.719738 
L 836.13386 -95.32812 
L 831.853339 -93.936502 
L 827.956181 -92.544884 
L 824.589121 -91.153267 
L 821.825025 -89.761649 
L 819.667869 -88.370031 
L 818.067319 -86.978413 
L 816.938466 -85.586796 
L 816.181897 -84.195178 
z
" id="md7f77bf381" style="stroke:#464646;stroke-width:3;"/>
    </defs>
    <g clip-path="url(#p3221c73b1a)">
     <use style="fill:#b6a8eb;stroke:#464646;stroke-width:3;" x="0" xlink:href="#md7f77bf381" y="288"/>
    </g>
   </g>
   <g id="PolyCollection_8">
    <defs>
     <path d="M 920.354917 -81.07297 
L 919.020083 -81.07297 
L 918.5814 -82.428379 
L 917.92856 -83.783788 
L 916.999631 -85.139197 
L 915.733988 -86.494606 
L 914.08005 -87.850015 
L 912.003189 -89.205424 
L 909.492456 -90.560833 
L 906.565127 -91.916242 
L 903.268906 -93.271651 
L 899.682265 -94.62706 
L 895.913629 -95.982469 
L 892.099663 -97.337878 
L 888.40197 -98.693287 
L 885.000664 -100.048696 
L 882.083157 -101.404105 
L 879.827407 -102.759514 
L 878.380738 -104.114923 
L 877.8375 -105.470332 
L 878.220419 -106.825741 
L 879.470773 -108.18115 
L 881.451098 -109.536559 
L 883.961391 -110.891968 
L 886.766361 -112.247377 
L 889.628442 -113.602786 
L 892.339784 -114.958195 
L 894.746869 -116.313604 
L 896.763416 -117.669013 
L 898.370292 -119.024422 
L 899.604049 -120.379831 
L 900.537888 -121.73524 
L 901.259768 -123.090649 
L 901.852162 -124.446058 
L 902.376942 -125.801467 
L 902.867474 -127.156876 
L 903.328487 -128.512285 
L 903.742893 -129.867694 
L 904.083469 -131.223103 
L 904.326454 -132.578512 
L 904.463676 -133.933921 
L 904.510162 -135.28933 
L 904.50527 -136.644739 
L 904.507043 -138.000148 
L 904.5813 -139.355557 
L 904.788415 -140.710966 
L 905.171255 -142.066375 
L 905.747256 -143.421784 
L 906.506239 -144.777193 
L 907.413877 -146.132602 
L 908.419279 -147.488011 
L 909.464392 -148.84342 
L 910.493007 -150.198829 
L 911.457811 -151.554238 
L 912.324804 -152.909647 
L 913.075119 -154.265056 
L 913.704608 -155.620465 
L 914.221634 -156.975874 
L 914.643461 -158.331283 
L 914.991721 -159.686692 
L 915.287684 -161.042101 
L 915.548248 -162.39751 
L 915.783631 -163.752919 
L 915.997315 -165.108327 
L 916.188174 -166.463736 
L 916.353908 -167.819145 
L 916.494513 -169.174554 
L 916.61449 -170.529963 
L 916.723075 -171.885372 
L 916.832527 -173.240781 
L 916.9552 -174.59619 
L 917.100486 -175.951599 
L 917.272597 -177.307008 
L 917.46972 -178.662417 
L 917.684574 -180.017826 
L 917.906 -181.373235 
L 918.121059 -182.728644 
L 918.317187 -184.084053 
L 918.484099 -185.439462 
L 918.615255 -186.794871 
L 918.708762 -188.15028 
L 918.767575 -189.505689 
L 918.798915 -190.861098 
L 918.812929 -192.216507 
L 918.820833 -193.571916 
L 918.832912 -194.927325 
L 918.85686 -196.282734 
L 918.89683 -197.638143 
L 918.953337 -198.993552 
L 919.023913 -200.348961 
L 919.104196 -201.70437 
L 919.189081 -203.059779 
L 919.273664 -204.415188 
L 919.353829 -205.770597 
L 919.426521 -207.126006 
L 919.489786 -208.481415 
L 919.542685 -209.836824 
L 919.585162 -211.192233 
L 919.617873 -212.547642 
L 919.641987 -213.903051 
L 919.65897 -215.25846 
L 919.71603 -215.25846 
L 919.71603 -215.25846 
L 919.733013 -213.903051 
L 919.757127 -212.547642 
L 919.789838 -211.192233 
L 919.832315 -209.836824 
L 919.885214 -208.481415 
L 919.948479 -207.126006 
L 920.021171 -205.770597 
L 920.101336 -204.415188 
L 920.185919 -203.059779 
L 920.270804 -201.70437 
L 920.351087 -200.348961 
L 920.421663 -198.993552 
L 920.47817 -197.638143 
L 920.51814 -196.282734 
L 920.542088 -194.927325 
L 920.554167 -193.571916 
L 920.562071 -192.216507 
L 920.576085 -190.861098 
L 920.607425 -189.505689 
L 920.666238 -188.15028 
L 920.759745 -186.794871 
L 920.890901 -185.439462 
L 921.057813 -184.084053 
L 921.253941 -182.728644 
L 921.469 -181.373235 
L 921.690426 -180.017826 
L 921.90528 -178.662417 
L 922.102403 -177.307008 
L 922.274514 -175.951599 
L 922.4198 -174.59619 
L 922.542473 -173.240781 
L 922.651925 -171.885372 
L 922.76051 -170.529963 
L 922.880487 -169.174554 
L 923.021092 -167.819145 
L 923.186826 -166.463736 
L 923.377685 -165.108327 
L 923.591369 -163.752919 
L 923.826752 -162.39751 
L 924.087316 -161.042101 
L 924.383279 -159.686692 
L 924.731539 -158.331283 
L 925.153366 -156.975874 
L 925.670392 -155.620465 
L 926.299881 -154.265056 
L 927.050196 -152.909647 
L 927.917189 -151.554238 
L 928.881993 -150.198829 
L 929.910608 -148.84342 
L 930.955721 -147.488011 
L 931.961123 -146.132602 
L 932.868761 -144.777193 
L 933.627744 -143.421784 
L 934.203745 -142.066375 
L 934.586585 -140.710966 
L 934.7937 -139.355557 
L 934.867957 -138.000148 
L 934.86973 -136.644739 
L 934.864838 -135.28933 
L 934.911324 -133.933921 
L 935.048546 -132.578512 
L 935.291531 -131.223103 
L 935.632107 -129.867694 
L 936.046513 -128.512285 
L 936.507526 -127.156876 
L 936.998058 -125.801467 
L 937.522838 -124.446058 
L 938.115232 -123.090649 
L 938.837112 -121.73524 
L 939.770951 -120.379831 
L 941.004708 -119.024422 
L 942.611584 -117.669013 
L 944.628131 -116.313604 
L 947.035216 -114.958195 
L 949.746558 -113.602786 
L 952.608639 -112.247377 
L 955.413609 -110.891968 
L 957.923902 -109.536559 
L 959.904227 -108.18115 
L 961.154581 -106.825741 
L 961.5375 -105.470332 
L 960.994262 -104.114923 
L 959.547593 -102.759514 
L 957.291843 -101.404105 
L 954.374336 -100.048696 
L 950.97303 -98.693287 
L 947.275337 -97.337878 
L 943.461371 -95.982469 
L 939.692735 -94.62706 
L 936.106094 -93.271651 
L 932.809873 -91.916242 
L 929.882544 -90.560833 
L 927.371811 -89.205424 
L 925.29495 -87.850015 
L 923.641012 -86.494606 
L 922.375369 -85.139197 
L 921.44644 -83.783788 
L 920.7936 -82.428379 
L 920.354917 -81.07297 
z
" id="me15df08ee1" style="stroke:#464646;stroke-width:3;"/>
    </defs>
    <g clip-path="url(#p3221c73b1a)">
     <use style="fill:#e78cd7;stroke:#464646;stroke-width:3;" x="0" xlink:href="#me15df08ee1" y="288"/>
    </g>
   </g>
   <g id="line2d_7">
    <path clip-path="url(#p3221c73b1a)" d="M 187.3125 211.282343 
L 187.3125 122.158683 
" style="fill:none;stroke:#464646;stroke-linecap:round;stroke-width:3;"/>
   </g>
   <g id="line2d_8">
    <path clip-path="url(#p3221c73b1a)" d="M 187.3125 182.805496 
L 187.3125 158.1847 
" style="fill:none;stroke:#464646;stroke-linecap:round;stroke-width:9;"/>
   </g>
   <g id="line2d_9">
    <path clip-path="url(#p3221c73b1a)" d="M 291.9375 215.52329 
L 291.9375 115.350395 
" style="fill:none;stroke:#464646;stroke-linecap:round;stroke-width:3;"/>
   </g>
   <g id="line2d_10">
    <path clip-path="url(#p3221c73b1a)" d="M 291.9375 183.582673 
L 291.9375 155.745881 
" style="fill:none;stroke:#464646;stroke-linecap:round;stroke-width:9;"/>
   </g>
   <g id="line2d_11">
    <path clip-path="url(#p3221c73b1a)" d="M 396.5625 210.323153 
L 396.5625 119.733607 
" style="fill:none;stroke:#464646;stroke-linecap:round;stroke-width:3;"/>
   </g>
   <g id="line2d_12">
    <path clip-path="url(#p3221c73b1a)" d="M 396.5625 182.860106 
L 396.5625 157.541243 
" style="fill:none;stroke:#464646;stroke-linecap:round;stroke-width:9;"/>
   </g>
   <g id="line2d_13">
    <path clip-path="url(#p3221c73b1a)" d="M 501.1875 199.060838 
L 501.1875 127.603261 
" style="fill:none;stroke:#464646;stroke-linecap:round;stroke-width:3;"/>
   </g>
   <g id="line2d_14">
    <path clip-path="url(#p3221c73b1a)" d="M 501.1875 182.334024 
L 501.1875 160.434467 
" style="fill:none;stroke:#464646;stroke-linecap:round;stroke-width:9;"/>
   </g>
   <g id="line2d_15">
    <path clip-path="url(#p3221c73b1a)" d="M 605.8125 219.341874 
L 605.8125 112.000241 
" style="fill:none;stroke:#464646;stroke-linecap:round;stroke-width:3;"/>
   </g>
   <g id="line2d_16">
    <path clip-path="url(#p3221c73b1a)" d="M 605.8125 183.263957 
L 605.8125 154.640529 
" style="fill:none;stroke:#464646;stroke-linecap:round;stroke-width:9;"/>
   </g>
   <g id="line2d_17">
    <path clip-path="url(#p3221c73b1a)" d="M 710.4375 202.368885 
L 710.4375 118.203632 
" style="fill:none;stroke:#464646;stroke-linecap:round;stroke-width:3;"/>
   </g>
   <g id="line2d_18">
    <path clip-path="url(#p3221c73b1a)" d="M 710.4375 184.031474 
L 710.4375 157.664902 
" style="fill:none;stroke:#464646;stroke-linecap:round;stroke-width:9;"/>
   </g>
   <g id="line2d_19">
    <path clip-path="url(#p3221c73b1a)" d="M 815.0625 191.845918 
L 815.0625 116.886896 
" style="fill:none;stroke:#464646;stroke-linecap:round;stroke-width:3;"/>
   </g>
   <g id="line2d_20">
    <path clip-path="url(#p3221c73b1a)" d="M 815.0625 183.960549 
L 815.0625 156.980637 
" style="fill:none;stroke:#464646;stroke-linecap:round;stroke-width:9;"/>
   </g>
   <g id="line2d_21">
    <path clip-path="url(#p3221c73b1a)" d="M 919.6875 194.968126 
L 919.6875 111.664509 
" style="fill:none;stroke:#464646;stroke-linecap:round;stroke-width:3;"/>
   </g>
   <g id="line2d_22">
    <path clip-path="url(#p3221c73b1a)" d="M 919.6875 183.837228 
L 919.6875 154.412418 
" style="fill:none;stroke:#464646;stroke-linecap:round;stroke-width:9;"/>
   </g>
   <g id="patch_3">
    <path d="M 135 256.32 
L 135 34.56 
" style="fill:none;"/>
   </g>
   <g id="patch_4">
    <path d="M 972 256.32 
L 972 34.56 
" style="fill:none;"/>
   </g>
   <g id="patch_5">
    <path d="M 135 256.32 
L 972 256.32 
" style="fill:none;"/>
   </g>
   <g id="patch_6">
    <path d="M 135 34.56 
L 972 34.56 
" style="fill:none;"/>
   </g>
   <g id="PathCollection_1">
    <defs>
     <path d="M 0 3 
C 0.795609 3 1.55874 2.683901 2.12132 2.12132 
C 2.683901 1.55874 3 0.795609 3 0 
C 3 -0.795609 2.683901 -1.55874 2.12132 -2.12132 
C 1.55874 -2.683901 0.795609 -3 0 -3 
C -0.795609 -3 -1.55874 -2.683901 -2.12132 -2.12132 
C -2.683901 -1.55874 -3 -0.795609 -3 0 
C -3 0.795609 -2.683901 1.55874 -2.12132 2.12132 
C -1.55874 2.683901 -0.795609 3 0 3 
z
" id="mf66cb7d901" style="stroke:#464646;stroke-width:0.3;"/>
    </defs>
    <g clip-path="url(#p3221c73b1a)">
     <use style="fill:#ffffff;stroke:#464646;stroke-width:0.3;" x="187.3125" xlink:href="#mf66cb7d901" y="172.727866"/>
    </g>
   </g>
   <g id="PathCollection_2">
    <g clip-path="url(#p3221c73b1a)">
     <use style="fill:#ffffff;stroke:#464646;stroke-width:0.3;" x="291.9375" xlink:href="#mf66cb7d901" y="170.38121"/>
    </g>
   </g>
   <g id="PathCollection_3">
    <g clip-path="url(#p3221c73b1a)">
     <use style="fill:#ffffff;stroke:#464646;stroke-width:0.3;" x="396.5625" xlink:href="#mf66cb7d901" y="173.1719"/>
    </g>
   </g>
   <g id="PathCollection_4">
    <g clip-path="url(#p3221c73b1a)">
     <use style="fill:#ffffff;stroke:#464646;stroke-width:0.3;" x="501.1875" xlink:href="#mf66cb7d901" y="174.429879"/>
    </g>
   </g>
   <g id="PathCollection_5">
    <g clip-path="url(#p3221c73b1a)">
     <use style="fill:#ffffff;stroke:#464646;stroke-width:0.3;" x="605.8125" xlink:href="#mf66cb7d901" y="168.899321"/>
    </g>
   </g>
   <g id="PathCollection_6">
    <g clip-path="url(#p3221c73b1a)">
     <use style="fill:#ffffff;stroke:#464646;stroke-width:0.3;" x="710.4375" xlink:href="#mf66cb7d901" y="172.873598"/>
    </g>
   </g>
   <g id="PathCollection_7">
    <g clip-path="url(#p3221c73b1a)">
     <use style="fill:#ffffff;stroke:#464646;stroke-width:0.3;" x="815.0625" xlink:href="#mf66cb7d901" y="175.429626"/>
    </g>
   </g>
   <g id="PathCollection_8">
    <g clip-path="url(#p3221c73b1a)">
     <use style="fill:#ffffff;stroke:#464646;stroke-width:0.3;" x="919.6875" xlink:href="#mf66cb7d901" y="176.608447"/>
    </g>
   </g>
  </g>
  <g id="text_15">
   <!-- Violin Plot of all Continuous Variables -->
   <defs>
    <path d="M 28.171875 0 
L 0.4375 71.578125 
L 10.6875 71.578125 
L 29.296875 19.578125 
Q 31.546875 13.328125 33.0625 7.859375 
Q 34.71875 13.71875 36.921875 19.578125 
L 56.25 71.578125 
L 65.921875 71.578125 
L 37.890625 0 
z
" id="ArialMT-86"/>
    <path d="M 6.390625 0 
L 6.390625 71.578125 
L 15.1875 71.578125 
L 15.1875 0 
z
" id="ArialMT-108"/>
    <path d="M 7.71875 0 
L 7.71875 71.578125 
L 34.71875 71.578125 
Q 41.84375 71.578125 45.609375 70.90625 
Q 50.875 70.015625 54.4375 67.546875 
Q 58.015625 65.09375 60.1875 60.640625 
Q 62.359375 56.203125 62.359375 50.875 
Q 62.359375 41.75 56.546875 35.421875 
Q 50.734375 29.109375 35.546875 29.109375 
L 17.1875 29.109375 
L 17.1875 0 
z
M 17.1875 37.546875 
L 35.6875 37.546875 
Q 44.875 37.546875 48.734375 40.96875 
Q 52.59375 44.390625 52.59375 50.59375 
Q 52.59375 55.078125 50.3125 58.265625 
Q 48.046875 61.46875 44.34375 62.5 
Q 41.9375 63.140625 35.5 63.140625 
L 17.1875 63.140625 
z
" id="ArialMT-80"/>
    <path d="M 8.6875 0 
L 8.6875 45.015625 
L 0.921875 45.015625 
L 0.921875 51.859375 
L 8.6875 51.859375 
L 8.6875 57.375 
Q 8.6875 62.59375 9.625 65.140625 
Q 10.890625 68.5625 14.078125 70.671875 
Q 17.28125 72.796875 23.046875 72.796875 
Q 26.765625 72.796875 31.25 71.921875 
L 29.9375 64.265625 
Q 27.203125 64.75 24.75 64.75 
Q 20.75 64.75 19.09375 63.03125 
Q 17.4375 61.328125 17.4375 56.640625 
L 17.4375 51.859375 
L 27.546875 51.859375 
L 27.546875 45.015625 
L 17.4375 45.015625 
L 17.4375 0 
z
" id="ArialMT-102"/>
    <path d="M 58.796875 25.09375 
L 68.265625 22.703125 
Q 65.28125 11.03125 57.546875 4.90625 
Q 49.8125 -1.21875 38.625 -1.21875 
Q 27.046875 -1.21875 19.796875 3.484375 
Q 12.546875 8.203125 8.765625 17.140625 
Q 4.984375 26.078125 4.984375 36.328125 
Q 4.984375 47.515625 9.25 55.828125 
Q 13.53125 64.15625 21.40625 68.46875 
Q 29.296875 72.796875 38.765625 72.796875 
Q 49.515625 72.796875 56.828125 67.328125 
Q 64.15625 61.859375 67.046875 51.953125 
L 57.71875 49.75 
Q 55.21875 57.5625 50.484375 61.125 
Q 45.75 64.703125 38.578125 64.703125 
Q 30.328125 64.703125 24.78125 60.734375 
Q 19.234375 56.78125 16.984375 50.109375 
Q 14.75 43.453125 14.75 36.375 
Q 14.75 27.25 17.40625 20.4375 
Q 20.0625 13.625 25.671875 10.25 
Q 31.296875 6.890625 37.84375 6.890625 
Q 45.796875 6.890625 51.3125 11.46875 
Q 56.84375 16.0625 58.796875 25.09375 
z
" id="ArialMT-67"/>
    <path d="M 14.703125 0 
L 6.546875 0 
L 6.546875 71.578125 
L 15.328125 71.578125 
L 15.328125 46.046875 
Q 20.90625 53.03125 29.546875 53.03125 
Q 34.328125 53.03125 38.59375 51.09375 
Q 42.875 49.171875 45.625 45.671875 
Q 48.390625 42.1875 49.953125 37.25 
Q 51.515625 32.328125 51.515625 26.703125 
Q 51.515625 13.375 44.921875 6.09375 
Q 38.328125 -1.171875 29.109375 -1.171875 
Q 19.921875 -1.171875 14.703125 6.5 
z
M 14.59375 26.3125 
Q 14.59375 17 17.140625 12.84375 
Q 21.296875 6.0625 28.375 6.0625 
Q 34.125 6.0625 38.328125 11.0625 
Q 42.53125 16.0625 42.53125 25.984375 
Q 42.53125 36.140625 38.5 40.96875 
Q 34.46875 45.796875 28.765625 45.796875 
Q 23 45.796875 18.796875 40.796875 
Q 14.59375 35.796875 14.59375 26.3125 
z
" id="ArialMT-98"/>
   </defs>
   <g style="fill:#262626;" transform="translate(373.814062 -8.724375)scale(0.2 -0.2)">
    <use xlink:href="#ArialMT-86"/>
    <use x="66.683594" xlink:href="#ArialMT-105"/>
    <use x="88.900391" xlink:href="#ArialMT-111"/>
    <use x="144.515625" xlink:href="#ArialMT-108"/>
    <use x="166.732422" xlink:href="#ArialMT-105"/>
    <use x="188.949219" xlink:href="#ArialMT-110"/>
    <use x="244.564453" xlink:href="#ArialMT-32"/>
    <use x="272.347656" xlink:href="#ArialMT-80"/>
    <use x="339.046875" xlink:href="#ArialMT-108"/>
    <use x="361.263672" xlink:href="#ArialMT-111"/>
    <use x="416.878906" xlink:href="#ArialMT-116"/>
    <use x="444.662109" xlink:href="#ArialMT-32"/>
    <use x="472.445312" xlink:href="#ArialMT-111"/>
    <use x="528.060547" xlink:href="#ArialMT-102"/>
    <use x="555.84375" xlink:href="#ArialMT-32"/>
    <use x="583.626953" xlink:href="#ArialMT-97"/>
    <use x="639.242188" xlink:href="#ArialMT-108"/>
    <use x="661.458984" xlink:href="#ArialMT-108"/>
    <use x="683.675781" xlink:href="#ArialMT-32"/>
    <use x="711.458984" xlink:href="#ArialMT-67"/>
    <use x="783.675781" xlink:href="#ArialMT-111"/>
    <use x="839.291016" xlink:href="#ArialMT-110"/>
    <use x="894.90625" xlink:href="#ArialMT-116"/>
    <use x="922.689453" xlink:href="#ArialMT-105"/>
    <use x="944.90625" xlink:href="#ArialMT-110"/>
    <use x="1000.521484" xlink:href="#ArialMT-117"/>
    <use x="1056.136719" xlink:href="#ArialMT-111"/>
    <use x="1111.751953" xlink:href="#ArialMT-117"/>
    <use x="1167.367188" xlink:href="#ArialMT-115"/>
    <use x="1217.367188" xlink:href="#ArialMT-32"/>
    <use x="1245.150391" xlink:href="#ArialMT-86"/>
    <use x="1311.740234" xlink:href="#ArialMT-97"/>
    <use x="1367.355469" xlink:href="#ArialMT-114"/>
    <use x="1400.65625" xlink:href="#ArialMT-105"/>
    <use x="1422.873047" xlink:href="#ArialMT-97"/>
    <use x="1478.488281" xlink:href="#ArialMT-98"/>
    <use x="1534.103516" xlink:href="#ArialMT-108"/>
    <use x="1556.320312" xlink:href="#ArialMT-101"/>
    <use x="1611.935547" xlink:href="#ArialMT-115"/>
   </g>
  </g>
 </g>
 <defs>
  <clipPath id="p3221c73b1a">
   <rect height="221.76" width="837" x="135" y="34.56"/>
  </clipPath>
 </defs>
</svg>
