<?xml version="1.0" encoding="utf-8" standalone="no"?>
<!DOCTYPE svg PUBLIC "-//W3C//DTD SVG 1.1//EN"
  "http://www.w3.org/Graphics/SVG/1.1/DTD/svg11.dtd">
<!-- Created with matplotlib (https://matplotlib.org/) -->
<svg height="720pt" version="1.1" viewBox="0 0 1080 720" width="1080pt" xmlns="http://www.w3.org/2000/svg" xmlns:xlink="http://www.w3.org/1999/xlink">
 <defs>
  <style type="text/css">
*{stroke-linecap:butt;stroke-linejoin:round;}
  </style>
 </defs>
 <g id="figure_1">
  <g id="patch_1">
   <path d="M 0 720 
L 1080 720 
L 1080 0 
L 0 0 
z
" style="fill:#ffffff;"/>
  </g>
  <g id="axes_1">
   <g id="patch_2">
    <path d="M 39.49 311.47 
L 522.281366 311.47 
L 522.281366 27.65625 
L 39.49 27.65625 
z
" style="fill:#eaeaf2;"/>
   </g>
   <g id="matplotlib.axis_1">
    <g id="xtick_1">
     <g id="line2d_1">
      <path clip-path="url(#p8ef5d5c719)" d="M 64.066833 311.47 
L 64.066833 27.65625 
" style="fill:none;stroke:#ffffff;stroke-linecap:round;"/>
     </g>
     <g id="text_1">
      <!-- 10 -->
      <defs>
       <path d="M 37.25 0 
L 28.46875 0 
L 28.46875 56 
Q 25.296875 52.984375 20.140625 49.953125 
Q 14.984375 46.921875 10.890625 45.40625 
L 10.890625 53.90625 
Q 18.265625 57.375 23.78125 62.296875 
Q 29.296875 67.234375 31.59375 71.875 
L 37.25 71.875 
z
" id="ArialMT-49"/>
       <path d="M 4.15625 35.296875 
Q 4.15625 48 6.765625 55.734375 
Q 9.375 63.484375 14.515625 67.671875 
Q 19.671875 71.875 27.484375 71.875 
Q 33.25 71.875 37.59375 69.546875 
Q 41.9375 67.234375 44.765625 62.859375 
Q 47.609375 58.5 49.21875 52.21875 
Q 50.828125 45.953125 50.828125 35.296875 
Q 50.828125 22.703125 48.234375 14.96875 
Q 45.65625 7.234375 40.5 3 
Q 35.359375 -1.21875 27.484375 -1.21875 
Q 17.140625 -1.21875 11.234375 6.203125 
Q 4.15625 15.140625 4.15625 35.296875 
z
M 13.1875 35.296875 
Q 13.1875 17.671875 17.3125 11.828125 
Q 21.4375 6 27.484375 6 
Q 33.546875 6 37.671875 11.859375 
Q 41.796875 17.71875 41.796875 35.296875 
Q 41.796875 52.984375 37.671875 58.78125 
Q 33.546875 64.59375 27.390625 64.59375 
Q 21.34375 64.59375 17.71875 59.46875 
Q 13.1875 52.9375 13.1875 35.296875 
z
" id="ArialMT-48"/>
      </defs>
      <g style="fill:#262626;" transform="translate(58.505896 325.627813)scale(0.1 -0.1)">
       <use xlink:href="#ArialMT-49"/>
       <use x="55.615234" xlink:href="#ArialMT-48"/>
      </g>
     </g>
    </g>
    <g id="xtick_2">
     <g id="line2d_2">
      <path clip-path="url(#p8ef5d5c719)" d="M 136.608449 311.47 
L 136.608449 27.65625 
" style="fill:none;stroke:#ffffff;stroke-linecap:round;"/>
     </g>
     <g id="text_2">
      <!-- 20 -->
      <defs>
       <path d="M 50.34375 8.453125 
L 50.34375 0 
L 3.03125 0 
Q 2.9375 3.171875 4.046875 6.109375 
Q 5.859375 10.9375 9.828125 15.625 
Q 13.8125 20.3125 21.34375 26.46875 
Q 33.015625 36.03125 37.109375 41.625 
Q 41.21875 47.21875 41.21875 52.203125 
Q 41.21875 57.421875 37.46875 61 
Q 33.734375 64.59375 27.734375 64.59375 
Q 21.390625 64.59375 17.578125 60.78125 
Q 13.765625 56.984375 13.71875 50.25 
L 4.6875 51.171875 
Q 5.609375 61.28125 11.65625 66.578125 
Q 17.71875 71.875 27.9375 71.875 
Q 38.234375 71.875 44.234375 66.15625 
Q 50.25 60.453125 50.25 52 
Q 50.25 47.703125 48.484375 43.546875 
Q 46.734375 39.40625 42.65625 34.8125 
Q 38.578125 30.21875 29.109375 22.21875 
Q 21.1875 15.578125 18.9375 13.203125 
Q 16.703125 10.84375 15.234375 8.453125 
z
" id="ArialMT-50"/>
      </defs>
      <g style="fill:#262626;" transform="translate(131.047512 325.627813)scale(0.1 -0.1)">
       <use xlink:href="#ArialMT-50"/>
       <use x="55.615234" xlink:href="#ArialMT-48"/>
      </g>
     </g>
    </g>
    <g id="xtick_3">
     <g id="line2d_3">
      <path clip-path="url(#p8ef5d5c719)" d="M 209.150065 311.47 
L 209.150065 27.65625 
" style="fill:none;stroke:#ffffff;stroke-linecap:round;"/>
     </g>
     <g id="text_3">
      <!-- 30 -->
      <defs>
       <path d="M 4.203125 18.890625 
L 12.984375 20.0625 
Q 14.5 12.59375 18.140625 9.296875 
Q 21.78125 6 27 6 
Q 33.203125 6 37.46875 10.296875 
Q 41.75 14.59375 41.75 20.953125 
Q 41.75 27 37.796875 30.921875 
Q 33.84375 34.859375 27.734375 34.859375 
Q 25.25 34.859375 21.53125 33.890625 
L 22.515625 41.609375 
Q 23.390625 41.5 23.921875 41.5 
Q 29.546875 41.5 34.03125 44.421875 
Q 38.53125 47.359375 38.53125 53.46875 
Q 38.53125 58.296875 35.25 61.46875 
Q 31.984375 64.65625 26.8125 64.65625 
Q 21.6875 64.65625 18.265625 61.421875 
Q 14.84375 58.203125 13.875 51.765625 
L 5.078125 53.328125 
Q 6.6875 62.15625 12.390625 67.015625 
Q 18.109375 71.875 26.609375 71.875 
Q 32.46875 71.875 37.390625 69.359375 
Q 42.328125 66.84375 44.9375 62.5 
Q 47.5625 58.15625 47.5625 53.265625 
Q 47.5625 48.640625 45.0625 44.828125 
Q 42.578125 41.015625 37.703125 38.765625 
Q 44.046875 37.3125 47.5625 32.6875 
Q 51.078125 28.078125 51.078125 21.140625 
Q 51.078125 11.765625 44.234375 5.25 
Q 37.40625 -1.265625 26.953125 -1.265625 
Q 17.53125 -1.265625 11.296875 4.34375 
Q 5.078125 9.96875 4.203125 18.890625 
z
" id="ArialMT-51"/>
      </defs>
      <g style="fill:#262626;" transform="translate(203.589128 325.627813)scale(0.1 -0.1)">
       <use xlink:href="#ArialMT-51"/>
       <use x="55.615234" xlink:href="#ArialMT-48"/>
      </g>
     </g>
    </g>
    <g id="xtick_4">
     <g id="line2d_4">
      <path clip-path="url(#p8ef5d5c719)" d="M 281.691681 311.47 
L 281.691681 27.65625 
" style="fill:none;stroke:#ffffff;stroke-linecap:round;"/>
     </g>
     <g id="text_4">
      <!-- 40 -->
      <defs>
       <path d="M 32.328125 0 
L 32.328125 17.140625 
L 1.265625 17.140625 
L 1.265625 25.203125 
L 33.9375 71.578125 
L 41.109375 71.578125 
L 41.109375 25.203125 
L 50.78125 25.203125 
L 50.78125 17.140625 
L 41.109375 17.140625 
L 41.109375 0 
z
M 32.328125 25.203125 
L 32.328125 57.46875 
L 9.90625 25.203125 
z
" id="ArialMT-52"/>
      </defs>
      <g style="fill:#262626;" transform="translate(276.130744 325.627813)scale(0.1 -0.1)">
       <use xlink:href="#ArialMT-52"/>
       <use x="55.615234" xlink:href="#ArialMT-48"/>
      </g>
     </g>
    </g>
    <g id="xtick_5">
     <g id="line2d_5">
      <path clip-path="url(#p8ef5d5c719)" d="M 354.233297 311.47 
L 354.233297 27.65625 
" style="fill:none;stroke:#ffffff;stroke-linecap:round;"/>
     </g>
     <g id="text_5">
      <!-- 50 -->
      <defs>
       <path d="M 4.15625 18.75 
L 13.375 19.53125 
Q 14.40625 12.796875 18.140625 9.390625 
Q 21.875 6 27.15625 6 
Q 33.5 6 37.890625 10.78125 
Q 42.28125 15.578125 42.28125 23.484375 
Q 42.28125 31 38.0625 35.34375 
Q 33.84375 39.703125 27 39.703125 
Q 22.75 39.703125 19.328125 37.765625 
Q 15.921875 35.84375 13.96875 32.765625 
L 5.71875 33.84375 
L 12.640625 70.609375 
L 48.25 70.609375 
L 48.25 62.203125 
L 19.671875 62.203125 
L 15.828125 42.96875 
Q 22.265625 47.46875 29.34375 47.46875 
Q 38.71875 47.46875 45.15625 40.96875 
Q 51.609375 34.46875 51.609375 24.265625 
Q 51.609375 14.546875 45.953125 7.46875 
Q 39.0625 -1.21875 27.15625 -1.21875 
Q 17.390625 -1.21875 11.203125 4.25 
Q 5.03125 9.71875 4.15625 18.75 
z
" id="ArialMT-53"/>
      </defs>
      <g style="fill:#262626;" transform="translate(348.67236 325.627813)scale(0.1 -0.1)">
       <use xlink:href="#ArialMT-53"/>
       <use x="55.615234" xlink:href="#ArialMT-48"/>
      </g>
     </g>
    </g>
    <g id="xtick_6">
     <g id="line2d_6">
      <path clip-path="url(#p8ef5d5c719)" d="M 426.774913 311.47 
L 426.774913 27.65625 
" style="fill:none;stroke:#ffffff;stroke-linecap:round;"/>
     </g>
     <g id="text_6">
      <!-- 60 -->
      <defs>
       <path d="M 49.75 54.046875 
L 41.015625 53.375 
Q 39.84375 58.546875 37.703125 60.890625 
Q 34.125 64.65625 28.90625 64.65625 
Q 24.703125 64.65625 21.53125 62.3125 
Q 17.390625 59.28125 14.984375 53.46875 
Q 12.59375 47.65625 12.5 36.921875 
Q 15.671875 41.75 20.265625 44.09375 
Q 24.859375 46.4375 29.890625 46.4375 
Q 38.671875 46.4375 44.84375 39.96875 
Q 51.03125 33.5 51.03125 23.25 
Q 51.03125 16.5 48.125 10.71875 
Q 45.21875 4.9375 40.140625 1.859375 
Q 35.0625 -1.21875 28.609375 -1.21875 
Q 17.625 -1.21875 10.6875 6.859375 
Q 3.765625 14.9375 3.765625 33.5 
Q 3.765625 54.25 11.421875 63.671875 
Q 18.109375 71.875 29.4375 71.875 
Q 37.890625 71.875 43.28125 67.140625 
Q 48.6875 62.40625 49.75 54.046875 
z
M 13.875 23.1875 
Q 13.875 18.65625 15.796875 14.5 
Q 17.71875 10.359375 21.1875 8.171875 
Q 24.65625 6 28.46875 6 
Q 34.03125 6 38.03125 10.484375 
Q 42.046875 14.984375 42.046875 22.703125 
Q 42.046875 30.125 38.078125 34.390625 
Q 34.125 38.671875 28.125 38.671875 
Q 22.171875 38.671875 18.015625 34.390625 
Q 13.875 30.125 13.875 23.1875 
z
" id="ArialMT-54"/>
      </defs>
      <g style="fill:#262626;" transform="translate(421.213976 325.627813)scale(0.1 -0.1)">
       <use xlink:href="#ArialMT-54"/>
       <use x="55.615234" xlink:href="#ArialMT-48"/>
      </g>
     </g>
    </g>
    <g id="xtick_7">
     <g id="line2d_7">
      <path clip-path="url(#p8ef5d5c719)" d="M 499.316529 311.47 
L 499.316529 27.65625 
" style="fill:none;stroke:#ffffff;stroke-linecap:round;"/>
     </g>
     <g id="text_7">
      <!-- 70 -->
      <defs>
       <path d="M 4.734375 62.203125 
L 4.734375 70.65625 
L 51.078125 70.65625 
L 51.078125 63.8125 
Q 44.234375 56.546875 37.515625 44.484375 
Q 30.8125 32.421875 27.15625 19.671875 
Q 24.515625 10.6875 23.78125 0 
L 14.75 0 
Q 14.890625 8.453125 18.0625 20.40625 
Q 21.234375 32.375 27.171875 43.484375 
Q 33.109375 54.59375 39.796875 62.203125 
z
" id="ArialMT-55"/>
      </defs>
      <g style="fill:#262626;" transform="translate(493.755592 325.627813)scale(0.1 -0.1)">
       <use xlink:href="#ArialMT-55"/>
       <use x="55.615234" xlink:href="#ArialMT-48"/>
      </g>
     </g>
    </g>
    <g id="text_8">
     <!-- Age -->
     <defs>
      <path d="M -0.140625 0 
L 27.34375 71.578125 
L 37.546875 71.578125 
L 66.84375 0 
L 56.0625 0 
L 47.703125 21.6875 
L 17.78125 21.6875 
L 9.90625 0 
z
M 20.515625 29.390625 
L 44.78125 29.390625 
L 37.3125 49.21875 
Q 33.890625 58.25 32.234375 64.0625 
Q 30.859375 57.171875 28.375 50.390625 
z
" id="ArialMT-65"/>
      <path d="M 4.984375 -4.296875 
L 13.53125 -5.5625 
Q 14.0625 -9.515625 16.5 -11.328125 
Q 19.78125 -13.765625 25.4375 -13.765625 
Q 31.546875 -13.765625 34.859375 -11.328125 
Q 38.1875 -8.890625 39.359375 -4.5 
Q 40.046875 -1.8125 39.984375 6.78125 
Q 34.234375 0 25.640625 0 
Q 14.9375 0 9.078125 7.71875 
Q 3.21875 15.4375 3.21875 26.21875 
Q 3.21875 33.640625 5.90625 39.90625 
Q 8.59375 46.1875 13.6875 49.609375 
Q 18.796875 53.03125 25.6875 53.03125 
Q 34.859375 53.03125 40.828125 45.609375 
L 40.828125 51.859375 
L 48.921875 51.859375 
L 48.921875 7.03125 
Q 48.921875 -5.078125 46.453125 -10.125 
Q 44 -15.1875 38.640625 -18.109375 
Q 33.296875 -21.046875 25.484375 -21.046875 
Q 16.21875 -21.046875 10.5 -16.875 
Q 4.78125 -12.703125 4.984375 -4.296875 
z
M 12.25 26.859375 
Q 12.25 16.65625 16.296875 11.96875 
Q 20.359375 7.28125 26.46875 7.28125 
Q 32.515625 7.28125 36.609375 11.9375 
Q 40.71875 16.609375 40.71875 26.5625 
Q 40.71875 36.078125 36.5 40.90625 
Q 32.28125 45.75 26.3125 45.75 
Q 20.453125 45.75 16.34375 40.984375 
Q 12.25 36.234375 12.25 26.859375 
z
" id="ArialMT-103"/>
      <path d="M 42.09375 16.703125 
L 51.171875 15.578125 
Q 49.03125 7.625 43.21875 3.21875 
Q 37.40625 -1.171875 28.375 -1.171875 
Q 17 -1.171875 10.328125 5.828125 
Q 3.65625 12.84375 3.65625 25.484375 
Q 3.65625 38.578125 10.390625 45.796875 
Q 17.140625 53.03125 27.875 53.03125 
Q 38.28125 53.03125 44.875 45.953125 
Q 51.46875 38.875 51.46875 26.03125 
Q 51.46875 25.25 51.421875 23.6875 
L 12.75 23.6875 
Q 13.234375 15.140625 17.578125 10.59375 
Q 21.921875 6.0625 28.421875 6.0625 
Q 33.25 6.0625 36.671875 8.59375 
Q 40.09375 11.140625 42.09375 16.703125 
z
M 13.234375 30.90625 
L 42.1875 30.90625 
Q 41.609375 37.453125 38.875 40.71875 
Q 34.671875 45.796875 27.984375 45.796875 
Q 21.921875 45.796875 17.796875 41.75 
Q 13.671875 37.703125 13.234375 30.90625 
z
" id="ArialMT-101"/>
     </defs>
     <g style="fill:#262626;" transform="translate(271.09998 339.488906)scale(0.11 -0.11)">
      <use xlink:href="#ArialMT-65"/>
      <use x="66.699219" xlink:href="#ArialMT-103"/>
      <use x="122.314453" xlink:href="#ArialMT-101"/>
     </g>
    </g>
   </g>
   <g id="matplotlib.axis_2">
    <g id="ytick_1">
     <g id="line2d_8">
      <path clip-path="url(#p8ef5d5c719)" d="M 39.49 311.47 
L 522.281366 311.47 
" style="fill:none;stroke:#ffffff;stroke-linecap:round;"/>
     </g>
     <g id="text_9">
      <!-- 0.00 -->
      <defs>
       <path d="M 9.078125 0 
L 9.078125 10.015625 
L 19.09375 10.015625 
L 19.09375 0 
z
" id="ArialMT-46"/>
      </defs>
      <g style="fill:#262626;" transform="translate(13.029063 315.048906)scale(0.1 -0.1)">
       <use xlink:href="#ArialMT-48"/>
       <use x="55.615234" xlink:href="#ArialMT-46"/>
       <use x="83.398438" xlink:href="#ArialMT-48"/>
       <use x="139.013672" xlink:href="#ArialMT-48"/>
      </g>
     </g>
    </g>
    <g id="ytick_2">
     <g id="line2d_9">
      <path clip-path="url(#p8ef5d5c719)" d="M 39.49 252.686715 
L 522.281366 252.686715 
" style="fill:none;stroke:#ffffff;stroke-linecap:round;"/>
     </g>
     <g id="text_10">
      <!-- 0.01 -->
      <g style="fill:#262626;" transform="translate(13.029063 256.265622)scale(0.1 -0.1)">
       <use xlink:href="#ArialMT-48"/>
       <use x="55.615234" xlink:href="#ArialMT-46"/>
       <use x="83.398438" xlink:href="#ArialMT-48"/>
       <use x="139.013672" xlink:href="#ArialMT-49"/>
      </g>
     </g>
    </g>
    <g id="ytick_3">
     <g id="line2d_10">
      <path clip-path="url(#p8ef5d5c719)" d="M 39.49 193.903431 
L 522.281366 193.903431 
" style="fill:none;stroke:#ffffff;stroke-linecap:round;"/>
     </g>
     <g id="text_11">
      <!-- 0.02 -->
      <g style="fill:#262626;" transform="translate(13.029063 197.482337)scale(0.1 -0.1)">
       <use xlink:href="#ArialMT-48"/>
       <use x="55.615234" xlink:href="#ArialMT-46"/>
       <use x="83.398438" xlink:href="#ArialMT-48"/>
       <use x="139.013672" xlink:href="#ArialMT-50"/>
      </g>
     </g>
    </g>
    <g id="ytick_4">
     <g id="line2d_11">
      <path clip-path="url(#p8ef5d5c719)" d="M 39.49 135.120146 
L 522.281366 135.120146 
" style="fill:none;stroke:#ffffff;stroke-linecap:round;"/>
     </g>
     <g id="text_12">
      <!-- 0.03 -->
      <g style="fill:#262626;" transform="translate(13.029063 138.699052)scale(0.1 -0.1)">
       <use xlink:href="#ArialMT-48"/>
       <use x="55.615234" xlink:href="#ArialMT-46"/>
       <use x="83.398438" xlink:href="#ArialMT-48"/>
       <use x="139.013672" xlink:href="#ArialMT-51"/>
      </g>
     </g>
    </g>
    <g id="ytick_5">
     <g id="line2d_12">
      <path clip-path="url(#p8ef5d5c719)" d="M 39.49 76.336861 
L 522.281366 76.336861 
" style="fill:none;stroke:#ffffff;stroke-linecap:round;"/>
     </g>
     <g id="text_13">
      <!-- 0.04 -->
      <g style="fill:#262626;" transform="translate(13.029063 79.915768)scale(0.1 -0.1)">
       <use xlink:href="#ArialMT-48"/>
       <use x="55.615234" xlink:href="#ArialMT-46"/>
       <use x="83.398438" xlink:href="#ArialMT-48"/>
       <use x="139.013672" xlink:href="#ArialMT-52"/>
      </g>
     </g>
    </g>
   </g>
   <g id="line2d_13">
    <path clip-path="url(#p8ef5d5c719)" d="M 61.435062 311.108375 
L 64.732312 310.925373 
L 68.029562 310.624987 
L 71.326812 310.162558 
L 74.624062 309.479047 
L 77.921312 308.500581 
L 81.218562 307.139473 
L 84.515812 305.297245 
L 87.813062 302.870036 
L 91.110312 299.75647 
L 94.407562 295.867635 
L 97.704812 291.13825 
L 101.002062 285.537636 
L 104.299312 279.078687 
L 107.596563 271.822983 
L 110.893813 263.880453 
L 114.191063 255.402651 
L 130.677313 211.222676 
L 137.271813 195.029261 
L 153.758063 156.400812 
L 160.352563 139.973132 
L 166.947063 123.444223 
L 170.244313 115.617422 
L 173.541563 108.407686 
L 176.838813 102.059113 
L 180.136063 96.781935 
L 183.433313 92.726813 
L 186.730563 89.96472 
L 190.027813 88.474459 
L 193.325063 88.138904 
L 196.622313 88.750149 
L 199.919563 90.023013 
L 206.514063 93.156936 
L 209.811313 94.275553 
L 213.108564 94.634183 
L 216.405814 93.960702 
L 219.703064 92.076581 
L 223.000314 88.918032 
L 226.297564 84.546776 
L 229.594814 79.147971 
L 232.892064 73.014383 
L 239.486564 60.07198 
L 242.783814 54.089973 
L 246.081064 48.946295 
L 249.378314 44.945965 
L 252.675564 42.307377 
L 255.972814 41.160124 
L 259.270064 41.556663 
L 262.567314 43.493788 
L 265.864564 46.937921 
L 269.161814 51.84772 
L 272.459064 58.188496 
L 275.756314 65.935177 
L 279.053564 75.063564 
L 282.350814 85.532618 
L 285.648064 97.262798 
L 288.945314 110.116542 
L 292.242564 123.886601 
L 298.837064 153.012054 
L 305.431564 181.904248 
L 308.728814 195.386257 
L 312.026064 207.849579 
L 315.323314 219.113004 
L 318.620565 229.08899 
L 321.917815 237.780298 
L 325.215065 245.266171 
L 328.512315 251.6815 
L 331.809565 257.193129 
L 335.106815 261.977233 
L 338.404065 266.20076 
L 341.701315 270.008565 
L 344.998565 273.5165 
L 348.295815 276.809653 
L 354.890315 282.95187 
L 361.484815 288.616551 
L 364.782065 291.254664 
L 368.079315 293.735291 
L 371.376565 296.030729 
L 374.673815 298.111483 
L 377.971065 299.949307 
L 381.268315 301.520358 
L 384.565565 302.808322 
L 387.862815 303.807248 
L 391.160065 304.523737 
L 394.457315 304.978097 
L 397.754565 305.204217 
L 401.051815 305.247952 
L 407.646315 305.012113 
L 414.240815 304.734981 
L 417.538065 304.707042 
L 420.835315 304.797221 
L 424.132565 305.01979 
L 427.429816 305.373394 
L 434.024316 306.402203 
L 450.510566 309.421018 
L 457.105066 310.278296 
L 463.699566 310.838428 
L 470.294066 311.143227 
L 476.888566 311.237596 
L 480.185816 311.205632 
L 480.185816 311.205632 
" style="fill:none;stroke:#4c72b0;stroke-linecap:round;stroke-width:1.75;"/>
   </g>
   <g id="line2d_14">
    <path clip-path="url(#p8ef5d5c719)" d="M 113.82619 310.921139 
L 119.912964 310.975546 
L 125.999737 310.763429 
L 132.086511 310.253855 
L 135.129897 309.859822 
L 138.173284 309.351666 
L 141.216671 308.710402 
L 144.260058 307.915495 
L 147.303444 306.945695 
L 150.346831 305.779969 
L 153.390218 304.398502 
L 156.433604 302.783702 
L 159.476991 300.92118 
L 162.520378 298.800599 
L 165.563765 296.416352 
L 168.607151 293.767987 
L 171.650538 290.860351 
L 174.693925 287.703415 
L 177.737312 284.311782 
L 180.780698 280.703917 
L 186.867472 272.9264 
L 192.954245 264.553754 
L 199.041019 255.756049 
L 208.171179 242.020987 
L 217.301339 227.793962 
L 229.474886 208.267423 
L 235.561659 198.569343 
L 241.648433 189.321784 
L 244.691819 184.999339 
L 247.735206 180.950504 
L 250.778593 177.223229 
L 253.821979 173.853957 
L 256.865366 170.862476 
L 259.908753 168.247354 
L 262.95214 165.98243 
L 265.995526 164.014761 
L 272.0823 160.625768 
L 275.125687 158.971981 
L 278.169073 157.159924 
L 281.21246 155.038009 
L 284.255847 152.455031 
L 287.299233 149.270112 
L 290.34262 145.363132 
L 293.386007 140.64502 
L 296.429394 135.067193 
L 299.47278 128.629389 
L 302.516167 121.385151 
L 305.559554 113.444282 
L 311.646327 96.182548 
L 317.733101 78.708066 
L 320.776487 70.605809 
L 323.819874 63.320183 
L 326.863261 57.122916 
L 329.906647 52.24631 
L 332.950034 48.868254 
L 335.993421 47.100786 
L 339.036808 46.983182 
L 342.080194 48.480198 
L 345.123581 51.485542 
L 348.166968 55.830217 
L 351.210354 61.294912 
L 354.253741 67.625275 
L 357.297128 74.548725 
L 366.427288 96.225809 
L 369.470675 102.994637 
L 372.514062 109.255363 
L 375.557448 114.913634 
L 378.600835 119.927061 
L 381.644222 124.303526 
L 384.687608 128.097154 
L 387.730995 131.402417 
L 390.774382 134.346795 
L 399.904542 142.602848 
L 402.947929 145.730406 
L 405.991315 149.315115 
L 409.034702 153.490373 
L 412.078089 158.359324 
L 415.121476 163.98861 
L 418.164862 170.404156 
L 421.208249 177.589351 
L 424.251636 185.485827 
L 427.295022 193.996868 
L 433.381796 212.320898 
L 442.511956 240.577947 
L 445.555343 249.526694 
L 448.598729 257.994884 
L 451.642116 265.870625 
L 454.685503 273.071268 
L 457.72889 279.544542 
L 460.772276 285.267645 
L 463.815663 290.244615 
L 466.85905 294.502408 
L 469.902436 298.086173 
L 472.945823 301.054184 
L 475.98921 303.472866 
L 479.032597 305.412254 
L 482.075983 306.942104 
L 485.11937 308.128814 
L 488.162757 309.033166 
L 491.206144 309.708855 
L 494.24953 310.201709 
L 497.292917 310.549442 
L 500.336304 310.78183 
L 500.336304 310.78183 
" style="fill:none;stroke:#c44e52;stroke-linecap:round;stroke-width:1.75;"/>
   </g>
   <g id="patch_3">
    <path d="M 39.49 311.47 
L 39.49 27.65625 
" style="fill:none;"/>
   </g>
   <g id="patch_4">
    <path d="M 522.281366 311.47 
L 522.281366 27.65625 
" style="fill:none;"/>
   </g>
   <g id="patch_5">
    <path d="M 39.49 311.47 
L 522.281366 311.47 
" style="fill:none;"/>
   </g>
   <g id="patch_6">
    <path d="M 39.49 27.65625 
L 522.281366 27.65625 
" style="fill:none;"/>
   </g>
   <g id="text_14">
    <!-- Distribution of Age -->
    <defs>
     <path d="M 7.71875 0 
L 7.71875 71.578125 
L 32.375 71.578125 
Q 40.71875 71.578125 45.125 70.5625 
Q 51.265625 69.140625 55.609375 65.4375 
Q 61.28125 60.640625 64.078125 53.1875 
Q 66.890625 45.75 66.890625 36.1875 
Q 66.890625 28.03125 64.984375 21.734375 
Q 63.09375 15.4375 60.109375 11.296875 
Q 57.125 7.171875 53.578125 4.796875 
Q 50.046875 2.4375 45.046875 1.21875 
Q 40.046875 0 33.546875 0 
z
M 17.1875 8.453125 
L 32.46875 8.453125 
Q 39.546875 8.453125 43.578125 9.765625 
Q 47.609375 11.078125 50 13.484375 
Q 53.375 16.84375 55.25 22.53125 
Q 57.125 28.21875 57.125 36.328125 
Q 57.125 47.5625 53.4375 53.59375 
Q 49.75 59.625 44.484375 61.671875 
Q 40.671875 63.140625 32.234375 63.140625 
L 17.1875 63.140625 
z
" id="ArialMT-68"/>
     <path d="M 6.640625 61.46875 
L 6.640625 71.578125 
L 15.4375 71.578125 
L 15.4375 61.46875 
z
M 6.640625 0 
L 6.640625 51.859375 
L 15.4375 51.859375 
L 15.4375 0 
z
" id="ArialMT-105"/>
     <path d="M 3.078125 15.484375 
L 11.765625 16.84375 
Q 12.5 11.625 15.84375 8.84375 
Q 19.1875 6.0625 25.203125 6.0625 
Q 31.25 6.0625 34.171875 8.515625 
Q 37.109375 10.984375 37.109375 14.3125 
Q 37.109375 17.28125 34.515625 19 
Q 32.71875 20.171875 25.53125 21.96875 
Q 15.875 24.421875 12.140625 26.203125 
Q 8.40625 27.984375 6.46875 31.125 
Q 4.546875 34.28125 4.546875 38.09375 
Q 4.546875 41.546875 6.125 44.5 
Q 7.71875 47.46875 10.453125 49.421875 
Q 12.5 50.921875 16.03125 51.96875 
Q 19.578125 53.03125 23.640625 53.03125 
Q 29.734375 53.03125 34.34375 51.265625 
Q 38.96875 49.515625 41.15625 46.5 
Q 43.359375 43.5 44.1875 38.484375 
L 35.59375 37.3125 
Q 35.015625 41.3125 32.203125 43.546875 
Q 29.390625 45.796875 24.265625 45.796875 
Q 18.21875 45.796875 15.625 43.796875 
Q 13.03125 41.796875 13.03125 39.109375 
Q 13.03125 37.40625 14.109375 36.03125 
Q 15.1875 34.625 17.484375 33.6875 
Q 18.796875 33.203125 25.25 31.453125 
Q 34.578125 28.953125 38.25 27.359375 
Q 41.9375 25.78125 44.03125 22.75 
Q 46.140625 19.734375 46.140625 15.234375 
Q 46.140625 10.84375 43.578125 6.953125 
Q 41.015625 3.078125 36.171875 0.953125 
Q 31.34375 -1.171875 25.25 -1.171875 
Q 15.140625 -1.171875 9.84375 3.03125 
Q 4.546875 7.234375 3.078125 15.484375 
z
" id="ArialMT-115"/>
     <path d="M 25.78125 7.859375 
L 27.046875 0.09375 
Q 23.34375 -0.6875 20.40625 -0.6875 
Q 15.625 -0.6875 12.984375 0.828125 
Q 10.359375 2.34375 9.28125 4.8125 
Q 8.203125 7.28125 8.203125 15.1875 
L 8.203125 45.015625 
L 1.765625 45.015625 
L 1.765625 51.859375 
L 8.203125 51.859375 
L 8.203125 64.703125 
L 16.9375 69.96875 
L 16.9375 51.859375 
L 25.78125 51.859375 
L 25.78125 45.015625 
L 16.9375 45.015625 
L 16.9375 14.703125 
Q 16.9375 10.9375 17.40625 9.859375 
Q 17.875 8.796875 18.921875 8.15625 
Q 19.96875 7.515625 21.921875 7.515625 
Q 23.390625 7.515625 25.78125 7.859375 
z
" id="ArialMT-116"/>
     <path d="M 6.5 0 
L 6.5 51.859375 
L 14.40625 51.859375 
L 14.40625 44 
Q 17.4375 49.515625 20 51.265625 
Q 22.5625 53.03125 25.640625 53.03125 
Q 30.078125 53.03125 34.671875 50.203125 
L 31.640625 42.046875 
Q 28.421875 43.953125 25.203125 43.953125 
Q 22.3125 43.953125 20.015625 42.21875 
Q 17.71875 40.484375 16.75 37.40625 
Q 15.28125 32.71875 15.28125 27.15625 
L 15.28125 0 
z
" id="ArialMT-114"/>
     <path d="M 14.703125 0 
L 6.546875 0 
L 6.546875 71.578125 
L 15.328125 71.578125 
L 15.328125 46.046875 
Q 20.90625 53.03125 29.546875 53.03125 
Q 34.328125 53.03125 38.59375 51.09375 
Q 42.875 49.171875 45.625 45.671875 
Q 48.390625 42.1875 49.953125 37.25 
Q 51.515625 32.328125 51.515625 26.703125 
Q 51.515625 13.375 44.921875 6.09375 
Q 38.328125 -1.171875 29.109375 -1.171875 
Q 19.921875 -1.171875 14.703125 6.5 
z
M 14.59375 26.3125 
Q 14.59375 17 17.140625 12.84375 
Q 21.296875 6.0625 28.375 6.0625 
Q 34.125 6.0625 38.328125 11.0625 
Q 42.53125 16.0625 42.53125 25.984375 
Q 42.53125 36.140625 38.5 40.96875 
Q 34.46875 45.796875 28.765625 45.796875 
Q 23 45.796875 18.796875 40.796875 
Q 14.59375 35.796875 14.59375 26.3125 
z
" id="ArialMT-98"/>
     <path d="M 40.578125 0 
L 40.578125 7.625 
Q 34.515625 -1.171875 24.125 -1.171875 
Q 19.53125 -1.171875 15.546875 0.578125 
Q 11.578125 2.34375 9.640625 5 
Q 7.71875 7.671875 6.9375 11.53125 
Q 6.390625 14.109375 6.390625 19.734375 
L 6.390625 51.859375 
L 15.1875 51.859375 
L 15.1875 23.09375 
Q 15.1875 16.21875 15.71875 13.8125 
Q 16.546875 10.359375 19.234375 8.375 
Q 21.921875 6.390625 25.875 6.390625 
Q 29.828125 6.390625 33.296875 8.421875 
Q 36.765625 10.453125 38.203125 13.9375 
Q 39.65625 17.4375 39.65625 24.078125 
L 39.65625 51.859375 
L 48.4375 51.859375 
L 48.4375 0 
z
" id="ArialMT-117"/>
     <path d="M 3.328125 25.921875 
Q 3.328125 40.328125 11.328125 47.265625 
Q 18.015625 53.03125 27.640625 53.03125 
Q 38.328125 53.03125 45.109375 46.015625 
Q 51.90625 39.015625 51.90625 26.65625 
Q 51.90625 16.65625 48.90625 10.90625 
Q 45.90625 5.171875 40.15625 2 
Q 34.421875 -1.171875 27.640625 -1.171875 
Q 16.75 -1.171875 10.03125 5.8125 
Q 3.328125 12.796875 3.328125 25.921875 
z
M 12.359375 25.921875 
Q 12.359375 15.96875 16.703125 11.015625 
Q 21.046875 6.0625 27.640625 6.0625 
Q 34.1875 6.0625 38.53125 11.03125 
Q 42.875 16.015625 42.875 26.21875 
Q 42.875 35.84375 38.5 40.796875 
Q 34.125 45.75 27.640625 45.75 
Q 21.046875 45.75 16.703125 40.8125 
Q 12.359375 35.890625 12.359375 25.921875 
z
" id="ArialMT-111"/>
     <path d="M 6.59375 0 
L 6.59375 51.859375 
L 14.5 51.859375 
L 14.5 44.484375 
Q 20.21875 53.03125 31 53.03125 
Q 35.6875 53.03125 39.625 51.34375 
Q 43.5625 49.65625 45.515625 46.921875 
Q 47.46875 44.1875 48.25 40.4375 
Q 48.734375 37.984375 48.734375 31.890625 
L 48.734375 0 
L 39.9375 0 
L 39.9375 31.546875 
Q 39.9375 36.921875 38.90625 39.578125 
Q 37.890625 42.234375 35.28125 43.8125 
Q 32.671875 45.40625 29.15625 45.40625 
Q 23.53125 45.40625 19.453125 41.84375 
Q 15.375 38.28125 15.375 28.328125 
L 15.375 0 
z
" id="ArialMT-110"/>
     <path id="ArialMT-32"/>
     <path d="M 8.6875 0 
L 8.6875 45.015625 
L 0.921875 45.015625 
L 0.921875 51.859375 
L 8.6875 51.859375 
L 8.6875 57.375 
Q 8.6875 62.59375 9.625 65.140625 
Q 10.890625 68.5625 14.078125 70.671875 
Q 17.28125 72.796875 23.046875 72.796875 
Q 26.765625 72.796875 31.25 71.921875 
L 29.9375 64.265625 
Q 27.203125 64.75 24.75 64.75 
Q 20.75 64.75 19.09375 63.03125 
Q 17.4375 61.328125 17.4375 56.640625 
L 17.4375 51.859375 
L 27.546875 51.859375 
L 27.546875 45.015625 
L 17.4375 45.015625 
L 17.4375 0 
z
" id="ArialMT-102"/>
    </defs>
    <g style="fill:#262626;" transform="translate(231.867558 21.65625)scale(0.12 -0.12)">
     <use xlink:href="#ArialMT-68"/>
     <use x="72.216797" xlink:href="#ArialMT-105"/>
     <use x="94.433594" xlink:href="#ArialMT-115"/>
     <use x="144.433594" xlink:href="#ArialMT-116"/>
     <use x="172.216797" xlink:href="#ArialMT-114"/>
     <use x="205.517578" xlink:href="#ArialMT-105"/>
     <use x="227.734375" xlink:href="#ArialMT-98"/>
     <use x="283.349609" xlink:href="#ArialMT-117"/>
     <use x="338.964844" xlink:href="#ArialMT-116"/>
     <use x="366.748047" xlink:href="#ArialMT-105"/>
     <use x="388.964844" xlink:href="#ArialMT-111"/>
     <use x="444.580078" xlink:href="#ArialMT-110"/>
     <use x="500.195312" xlink:href="#ArialMT-32"/>
     <use x="527.978516" xlink:href="#ArialMT-111"/>
     <use x="583.59375" xlink:href="#ArialMT-102"/>
     <use x="611.376953" xlink:href="#ArialMT-32"/>
     <use x="639.082031" xlink:href="#ArialMT-65"/>
     <use x="705.78125" xlink:href="#ArialMT-103"/>
     <use x="761.396484" xlink:href="#ArialMT-101"/>
    </g>
   </g>
   <g id="legend_1">
    <g id="line2d_15">
     <path d="M 479.720428 40.314062 
L 499.720428 40.314062 
" style="fill:none;stroke:#4c72b0;stroke-linecap:round;stroke-width:1.75;"/>
    </g>
    <g id="line2d_16"/>
    <g id="text_15">
     <!-- 0 -->
     <g style="fill:#262626;" transform="translate(507.720428 43.814062)scale(0.1 -0.1)">
      <use xlink:href="#ArialMT-48"/>
     </g>
    </g>
    <g id="line2d_17">
     <path d="M 479.720428 54.459375 
L 499.720428 54.459375 
" style="fill:none;stroke:#c44e52;stroke-linecap:round;stroke-width:1.75;"/>
    </g>
    <g id="line2d_18"/>
    <g id="text_16">
     <!-- 1 -->
     <g style="fill:#262626;" transform="translate(507.720428 57.959375)scale(0.1 -0.1)">
      <use xlink:href="#ArialMT-49"/>
     </g>
    </g>
   </g>
  </g>
  <g id="axes_2">
   <g id="patch_7">
    <path d="M 584.091366 311.47 
L 1066.882732 311.47 
L 1066.882732 27.65625 
L 584.091366 27.65625 
z
" style="fill:#eaeaf2;"/>
   </g>
   <g id="matplotlib.axis_3">
    <g id="xtick_8">
     <g id="line2d_19">
      <path clip-path="url(#p80f8009351)" d="M 662.617858 311.47 
L 662.617858 27.65625 
" style="fill:none;stroke:#ffffff;stroke-linecap:round;"/>
     </g>
     <g id="text_17">
      <!-- 0 -->
      <g style="fill:#262626;" transform="translate(659.837389 325.627813)scale(0.1 -0.1)">
       <use xlink:href="#ArialMT-48"/>
      </g>
     </g>
    </g>
    <g id="xtick_9">
     <g id="line2d_20">
      <path clip-path="url(#p80f8009351)" d="M 758.423264 311.47 
L 758.423264 27.65625 
" style="fill:none;stroke:#ffffff;stroke-linecap:round;"/>
     </g>
     <g id="text_18">
      <!-- 50000 -->
      <g style="fill:#262626;" transform="translate(744.520921 325.627813)scale(0.1 -0.1)">
       <use xlink:href="#ArialMT-53"/>
       <use x="55.615234" xlink:href="#ArialMT-48"/>
       <use x="111.230469" xlink:href="#ArialMT-48"/>
       <use x="166.845703" xlink:href="#ArialMT-48"/>
       <use x="222.460938" xlink:href="#ArialMT-48"/>
      </g>
     </g>
    </g>
    <g id="xtick_10">
     <g id="line2d_21">
      <path clip-path="url(#p80f8009351)" d="M 854.228671 311.47 
L 854.228671 27.65625 
" style="fill:none;stroke:#ffffff;stroke-linecap:round;"/>
     </g>
     <g id="text_19">
      <!-- 100000 -->
      <g style="fill:#262626;" transform="translate(837.545858 325.627813)scale(0.1 -0.1)">
       <use xlink:href="#ArialMT-49"/>
       <use x="55.615234" xlink:href="#ArialMT-48"/>
       <use x="111.230469" xlink:href="#ArialMT-48"/>
       <use x="166.845703" xlink:href="#ArialMT-48"/>
       <use x="222.460938" xlink:href="#ArialMT-48"/>
       <use x="278.076172" xlink:href="#ArialMT-48"/>
      </g>
     </g>
    </g>
    <g id="xtick_11">
     <g id="line2d_22">
      <path clip-path="url(#p80f8009351)" d="M 950.034077 311.47 
L 950.034077 27.65625 
" style="fill:none;stroke:#ffffff;stroke-linecap:round;"/>
     </g>
     <g id="text_20">
      <!-- 150000 -->
      <g style="fill:#262626;" transform="translate(933.351264 325.627813)scale(0.1 -0.1)">
       <use xlink:href="#ArialMT-49"/>
       <use x="55.615234" xlink:href="#ArialMT-53"/>
       <use x="111.230469" xlink:href="#ArialMT-48"/>
       <use x="166.845703" xlink:href="#ArialMT-48"/>
       <use x="222.460938" xlink:href="#ArialMT-48"/>
       <use x="278.076172" xlink:href="#ArialMT-48"/>
      </g>
     </g>
    </g>
    <g id="xtick_12">
     <g id="line2d_23">
      <path clip-path="url(#p80f8009351)" d="M 1045.839483 311.47 
L 1045.839483 27.65625 
" style="fill:none;stroke:#ffffff;stroke-linecap:round;"/>
     </g>
     <g id="text_21">
      <!-- 200000 -->
      <g style="fill:#262626;" transform="translate(1029.15667 325.627813)scale(0.1 -0.1)">
       <use xlink:href="#ArialMT-50"/>
       <use x="55.615234" xlink:href="#ArialMT-48"/>
       <use x="111.230469" xlink:href="#ArialMT-48"/>
       <use x="166.845703" xlink:href="#ArialMT-48"/>
       <use x="222.460938" xlink:href="#ArialMT-48"/>
       <use x="278.076172" xlink:href="#ArialMT-48"/>
      </g>
     </g>
    </g>
    <g id="text_22">
     <!-- EstimatedSalary -->
     <defs>
      <path d="M 7.90625 0 
L 7.90625 71.578125 
L 59.671875 71.578125 
L 59.671875 63.140625 
L 17.390625 63.140625 
L 17.390625 41.21875 
L 56.984375 41.21875 
L 56.984375 32.8125 
L 17.390625 32.8125 
L 17.390625 8.453125 
L 61.328125 8.453125 
L 61.328125 0 
z
" id="ArialMT-69"/>
      <path d="M 6.59375 0 
L 6.59375 51.859375 
L 14.453125 51.859375 
L 14.453125 44.578125 
Q 16.890625 48.390625 20.9375 50.703125 
Q 25 53.03125 30.171875 53.03125 
Q 35.9375 53.03125 39.625 50.640625 
Q 43.3125 48.25 44.828125 43.953125 
Q 50.984375 53.03125 60.84375 53.03125 
Q 68.5625 53.03125 72.703125 48.75 
Q 76.859375 44.484375 76.859375 35.59375 
L 76.859375 0 
L 68.109375 0 
L 68.109375 32.671875 
Q 68.109375 37.9375 67.25 40.25 
Q 66.40625 42.578125 64.15625 43.984375 
Q 61.921875 45.40625 58.890625 45.40625 
Q 53.421875 45.40625 49.796875 41.765625 
Q 46.1875 38.140625 46.1875 30.125 
L 46.1875 0 
L 37.40625 0 
L 37.40625 33.6875 
Q 37.40625 39.546875 35.25 42.46875 
Q 33.109375 45.40625 28.21875 45.40625 
Q 24.515625 45.40625 21.359375 43.453125 
Q 18.21875 41.5 16.796875 37.734375 
Q 15.375 33.984375 15.375 26.90625 
L 15.375 0 
z
" id="ArialMT-109"/>
      <path d="M 40.4375 6.390625 
Q 35.546875 2.25 31.03125 0.53125 
Q 26.515625 -1.171875 21.34375 -1.171875 
Q 12.796875 -1.171875 8.203125 3 
Q 3.609375 7.171875 3.609375 13.671875 
Q 3.609375 17.484375 5.34375 20.625 
Q 7.078125 23.78125 9.890625 25.6875 
Q 12.703125 27.59375 16.21875 28.5625 
Q 18.796875 29.25 24.03125 29.890625 
Q 34.671875 31.15625 39.703125 32.90625 
Q 39.75 34.71875 39.75 35.203125 
Q 39.75 40.578125 37.25 42.78125 
Q 33.890625 45.75 27.25 45.75 
Q 21.046875 45.75 18.09375 43.578125 
Q 15.140625 41.40625 13.71875 35.890625 
L 5.125 37.0625 
Q 6.296875 42.578125 8.984375 45.96875 
Q 11.671875 49.359375 16.75 51.1875 
Q 21.828125 53.03125 28.515625 53.03125 
Q 35.15625 53.03125 39.296875 51.46875 
Q 43.453125 49.90625 45.40625 47.53125 
Q 47.359375 45.171875 48.140625 41.546875 
Q 48.578125 39.3125 48.578125 33.453125 
L 48.578125 21.734375 
Q 48.578125 9.46875 49.140625 6.21875 
Q 49.703125 2.984375 51.375 0 
L 42.1875 0 
Q 40.828125 2.734375 40.4375 6.390625 
z
M 39.703125 26.03125 
Q 34.90625 24.078125 25.34375 22.703125 
Q 19.921875 21.921875 17.671875 20.9375 
Q 15.4375 19.96875 14.203125 18.09375 
Q 12.984375 16.21875 12.984375 13.921875 
Q 12.984375 10.40625 15.640625 8.0625 
Q 18.3125 5.71875 23.4375 5.71875 
Q 28.515625 5.71875 32.46875 7.9375 
Q 36.421875 10.15625 38.28125 14.015625 
Q 39.703125 17 39.703125 22.796875 
z
" id="ArialMT-97"/>
      <path d="M 40.234375 0 
L 40.234375 6.546875 
Q 35.296875 -1.171875 25.734375 -1.171875 
Q 19.53125 -1.171875 14.328125 2.25 
Q 9.125 5.671875 6.265625 11.796875 
Q 3.421875 17.921875 3.421875 25.875 
Q 3.421875 33.640625 6 39.96875 
Q 8.59375 46.296875 13.765625 49.65625 
Q 18.953125 53.03125 25.34375 53.03125 
Q 30.03125 53.03125 33.6875 51.046875 
Q 37.359375 49.078125 39.65625 45.90625 
L 39.65625 71.578125 
L 48.390625 71.578125 
L 48.390625 0 
z
M 12.453125 25.875 
Q 12.453125 15.921875 16.640625 10.984375 
Q 20.84375 6.0625 26.5625 6.0625 
Q 32.328125 6.0625 36.34375 10.765625 
Q 40.375 15.484375 40.375 25.140625 
Q 40.375 35.796875 36.265625 40.765625 
Q 32.171875 45.75 26.171875 45.75 
Q 20.3125 45.75 16.375 40.96875 
Q 12.453125 36.1875 12.453125 25.875 
z
" id="ArialMT-100"/>
      <path d="M 4.5 23 
L 13.421875 23.78125 
Q 14.0625 18.40625 16.375 14.96875 
Q 18.703125 11.53125 23.578125 9.40625 
Q 28.46875 7.28125 34.578125 7.28125 
Q 39.984375 7.28125 44.140625 8.890625 
Q 48.296875 10.5 50.3125 13.296875 
Q 52.34375 16.109375 52.34375 19.4375 
Q 52.34375 22.796875 50.390625 25.3125 
Q 48.4375 27.828125 43.953125 29.546875 
Q 41.0625 30.671875 31.203125 33.03125 
Q 21.34375 35.40625 17.390625 37.5 
Q 12.25 40.1875 9.734375 44.15625 
Q 7.234375 48.140625 7.234375 53.078125 
Q 7.234375 58.5 10.296875 63.203125 
Q 13.375 67.921875 19.28125 70.359375 
Q 25.203125 72.796875 32.421875 72.796875 
Q 40.375 72.796875 46.453125 70.234375 
Q 52.546875 67.671875 55.8125 62.6875 
Q 59.078125 57.71875 59.328125 51.421875 
L 50.25 50.734375 
Q 49.515625 57.515625 45.28125 60.984375 
Q 41.0625 64.453125 32.8125 64.453125 
Q 24.21875 64.453125 20.28125 61.296875 
Q 16.359375 58.15625 16.359375 53.71875 
Q 16.359375 49.859375 19.140625 47.359375 
Q 21.875 44.875 33.421875 42.265625 
Q 44.96875 39.65625 49.265625 37.703125 
Q 55.515625 34.8125 58.484375 30.390625 
Q 61.46875 25.984375 61.46875 20.21875 
Q 61.46875 14.5 58.203125 9.4375 
Q 54.9375 4.390625 48.796875 1.578125 
Q 42.671875 -1.21875 35.015625 -1.21875 
Q 25.296875 -1.21875 18.71875 1.609375 
Q 12.15625 4.4375 8.421875 10.125 
Q 4.6875 15.828125 4.5 23 
z
" id="ArialMT-83"/>
      <path d="M 6.390625 0 
L 6.390625 71.578125 
L 15.1875 71.578125 
L 15.1875 0 
z
" id="ArialMT-108"/>
      <path d="M 6.203125 -19.96875 
L 5.21875 -11.71875 
Q 8.109375 -12.5 10.25 -12.5 
Q 13.1875 -12.5 14.9375 -11.515625 
Q 16.703125 -10.546875 17.828125 -8.796875 
Q 18.65625 -7.46875 20.515625 -2.25 
Q 20.75 -1.515625 21.296875 -0.09375 
L 1.609375 51.859375 
L 11.078125 51.859375 
L 21.875 21.828125 
Q 23.96875 16.109375 25.640625 9.8125 
Q 27.15625 15.875 29.25 21.625 
L 40.328125 51.859375 
L 49.125 51.859375 
L 29.390625 -0.875 
Q 26.21875 -9.421875 24.46875 -12.640625 
Q 22.125 -17 19.09375 -19.015625 
Q 16.0625 -21.046875 11.859375 -21.046875 
Q 9.328125 -21.046875 6.203125 -19.96875 
z
" id="ArialMT-121"/>
     </defs>
     <g style="fill:#262626;" transform="translate(785.444471 339.622969)scale(0.11 -0.11)">
      <use xlink:href="#ArialMT-69"/>
      <use x="66.699219" xlink:href="#ArialMT-115"/>
      <use x="116.699219" xlink:href="#ArialMT-116"/>
      <use x="144.482422" xlink:href="#ArialMT-105"/>
      <use x="166.699219" xlink:href="#ArialMT-109"/>
      <use x="250" xlink:href="#ArialMT-97"/>
      <use x="305.615234" xlink:href="#ArialMT-116"/>
      <use x="333.398438" xlink:href="#ArialMT-101"/>
      <use x="389.013672" xlink:href="#ArialMT-100"/>
      <use x="444.628906" xlink:href="#ArialMT-83"/>
      <use x="511.328125" xlink:href="#ArialMT-97"/>
      <use x="566.943359" xlink:href="#ArialMT-108"/>
      <use x="589.160156" xlink:href="#ArialMT-97"/>
      <use x="644.775391" xlink:href="#ArialMT-114"/>
      <use x="678.076172" xlink:href="#ArialMT-121"/>
     </g>
    </g>
   </g>
   <g id="matplotlib.axis_4">
    <g id="ytick_6">
     <g id="line2d_24">
      <path clip-path="url(#p80f8009351)" d="M 584.091366 311.47 
L 1066.882732 311.47 
" style="fill:none;stroke:#ffffff;stroke-linecap:round;"/>
     </g>
     <g id="text_23">
      <!-- 0.000000 -->
      <g style="fill:#262626;" transform="translate(535.386678 315.048906)scale(0.1 -0.1)">
       <use xlink:href="#ArialMT-48"/>
       <use x="55.615234" xlink:href="#ArialMT-46"/>
       <use x="83.398438" xlink:href="#ArialMT-48"/>
       <use x="139.013672" xlink:href="#ArialMT-48"/>
       <use x="194.628906" xlink:href="#ArialMT-48"/>
       <use x="250.244141" xlink:href="#ArialMT-48"/>
       <use x="305.859375" xlink:href="#ArialMT-48"/>
       <use x="361.474609" xlink:href="#ArialMT-48"/>
      </g>
     </g>
    </g>
    <g id="ytick_7">
     <g id="line2d_25">
      <path clip-path="url(#p80f8009351)" d="M 584.091366 277.765172 
L 1066.882732 277.765172 
" style="fill:none;stroke:#ffffff;stroke-linecap:round;"/>
     </g>
     <g id="text_24">
      <!-- 0.000002 -->
      <g style="fill:#262626;" transform="translate(535.386678 281.344078)scale(0.1 -0.1)">
       <use xlink:href="#ArialMT-48"/>
       <use x="55.615234" xlink:href="#ArialMT-46"/>
       <use x="83.398438" xlink:href="#ArialMT-48"/>
       <use x="139.013672" xlink:href="#ArialMT-48"/>
       <use x="194.628906" xlink:href="#ArialMT-48"/>
       <use x="250.244141" xlink:href="#ArialMT-48"/>
       <use x="305.859375" xlink:href="#ArialMT-48"/>
       <use x="361.474609" xlink:href="#ArialMT-50"/>
      </g>
     </g>
    </g>
    <g id="ytick_8">
     <g id="line2d_26">
      <path clip-path="url(#p80f8009351)" d="M 584.091366 244.060343 
L 1066.882732 244.060343 
" style="fill:none;stroke:#ffffff;stroke-linecap:round;"/>
     </g>
     <g id="text_25">
      <!-- 0.000004 -->
      <g style="fill:#262626;" transform="translate(535.386678 247.639249)scale(0.1 -0.1)">
       <use xlink:href="#ArialMT-48"/>
       <use x="55.615234" xlink:href="#ArialMT-46"/>
       <use x="83.398438" xlink:href="#ArialMT-48"/>
       <use x="139.013672" xlink:href="#ArialMT-48"/>
       <use x="194.628906" xlink:href="#ArialMT-48"/>
       <use x="250.244141" xlink:href="#ArialMT-48"/>
       <use x="305.859375" xlink:href="#ArialMT-48"/>
       <use x="361.474609" xlink:href="#ArialMT-52"/>
      </g>
     </g>
    </g>
    <g id="ytick_9">
     <g id="line2d_27">
      <path clip-path="url(#p80f8009351)" d="M 584.091366 210.355515 
L 1066.882732 210.355515 
" style="fill:none;stroke:#ffffff;stroke-linecap:round;"/>
     </g>
     <g id="text_26">
      <!-- 0.000006 -->
      <g style="fill:#262626;" transform="translate(535.386678 213.934421)scale(0.1 -0.1)">
       <use xlink:href="#ArialMT-48"/>
       <use x="55.615234" xlink:href="#ArialMT-46"/>
       <use x="83.398438" xlink:href="#ArialMT-48"/>
       <use x="139.013672" xlink:href="#ArialMT-48"/>
       <use x="194.628906" xlink:href="#ArialMT-48"/>
       <use x="250.244141" xlink:href="#ArialMT-48"/>
       <use x="305.859375" xlink:href="#ArialMT-48"/>
       <use x="361.474609" xlink:href="#ArialMT-54"/>
      </g>
     </g>
    </g>
    <g id="ytick_10">
     <g id="line2d_28">
      <path clip-path="url(#p80f8009351)" d="M 584.091366 176.650686 
L 1066.882732 176.650686 
" style="fill:none;stroke:#ffffff;stroke-linecap:round;"/>
     </g>
     <g id="text_27">
      <!-- 0.000008 -->
      <defs>
       <path d="M 17.671875 38.8125 
Q 12.203125 40.828125 9.5625 44.53125 
Q 6.9375 48.25 6.9375 53.421875 
Q 6.9375 61.234375 12.546875 66.546875 
Q 18.171875 71.875 27.484375 71.875 
Q 36.859375 71.875 42.578125 66.421875 
Q 48.296875 60.984375 48.296875 53.171875 
Q 48.296875 48.1875 45.671875 44.5 
Q 43.0625 40.828125 37.75 38.8125 
Q 44.34375 36.671875 47.78125 31.875 
Q 51.21875 27.09375 51.21875 20.453125 
Q 51.21875 11.28125 44.71875 5.03125 
Q 38.234375 -1.21875 27.640625 -1.21875 
Q 17.046875 -1.21875 10.546875 5.046875 
Q 4.046875 11.328125 4.046875 20.703125 
Q 4.046875 27.6875 7.59375 32.390625 
Q 11.140625 37.109375 17.671875 38.8125 
z
M 15.921875 53.71875 
Q 15.921875 48.640625 19.1875 45.40625 
Q 22.46875 42.1875 27.6875 42.1875 
Q 32.765625 42.1875 36.015625 45.375 
Q 39.265625 48.578125 39.265625 53.21875 
Q 39.265625 58.0625 35.90625 61.359375 
Q 32.5625 64.65625 27.59375 64.65625 
Q 22.5625 64.65625 19.234375 61.421875 
Q 15.921875 58.203125 15.921875 53.71875 
z
M 13.09375 20.65625 
Q 13.09375 16.890625 14.875 13.375 
Q 16.65625 9.859375 20.171875 7.921875 
Q 23.6875 6 27.734375 6 
Q 34.03125 6 38.125 10.046875 
Q 42.234375 14.109375 42.234375 20.359375 
Q 42.234375 26.703125 38.015625 30.859375 
Q 33.796875 35.015625 27.4375 35.015625 
Q 21.234375 35.015625 17.15625 30.90625 
Q 13.09375 26.8125 13.09375 20.65625 
z
" id="ArialMT-56"/>
      </defs>
      <g style="fill:#262626;" transform="translate(535.386678 180.229593)scale(0.1 -0.1)">
       <use xlink:href="#ArialMT-48"/>
       <use x="55.615234" xlink:href="#ArialMT-46"/>
       <use x="83.398438" xlink:href="#ArialMT-48"/>
       <use x="139.013672" xlink:href="#ArialMT-48"/>
       <use x="194.628906" xlink:href="#ArialMT-48"/>
       <use x="250.244141" xlink:href="#ArialMT-48"/>
       <use x="305.859375" xlink:href="#ArialMT-48"/>
       <use x="361.474609" xlink:href="#ArialMT-56"/>
      </g>
     </g>
    </g>
    <g id="ytick_11">
     <g id="line2d_29">
      <path clip-path="url(#p80f8009351)" d="M 584.091366 142.945858 
L 1066.882732 142.945858 
" style="fill:none;stroke:#ffffff;stroke-linecap:round;"/>
     </g>
     <g id="text_28">
      <!-- 0.000010 -->
      <g style="fill:#262626;" transform="translate(535.386678 146.524764)scale(0.1 -0.1)">
       <use xlink:href="#ArialMT-48"/>
       <use x="55.615234" xlink:href="#ArialMT-46"/>
       <use x="83.398438" xlink:href="#ArialMT-48"/>
       <use x="139.013672" xlink:href="#ArialMT-48"/>
       <use x="194.628906" xlink:href="#ArialMT-48"/>
       <use x="250.244141" xlink:href="#ArialMT-48"/>
       <use x="305.859375" xlink:href="#ArialMT-49"/>
       <use x="361.474609" xlink:href="#ArialMT-48"/>
      </g>
     </g>
    </g>
    <g id="ytick_12">
     <g id="line2d_30">
      <path clip-path="url(#p80f8009351)" d="M 584.091366 109.24103 
L 1066.882732 109.24103 
" style="fill:none;stroke:#ffffff;stroke-linecap:round;"/>
     </g>
     <g id="text_29">
      <!-- 0.000012 -->
      <g style="fill:#262626;" transform="translate(535.386678 112.819936)scale(0.1 -0.1)">
       <use xlink:href="#ArialMT-48"/>
       <use x="55.615234" xlink:href="#ArialMT-46"/>
       <use x="83.398438" xlink:href="#ArialMT-48"/>
       <use x="139.013672" xlink:href="#ArialMT-48"/>
       <use x="194.628906" xlink:href="#ArialMT-48"/>
       <use x="250.244141" xlink:href="#ArialMT-48"/>
       <use x="305.859375" xlink:href="#ArialMT-49"/>
       <use x="361.474609" xlink:href="#ArialMT-50"/>
      </g>
     </g>
    </g>
    <g id="ytick_13">
     <g id="line2d_31">
      <path clip-path="url(#p80f8009351)" d="M 584.091366 75.536201 
L 1066.882732 75.536201 
" style="fill:none;stroke:#ffffff;stroke-linecap:round;"/>
     </g>
     <g id="text_30">
      <!-- 0.000014 -->
      <g style="fill:#262626;" transform="translate(535.386678 79.115107)scale(0.1 -0.1)">
       <use xlink:href="#ArialMT-48"/>
       <use x="55.615234" xlink:href="#ArialMT-46"/>
       <use x="83.398438" xlink:href="#ArialMT-48"/>
       <use x="139.013672" xlink:href="#ArialMT-48"/>
       <use x="194.628906" xlink:href="#ArialMT-48"/>
       <use x="250.244141" xlink:href="#ArialMT-48"/>
       <use x="305.859375" xlink:href="#ArialMT-49"/>
       <use x="361.474609" xlink:href="#ArialMT-52"/>
      </g>
     </g>
    </g>
    <g id="ytick_14">
     <g id="line2d_32">
      <path clip-path="url(#p80f8009351)" d="M 584.091366 41.831373 
L 1066.882732 41.831373 
" style="fill:none;stroke:#ffffff;stroke-linecap:round;"/>
     </g>
     <g id="text_31">
      <!-- 0.000016 -->
      <g style="fill:#262626;" transform="translate(535.386678 45.410279)scale(0.1 -0.1)">
       <use xlink:href="#ArialMT-48"/>
       <use x="55.615234" xlink:href="#ArialMT-46"/>
       <use x="83.398438" xlink:href="#ArialMT-48"/>
       <use x="139.013672" xlink:href="#ArialMT-48"/>
       <use x="194.628906" xlink:href="#ArialMT-48"/>
       <use x="250.244141" xlink:href="#ArialMT-48"/>
       <use x="305.859375" xlink:href="#ArialMT-49"/>
       <use x="361.474609" xlink:href="#ArialMT-54"/>
      </g>
     </g>
    </g>
   </g>
   <g id="line2d_33">
    <path clip-path="url(#p80f8009351)" d="M 642.496768 311.097262 
L 645.16728 310.878923 
L 647.837792 310.530406 
L 650.508304 309.998046 
L 653.178816 309.211697 
L 655.849329 308.084144 
L 658.519841 306.512362 
L 661.190353 304.381339 
L 663.860865 301.570947 
L 666.531377 297.966005 
L 669.20189 293.469081 
L 671.872402 288.014949 
L 674.542914 281.584954 
L 677.213426 274.219095 
L 679.883938 266.023506 
L 682.554451 257.171359 
L 693.236499 220.413396 
L 695.907011 212.345422 
L 698.577524 205.232146 
L 701.248036 199.223613 
L 703.918548 194.387021 
L 706.58906 190.703265 
L 709.259572 188.071283 
L 711.930085 186.318911 
L 714.600597 185.218363 
L 722.612133 183.100351 
L 725.282646 181.858914 
L 727.953158 179.932485 
L 730.62367 177.127955 
L 733.294182 173.304401 
L 735.964694 168.379198 
L 738.635207 162.331254 
L 741.305719 155.201597 
L 743.976231 147.091561 
L 746.646743 138.158784 
L 751.987767 118.69725 
L 757.328792 98.9007 
L 759.999304 89.598993 
L 762.669816 81.052835 
L 765.340328 73.474658 
L 768.010841 67.00645 
L 770.681353 61.703972 
L 773.351865 57.529856 
L 776.022377 54.358358 
L 778.692889 51.992795 
L 781.363402 50.194556 
L 786.704426 47.361484 
L 797.386475 41.902237 
L 800.056987 41.163111 
L 802.727499 41.245861 
L 805.398011 42.517159 
L 808.068523 45.328769 
L 810.739036 49.979891 
L 813.409548 56.68602 
L 816.08006 65.556852 
L 818.750572 76.584355 
L 821.421084 89.640901 
L 824.091597 104.486533 
L 826.762109 120.783998 
L 832.103133 156.030419 
L 837.444158 191.636655 
L 840.11467 208.406771 
L 842.785182 223.951737 
L 845.455694 237.960768 
L 848.126206 250.213016 
L 850.796719 260.583617 
L 853.467231 269.043078 
L 856.137743 275.650695 
L 858.808255 280.543163 
L 861.478767 283.919705 
L 864.14928 286.025009 
L 866.819792 287.131109 
L 869.490304 287.519161 
L 872.160816 287.46193 
L 877.50184 286.967054 
L 880.172353 286.901638 
L 882.842865 287.118776 
L 885.513377 287.669602 
L 888.183889 288.552763 
L 890.854401 289.722767 
L 896.195426 292.59571 
L 901.53645 295.544666 
L 904.206962 296.846148 
L 906.877475 297.970388 
L 909.547987 298.905963 
L 912.218499 299.667065 
L 917.559523 300.81315 
L 925.57106 302.28804 
L 930.912084 303.502486 
L 936.253109 304.959037 
L 946.935157 307.9944 
L 952.276182 309.224879 
L 957.617206 310.139725 
L 962.958231 310.747274 
L 968.299255 311.104146 
L 973.640279 311.273832 
L 978.981304 311.2866 
L 981.651816 311.224342 
L 981.651816 311.224342 
" style="fill:none;stroke:#ccb974;stroke-linecap:round;stroke-width:1.75;"/>
   </g>
   <g id="line2d_34">
    <path clip-path="url(#p80f8009351)" d="M 606.036428 310.926014 
L 612.948258 310.71101 
L 619.860089 310.182563 
L 623.316004 309.762762 
L 626.77192 309.210001 
L 630.227835 308.496807 
L 633.68375 307.591537 
L 637.139665 306.45884 
L 640.595581 305.060396 
L 644.051496 303.355967 
L 647.507411 301.304796 
L 650.963327 298.867353 
L 654.419242 296.007402 
L 657.875157 292.694336 
L 661.331072 288.905685 
L 664.786988 284.629669 
L 668.242903 279.867646 
L 671.698818 274.636277 
L 675.154734 268.96922 
L 678.610649 262.918176 
L 685.522479 249.961703 
L 695.890225 229.926825 
L 699.346141 223.57853 
L 702.802056 217.613817 
L 706.257971 212.159175 
L 709.713886 207.330393 
L 713.169802 203.227347 
L 716.625717 199.929329 
L 720.081632 197.49121 
L 723.537548 195.940654 
L 726.993463 195.276563 
L 730.449378 195.468837 
L 733.905294 196.459475 
L 737.361209 198.16494 
L 740.817124 200.479655 
L 744.273039 203.280442 
L 747.728955 206.431632 
L 758.096701 216.560347 
L 761.552616 219.70094 
L 765.008531 222.518468 
L 768.464446 224.913564 
L 771.920362 226.80692 
L 775.376277 228.140969 
L 778.832192 228.880568 
L 782.288108 229.01269 
L 785.744023 228.545245 
L 789.199938 227.505139 
L 792.655853 225.935735 
L 796.111769 223.893895 
L 799.567684 221.446772 
L 803.023599 218.668535 
L 806.479515 215.637183 
L 813.391345 209.128769 
L 820.303176 202.517832 
L 823.759091 199.336746 
L 827.215006 196.310189 
L 830.670922 193.480952 
L 834.126837 190.882695 
L 837.582752 188.539937 
L 841.038667 186.468293 
L 844.494583 184.674882 
L 847.950498 183.158922 
L 851.406413 181.912475 
L 854.862329 180.921342 
L 858.318244 180.166134 
L 861.774159 179.623507 
L 865.230074 179.267559 
L 868.68599 179.071404 
L 875.59782 179.056196 
L 882.509651 179.408576 
L 889.421481 180.052288 
L 896.333312 181.04435 
L 899.789227 181.729251 
L 903.245143 182.588222 
L 906.701058 183.665661 
L 910.156973 185.009984 
L 913.612888 186.670892 
L 917.068804 188.696306 
L 920.524719 191.129181 
L 923.980634 194.004382 
L 927.43655 197.345849 
L 930.892465 201.164254 
L 934.34838 205.455325 
L 937.804296 210.198964 
L 941.260211 215.359247 
L 944.716126 220.885323 
L 948.172041 226.713143 
L 955.083872 238.967258 
L 965.451618 257.565232 
L 968.907533 263.48569 
L 972.363448 269.143398 
L 975.819364 274.479331 
L 979.275279 279.446784 
L 982.731194 284.012109 
L 986.18711 288.154756 
L 989.643025 291.866679 
L 993.09894 295.151227 
L 996.554855 298.021623 
L 1000.010771 300.499179 
L 1003.466686 302.611395 
L 1006.922601 304.390038 
L 1010.378517 305.869328 
L 1013.834432 307.084307 
L 1017.290347 308.069438 
L 1020.746262 308.857459 
L 1024.202178 309.478509 
L 1027.658093 309.959487 
L 1034.569924 310.590282 
L 1041.481754 310.888106 
L 1044.937669 310.937554 
L 1044.937669 310.937554 
" style="fill:none;stroke:#64b5cd;stroke-linecap:round;stroke-width:1.75;"/>
   </g>
   <g id="patch_8">
    <path d="M 584.091366 311.47 
L 584.091366 27.65625 
" style="fill:none;"/>
   </g>
   <g id="patch_9">
    <path d="M 1066.882732 311.47 
L 1066.882732 27.65625 
" style="fill:none;"/>
   </g>
   <g id="patch_10">
    <path d="M 584.091366 311.47 
L 1066.882732 311.47 
" style="fill:none;"/>
   </g>
   <g id="patch_11">
    <path d="M 584.091366 27.65625 
L 1066.882732 27.65625 
" style="fill:none;"/>
   </g>
   <g id="text_32">
    <!-- Normed Histogram of EstimatedSalary -->
    <defs>
     <path d="M 7.625 0 
L 7.625 71.578125 
L 17.328125 71.578125 
L 54.9375 15.375 
L 54.9375 71.578125 
L 64.015625 71.578125 
L 64.015625 0 
L 54.296875 0 
L 16.703125 56.25 
L 16.703125 0 
z
" id="ArialMT-78"/>
     <path d="M 8.015625 0 
L 8.015625 71.578125 
L 17.484375 71.578125 
L 17.484375 42.1875 
L 54.6875 42.1875 
L 54.6875 71.578125 
L 64.15625 71.578125 
L 64.15625 0 
L 54.6875 0 
L 54.6875 33.734375 
L 17.484375 33.734375 
L 17.484375 0 
z
" id="ArialMT-72"/>
    </defs>
    <g style="fill:#262626;" transform="translate(723.123299 21.65625)scale(0.12 -0.12)">
     <use xlink:href="#ArialMT-78"/>
     <use x="72.216797" xlink:href="#ArialMT-111"/>
     <use x="127.832031" xlink:href="#ArialMT-114"/>
     <use x="161.132812" xlink:href="#ArialMT-109"/>
     <use x="244.433594" xlink:href="#ArialMT-101"/>
     <use x="300.048828" xlink:href="#ArialMT-100"/>
     <use x="355.664062" xlink:href="#ArialMT-32"/>
     <use x="383.447266" xlink:href="#ArialMT-72"/>
     <use x="455.664062" xlink:href="#ArialMT-105"/>
     <use x="477.880859" xlink:href="#ArialMT-115"/>
     <use x="527.880859" xlink:href="#ArialMT-116"/>
     <use x="555.664062" xlink:href="#ArialMT-111"/>
     <use x="611.279297" xlink:href="#ArialMT-103"/>
     <use x="666.894531" xlink:href="#ArialMT-114"/>
     <use x="700.195312" xlink:href="#ArialMT-97"/>
     <use x="755.810547" xlink:href="#ArialMT-109"/>
     <use x="839.111328" xlink:href="#ArialMT-32"/>
     <use x="866.894531" xlink:href="#ArialMT-111"/>
     <use x="922.509766" xlink:href="#ArialMT-102"/>
     <use x="950.292969" xlink:href="#ArialMT-32"/>
     <use x="978.076172" xlink:href="#ArialMT-69"/>
     <use x="1044.775391" xlink:href="#ArialMT-115"/>
     <use x="1094.775391" xlink:href="#ArialMT-116"/>
     <use x="1122.558594" xlink:href="#ArialMT-105"/>
     <use x="1144.775391" xlink:href="#ArialMT-109"/>
     <use x="1228.076172" xlink:href="#ArialMT-97"/>
     <use x="1283.691406" xlink:href="#ArialMT-116"/>
     <use x="1311.474609" xlink:href="#ArialMT-101"/>
     <use x="1367.089844" xlink:href="#ArialMT-100"/>
     <use x="1422.705078" xlink:href="#ArialMT-83"/>
     <use x="1489.404297" xlink:href="#ArialMT-97"/>
     <use x="1545.019531" xlink:href="#ArialMT-108"/>
     <use x="1567.236328" xlink:href="#ArialMT-97"/>
     <use x="1622.851562" xlink:href="#ArialMT-114"/>
     <use x="1656.152344" xlink:href="#ArialMT-121"/>
    </g>
   </g>
   <g id="legend_2">
    <g id="line2d_35">
     <path d="M 1024.321794 40.314062 
L 1044.321794 40.314062 
" style="fill:none;stroke:#ccb974;stroke-linecap:round;stroke-width:1.75;"/>
    </g>
    <g id="line2d_36"/>
    <g id="text_33">
     <!-- 0 -->
     <g style="fill:#262626;" transform="translate(1052.321794 43.814062)scale(0.1 -0.1)">
      <use xlink:href="#ArialMT-48"/>
     </g>
    </g>
    <g id="line2d_37">
     <path d="M 1024.321794 54.459375 
L 1044.321794 54.459375 
" style="fill:none;stroke:#64b5cd;stroke-linecap:round;stroke-width:1.75;"/>
    </g>
    <g id="line2d_38"/>
    <g id="text_34">
     <!-- 1 -->
     <g style="fill:#262626;" transform="translate(1052.321794 57.959375)scale(0.1 -0.1)">
      <use xlink:href="#ArialMT-49"/>
     </g>
    </g>
   </g>
  </g>
  <g id="axes_3">
   <g id="patch_12">
    <path d="M 39.49 652.66 
L 522.281366 652.66 
L 522.281366 368.84625 
L 39.49 368.84625 
z
" style="fill:#eaeaf2;"/>
   </g>
   <g id="matplotlib.axis_5">
    <g id="xtick_13">
     <g id="line2d_39">
      <path clip-path="url(#p7f1008c33c)" d="M 160.187841 652.66 
L 160.187841 368.84625 
" style="fill:none;stroke:#ffffff;stroke-linecap:round;"/>
     </g>
     <g id="text_35">
      <!-- Female -->
      <defs>
       <path d="M 8.203125 0 
L 8.203125 71.578125 
L 56.5 71.578125 
L 56.5 63.140625 
L 17.671875 63.140625 
L 17.671875 40.96875 
L 51.265625 40.96875 
L 51.265625 32.515625 
L 17.671875 32.515625 
L 17.671875 0 
z
" id="ArialMT-70"/>
      </defs>
      <g style="fill:#262626;" transform="translate(162.772998 693.002187)rotate(-90)scale(0.1 -0.1)">
       <use xlink:href="#ArialMT-70"/>
       <use x="61.083984" xlink:href="#ArialMT-101"/>
       <use x="116.699219" xlink:href="#ArialMT-109"/>
       <use x="200" xlink:href="#ArialMT-97"/>
       <use x="255.615234" xlink:href="#ArialMT-108"/>
       <use x="277.832031" xlink:href="#ArialMT-101"/>
      </g>
     </g>
    </g>
    <g id="xtick_14">
     <g id="line2d_40">
      <path clip-path="url(#p7f1008c33c)" d="M 401.583524 652.66 
L 401.583524 368.84625 
" style="fill:none;stroke:#ffffff;stroke-linecap:round;"/>
     </g>
     <g id="text_36">
      <!-- Male -->
      <defs>
       <path d="M 7.421875 0 
L 7.421875 71.578125 
L 21.6875 71.578125 
L 38.625 20.90625 
Q 40.96875 13.8125 42.046875 10.296875 
Q 43.265625 14.203125 45.84375 21.78125 
L 62.984375 71.578125 
L 75.734375 71.578125 
L 75.734375 0 
L 66.609375 0 
L 66.609375 59.90625 
L 45.796875 0 
L 37.25 0 
L 16.546875 60.9375 
L 16.546875 0 
z
" id="ArialMT-77"/>
      </defs>
      <g style="fill:#262626;" transform="translate(404.168681 681.333438)rotate(-90)scale(0.1 -0.1)">
       <use xlink:href="#ArialMT-77"/>
       <use x="83.300781" xlink:href="#ArialMT-97"/>
       <use x="138.916016" xlink:href="#ArialMT-108"/>
       <use x="161.132812" xlink:href="#ArialMT-101"/>
      </g>
     </g>
    </g>
    <g id="text_37">
     <!-- Gender -->
     <defs>
      <path d="M 41.21875 28.078125 
L 41.21875 36.46875 
L 71.53125 36.53125 
L 71.53125 9.96875 
Q 64.546875 4.390625 57.125 1.578125 
Q 49.703125 -1.21875 41.890625 -1.21875 
Q 31.34375 -1.21875 22.71875 3.296875 
Q 14.109375 7.8125 9.71875 16.359375 
Q 5.328125 24.90625 5.328125 35.453125 
Q 5.328125 45.90625 9.6875 54.953125 
Q 14.0625 64.015625 22.265625 68.40625 
Q 30.46875 72.796875 41.15625 72.796875 
Q 48.921875 72.796875 55.1875 70.28125 
Q 61.46875 67.78125 65.03125 63.28125 
Q 68.609375 58.796875 70.453125 51.5625 
L 61.921875 49.21875 
Q 60.296875 54.6875 57.90625 57.8125 
Q 55.515625 60.9375 51.0625 62.8125 
Q 46.625 64.703125 41.21875 64.703125 
Q 34.71875 64.703125 29.984375 62.71875 
Q 25.25 60.75 22.34375 57.515625 
Q 19.4375 54.296875 17.828125 50.4375 
Q 15.09375 43.796875 15.09375 36.03125 
Q 15.09375 26.46875 18.390625 20.015625 
Q 21.6875 13.578125 27.984375 10.453125 
Q 34.28125 7.328125 41.359375 7.328125 
Q 47.515625 7.328125 53.375 9.6875 
Q 59.234375 12.0625 62.25 14.75 
L 62.25 28.078125 
z
" id="ArialMT-71"/>
     </defs>
     <g style="fill:#262626;" transform="translate(262.542324 704.875781)scale(0.11 -0.11)">
      <use xlink:href="#ArialMT-71"/>
      <use x="77.783203" xlink:href="#ArialMT-101"/>
      <use x="133.398438" xlink:href="#ArialMT-110"/>
      <use x="189.013672" xlink:href="#ArialMT-100"/>
      <use x="244.628906" xlink:href="#ArialMT-101"/>
      <use x="300.244141" xlink:href="#ArialMT-114"/>
     </g>
    </g>
   </g>
   <g id="matplotlib.axis_6">
    <g id="ytick_15">
     <g id="line2d_41">
      <path clip-path="url(#p7f1008c33c)" d="M 39.49 652.66 
L 522.281366 652.66 
" style="fill:none;stroke:#ffffff;stroke-linecap:round;"/>
     </g>
     <g id="text_38">
      <!-- 0 -->
      <g style="fill:#262626;" transform="translate(26.929063 656.238906)scale(0.1 -0.1)">
       <use xlink:href="#ArialMT-48"/>
      </g>
     </g>
    </g>
    <g id="ytick_16">
     <g id="line2d_42">
      <path clip-path="url(#p7f1008c33c)" d="M 39.49 619.535146 
L 522.281366 619.535146 
" style="fill:none;stroke:#ffffff;stroke-linecap:round;"/>
     </g>
     <g id="text_39">
      <!-- 25 -->
      <g style="fill:#262626;" transform="translate(21.368125 623.114052)scale(0.1 -0.1)">
       <use xlink:href="#ArialMT-50"/>
       <use x="55.615234" xlink:href="#ArialMT-53"/>
      </g>
     </g>
    </g>
    <g id="ytick_17">
     <g id="line2d_43">
      <path clip-path="url(#p7f1008c33c)" d="M 39.49 586.410292 
L 522.281366 586.410292 
" style="fill:none;stroke:#ffffff;stroke-linecap:round;"/>
     </g>
     <g id="text_40">
      <!-- 50 -->
      <g style="fill:#262626;" transform="translate(21.368125 589.989198)scale(0.1 -0.1)">
       <use xlink:href="#ArialMT-53"/>
       <use x="55.615234" xlink:href="#ArialMT-48"/>
      </g>
     </g>
    </g>
    <g id="ytick_18">
     <g id="line2d_44">
      <path clip-path="url(#p7f1008c33c)" d="M 39.49 553.285438 
L 522.281366 553.285438 
" style="fill:none;stroke:#ffffff;stroke-linecap:round;"/>
     </g>
     <g id="text_41">
      <!-- 75 -->
      <g style="fill:#262626;" transform="translate(21.368125 556.864344)scale(0.1 -0.1)">
       <use xlink:href="#ArialMT-55"/>
       <use x="55.615234" xlink:href="#ArialMT-53"/>
      </g>
     </g>
    </g>
    <g id="ytick_19">
     <g id="line2d_45">
      <path clip-path="url(#p7f1008c33c)" d="M 39.49 520.160584 
L 522.281366 520.160584 
" style="fill:none;stroke:#ffffff;stroke-linecap:round;"/>
     </g>
     <g id="text_42">
      <!-- 100 -->
      <g style="fill:#262626;" transform="translate(15.807188 523.73949)scale(0.1 -0.1)">
       <use xlink:href="#ArialMT-49"/>
       <use x="55.615234" xlink:href="#ArialMT-48"/>
       <use x="111.230469" xlink:href="#ArialMT-48"/>
      </g>
     </g>
    </g>
    <g id="ytick_20">
     <g id="line2d_46">
      <path clip-path="url(#p7f1008c33c)" d="M 39.49 487.035729 
L 522.281366 487.035729 
" style="fill:none;stroke:#ffffff;stroke-linecap:round;"/>
     </g>
     <g id="text_43">
      <!-- 125 -->
      <g style="fill:#262626;" transform="translate(15.807188 490.614636)scale(0.1 -0.1)">
       <use xlink:href="#ArialMT-49"/>
       <use x="55.615234" xlink:href="#ArialMT-50"/>
       <use x="111.230469" xlink:href="#ArialMT-53"/>
      </g>
     </g>
    </g>
    <g id="ytick_21">
     <g id="line2d_47">
      <path clip-path="url(#p7f1008c33c)" d="M 39.49 453.910875 
L 522.281366 453.910875 
" style="fill:none;stroke:#ffffff;stroke-linecap:round;"/>
     </g>
     <g id="text_44">
      <!-- 150 -->
      <g style="fill:#262626;" transform="translate(15.807188 457.489782)scale(0.1 -0.1)">
       <use xlink:href="#ArialMT-49"/>
       <use x="55.615234" xlink:href="#ArialMT-53"/>
       <use x="111.230469" xlink:href="#ArialMT-48"/>
      </g>
     </g>
    </g>
    <g id="ytick_22">
     <g id="line2d_48">
      <path clip-path="url(#p7f1008c33c)" d="M 39.49 420.786021 
L 522.281366 420.786021 
" style="fill:none;stroke:#ffffff;stroke-linecap:round;"/>
     </g>
     <g id="text_45">
      <!-- 175 -->
      <g style="fill:#262626;" transform="translate(15.807188 424.364927)scale(0.1 -0.1)">
       <use xlink:href="#ArialMT-49"/>
       <use x="55.615234" xlink:href="#ArialMT-55"/>
       <use x="111.230469" xlink:href="#ArialMT-53"/>
      </g>
     </g>
    </g>
    <g id="ytick_23">
     <g id="line2d_49">
      <path clip-path="url(#p7f1008c33c)" d="M 39.49 387.661167 
L 522.281366 387.661167 
" style="fill:none;stroke:#ffffff;stroke-linecap:round;"/>
     </g>
     <g id="text_46">
      <!-- 200 -->
      <g style="fill:#262626;" transform="translate(15.807188 391.240073)scale(0.1 -0.1)">
       <use xlink:href="#ArialMT-50"/>
       <use x="55.615234" xlink:href="#ArialMT-48"/>
       <use x="111.230469" xlink:href="#ArialMT-48"/>
      </g>
     </g>
    </g>
   </g>
   <g id="patch_13">
    <path clip-path="url(#p7f1008c33c)" d="M 99.838921 652.66 
L 220.536762 652.66 
L 220.536762 484.385741 
L 99.838921 484.385741 
z
" style="fill:#55a868;stroke:#ffffff;stroke-linejoin:miter;stroke-width:0.3;"/>
   </g>
   <g id="patch_14">
    <path clip-path="url(#p7f1008c33c)" d="M 341.234604 652.66 
L 461.932445 652.66 
L 461.932445 480.410759 
L 341.234604 480.410759 
z
" style="fill:#55a868;stroke:#ffffff;stroke-linejoin:miter;stroke-width:0.3;"/>
   </g>
   <g id="patch_15">
    <path clip-path="url(#p7f1008c33c)" d="M 99.838921 484.385741 
L 220.536762 484.385741 
L 220.536762 382.36119 
L 99.838921 382.36119 
z
" style="fill:#1a1a1a;stroke:#ffffff;stroke-linejoin:miter;stroke-width:0.3;"/>
   </g>
   <g id="patch_16">
    <path clip-path="url(#p7f1008c33c)" d="M 341.234604 480.410759 
L 461.932445 480.410759 
L 461.932445 392.961144 
L 341.234604 392.961144 
z
" style="fill:#1a1a1a;stroke:#ffffff;stroke-linejoin:miter;stroke-width:0.3;"/>
   </g>
   <g id="patch_17">
    <path d="M 39.49 652.66 
L 39.49 368.84625 
" style="fill:none;"/>
   </g>
   <g id="patch_18">
    <path d="M 522.281366 652.66 
L 522.281366 368.84625 
" style="fill:none;"/>
   </g>
   <g id="patch_19">
    <path d="M 39.49 652.66 
L 522.281366 652.66 
" style="fill:none;"/>
   </g>
   <g id="patch_20">
    <path d="M 39.49 368.84625 
L 522.281366 368.84625 
" style="fill:none;"/>
   </g>
   <g id="text_47">
    <!-- Distribution of Gender (top 15 categories only) -->
    <defs>
     <path d="M 23.390625 -21.046875 
Q 16.109375 -11.859375 11.078125 0.4375 
Q 6.0625 12.75 6.0625 25.921875 
Q 6.0625 37.546875 9.8125 48.1875 
Q 14.203125 60.546875 23.390625 72.796875 
L 29.6875 72.796875 
Q 23.78125 62.640625 21.875 58.296875 
Q 18.890625 51.5625 17.1875 44.234375 
Q 15.09375 35.109375 15.09375 25.875 
Q 15.09375 2.390625 29.6875 -21.046875 
z
" id="ArialMT-40"/>
     <path d="M 6.59375 -19.875 
L 6.59375 51.859375 
L 14.59375 51.859375 
L 14.59375 45.125 
Q 17.4375 49.078125 21 51.046875 
Q 24.5625 53.03125 29.640625 53.03125 
Q 36.28125 53.03125 41.359375 49.609375 
Q 46.4375 46.1875 49.015625 39.953125 
Q 51.609375 33.734375 51.609375 26.3125 
Q 51.609375 18.359375 48.75 11.984375 
Q 45.90625 5.609375 40.453125 2.21875 
Q 35.015625 -1.171875 29 -1.171875 
Q 24.609375 -1.171875 21.109375 0.6875 
Q 17.625 2.546875 15.375 5.375 
L 15.375 -19.875 
z
M 14.546875 25.640625 
Q 14.546875 15.625 18.59375 10.84375 
Q 22.65625 6.0625 28.421875 6.0625 
Q 34.28125 6.0625 38.453125 11.015625 
Q 42.625 15.96875 42.625 26.375 
Q 42.625 36.28125 38.546875 41.203125 
Q 34.46875 46.140625 28.8125 46.140625 
Q 23.1875 46.140625 18.859375 40.890625 
Q 14.546875 35.640625 14.546875 25.640625 
z
" id="ArialMT-112"/>
     <path d="M 40.4375 19 
L 49.078125 17.875 
Q 47.65625 8.9375 41.8125 3.875 
Q 35.984375 -1.171875 27.484375 -1.171875 
Q 16.84375 -1.171875 10.375 5.78125 
Q 3.90625 12.75 3.90625 25.734375 
Q 3.90625 34.125 6.6875 40.421875 
Q 9.46875 46.734375 15.15625 49.875 
Q 20.84375 53.03125 27.546875 53.03125 
Q 35.984375 53.03125 41.359375 48.75 
Q 46.734375 44.484375 48.25 36.625 
L 39.703125 35.296875 
Q 38.484375 40.53125 35.375 43.15625 
Q 32.28125 45.796875 27.875 45.796875 
Q 21.234375 45.796875 17.078125 41.03125 
Q 12.9375 36.28125 12.9375 25.984375 
Q 12.9375 15.53125 16.9375 10.796875 
Q 20.953125 6.0625 27.390625 6.0625 
Q 32.5625 6.0625 36.03125 9.234375 
Q 39.5 12.40625 40.4375 19 
z
" id="ArialMT-99"/>
     <path d="M 12.359375 -21.046875 
L 6.0625 -21.046875 
Q 20.65625 2.390625 20.65625 25.875 
Q 20.65625 35.0625 18.5625 44.09375 
Q 16.890625 51.421875 13.921875 58.15625 
Q 12.015625 62.546875 6.0625 72.796875 
L 12.359375 72.796875 
Q 21.53125 60.546875 25.921875 48.1875 
Q 29.6875 37.546875 29.6875 25.921875 
Q 29.6875 12.75 24.625 0.4375 
Q 19.578125 -11.859375 12.359375 -21.046875 
z
" id="ArialMT-41"/>
    </defs>
    <g style="fill:#262626;" transform="translate(158.16412 362.84625)scale(0.12 -0.12)">
     <use xlink:href="#ArialMT-68"/>
     <use x="72.216797" xlink:href="#ArialMT-105"/>
     <use x="94.433594" xlink:href="#ArialMT-115"/>
     <use x="144.433594" xlink:href="#ArialMT-116"/>
     <use x="172.216797" xlink:href="#ArialMT-114"/>
     <use x="205.517578" xlink:href="#ArialMT-105"/>
     <use x="227.734375" xlink:href="#ArialMT-98"/>
     <use x="283.349609" xlink:href="#ArialMT-117"/>
     <use x="338.964844" xlink:href="#ArialMT-116"/>
     <use x="366.748047" xlink:href="#ArialMT-105"/>
     <use x="388.964844" xlink:href="#ArialMT-111"/>
     <use x="444.580078" xlink:href="#ArialMT-110"/>
     <use x="500.195312" xlink:href="#ArialMT-32"/>
     <use x="527.978516" xlink:href="#ArialMT-111"/>
     <use x="583.59375" xlink:href="#ArialMT-102"/>
     <use x="611.376953" xlink:href="#ArialMT-32"/>
     <use x="639.160156" xlink:href="#ArialMT-71"/>
     <use x="716.943359" xlink:href="#ArialMT-101"/>
     <use x="772.558594" xlink:href="#ArialMT-110"/>
     <use x="828.173828" xlink:href="#ArialMT-100"/>
     <use x="883.789062" xlink:href="#ArialMT-101"/>
     <use x="939.404297" xlink:href="#ArialMT-114"/>
     <use x="972.705078" xlink:href="#ArialMT-32"/>
     <use x="1000.488281" xlink:href="#ArialMT-40"/>
     <use x="1033.789062" xlink:href="#ArialMT-116"/>
     <use x="1061.572266" xlink:href="#ArialMT-111"/>
     <use x="1117.1875" xlink:href="#ArialMT-112"/>
     <use x="1172.802734" xlink:href="#ArialMT-32"/>
     <use x="1200.585938" xlink:href="#ArialMT-49"/>
     <use x="1256.201172" xlink:href="#ArialMT-53"/>
     <use x="1311.816406" xlink:href="#ArialMT-32"/>
     <use x="1339.599609" xlink:href="#ArialMT-99"/>
     <use x="1389.599609" xlink:href="#ArialMT-97"/>
     <use x="1445.214844" xlink:href="#ArialMT-116"/>
     <use x="1472.998047" xlink:href="#ArialMT-101"/>
     <use x="1528.613281" xlink:href="#ArialMT-103"/>
     <use x="1584.228516" xlink:href="#ArialMT-111"/>
     <use x="1639.84375" xlink:href="#ArialMT-114"/>
     <use x="1673.144531" xlink:href="#ArialMT-105"/>
     <use x="1695.361328" xlink:href="#ArialMT-101"/>
     <use x="1750.976562" xlink:href="#ArialMT-115"/>
     <use x="1800.976562" xlink:href="#ArialMT-32"/>
     <use x="1828.759766" xlink:href="#ArialMT-111"/>
     <use x="1884.375" xlink:href="#ArialMT-110"/>
     <use x="1939.990234" xlink:href="#ArialMT-108"/>
     <use x="1962.207031" xlink:href="#ArialMT-121"/>
     <use x="2012.207031" xlink:href="#ArialMT-41"/>
    </g>
   </g>
   <g id="legend_3">
    <g id="patch_21">
     <path d="M 479.720428 385.004062 
L 499.720428 385.004062 
L 499.720428 378.004062 
L 479.720428 378.004062 
z
" style="fill:#55a868;stroke:#ffffff;stroke-linejoin:miter;stroke-width:0.3;"/>
    </g>
    <g id="text_48">
     <!-- 0 -->
     <g style="fill:#262626;" transform="translate(507.720428 385.004062)scale(0.1 -0.1)">
      <use xlink:href="#ArialMT-48"/>
     </g>
    </g>
    <g id="patch_22">
     <path d="M 479.720428 399.149375 
L 499.720428 399.149375 
L 499.720428 392.149375 
L 479.720428 392.149375 
z
" style="fill:#1a1a1a;stroke:#ffffff;stroke-linejoin:miter;stroke-width:0.3;"/>
    </g>
    <g id="text_49">
     <!-- 1 -->
     <g style="fill:#262626;" transform="translate(507.720428 399.149375)scale(0.1 -0.1)">
      <use xlink:href="#ArialMT-49"/>
     </g>
    </g>
   </g>
  </g>
 </g>
 <defs>
  <clipPath id="p8ef5d5c719">
   <rect height="283.81375" width="482.791366" x="39.49" y="27.65625"/>
  </clipPath>
  <clipPath id="p80f8009351">
   <rect height="283.81375" width="482.791366" x="584.091366" y="27.65625"/>
  </clipPath>
  <clipPath id="p7f1008c33c">
   <rect height="283.81375" width="482.791366" x="39.49" y="368.84625"/>
  </clipPath>
 </defs>
</svg>
