<?xml version="1.0" encoding="utf-8" standalone="no"?>
<!DOCTYPE svg PUBLIC "-//W3C//DTD SVG 1.1//EN"
  "http://www.w3.org/Graphics/SVG/1.1/DTD/svg11.dtd">
<!-- Created with matplotlib (https://matplotlib.org/) -->
<svg height="2880pt" version="1.1" viewBox="0 0 1080 2880" width="1080pt" xmlns="http://www.w3.org/2000/svg" xmlns:xlink="http://www.w3.org/1999/xlink">
 <defs>
  <style type="text/css">
*{stroke-linecap:butt;stroke-linejoin:round;}
  </style>
 </defs>
 <g id="figure_1">
  <g id="patch_1">
   <path d="M 0 2880 
L 1080 2880 
L 1080 0 
L 0 0 
z
" style="fill:#ffffff;"/>
  </g>
  <g id="axes_1">
   <g id="patch_2">
    <path d="M 36.7 257.688 
L 1067.04 257.688 
L 1067.04 27.6 
L 36.7 27.6 
z
" style="fill:#eaeaf2;"/>
   </g>
   <g id="matplotlib.axis_1">
    <g id="xtick_1">
     <g id="line2d_1">
      <path clip-path="url(#p57303f0312)" d="M 57.3068 257.688 
L 57.3068 27.6 
" style="fill:none;stroke:#ffffff;stroke-linecap:round;"/>
     </g>
     <g id="text_1">
      <!-- 0 -->
      <defs>
       <path d="M 4.15625 35.296875 
Q 4.15625 48 6.765625 55.734375 
Q 9.375 63.484375 14.515625 67.671875 
Q 19.671875 71.875 27.484375 71.875 
Q 33.25 71.875 37.59375 69.546875 
Q 41.9375 67.234375 44.765625 62.859375 
Q 47.609375 58.5 49.21875 52.21875 
Q 50.828125 45.953125 50.828125 35.296875 
Q 50.828125 22.703125 48.234375 14.96875 
Q 45.65625 7.234375 40.5 3 
Q 35.359375 -1.21875 27.484375 -1.21875 
Q 17.140625 -1.21875 11.234375 6.203125 
Q 4.15625 15.140625 4.15625 35.296875 
z
M 13.1875 35.296875 
Q 13.1875 17.671875 17.3125 11.828125 
Q 21.4375 6 27.484375 6 
Q 33.546875 6 37.671875 11.859375 
Q 41.796875 17.71875 41.796875 35.296875 
Q 41.796875 52.984375 37.671875 58.78125 
Q 33.546875 64.59375 27.390625 64.59375 
Q 21.34375 64.59375 17.71875 59.46875 
Q 13.1875 52.9375 13.1875 35.296875 
z
" id="ArialMT-48"/>
      </defs>
      <g style="fill:#262626;" transform="translate(59.891956 270.248937)rotate(-90)scale(0.1 -0.1)">
       <use xlink:href="#ArialMT-48"/>
      </g>
     </g>
    </g>
    <g id="xtick_2">
     <g id="line2d_2">
      <path clip-path="url(#p57303f0312)" d="M 98.5204 257.688 
L 98.5204 27.6 
" style="fill:none;stroke:#ffffff;stroke-linecap:round;"/>
     </g>
     <g id="text_2">
      <!-- 1 -->
      <defs>
       <path d="M 37.25 0 
L 28.46875 0 
L 28.46875 56 
Q 25.296875 52.984375 20.140625 49.953125 
Q 14.984375 46.921875 10.890625 45.40625 
L 10.890625 53.90625 
Q 18.265625 57.375 23.78125 62.296875 
Q 29.296875 67.234375 31.59375 71.875 
L 37.25 71.875 
z
" id="ArialMT-49"/>
      </defs>
      <g style="fill:#262626;" transform="translate(101.105556 270.248937)rotate(-90)scale(0.1 -0.1)">
       <use xlink:href="#ArialMT-49"/>
      </g>
     </g>
    </g>
    <g id="xtick_3">
     <g id="line2d_3">
      <path clip-path="url(#p57303f0312)" d="M 139.734 257.688 
L 139.734 27.6 
" style="fill:none;stroke:#ffffff;stroke-linecap:round;"/>
     </g>
     <g id="text_3">
      <!-- 2 -->
      <defs>
       <path d="M 50.34375 8.453125 
L 50.34375 0 
L 3.03125 0 
Q 2.9375 3.171875 4.046875 6.109375 
Q 5.859375 10.9375 9.828125 15.625 
Q 13.8125 20.3125 21.34375 26.46875 
Q 33.015625 36.03125 37.109375 41.625 
Q 41.21875 47.21875 41.21875 52.203125 
Q 41.21875 57.421875 37.46875 61 
Q 33.734375 64.59375 27.734375 64.59375 
Q 21.390625 64.59375 17.578125 60.78125 
Q 13.765625 56.984375 13.71875 50.25 
L 4.6875 51.171875 
Q 5.609375 61.28125 11.65625 66.578125 
Q 17.71875 71.875 27.9375 71.875 
Q 38.234375 71.875 44.234375 66.15625 
Q 50.25 60.453125 50.25 52 
Q 50.25 47.703125 48.484375 43.546875 
Q 46.734375 39.40625 42.65625 34.8125 
Q 38.578125 30.21875 29.109375 22.21875 
Q 21.1875 15.578125 18.9375 13.203125 
Q 16.703125 10.84375 15.234375 8.453125 
z
" id="ArialMT-50"/>
      </defs>
      <g style="fill:#262626;" transform="translate(142.319156 270.248937)rotate(-90)scale(0.1 -0.1)">
       <use xlink:href="#ArialMT-50"/>
      </g>
     </g>
    </g>
    <g id="xtick_4">
     <g id="line2d_4">
      <path clip-path="url(#p57303f0312)" d="M 180.9476 257.688 
L 180.9476 27.6 
" style="fill:none;stroke:#ffffff;stroke-linecap:round;"/>
     </g>
     <g id="text_4">
      <!-- 3 -->
      <defs>
       <path d="M 4.203125 18.890625 
L 12.984375 20.0625 
Q 14.5 12.59375 18.140625 9.296875 
Q 21.78125 6 27 6 
Q 33.203125 6 37.46875 10.296875 
Q 41.75 14.59375 41.75 20.953125 
Q 41.75 27 37.796875 30.921875 
Q 33.84375 34.859375 27.734375 34.859375 
Q 25.25 34.859375 21.53125 33.890625 
L 22.515625 41.609375 
Q 23.390625 41.5 23.921875 41.5 
Q 29.546875 41.5 34.03125 44.421875 
Q 38.53125 47.359375 38.53125 53.46875 
Q 38.53125 58.296875 35.25 61.46875 
Q 31.984375 64.65625 26.8125 64.65625 
Q 21.6875 64.65625 18.265625 61.421875 
Q 14.84375 58.203125 13.875 51.765625 
L 5.078125 53.328125 
Q 6.6875 62.15625 12.390625 67.015625 
Q 18.109375 71.875 26.609375 71.875 
Q 32.46875 71.875 37.390625 69.359375 
Q 42.328125 66.84375 44.9375 62.5 
Q 47.5625 58.15625 47.5625 53.265625 
Q 47.5625 48.640625 45.0625 44.828125 
Q 42.578125 41.015625 37.703125 38.765625 
Q 44.046875 37.3125 47.5625 32.6875 
Q 51.078125 28.078125 51.078125 21.140625 
Q 51.078125 11.765625 44.234375 5.25 
Q 37.40625 -1.265625 26.953125 -1.265625 
Q 17.53125 -1.265625 11.296875 4.34375 
Q 5.078125 9.96875 4.203125 18.890625 
z
" id="ArialMT-51"/>
      </defs>
      <g style="fill:#262626;" transform="translate(183.532756 270.248937)rotate(-90)scale(0.1 -0.1)">
       <use xlink:href="#ArialMT-51"/>
      </g>
     </g>
    </g>
    <g id="xtick_5">
     <g id="line2d_5">
      <path clip-path="url(#p57303f0312)" d="M 222.1612 257.688 
L 222.1612 27.6 
" style="fill:none;stroke:#ffffff;stroke-linecap:round;"/>
     </g>
     <g id="text_5">
      <!-- 4 -->
      <defs>
       <path d="M 32.328125 0 
L 32.328125 17.140625 
L 1.265625 17.140625 
L 1.265625 25.203125 
L 33.9375 71.578125 
L 41.109375 71.578125 
L 41.109375 25.203125 
L 50.78125 25.203125 
L 50.78125 17.140625 
L 41.109375 17.140625 
L 41.109375 0 
z
M 32.328125 25.203125 
L 32.328125 57.46875 
L 9.90625 25.203125 
z
" id="ArialMT-52"/>
      </defs>
      <g style="fill:#262626;" transform="translate(224.746356 270.248937)rotate(-90)scale(0.1 -0.1)">
       <use xlink:href="#ArialMT-52"/>
      </g>
     </g>
    </g>
    <g id="xtick_6">
     <g id="line2d_6">
      <path clip-path="url(#p57303f0312)" d="M 263.3748 257.688 
L 263.3748 27.6 
" style="fill:none;stroke:#ffffff;stroke-linecap:round;"/>
     </g>
     <g id="text_6">
      <!-- 5 -->
      <defs>
       <path d="M 4.15625 18.75 
L 13.375 19.53125 
Q 14.40625 12.796875 18.140625 9.390625 
Q 21.875 6 27.15625 6 
Q 33.5 6 37.890625 10.78125 
Q 42.28125 15.578125 42.28125 23.484375 
Q 42.28125 31 38.0625 35.34375 
Q 33.84375 39.703125 27 39.703125 
Q 22.75 39.703125 19.328125 37.765625 
Q 15.921875 35.84375 13.96875 32.765625 
L 5.71875 33.84375 
L 12.640625 70.609375 
L 48.25 70.609375 
L 48.25 62.203125 
L 19.671875 62.203125 
L 15.828125 42.96875 
Q 22.265625 47.46875 29.34375 47.46875 
Q 38.71875 47.46875 45.15625 40.96875 
Q 51.609375 34.46875 51.609375 24.265625 
Q 51.609375 14.546875 45.953125 7.46875 
Q 39.0625 -1.21875 27.15625 -1.21875 
Q 17.390625 -1.21875 11.203125 4.25 
Q 5.03125 9.71875 4.15625 18.75 
z
" id="ArialMT-53"/>
      </defs>
      <g style="fill:#262626;" transform="translate(265.959956 270.248937)rotate(-90)scale(0.1 -0.1)">
       <use xlink:href="#ArialMT-53"/>
      </g>
     </g>
    </g>
    <g id="xtick_7">
     <g id="line2d_7">
      <path clip-path="url(#p57303f0312)" d="M 304.5884 257.688 
L 304.5884 27.6 
" style="fill:none;stroke:#ffffff;stroke-linecap:round;"/>
     </g>
     <g id="text_7">
      <!-- 6 -->
      <defs>
       <path d="M 49.75 54.046875 
L 41.015625 53.375 
Q 39.84375 58.546875 37.703125 60.890625 
Q 34.125 64.65625 28.90625 64.65625 
Q 24.703125 64.65625 21.53125 62.3125 
Q 17.390625 59.28125 14.984375 53.46875 
Q 12.59375 47.65625 12.5 36.921875 
Q 15.671875 41.75 20.265625 44.09375 
Q 24.859375 46.4375 29.890625 46.4375 
Q 38.671875 46.4375 44.84375 39.96875 
Q 51.03125 33.5 51.03125 23.25 
Q 51.03125 16.5 48.125 10.71875 
Q 45.21875 4.9375 40.140625 1.859375 
Q 35.0625 -1.21875 28.609375 -1.21875 
Q 17.625 -1.21875 10.6875 6.859375 
Q 3.765625 14.9375 3.765625 33.5 
Q 3.765625 54.25 11.421875 63.671875 
Q 18.109375 71.875 29.4375 71.875 
Q 37.890625 71.875 43.28125 67.140625 
Q 48.6875 62.40625 49.75 54.046875 
z
M 13.875 23.1875 
Q 13.875 18.65625 15.796875 14.5 
Q 17.71875 10.359375 21.1875 8.171875 
Q 24.65625 6 28.46875 6 
Q 34.03125 6 38.03125 10.484375 
Q 42.046875 14.984375 42.046875 22.703125 
Q 42.046875 30.125 38.078125 34.390625 
Q 34.125 38.671875 28.125 38.671875 
Q 22.171875 38.671875 18.015625 34.390625 
Q 13.875 30.125 13.875 23.1875 
z
" id="ArialMT-54"/>
      </defs>
      <g style="fill:#262626;" transform="translate(307.173556 270.248937)rotate(-90)scale(0.1 -0.1)">
       <use xlink:href="#ArialMT-54"/>
      </g>
     </g>
    </g>
    <g id="xtick_8">
     <g id="line2d_8">
      <path clip-path="url(#p57303f0312)" d="M 345.802 257.688 
L 345.802 27.6 
" style="fill:none;stroke:#ffffff;stroke-linecap:round;"/>
     </g>
     <g id="text_8">
      <!-- 7 -->
      <defs>
       <path d="M 4.734375 62.203125 
L 4.734375 70.65625 
L 51.078125 70.65625 
L 51.078125 63.8125 
Q 44.234375 56.546875 37.515625 44.484375 
Q 30.8125 32.421875 27.15625 19.671875 
Q 24.515625 10.6875 23.78125 0 
L 14.75 0 
Q 14.890625 8.453125 18.0625 20.40625 
Q 21.234375 32.375 27.171875 43.484375 
Q 33.109375 54.59375 39.796875 62.203125 
z
" id="ArialMT-55"/>
      </defs>
      <g style="fill:#262626;" transform="translate(348.387156 270.248937)rotate(-90)scale(0.1 -0.1)">
       <use xlink:href="#ArialMT-55"/>
      </g>
     </g>
    </g>
    <g id="xtick_9">
     <g id="line2d_9">
      <path clip-path="url(#p57303f0312)" d="M 387.0156 257.688 
L 387.0156 27.6 
" style="fill:none;stroke:#ffffff;stroke-linecap:round;"/>
     </g>
     <g id="text_9">
      <!-- 8 -->
      <defs>
       <path d="M 17.671875 38.8125 
Q 12.203125 40.828125 9.5625 44.53125 
Q 6.9375 48.25 6.9375 53.421875 
Q 6.9375 61.234375 12.546875 66.546875 
Q 18.171875 71.875 27.484375 71.875 
Q 36.859375 71.875 42.578125 66.421875 
Q 48.296875 60.984375 48.296875 53.171875 
Q 48.296875 48.1875 45.671875 44.5 
Q 43.0625 40.828125 37.75 38.8125 
Q 44.34375 36.671875 47.78125 31.875 
Q 51.21875 27.09375 51.21875 20.453125 
Q 51.21875 11.28125 44.71875 5.03125 
Q 38.234375 -1.21875 27.640625 -1.21875 
Q 17.046875 -1.21875 10.546875 5.046875 
Q 4.046875 11.328125 4.046875 20.703125 
Q 4.046875 27.6875 7.59375 32.390625 
Q 11.140625 37.109375 17.671875 38.8125 
z
M 15.921875 53.71875 
Q 15.921875 48.640625 19.1875 45.40625 
Q 22.46875 42.1875 27.6875 42.1875 
Q 32.765625 42.1875 36.015625 45.375 
Q 39.265625 48.578125 39.265625 53.21875 
Q 39.265625 58.0625 35.90625 61.359375 
Q 32.5625 64.65625 27.59375 64.65625 
Q 22.5625 64.65625 19.234375 61.421875 
Q 15.921875 58.203125 15.921875 53.71875 
z
M 13.09375 20.65625 
Q 13.09375 16.890625 14.875 13.375 
Q 16.65625 9.859375 20.171875 7.921875 
Q 23.6875 6 27.734375 6 
Q 34.03125 6 38.125 10.046875 
Q 42.234375 14.109375 42.234375 20.359375 
Q 42.234375 26.703125 38.015625 30.859375 
Q 33.796875 35.015625 27.4375 35.015625 
Q 21.234375 35.015625 17.15625 30.90625 
Q 13.09375 26.8125 13.09375 20.65625 
z
" id="ArialMT-56"/>
      </defs>
      <g style="fill:#262626;" transform="translate(389.600756 270.248937)rotate(-90)scale(0.1 -0.1)">
       <use xlink:href="#ArialMT-56"/>
      </g>
     </g>
    </g>
    <g id="xtick_10">
     <g id="line2d_10">
      <path clip-path="url(#p57303f0312)" d="M 428.2292 257.688 
L 428.2292 27.6 
" style="fill:none;stroke:#ffffff;stroke-linecap:round;"/>
     </g>
     <g id="text_10">
      <!-- 9 -->
      <defs>
       <path d="M 5.46875 16.546875 
L 13.921875 17.328125 
Q 14.984375 11.375 18.015625 8.6875 
Q 21.046875 6 25.78125 6 
Q 29.828125 6 32.875 7.859375 
Q 35.9375 9.71875 37.890625 12.8125 
Q 39.84375 15.921875 41.15625 21.1875 
Q 42.484375 26.46875 42.484375 31.9375 
Q 42.484375 32.515625 42.4375 33.6875 
Q 39.796875 29.5 35.234375 26.875 
Q 30.671875 24.265625 25.34375 24.265625 
Q 16.453125 24.265625 10.296875 30.703125 
Q 4.15625 37.15625 4.15625 47.703125 
Q 4.15625 58.59375 10.578125 65.234375 
Q 17 71.875 26.65625 71.875 
Q 33.640625 71.875 39.421875 68.109375 
Q 45.21875 64.359375 48.21875 57.390625 
Q 51.21875 50.4375 51.21875 37.25 
Q 51.21875 23.53125 48.234375 15.40625 
Q 45.265625 7.28125 39.375 3.03125 
Q 33.5 -1.21875 25.59375 -1.21875 
Q 17.1875 -1.21875 11.859375 3.4375 
Q 6.546875 8.109375 5.46875 16.546875 
z
M 41.453125 48.140625 
Q 41.453125 55.71875 37.421875 60.15625 
Q 33.40625 64.59375 27.734375 64.59375 
Q 21.875 64.59375 17.53125 59.8125 
Q 13.1875 55.03125 13.1875 47.40625 
Q 13.1875 40.578125 17.3125 36.296875 
Q 21.4375 32.03125 27.484375 32.03125 
Q 33.59375 32.03125 37.515625 36.296875 
Q 41.453125 40.578125 41.453125 48.140625 
z
" id="ArialMT-57"/>
      </defs>
      <g style="fill:#262626;" transform="translate(430.814356 270.248937)rotate(-90)scale(0.1 -0.1)">
       <use xlink:href="#ArialMT-57"/>
      </g>
     </g>
    </g>
    <g id="xtick_11">
     <g id="line2d_11">
      <path clip-path="url(#p57303f0312)" d="M 469.4428 257.688 
L 469.4428 27.6 
" style="fill:none;stroke:#ffffff;stroke-linecap:round;"/>
     </g>
     <g id="text_11">
      <!-- 10 -->
      <g style="fill:#262626;" transform="translate(472.027956 275.809875)rotate(-90)scale(0.1 -0.1)">
       <use xlink:href="#ArialMT-49"/>
       <use x="55.615234" xlink:href="#ArialMT-48"/>
      </g>
     </g>
    </g>
    <g id="xtick_12">
     <g id="line2d_12">
      <path clip-path="url(#p57303f0312)" d="M 510.6564 257.688 
L 510.6564 27.6 
" style="fill:none;stroke:#ffffff;stroke-linecap:round;"/>
     </g>
     <g id="text_12">
      <!-- 11 -->
      <g style="fill:#262626;" transform="translate(513.241556 275.798937)rotate(-90)scale(0.1 -0.1)">
       <use xlink:href="#ArialMT-49"/>
       <use x="55.505859" xlink:href="#ArialMT-49"/>
      </g>
     </g>
    </g>
    <g id="xtick_13">
     <g id="line2d_13">
      <path clip-path="url(#p57303f0312)" d="M 551.87 257.688 
L 551.87 27.6 
" style="fill:none;stroke:#ffffff;stroke-linecap:round;"/>
     </g>
     <g id="text_13">
      <!-- 12 -->
      <g style="fill:#262626;" transform="translate(554.455156 275.809875)rotate(-90)scale(0.1 -0.1)">
       <use xlink:href="#ArialMT-49"/>
       <use x="55.615234" xlink:href="#ArialMT-50"/>
      </g>
     </g>
    </g>
    <g id="xtick_14">
     <g id="line2d_14">
      <path clip-path="url(#p57303f0312)" d="M 593.0836 257.688 
L 593.0836 27.6 
" style="fill:none;stroke:#ffffff;stroke-linecap:round;"/>
     </g>
     <g id="text_14">
      <!-- 13 -->
      <g style="fill:#262626;" transform="translate(595.668756 275.809875)rotate(-90)scale(0.1 -0.1)">
       <use xlink:href="#ArialMT-49"/>
       <use x="55.615234" xlink:href="#ArialMT-51"/>
      </g>
     </g>
    </g>
    <g id="xtick_15">
     <g id="line2d_15">
      <path clip-path="url(#p57303f0312)" d="M 634.2972 257.688 
L 634.2972 27.6 
" style="fill:none;stroke:#ffffff;stroke-linecap:round;"/>
     </g>
     <g id="text_15">
      <!-- 14 -->
      <g style="fill:#262626;" transform="translate(636.882356 275.809875)rotate(-90)scale(0.1 -0.1)">
       <use xlink:href="#ArialMT-49"/>
       <use x="55.615234" xlink:href="#ArialMT-52"/>
      </g>
     </g>
    </g>
    <g id="xtick_16">
     <g id="line2d_16">
      <path clip-path="url(#p57303f0312)" d="M 675.5108 257.688 
L 675.5108 27.6 
" style="fill:none;stroke:#ffffff;stroke-linecap:round;"/>
     </g>
     <g id="text_16">
      <!-- 15 -->
      <g style="fill:#262626;" transform="translate(678.095956 275.809875)rotate(-90)scale(0.1 -0.1)">
       <use xlink:href="#ArialMT-49"/>
       <use x="55.615234" xlink:href="#ArialMT-53"/>
      </g>
     </g>
    </g>
    <g id="xtick_17">
     <g id="line2d_17">
      <path clip-path="url(#p57303f0312)" d="M 716.7244 257.688 
L 716.7244 27.6 
" style="fill:none;stroke:#ffffff;stroke-linecap:round;"/>
     </g>
     <g id="text_17">
      <!-- 16 -->
      <g style="fill:#262626;" transform="translate(719.309556 275.809875)rotate(-90)scale(0.1 -0.1)">
       <use xlink:href="#ArialMT-49"/>
       <use x="55.615234" xlink:href="#ArialMT-54"/>
      </g>
     </g>
    </g>
    <g id="xtick_18">
     <g id="line2d_18">
      <path clip-path="url(#p57303f0312)" d="M 757.938 257.688 
L 757.938 27.6 
" style="fill:none;stroke:#ffffff;stroke-linecap:round;"/>
     </g>
     <g id="text_18">
      <!-- 17 -->
      <g style="fill:#262626;" transform="translate(760.523156 275.809875)rotate(-90)scale(0.1 -0.1)">
       <use xlink:href="#ArialMT-49"/>
       <use x="55.615234" xlink:href="#ArialMT-55"/>
      </g>
     </g>
    </g>
    <g id="xtick_19">
     <g id="line2d_19">
      <path clip-path="url(#p57303f0312)" d="M 799.1516 257.688 
L 799.1516 27.6 
" style="fill:none;stroke:#ffffff;stroke-linecap:round;"/>
     </g>
     <g id="text_19">
      <!-- 18 -->
      <g style="fill:#262626;" transform="translate(801.736756 275.809875)rotate(-90)scale(0.1 -0.1)">
       <use xlink:href="#ArialMT-49"/>
       <use x="55.615234" xlink:href="#ArialMT-56"/>
      </g>
     </g>
    </g>
    <g id="xtick_20">
     <g id="line2d_20">
      <path clip-path="url(#p57303f0312)" d="M 840.3652 257.688 
L 840.3652 27.6 
" style="fill:none;stroke:#ffffff;stroke-linecap:round;"/>
     </g>
     <g id="text_20">
      <!-- 19 -->
      <g style="fill:#262626;" transform="translate(842.950356 275.809875)rotate(-90)scale(0.1 -0.1)">
       <use xlink:href="#ArialMT-49"/>
       <use x="55.615234" xlink:href="#ArialMT-57"/>
      </g>
     </g>
    </g>
    <g id="xtick_21">
     <g id="line2d_21">
      <path clip-path="url(#p57303f0312)" d="M 881.5788 257.688 
L 881.5788 27.6 
" style="fill:none;stroke:#ffffff;stroke-linecap:round;"/>
     </g>
     <g id="text_21">
      <!-- 20 -->
      <g style="fill:#262626;" transform="translate(884.163956 275.809875)rotate(-90)scale(0.1 -0.1)">
       <use xlink:href="#ArialMT-50"/>
       <use x="55.615234" xlink:href="#ArialMT-48"/>
      </g>
     </g>
    </g>
    <g id="xtick_22">
     <g id="line2d_22">
      <path clip-path="url(#p57303f0312)" d="M 922.7924 257.688 
L 922.7924 27.6 
" style="fill:none;stroke:#ffffff;stroke-linecap:round;"/>
     </g>
     <g id="text_22">
      <!-- 21 -->
      <g style="fill:#262626;" transform="translate(925.377556 275.809875)rotate(-90)scale(0.1 -0.1)">
       <use xlink:href="#ArialMT-50"/>
       <use x="55.615234" xlink:href="#ArialMT-49"/>
      </g>
     </g>
    </g>
    <g id="xtick_23">
     <g id="line2d_23">
      <path clip-path="url(#p57303f0312)" d="M 964.006 257.688 
L 964.006 27.6 
" style="fill:none;stroke:#ffffff;stroke-linecap:round;"/>
     </g>
     <g id="text_23">
      <!-- 22 -->
      <g style="fill:#262626;" transform="translate(966.591156 275.809875)rotate(-90)scale(0.1 -0.1)">
       <use xlink:href="#ArialMT-50"/>
       <use x="55.615234" xlink:href="#ArialMT-50"/>
      </g>
     </g>
    </g>
    <g id="xtick_24">
     <g id="line2d_24">
      <path clip-path="url(#p57303f0312)" d="M 1005.2196 257.688 
L 1005.2196 27.6 
" style="fill:none;stroke:#ffffff;stroke-linecap:round;"/>
     </g>
     <g id="text_24">
      <!-- 23 -->
      <g style="fill:#262626;" transform="translate(1007.804756 275.809875)rotate(-90)scale(0.1 -0.1)">
       <use xlink:href="#ArialMT-50"/>
       <use x="55.615234" xlink:href="#ArialMT-51"/>
      </g>
     </g>
    </g>
    <g id="xtick_25">
     <g id="line2d_25">
      <path clip-path="url(#p57303f0312)" d="M 1046.4332 257.688 
L 1046.4332 27.6 
" style="fill:none;stroke:#ffffff;stroke-linecap:round;"/>
     </g>
     <g id="text_25">
      <!-- 24 -->
      <g style="fill:#262626;" transform="translate(1049.018356 275.809875)rotate(-90)scale(0.1 -0.1)">
       <use xlink:href="#ArialMT-50"/>
       <use x="55.615234" xlink:href="#ArialMT-52"/>
      </g>
     </g>
    </g>
    <g id="text_26">
     <!-- Cured -->
     <defs>
      <path d="M 58.796875 25.09375 
L 68.265625 22.703125 
Q 65.28125 11.03125 57.546875 4.90625 
Q 49.8125 -1.21875 38.625 -1.21875 
Q 27.046875 -1.21875 19.796875 3.484375 
Q 12.546875 8.203125 8.765625 17.140625 
Q 4.984375 26.078125 4.984375 36.328125 
Q 4.984375 47.515625 9.25 55.828125 
Q 13.53125 64.15625 21.40625 68.46875 
Q 29.296875 72.796875 38.765625 72.796875 
Q 49.515625 72.796875 56.828125 67.328125 
Q 64.15625 61.859375 67.046875 51.953125 
L 57.71875 49.75 
Q 55.21875 57.5625 50.484375 61.125 
Q 45.75 64.703125 38.578125 64.703125 
Q 30.328125 64.703125 24.78125 60.734375 
Q 19.234375 56.78125 16.984375 50.109375 
Q 14.75 43.453125 14.75 36.375 
Q 14.75 27.25 17.40625 20.4375 
Q 20.0625 13.625 25.671875 10.25 
Q 31.296875 6.890625 37.84375 6.890625 
Q 45.796875 6.890625 51.3125 11.46875 
Q 56.84375 16.0625 58.796875 25.09375 
z
" id="ArialMT-67"/>
      <path d="M 40.578125 0 
L 40.578125 7.625 
Q 34.515625 -1.171875 24.125 -1.171875 
Q 19.53125 -1.171875 15.546875 0.578125 
Q 11.578125 2.34375 9.640625 5 
Q 7.71875 7.671875 6.9375 11.53125 
Q 6.390625 14.109375 6.390625 19.734375 
L 6.390625 51.859375 
L 15.1875 51.859375 
L 15.1875 23.09375 
Q 15.1875 16.21875 15.71875 13.8125 
Q 16.546875 10.359375 19.234375 8.375 
Q 21.921875 6.390625 25.875 6.390625 
Q 29.828125 6.390625 33.296875 8.421875 
Q 36.765625 10.453125 38.203125 13.9375 
Q 39.65625 17.4375 39.65625 24.078125 
L 39.65625 51.859375 
L 48.4375 51.859375 
L 48.4375 0 
z
" id="ArialMT-117"/>
      <path d="M 6.5 0 
L 6.5 51.859375 
L 14.40625 51.859375 
L 14.40625 44 
Q 17.4375 49.515625 20 51.265625 
Q 22.5625 53.03125 25.640625 53.03125 
Q 30.078125 53.03125 34.671875 50.203125 
L 31.640625 42.046875 
Q 28.421875 43.953125 25.203125 43.953125 
Q 22.3125 43.953125 20.015625 42.21875 
Q 17.71875 40.484375 16.75 37.40625 
Q 15.28125 32.71875 15.28125 27.15625 
L 15.28125 0 
z
" id="ArialMT-114"/>
      <path d="M 42.09375 16.703125 
L 51.171875 15.578125 
Q 49.03125 7.625 43.21875 3.21875 
Q 37.40625 -1.171875 28.375 -1.171875 
Q 17 -1.171875 10.328125 5.828125 
Q 3.65625 12.84375 3.65625 25.484375 
Q 3.65625 38.578125 10.390625 45.796875 
Q 17.140625 53.03125 27.875 53.03125 
Q 38.28125 53.03125 44.875 45.953125 
Q 51.46875 38.875 51.46875 26.03125 
Q 51.46875 25.25 51.421875 23.6875 
L 12.75 23.6875 
Q 13.234375 15.140625 17.578125 10.59375 
Q 21.921875 6.0625 28.421875 6.0625 
Q 33.25 6.0625 36.671875 8.59375 
Q 40.09375 11.140625 42.09375 16.703125 
z
M 13.234375 30.90625 
L 42.1875 30.90625 
Q 41.609375 37.453125 38.875 40.71875 
Q 34.671875 45.796875 27.984375 45.796875 
Q 21.921875 45.796875 17.796875 41.75 
Q 13.671875 37.703125 13.234375 30.90625 
z
" id="ArialMT-101"/>
      <path d="M 40.234375 0 
L 40.234375 6.546875 
Q 35.296875 -1.171875 25.734375 -1.171875 
Q 19.53125 -1.171875 14.328125 2.25 
Q 9.125 5.671875 6.265625 11.796875 
Q 3.421875 17.921875 3.421875 25.875 
Q 3.421875 33.640625 6 39.96875 
Q 8.59375 46.296875 13.765625 49.65625 
Q 18.953125 53.03125 25.34375 53.03125 
Q 30.03125 53.03125 33.6875 51.046875 
Q 37.359375 49.078125 39.65625 45.90625 
L 39.65625 71.578125 
L 48.390625 71.578125 
L 48.390625 0 
z
M 12.453125 25.875 
Q 12.453125 15.921875 16.640625 10.984375 
Q 20.84375 6.0625 26.5625 6.0625 
Q 32.328125 6.0625 36.34375 10.765625 
Q 40.375 15.484375 40.375 25.140625 
Q 40.375 35.796875 36.265625 40.765625 
Q 32.171875 45.75 26.171875 45.75 
Q 20.3125 45.75 16.375 40.96875 
Q 12.453125 36.1875 12.453125 25.875 
z
" id="ArialMT-100"/>
     </defs>
     <g style="fill:#262626;" transform="translate(536.891094 287.683469)scale(0.11 -0.11)">
      <use xlink:href="#ArialMT-67"/>
      <use x="72.216797" xlink:href="#ArialMT-117"/>
      <use x="127.832031" xlink:href="#ArialMT-114"/>
      <use x="161.132812" xlink:href="#ArialMT-101"/>
      <use x="216.748047" xlink:href="#ArialMT-100"/>
     </g>
    </g>
   </g>
   <g id="matplotlib.axis_2">
    <g id="ytick_1">
     <g id="line2d_26">
      <path clip-path="url(#p57303f0312)" d="M 36.7 257.688 
L 1067.04 257.688 
" style="fill:none;stroke:#ffffff;stroke-linecap:round;"/>
     </g>
     <g id="text_27">
      <!-- 0 -->
      <g style="fill:#262626;" transform="translate(24.139063 261.266906)scale(0.1 -0.1)">
       <use xlink:href="#ArialMT-48"/>
      </g>
     </g>
    </g>
    <g id="ytick_2">
     <g id="line2d_27">
      <path clip-path="url(#p57303f0312)" d="M 36.7 212.035619 
L 1067.04 212.035619 
" style="fill:none;stroke:#ffffff;stroke-linecap:round;"/>
     </g>
     <g id="text_28">
      <!-- 5 -->
      <g style="fill:#262626;" transform="translate(24.139063 215.614525)scale(0.1 -0.1)">
       <use xlink:href="#ArialMT-53"/>
      </g>
     </g>
    </g>
    <g id="ytick_3">
     <g id="line2d_28">
      <path clip-path="url(#p57303f0312)" d="M 36.7 166.383238 
L 1067.04 166.383238 
" style="fill:none;stroke:#ffffff;stroke-linecap:round;"/>
     </g>
     <g id="text_29">
      <!-- 10 -->
      <g style="fill:#262626;" transform="translate(18.578125 169.962144)scale(0.1 -0.1)">
       <use xlink:href="#ArialMT-49"/>
       <use x="55.615234" xlink:href="#ArialMT-48"/>
      </g>
     </g>
    </g>
    <g id="ytick_4">
     <g id="line2d_29">
      <path clip-path="url(#p57303f0312)" d="M 36.7 120.730857 
L 1067.04 120.730857 
" style="fill:none;stroke:#ffffff;stroke-linecap:round;"/>
     </g>
     <g id="text_30">
      <!-- 15 -->
      <g style="fill:#262626;" transform="translate(18.578125 124.309763)scale(0.1 -0.1)">
       <use xlink:href="#ArialMT-49"/>
       <use x="55.615234" xlink:href="#ArialMT-53"/>
      </g>
     </g>
    </g>
    <g id="ytick_5">
     <g id="line2d_30">
      <path clip-path="url(#p57303f0312)" d="M 36.7 75.078476 
L 1067.04 75.078476 
" style="fill:none;stroke:#ffffff;stroke-linecap:round;"/>
     </g>
     <g id="text_31">
      <!-- 20 -->
      <g style="fill:#262626;" transform="translate(18.578125 78.657382)scale(0.1 -0.1)">
       <use xlink:href="#ArialMT-50"/>
       <use x="55.615234" xlink:href="#ArialMT-48"/>
      </g>
     </g>
    </g>
    <g id="ytick_6">
     <g id="line2d_31">
      <path clip-path="url(#p57303f0312)" d="M 36.7 29.426095 
L 1067.04 29.426095 
" style="fill:none;stroke:#ffffff;stroke-linecap:round;"/>
     </g>
     <g id="text_32">
      <!-- 25 -->
      <g style="fill:#262626;" transform="translate(18.578125 33.005001)scale(0.1 -0.1)">
       <use xlink:href="#ArialMT-50"/>
       <use x="55.615234" xlink:href="#ArialMT-53"/>
      </g>
     </g>
    </g>
   </g>
   <g id="patch_3">
    <path clip-path="url(#p57303f0312)" d="M 47.0034 257.688 
L 67.6102 257.688 
L 67.6102 257.688 
L 47.0034 257.688 
z
" style="fill:#440154;stroke:#ffffff;stroke-linejoin:miter;stroke-width:0.3;"/>
   </g>
   <g id="patch_4">
    <path clip-path="url(#p57303f0312)" d="M 88.217 257.688 
L 108.8238 257.688 
L 108.8238 248.557524 
L 88.217 248.557524 
z
" style="fill:#440154;stroke:#ffffff;stroke-linejoin:miter;stroke-width:0.3;"/>
   </g>
   <g id="patch_5">
    <path clip-path="url(#p57303f0312)" d="M 129.4306 257.688 
L 150.0374 257.688 
L 150.0374 239.427048 
L 129.4306 239.427048 
z
" style="fill:#440154;stroke:#ffffff;stroke-linejoin:miter;stroke-width:0.3;"/>
   </g>
   <g id="patch_6">
    <path clip-path="url(#p57303f0312)" d="M 170.6442 257.688 
L 191.251 257.688 
L 191.251 230.296571 
L 170.6442 230.296571 
z
" style="fill:#440154;stroke:#ffffff;stroke-linejoin:miter;stroke-width:0.3;"/>
   </g>
   <g id="patch_7">
    <path clip-path="url(#p57303f0312)" d="M 211.8578 257.688 
L 232.4646 257.688 
L 232.4646 221.166095 
L 211.8578 221.166095 
z
" style="fill:#440154;stroke:#ffffff;stroke-linejoin:miter;stroke-width:0.3;"/>
   </g>
   <g id="patch_8">
    <path clip-path="url(#p57303f0312)" d="M 253.0714 257.688 
L 273.6782 257.688 
L 273.6782 212.035619 
L 253.0714 212.035619 
z
" style="fill:#440154;stroke:#ffffff;stroke-linejoin:miter;stroke-width:0.3;"/>
   </g>
   <g id="patch_9">
    <path clip-path="url(#p57303f0312)" d="M 294.285 257.688 
L 314.8918 257.688 
L 314.8918 202.905143 
L 294.285 202.905143 
z
" style="fill:#440154;stroke:#ffffff;stroke-linejoin:miter;stroke-width:0.3;"/>
   </g>
   <g id="patch_10">
    <path clip-path="url(#p57303f0312)" d="M 335.4986 257.688 
L 356.1054 257.688 
L 356.1054 193.774667 
L 335.4986 193.774667 
z
" style="fill:#440154;stroke:#ffffff;stroke-linejoin:miter;stroke-width:0.3;"/>
   </g>
   <g id="patch_11">
    <path clip-path="url(#p57303f0312)" d="M 376.7122 257.688 
L 397.319 257.688 
L 397.319 184.64419 
L 376.7122 184.64419 
z
" style="fill:#440154;stroke:#ffffff;stroke-linejoin:miter;stroke-width:0.3;"/>
   </g>
   <g id="patch_12">
    <path clip-path="url(#p57303f0312)" d="M 417.9258 257.688 
L 438.5326 257.688 
L 438.5326 175.513714 
L 417.9258 175.513714 
z
" style="fill:#440154;stroke:#ffffff;stroke-linejoin:miter;stroke-width:0.3;"/>
   </g>
   <g id="patch_13">
    <path clip-path="url(#p57303f0312)" d="M 459.1394 257.688 
L 479.7462 257.688 
L 479.7462 166.383238 
L 459.1394 166.383238 
z
" style="fill:#440154;stroke:#ffffff;stroke-linejoin:miter;stroke-width:0.3;"/>
   </g>
   <g id="patch_14">
    <path clip-path="url(#p57303f0312)" d="M 500.353 257.688 
L 520.9598 257.688 
L 520.9598 157.252762 
L 500.353 157.252762 
z
" style="fill:#440154;stroke:#ffffff;stroke-linejoin:miter;stroke-width:0.3;"/>
   </g>
   <g id="patch_15">
    <path clip-path="url(#p57303f0312)" d="M 541.5666 257.688 
L 562.1734 257.688 
L 562.1734 148.122286 
L 541.5666 148.122286 
z
" style="fill:#440154;stroke:#ffffff;stroke-linejoin:miter;stroke-width:0.3;"/>
   </g>
   <g id="patch_16">
    <path clip-path="url(#p57303f0312)" d="M 582.7802 257.688 
L 603.387 257.688 
L 603.387 138.99181 
L 582.7802 138.99181 
z
" style="fill:#440154;stroke:#ffffff;stroke-linejoin:miter;stroke-width:0.3;"/>
   </g>
   <g id="patch_17">
    <path clip-path="url(#p57303f0312)" d="M 623.9938 257.688 
L 644.6006 257.688 
L 644.6006 129.861333 
L 623.9938 129.861333 
z
" style="fill:#440154;stroke:#ffffff;stroke-linejoin:miter;stroke-width:0.3;"/>
   </g>
   <g id="patch_18">
    <path clip-path="url(#p57303f0312)" d="M 665.2074 257.688 
L 685.8142 257.688 
L 685.8142 120.730857 
L 665.2074 120.730857 
z
" style="fill:#440154;stroke:#ffffff;stroke-linejoin:miter;stroke-width:0.3;"/>
   </g>
   <g id="patch_19">
    <path clip-path="url(#p57303f0312)" d="M 706.421 257.688 
L 727.0278 257.688 
L 727.0278 111.600381 
L 706.421 111.600381 
z
" style="fill:#440154;stroke:#ffffff;stroke-linejoin:miter;stroke-width:0.3;"/>
   </g>
   <g id="patch_20">
    <path clip-path="url(#p57303f0312)" d="M 747.6346 257.688 
L 768.2414 257.688 
L 768.2414 102.469905 
L 747.6346 102.469905 
z
" style="fill:#440154;stroke:#ffffff;stroke-linejoin:miter;stroke-width:0.3;"/>
   </g>
   <g id="patch_21">
    <path clip-path="url(#p57303f0312)" d="M 788.8482 257.688 
L 809.455 257.688 
L 809.455 93.339429 
L 788.8482 93.339429 
z
" style="fill:#440154;stroke:#ffffff;stroke-linejoin:miter;stroke-width:0.3;"/>
   </g>
   <g id="patch_22">
    <path clip-path="url(#p57303f0312)" d="M 830.0618 257.688 
L 850.6686 257.688 
L 850.6686 84.208952 
L 830.0618 84.208952 
z
" style="fill:#440154;stroke:#ffffff;stroke-linejoin:miter;stroke-width:0.3;"/>
   </g>
   <g id="patch_23">
    <path clip-path="url(#p57303f0312)" d="M 871.2754 257.688 
L 891.8822 257.688 
L 891.8822 75.078476 
L 871.2754 75.078476 
z
" style="fill:#440154;stroke:#ffffff;stroke-linejoin:miter;stroke-width:0.3;"/>
   </g>
   <g id="patch_24">
    <path clip-path="url(#p57303f0312)" d="M 912.489 257.688 
L 933.0958 257.688 
L 933.0958 65.948 
L 912.489 65.948 
z
" style="fill:#440154;stroke:#ffffff;stroke-linejoin:miter;stroke-width:0.3;"/>
   </g>
   <g id="patch_25">
    <path clip-path="url(#p57303f0312)" d="M 953.7026 257.688 
L 974.3094 257.688 
L 974.3094 56.817524 
L 953.7026 56.817524 
z
" style="fill:#440154;stroke:#ffffff;stroke-linejoin:miter;stroke-width:0.3;"/>
   </g>
   <g id="patch_26">
    <path clip-path="url(#p57303f0312)" d="M 994.9162 257.688 
L 1015.523 257.688 
L 1015.523 47.687048 
L 994.9162 47.687048 
z
" style="fill:#440154;stroke:#ffffff;stroke-linejoin:miter;stroke-width:0.3;"/>
   </g>
   <g id="patch_27">
    <path clip-path="url(#p57303f0312)" d="M 1036.1298 257.688 
L 1056.7366 257.688 
L 1056.7366 38.556571 
L 1036.1298 38.556571 
z
" style="fill:#440154;stroke:#ffffff;stroke-linejoin:miter;stroke-width:0.3;"/>
   </g>
   <g id="patch_28">
    <path d="M 36.7 257.688 
L 36.7 27.6 
" style="fill:none;"/>
   </g>
   <g id="patch_29">
    <path d="M 1067.04 257.688 
L 1067.04 27.6 
" style="fill:none;"/>
   </g>
   <g id="patch_30">
    <path d="M 36.7 257.688 
L 1067.04 257.688 
" style="fill:none;"/>
   </g>
   <g id="patch_31">
    <path d="M 36.7 27.6 
L 1067.04 27.6 
" style="fill:none;"/>
   </g>
   <g id="text_33">
    <!-- Mean Cured by Cured (Ascending) -->
    <defs>
     <path d="M 7.421875 0 
L 7.421875 71.578125 
L 21.6875 71.578125 
L 38.625 20.90625 
Q 40.96875 13.8125 42.046875 10.296875 
Q 43.265625 14.203125 45.84375 21.78125 
L 62.984375 71.578125 
L 75.734375 71.578125 
L 75.734375 0 
L 66.609375 0 
L 66.609375 59.90625 
L 45.796875 0 
L 37.25 0 
L 16.546875 60.9375 
L 16.546875 0 
z
" id="ArialMT-77"/>
     <path d="M 40.4375 6.390625 
Q 35.546875 2.25 31.03125 0.53125 
Q 26.515625 -1.171875 21.34375 -1.171875 
Q 12.796875 -1.171875 8.203125 3 
Q 3.609375 7.171875 3.609375 13.671875 
Q 3.609375 17.484375 5.34375 20.625 
Q 7.078125 23.78125 9.890625 25.6875 
Q 12.703125 27.59375 16.21875 28.5625 
Q 18.796875 29.25 24.03125 29.890625 
Q 34.671875 31.15625 39.703125 32.90625 
Q 39.75 34.71875 39.75 35.203125 
Q 39.75 40.578125 37.25 42.78125 
Q 33.890625 45.75 27.25 45.75 
Q 21.046875 45.75 18.09375 43.578125 
Q 15.140625 41.40625 13.71875 35.890625 
L 5.125 37.0625 
Q 6.296875 42.578125 8.984375 45.96875 
Q 11.671875 49.359375 16.75 51.1875 
Q 21.828125 53.03125 28.515625 53.03125 
Q 35.15625 53.03125 39.296875 51.46875 
Q 43.453125 49.90625 45.40625 47.53125 
Q 47.359375 45.171875 48.140625 41.546875 
Q 48.578125 39.3125 48.578125 33.453125 
L 48.578125 21.734375 
Q 48.578125 9.46875 49.140625 6.21875 
Q 49.703125 2.984375 51.375 0 
L 42.1875 0 
Q 40.828125 2.734375 40.4375 6.390625 
z
M 39.703125 26.03125 
Q 34.90625 24.078125 25.34375 22.703125 
Q 19.921875 21.921875 17.671875 20.9375 
Q 15.4375 19.96875 14.203125 18.09375 
Q 12.984375 16.21875 12.984375 13.921875 
Q 12.984375 10.40625 15.640625 8.0625 
Q 18.3125 5.71875 23.4375 5.71875 
Q 28.515625 5.71875 32.46875 7.9375 
Q 36.421875 10.15625 38.28125 14.015625 
Q 39.703125 17 39.703125 22.796875 
z
" id="ArialMT-97"/>
     <path d="M 6.59375 0 
L 6.59375 51.859375 
L 14.5 51.859375 
L 14.5 44.484375 
Q 20.21875 53.03125 31 53.03125 
Q 35.6875 53.03125 39.625 51.34375 
Q 43.5625 49.65625 45.515625 46.921875 
Q 47.46875 44.1875 48.25 40.4375 
Q 48.734375 37.984375 48.734375 31.890625 
L 48.734375 0 
L 39.9375 0 
L 39.9375 31.546875 
Q 39.9375 36.921875 38.90625 39.578125 
Q 37.890625 42.234375 35.28125 43.8125 
Q 32.671875 45.40625 29.15625 45.40625 
Q 23.53125 45.40625 19.453125 41.84375 
Q 15.375 38.28125 15.375 28.328125 
L 15.375 0 
z
" id="ArialMT-110"/>
     <path id="ArialMT-32"/>
     <path d="M 14.703125 0 
L 6.546875 0 
L 6.546875 71.578125 
L 15.328125 71.578125 
L 15.328125 46.046875 
Q 20.90625 53.03125 29.546875 53.03125 
Q 34.328125 53.03125 38.59375 51.09375 
Q 42.875 49.171875 45.625 45.671875 
Q 48.390625 42.1875 49.953125 37.25 
Q 51.515625 32.328125 51.515625 26.703125 
Q 51.515625 13.375 44.921875 6.09375 
Q 38.328125 -1.171875 29.109375 -1.171875 
Q 19.921875 -1.171875 14.703125 6.5 
z
M 14.59375 26.3125 
Q 14.59375 17 17.140625 12.84375 
Q 21.296875 6.0625 28.375 6.0625 
Q 34.125 6.0625 38.328125 11.0625 
Q 42.53125 16.0625 42.53125 25.984375 
Q 42.53125 36.140625 38.5 40.96875 
Q 34.46875 45.796875 28.765625 45.796875 
Q 23 45.796875 18.796875 40.796875 
Q 14.59375 35.796875 14.59375 26.3125 
z
" id="ArialMT-98"/>
     <path d="M 6.203125 -19.96875 
L 5.21875 -11.71875 
Q 8.109375 -12.5 10.25 -12.5 
Q 13.1875 -12.5 14.9375 -11.515625 
Q 16.703125 -10.546875 17.828125 -8.796875 
Q 18.65625 -7.46875 20.515625 -2.25 
Q 20.75 -1.515625 21.296875 -0.09375 
L 1.609375 51.859375 
L 11.078125 51.859375 
L 21.875 21.828125 
Q 23.96875 16.109375 25.640625 9.8125 
Q 27.15625 15.875 29.25 21.625 
L 40.328125 51.859375 
L 49.125 51.859375 
L 29.390625 -0.875 
Q 26.21875 -9.421875 24.46875 -12.640625 
Q 22.125 -17 19.09375 -19.015625 
Q 16.0625 -21.046875 11.859375 -21.046875 
Q 9.328125 -21.046875 6.203125 -19.96875 
z
" id="ArialMT-121"/>
     <path d="M 23.390625 -21.046875 
Q 16.109375 -11.859375 11.078125 0.4375 
Q 6.0625 12.75 6.0625 25.921875 
Q 6.0625 37.546875 9.8125 48.1875 
Q 14.203125 60.546875 23.390625 72.796875 
L 29.6875 72.796875 
Q 23.78125 62.640625 21.875 58.296875 
Q 18.890625 51.5625 17.1875 44.234375 
Q 15.09375 35.109375 15.09375 25.875 
Q 15.09375 2.390625 29.6875 -21.046875 
z
" id="ArialMT-40"/>
     <path d="M -0.140625 0 
L 27.34375 71.578125 
L 37.546875 71.578125 
L 66.84375 0 
L 56.0625 0 
L 47.703125 21.6875 
L 17.78125 21.6875 
L 9.90625 0 
z
M 20.515625 29.390625 
L 44.78125 29.390625 
L 37.3125 49.21875 
Q 33.890625 58.25 32.234375 64.0625 
Q 30.859375 57.171875 28.375 50.390625 
z
" id="ArialMT-65"/>
     <path d="M 3.078125 15.484375 
L 11.765625 16.84375 
Q 12.5 11.625 15.84375 8.84375 
Q 19.1875 6.0625 25.203125 6.0625 
Q 31.25 6.0625 34.171875 8.515625 
Q 37.109375 10.984375 37.109375 14.3125 
Q 37.109375 17.28125 34.515625 19 
Q 32.71875 20.171875 25.53125 21.96875 
Q 15.875 24.421875 12.140625 26.203125 
Q 8.40625 27.984375 6.46875 31.125 
Q 4.546875 34.28125 4.546875 38.09375 
Q 4.546875 41.546875 6.125 44.5 
Q 7.71875 47.46875 10.453125 49.421875 
Q 12.5 50.921875 16.03125 51.96875 
Q 19.578125 53.03125 23.640625 53.03125 
Q 29.734375 53.03125 34.34375 51.265625 
Q 38.96875 49.515625 41.15625 46.5 
Q 43.359375 43.5 44.1875 38.484375 
L 35.59375 37.3125 
Q 35.015625 41.3125 32.203125 43.546875 
Q 29.390625 45.796875 24.265625 45.796875 
Q 18.21875 45.796875 15.625 43.796875 
Q 13.03125 41.796875 13.03125 39.109375 
Q 13.03125 37.40625 14.109375 36.03125 
Q 15.1875 34.625 17.484375 33.6875 
Q 18.796875 33.203125 25.25 31.453125 
Q 34.578125 28.953125 38.25 27.359375 
Q 41.9375 25.78125 44.03125 22.75 
Q 46.140625 19.734375 46.140625 15.234375 
Q 46.140625 10.84375 43.578125 6.953125 
Q 41.015625 3.078125 36.171875 0.953125 
Q 31.34375 -1.171875 25.25 -1.171875 
Q 15.140625 -1.171875 9.84375 3.03125 
Q 4.546875 7.234375 3.078125 15.484375 
z
" id="ArialMT-115"/>
     <path d="M 40.4375 19 
L 49.078125 17.875 
Q 47.65625 8.9375 41.8125 3.875 
Q 35.984375 -1.171875 27.484375 -1.171875 
Q 16.84375 -1.171875 10.375 5.78125 
Q 3.90625 12.75 3.90625 25.734375 
Q 3.90625 34.125 6.6875 40.421875 
Q 9.46875 46.734375 15.15625 49.875 
Q 20.84375 53.03125 27.546875 53.03125 
Q 35.984375 53.03125 41.359375 48.75 
Q 46.734375 44.484375 48.25 36.625 
L 39.703125 35.296875 
Q 38.484375 40.53125 35.375 43.15625 
Q 32.28125 45.796875 27.875 45.796875 
Q 21.234375 45.796875 17.078125 41.03125 
Q 12.9375 36.28125 12.9375 25.984375 
Q 12.9375 15.53125 16.9375 10.796875 
Q 20.953125 6.0625 27.390625 6.0625 
Q 32.5625 6.0625 36.03125 9.234375 
Q 39.5 12.40625 40.4375 19 
z
" id="ArialMT-99"/>
     <path d="M 6.640625 61.46875 
L 6.640625 71.578125 
L 15.4375 71.578125 
L 15.4375 61.46875 
z
M 6.640625 0 
L 6.640625 51.859375 
L 15.4375 51.859375 
L 15.4375 0 
z
" id="ArialMT-105"/>
     <path d="M 4.984375 -4.296875 
L 13.53125 -5.5625 
Q 14.0625 -9.515625 16.5 -11.328125 
Q 19.78125 -13.765625 25.4375 -13.765625 
Q 31.546875 -13.765625 34.859375 -11.328125 
Q 38.1875 -8.890625 39.359375 -4.5 
Q 40.046875 -1.8125 39.984375 6.78125 
Q 34.234375 0 25.640625 0 
Q 14.9375 0 9.078125 7.71875 
Q 3.21875 15.4375 3.21875 26.21875 
Q 3.21875 33.640625 5.90625 39.90625 
Q 8.59375 46.1875 13.6875 49.609375 
Q 18.796875 53.03125 25.6875 53.03125 
Q 34.859375 53.03125 40.828125 45.609375 
L 40.828125 51.859375 
L 48.921875 51.859375 
L 48.921875 7.03125 
Q 48.921875 -5.078125 46.453125 -10.125 
Q 44 -15.1875 38.640625 -18.109375 
Q 33.296875 -21.046875 25.484375 -21.046875 
Q 16.21875 -21.046875 10.5 -16.875 
Q 4.78125 -12.703125 4.984375 -4.296875 
z
M 12.25 26.859375 
Q 12.25 16.65625 16.296875 11.96875 
Q 20.359375 7.28125 26.46875 7.28125 
Q 32.515625 7.28125 36.609375 11.9375 
Q 40.71875 16.609375 40.71875 26.5625 
Q 40.71875 36.078125 36.5 40.90625 
Q 32.28125 45.75 26.3125 45.75 
Q 20.453125 45.75 16.34375 40.984375 
Q 12.25 36.234375 12.25 26.859375 
z
" id="ArialMT-103"/>
     <path d="M 12.359375 -21.046875 
L 6.0625 -21.046875 
Q 20.65625 2.390625 20.65625 25.875 
Q 20.65625 35.0625 18.5625 44.09375 
Q 16.890625 51.421875 13.921875 58.15625 
Q 12.015625 62.546875 6.0625 72.796875 
L 12.359375 72.796875 
Q 21.53125 60.546875 25.921875 48.1875 
Q 29.6875 37.546875 29.6875 25.921875 
Q 29.6875 12.75 24.625 0.4375 
Q 19.578125 -11.859375 12.359375 -21.046875 
z
" id="ArialMT-41"/>
    </defs>
    <g style="fill:#262626;" transform="translate(459.163437 21.6)scale(0.12 -0.12)">
     <use xlink:href="#ArialMT-77"/>
     <use x="83.300781" xlink:href="#ArialMT-101"/>
     <use x="138.916016" xlink:href="#ArialMT-97"/>
     <use x="194.53125" xlink:href="#ArialMT-110"/>
     <use x="250.146484" xlink:href="#ArialMT-32"/>
     <use x="277.929688" xlink:href="#ArialMT-67"/>
     <use x="350.146484" xlink:href="#ArialMT-117"/>
     <use x="405.761719" xlink:href="#ArialMT-114"/>
     <use x="439.0625" xlink:href="#ArialMT-101"/>
     <use x="494.677734" xlink:href="#ArialMT-100"/>
     <use x="550.292969" xlink:href="#ArialMT-32"/>
     <use x="578.076172" xlink:href="#ArialMT-98"/>
     <use x="633.691406" xlink:href="#ArialMT-121"/>
     <use x="683.691406" xlink:href="#ArialMT-32"/>
     <use x="711.474609" xlink:href="#ArialMT-67"/>
     <use x="783.691406" xlink:href="#ArialMT-117"/>
     <use x="839.306641" xlink:href="#ArialMT-114"/>
     <use x="872.607422" xlink:href="#ArialMT-101"/>
     <use x="928.222656" xlink:href="#ArialMT-100"/>
     <use x="983.837891" xlink:href="#ArialMT-32"/>
     <use x="1011.621094" xlink:href="#ArialMT-40"/>
     <use x="1044.921875" xlink:href="#ArialMT-65"/>
     <use x="1111.621094" xlink:href="#ArialMT-115"/>
     <use x="1161.621094" xlink:href="#ArialMT-99"/>
     <use x="1211.621094" xlink:href="#ArialMT-101"/>
     <use x="1267.236328" xlink:href="#ArialMT-110"/>
     <use x="1322.851562" xlink:href="#ArialMT-100"/>
     <use x="1378.466797" xlink:href="#ArialMT-105"/>
     <use x="1400.683594" xlink:href="#ArialMT-110"/>
     <use x="1456.298828" xlink:href="#ArialMT-103"/>
     <use x="1511.914062" xlink:href="#ArialMT-41"/>
    </g>
   </g>
  </g>
  <g id="axes_2">
   <g id="patch_32">
    <path d="M 36.7 547.616 
L 1067.04 547.616 
L 1067.04 317.528 
L 36.7 317.528 
z
" style="fill:#eaeaf2;"/>
   </g>
   <g id="matplotlib.axis_3">
    <g id="xtick_26">
     <g id="line2d_32">
      <path clip-path="url(#p0ffccccf40)" d="M 57.3068 547.616 
L 57.3068 317.528 
" style="fill:none;stroke:#ffffff;stroke-linecap:round;"/>
     </g>
     <g id="text_34">
      <!-- 0 -->
      <g style="fill:#262626;" transform="translate(59.891956 560.176937)rotate(-90)scale(0.1 -0.1)">
       <use xlink:href="#ArialMT-48"/>
      </g>
     </g>
    </g>
    <g id="xtick_27">
     <g id="line2d_33">
      <path clip-path="url(#p0ffccccf40)" d="M 98.5204 547.616 
L 98.5204 317.528 
" style="fill:none;stroke:#ffffff;stroke-linecap:round;"/>
     </g>
     <g id="text_35">
      <!-- 2 -->
      <g style="fill:#262626;" transform="translate(101.105556 560.176937)rotate(-90)scale(0.1 -0.1)">
       <use xlink:href="#ArialMT-50"/>
      </g>
     </g>
    </g>
    <g id="xtick_28">
     <g id="line2d_34">
      <path clip-path="url(#p0ffccccf40)" d="M 139.734 547.616 
L 139.734 317.528 
" style="fill:none;stroke:#ffffff;stroke-linecap:round;"/>
     </g>
     <g id="text_36">
      <!-- 10 -->
      <g style="fill:#262626;" transform="translate(142.319156 565.737875)rotate(-90)scale(0.1 -0.1)">
       <use xlink:href="#ArialMT-49"/>
       <use x="55.615234" xlink:href="#ArialMT-48"/>
      </g>
     </g>
    </g>
    <g id="xtick_29">
     <g id="line2d_35">
      <path clip-path="url(#p0ffccccf40)" d="M 180.9476 547.616 
L 180.9476 317.528 
" style="fill:none;stroke:#ffffff;stroke-linecap:round;"/>
     </g>
     <g id="text_37">
      <!-- 9 -->
      <g style="fill:#262626;" transform="translate(183.532756 560.176937)rotate(-90)scale(0.1 -0.1)">
       <use xlink:href="#ArialMT-57"/>
      </g>
     </g>
    </g>
    <g id="xtick_30">
     <g id="line2d_36">
      <path clip-path="url(#p0ffccccf40)" d="M 222.1612 547.616 
L 222.1612 317.528 
" style="fill:none;stroke:#ffffff;stroke-linecap:round;"/>
     </g>
     <g id="text_38">
      <!-- 3 -->
      <g style="fill:#262626;" transform="translate(224.746356 560.176937)rotate(-90)scale(0.1 -0.1)">
       <use xlink:href="#ArialMT-51"/>
      </g>
     </g>
    </g>
    <g id="xtick_31">
     <g id="line2d_37">
      <path clip-path="url(#p0ffccccf40)" d="M 263.3748 547.616 
L 263.3748 317.528 
" style="fill:none;stroke:#ffffff;stroke-linecap:round;"/>
     </g>
     <g id="text_39">
      <!-- 17 -->
      <g style="fill:#262626;" transform="translate(265.959956 565.737875)rotate(-90)scale(0.1 -0.1)">
       <use xlink:href="#ArialMT-49"/>
       <use x="55.615234" xlink:href="#ArialMT-55"/>
      </g>
     </g>
    </g>
    <g id="xtick_32">
     <g id="line2d_38">
      <path clip-path="url(#p0ffccccf40)" d="M 304.5884 547.616 
L 304.5884 317.528 
" style="fill:none;stroke:#ffffff;stroke-linecap:round;"/>
     </g>
     <g id="text_40">
      <!-- 1 -->
      <g style="fill:#262626;" transform="translate(307.173556 560.176937)rotate(-90)scale(0.1 -0.1)">
       <use xlink:href="#ArialMT-49"/>
      </g>
     </g>
    </g>
    <g id="xtick_33">
     <g id="line2d_39">
      <path clip-path="url(#p0ffccccf40)" d="M 345.802 547.616 
L 345.802 317.528 
" style="fill:none;stroke:#ffffff;stroke-linecap:round;"/>
     </g>
     <g id="text_41">
      <!-- 24 -->
      <g style="fill:#262626;" transform="translate(348.387156 565.737875)rotate(-90)scale(0.1 -0.1)">
       <use xlink:href="#ArialMT-50"/>
       <use x="55.615234" xlink:href="#ArialMT-52"/>
      </g>
     </g>
    </g>
    <g id="xtick_34">
     <g id="line2d_40">
      <path clip-path="url(#p0ffccccf40)" d="M 387.0156 547.616 
L 387.0156 317.528 
" style="fill:none;stroke:#ffffff;stroke-linecap:round;"/>
     </g>
     <g id="text_42">
      <!-- 7 -->
      <g style="fill:#262626;" transform="translate(389.600756 560.176937)rotate(-90)scale(0.1 -0.1)">
       <use xlink:href="#ArialMT-55"/>
      </g>
     </g>
    </g>
    <g id="xtick_35">
     <g id="line2d_41">
      <path clip-path="url(#p0ffccccf40)" d="M 428.2292 547.616 
L 428.2292 317.528 
" style="fill:none;stroke:#ffffff;stroke-linecap:round;"/>
     </g>
     <g id="text_43">
      <!-- 5 -->
      <g style="fill:#262626;" transform="translate(430.814356 560.176937)rotate(-90)scale(0.1 -0.1)">
       <use xlink:href="#ArialMT-53"/>
      </g>
     </g>
    </g>
    <g id="xtick_36">
     <g id="line2d_42">
      <path clip-path="url(#p0ffccccf40)" d="M 469.4428 547.616 
L 469.4428 317.528 
" style="fill:none;stroke:#ffffff;stroke-linecap:round;"/>
     </g>
     <g id="text_44">
      <!-- 13 -->
      <g style="fill:#262626;" transform="translate(472.027956 565.737875)rotate(-90)scale(0.1 -0.1)">
       <use xlink:href="#ArialMT-49"/>
       <use x="55.615234" xlink:href="#ArialMT-51"/>
      </g>
     </g>
    </g>
    <g id="xtick_37">
     <g id="line2d_43">
      <path clip-path="url(#p0ffccccf40)" d="M 510.6564 547.616 
L 510.6564 317.528 
" style="fill:none;stroke:#ffffff;stroke-linecap:round;"/>
     </g>
     <g id="text_45">
      <!-- 4 -->
      <g style="fill:#262626;" transform="translate(513.241556 560.176937)rotate(-90)scale(0.1 -0.1)">
       <use xlink:href="#ArialMT-52"/>
      </g>
     </g>
    </g>
    <g id="xtick_38">
     <g id="line2d_44">
      <path clip-path="url(#p0ffccccf40)" d="M 551.87 547.616 
L 551.87 317.528 
" style="fill:none;stroke:#ffffff;stroke-linecap:round;"/>
     </g>
     <g id="text_46">
      <!-- 12 -->
      <g style="fill:#262626;" transform="translate(554.455156 565.737875)rotate(-90)scale(0.1 -0.1)">
       <use xlink:href="#ArialMT-49"/>
       <use x="55.615234" xlink:href="#ArialMT-50"/>
      </g>
     </g>
    </g>
    <g id="xtick_39">
     <g id="line2d_45">
      <path clip-path="url(#p0ffccccf40)" d="M 593.0836 547.616 
L 593.0836 317.528 
" style="fill:none;stroke:#ffffff;stroke-linecap:round;"/>
     </g>
     <g id="text_47">
      <!-- 11 -->
      <g style="fill:#262626;" transform="translate(595.668756 565.726937)rotate(-90)scale(0.1 -0.1)">
       <use xlink:href="#ArialMT-49"/>
       <use x="55.505859" xlink:href="#ArialMT-49"/>
      </g>
     </g>
    </g>
    <g id="xtick_40">
     <g id="line2d_46">
      <path clip-path="url(#p0ffccccf40)" d="M 634.2972 547.616 
L 634.2972 317.528 
" style="fill:none;stroke:#ffffff;stroke-linecap:round;"/>
     </g>
     <g id="text_48">
      <!-- 6 -->
      <g style="fill:#262626;" transform="translate(636.882356 560.176937)rotate(-90)scale(0.1 -0.1)">
       <use xlink:href="#ArialMT-54"/>
      </g>
     </g>
    </g>
    <g id="xtick_41">
     <g id="line2d_47">
      <path clip-path="url(#p0ffccccf40)" d="M 675.5108 547.616 
L 675.5108 317.528 
" style="fill:none;stroke:#ffffff;stroke-linecap:round;"/>
     </g>
     <g id="text_49">
      <!-- 14 -->
      <g style="fill:#262626;" transform="translate(678.095956 565.737875)rotate(-90)scale(0.1 -0.1)">
       <use xlink:href="#ArialMT-49"/>
       <use x="55.615234" xlink:href="#ArialMT-52"/>
      </g>
     </g>
    </g>
    <g id="xtick_42">
     <g id="line2d_48">
      <path clip-path="url(#p0ffccccf40)" d="M 716.7244 547.616 
L 716.7244 317.528 
" style="fill:none;stroke:#ffffff;stroke-linecap:round;"/>
     </g>
     <g id="text_50">
      <!-- 23 -->
      <g style="fill:#262626;" transform="translate(719.309556 565.737875)rotate(-90)scale(0.1 -0.1)">
       <use xlink:href="#ArialMT-50"/>
       <use x="55.615234" xlink:href="#ArialMT-51"/>
      </g>
     </g>
    </g>
    <g id="xtick_43">
     <g id="line2d_49">
      <path clip-path="url(#p0ffccccf40)" d="M 757.938 547.616 
L 757.938 317.528 
" style="fill:none;stroke:#ffffff;stroke-linecap:round;"/>
     </g>
     <g id="text_51">
      <!-- 18 -->
      <g style="fill:#262626;" transform="translate(760.523156 565.737875)rotate(-90)scale(0.1 -0.1)">
       <use xlink:href="#ArialMT-49"/>
       <use x="55.615234" xlink:href="#ArialMT-56"/>
      </g>
     </g>
    </g>
    <g id="xtick_44">
     <g id="line2d_50">
      <path clip-path="url(#p0ffccccf40)" d="M 799.1516 547.616 
L 799.1516 317.528 
" style="fill:none;stroke:#ffffff;stroke-linecap:round;"/>
     </g>
     <g id="text_52">
      <!-- 16 -->
      <g style="fill:#262626;" transform="translate(801.736756 565.737875)rotate(-90)scale(0.1 -0.1)">
       <use xlink:href="#ArialMT-49"/>
       <use x="55.615234" xlink:href="#ArialMT-54"/>
      </g>
     </g>
    </g>
    <g id="xtick_45">
     <g id="line2d_51">
      <path clip-path="url(#p0ffccccf40)" d="M 840.3652 547.616 
L 840.3652 317.528 
" style="fill:none;stroke:#ffffff;stroke-linecap:round;"/>
     </g>
     <g id="text_53">
      <!-- 22 -->
      <g style="fill:#262626;" transform="translate(842.950356 565.737875)rotate(-90)scale(0.1 -0.1)">
       <use xlink:href="#ArialMT-50"/>
       <use x="55.615234" xlink:href="#ArialMT-50"/>
      </g>
     </g>
    </g>
    <g id="xtick_46">
     <g id="line2d_52">
      <path clip-path="url(#p0ffccccf40)" d="M 881.5788 547.616 
L 881.5788 317.528 
" style="fill:none;stroke:#ffffff;stroke-linecap:round;"/>
     </g>
     <g id="text_54">
      <!-- 29 -->
      <g style="fill:#262626;" transform="translate(884.163956 565.737875)rotate(-90)scale(0.1 -0.1)">
       <use xlink:href="#ArialMT-50"/>
       <use x="55.615234" xlink:href="#ArialMT-57"/>
      </g>
     </g>
    </g>
    <g id="xtick_47">
     <g id="line2d_53">
      <path clip-path="url(#p0ffccccf40)" d="M 922.7924 547.616 
L 922.7924 317.528 
" style="fill:none;stroke:#ffffff;stroke-linecap:round;"/>
     </g>
     <g id="text_55">
      <!-- 37 -->
      <g style="fill:#262626;" transform="translate(925.377556 565.737875)rotate(-90)scale(0.1 -0.1)">
       <use xlink:href="#ArialMT-51"/>
       <use x="55.615234" xlink:href="#ArialMT-55"/>
      </g>
     </g>
    </g>
    <g id="xtick_48">
     <g id="line2d_54">
      <path clip-path="url(#p0ffccccf40)" d="M 964.006 547.616 
L 964.006 317.528 
" style="fill:none;stroke:#ffffff;stroke-linecap:round;"/>
     </g>
     <g id="text_56">
      <!-- 28 -->
      <g style="fill:#262626;" transform="translate(966.591156 565.737875)rotate(-90)scale(0.1 -0.1)">
       <use xlink:href="#ArialMT-50"/>
       <use x="55.615234" xlink:href="#ArialMT-56"/>
      </g>
     </g>
    </g>
    <g id="xtick_49">
     <g id="line2d_55">
      <path clip-path="url(#p0ffccccf40)" d="M 1005.2196 547.616 
L 1005.2196 317.528 
" style="fill:none;stroke:#ffffff;stroke-linecap:round;"/>
     </g>
     <g id="text_57">
      <!-- 26 -->
      <g style="fill:#262626;" transform="translate(1007.804756 565.737875)rotate(-90)scale(0.1 -0.1)">
       <use xlink:href="#ArialMT-50"/>
       <use x="55.615234" xlink:href="#ArialMT-54"/>
      </g>
     </g>
    </g>
    <g id="xtick_50">
     <g id="line2d_56">
      <path clip-path="url(#p0ffccccf40)" d="M 1046.4332 547.616 
L 1046.4332 317.528 
" style="fill:none;stroke:#ffffff;stroke-linecap:round;"/>
     </g>
     <g id="text_58">
      <!-- 87 -->
      <g style="fill:#262626;" transform="translate(1049.018356 565.737875)rotate(-90)scale(0.1 -0.1)">
       <use xlink:href="#ArialMT-56"/>
       <use x="55.615234" xlink:href="#ArialMT-55"/>
      </g>
     </g>
    </g>
    <g id="text_59">
     <!-- Cured -->
     <g style="fill:#262626;" transform="translate(536.891094 577.611469)scale(0.11 -0.11)">
      <use xlink:href="#ArialMT-67"/>
      <use x="72.216797" xlink:href="#ArialMT-117"/>
      <use x="127.832031" xlink:href="#ArialMT-114"/>
      <use x="161.132812" xlink:href="#ArialMT-101"/>
      <use x="216.748047" xlink:href="#ArialMT-100"/>
     </g>
    </g>
   </g>
   <g id="matplotlib.axis_4">
    <g id="ytick_7">
     <g id="line2d_57">
      <path clip-path="url(#p0ffccccf40)" d="M 36.7 547.616 
L 1067.04 547.616 
" style="fill:none;stroke:#ffffff;stroke-linecap:round;"/>
     </g>
     <g id="text_60">
      <!-- 0 -->
      <g style="fill:#262626;" transform="translate(24.139063 551.194906)scale(0.1 -0.1)">
       <use xlink:href="#ArialMT-48"/>
      </g>
     </g>
    </g>
    <g id="ytick_8">
     <g id="line2d_58">
      <path clip-path="url(#p0ffccccf40)" d="M 36.7 500.592088 
L 1067.04 500.592088 
" style="fill:none;stroke:#ffffff;stroke-linecap:round;"/>
     </g>
     <g id="text_61">
      <!-- 50 -->
      <g style="fill:#262626;" transform="translate(18.578125 504.170995)scale(0.1 -0.1)">
       <use xlink:href="#ArialMT-53"/>
       <use x="55.615234" xlink:href="#ArialMT-48"/>
      </g>
     </g>
    </g>
    <g id="ytick_9">
     <g id="line2d_59">
      <path clip-path="url(#p0ffccccf40)" d="M 36.7 453.568177 
L 1067.04 453.568177 
" style="fill:none;stroke:#ffffff;stroke-linecap:round;"/>
     </g>
     <g id="text_62">
      <!-- 100 -->
      <g style="fill:#262626;" transform="translate(13.017188 457.147083)scale(0.1 -0.1)">
       <use xlink:href="#ArialMT-49"/>
       <use x="55.615234" xlink:href="#ArialMT-48"/>
       <use x="111.230469" xlink:href="#ArialMT-48"/>
      </g>
     </g>
    </g>
    <g id="ytick_10">
     <g id="line2d_60">
      <path clip-path="url(#p0ffccccf40)" d="M 36.7 406.544265 
L 1067.04 406.544265 
" style="fill:none;stroke:#ffffff;stroke-linecap:round;"/>
     </g>
     <g id="text_63">
      <!-- 150 -->
      <g style="fill:#262626;" transform="translate(13.017188 410.123171)scale(0.1 -0.1)">
       <use xlink:href="#ArialMT-49"/>
       <use x="55.615234" xlink:href="#ArialMT-53"/>
       <use x="111.230469" xlink:href="#ArialMT-48"/>
      </g>
     </g>
    </g>
    <g id="ytick_11">
     <g id="line2d_61">
      <path clip-path="url(#p0ffccccf40)" d="M 36.7 359.520353 
L 1067.04 359.520353 
" style="fill:none;stroke:#ffffff;stroke-linecap:round;"/>
     </g>
     <g id="text_64">
      <!-- 200 -->
      <g style="fill:#262626;" transform="translate(13.017188 363.099259)scale(0.1 -0.1)">
       <use xlink:href="#ArialMT-50"/>
       <use x="55.615234" xlink:href="#ArialMT-48"/>
       <use x="111.230469" xlink:href="#ArialMT-48"/>
      </g>
     </g>
    </g>
   </g>
   <g id="patch_33">
    <path clip-path="url(#p0ffccccf40)" d="M 47.0034 547.616 
L 67.6102 547.616 
L 67.6102 534.912253 
L 47.0034 534.912253 
z
" style="fill:#000004;stroke:#ffffff;stroke-linejoin:miter;stroke-width:0.3;"/>
   </g>
   <g id="patch_34">
    <path clip-path="url(#p0ffccccf40)" d="M 88.217 547.616 
L 108.8238 547.616 
L 108.8238 524.589452 
L 88.217 524.589452 
z
" style="fill:#000004;stroke:#ffffff;stroke-linejoin:miter;stroke-width:0.3;"/>
   </g>
   <g id="patch_35">
    <path clip-path="url(#p0ffccccf40)" d="M 129.4306 547.616 
L 150.0374 547.616 
L 150.0374 521.065576 
L 129.4306 521.065576 
z
" style="fill:#000004;stroke:#ffffff;stroke-linejoin:miter;stroke-width:0.3;"/>
   </g>
   <g id="patch_36">
    <path clip-path="url(#p0ffccccf40)" d="M 170.6442 547.616 
L 191.251 547.616 
L 191.251 519.698646 
L 170.6442 519.698646 
z
" style="fill:#000004;stroke:#ffffff;stroke-linejoin:miter;stroke-width:0.3;"/>
   </g>
   <g id="patch_37">
    <path clip-path="url(#p0ffccccf40)" d="M 211.8578 547.616 
L 232.4646 547.616 
L 232.4646 518.119183 
L 211.8578 518.119183 
z
" style="fill:#000004;stroke:#ffffff;stroke-linejoin:miter;stroke-width:0.3;"/>
   </g>
   <g id="patch_38">
    <path clip-path="url(#p0ffccccf40)" d="M 253.0714 547.616 
L 273.6782 547.616 
L 273.6782 516.580218 
L 253.0714 516.580218 
z
" style="fill:#000004;stroke:#ffffff;stroke-linejoin:miter;stroke-width:0.3;"/>
   </g>
   <g id="patch_39">
    <path clip-path="url(#p0ffccccf40)" d="M 294.285 547.616 
L 314.8918 547.616 
L 314.8918 515.802515 
L 294.285 515.802515 
z
" style="fill:#000004;stroke:#ffffff;stroke-linejoin:miter;stroke-width:0.3;"/>
   </g>
   <g id="patch_40">
    <path clip-path="url(#p0ffccccf40)" d="M 335.4986 547.616 
L 356.1054 547.616 
L 356.1054 504.165906 
L 335.4986 504.165906 
z
" style="fill:#000004;stroke:#ffffff;stroke-linejoin:miter;stroke-width:0.3;"/>
   </g>
   <g id="patch_41">
    <path clip-path="url(#p0ffccccf40)" d="M 376.7122 547.616 
L 397.319 547.616 
L 397.319 501.297447 
L 376.7122 501.297447 
z
" style="fill:#000004;stroke:#ffffff;stroke-linejoin:miter;stroke-width:0.3;"/>
   </g>
   <g id="patch_42">
    <path clip-path="url(#p0ffccccf40)" d="M 417.9258 547.616 
L 438.5326 547.616 
L 438.5326 498.062526 
L 417.9258 498.062526 
z
" style="fill:#000004;stroke:#ffffff;stroke-linejoin:miter;stroke-width:0.3;"/>
   </g>
   <g id="patch_43">
    <path clip-path="url(#p0ffccccf40)" d="M 459.1394 547.616 
L 479.7462 547.616 
L 479.7462 497.457161 
L 459.1394 497.457161 
z
" style="fill:#000004;stroke:#ffffff;stroke-linejoin:miter;stroke-width:0.3;"/>
   </g>
   <g id="patch_44">
    <path clip-path="url(#p0ffccccf40)" d="M 500.353 547.616 
L 520.9598 547.616 
L 520.9598 469.611629 
L 500.353 469.611629 
z
" style="fill:#000004;stroke:#ffffff;stroke-linejoin:miter;stroke-width:0.3;"/>
   </g>
   <g id="patch_45">
    <path clip-path="url(#p0ffccccf40)" d="M 541.5666 547.616 
L 562.1734 547.616 
L 562.1734 467.137934 
L 541.5666 467.137934 
z
" style="fill:#000004;stroke:#ffffff;stroke-linejoin:miter;stroke-width:0.3;"/>
   </g>
   <g id="patch_46">
    <path clip-path="url(#p0ffccccf40)" d="M 582.7802 547.616 
L 603.387 547.616 
L 603.387 442.961672 
L 582.7802 442.961672 
z
" style="fill:#000004;stroke:#ffffff;stroke-linejoin:miter;stroke-width:0.3;"/>
   </g>
   <g id="patch_47">
    <path clip-path="url(#p0ffccccf40)" d="M 623.9938 547.616 
L 644.6006 547.616 
L 644.6006 421.491151 
L 623.9938 421.491151 
z
" style="fill:#000004;stroke:#ffffff;stroke-linejoin:miter;stroke-width:0.3;"/>
   </g>
   <g id="patch_48">
    <path clip-path="url(#p0ffccccf40)" d="M 665.2074 547.616 
L 685.8142 547.616 
L 685.8142 418.300243 
L 665.2074 418.300243 
z
" style="fill:#000004;stroke:#ffffff;stroke-linejoin:miter;stroke-width:0.3;"/>
   </g>
   <g id="patch_49">
    <path clip-path="url(#p0ffccccf40)" d="M 706.421 547.616 
L 727.0278 547.616 
L 727.0278 417.359765 
L 706.421 417.359765 
z
" style="fill:#000004;stroke:#ffffff;stroke-linejoin:miter;stroke-width:0.3;"/>
   </g>
   <g id="patch_50">
    <path clip-path="url(#p0ffccccf40)" d="M 747.6346 547.616 
L 768.2414 547.616 
L 768.2414 416.576033 
L 747.6346 416.576033 
z
" style="fill:#000004;stroke:#ffffff;stroke-linejoin:miter;stroke-width:0.3;"/>
   </g>
   <g id="patch_51">
    <path clip-path="url(#p0ffccccf40)" d="M 788.8482 547.616 
L 809.455 547.616 
L 809.455 415.426559 
L 788.8482 415.426559 
z
" style="fill:#000004;stroke:#ffffff;stroke-linejoin:miter;stroke-width:0.3;"/>
   </g>
   <g id="patch_52">
    <path clip-path="url(#p0ffccccf40)" d="M 830.0618 547.616 
L 850.6686 547.616 
L 850.6686 412.187134 
L 830.0618 412.187134 
z
" style="fill:#000004;stroke:#ffffff;stroke-linejoin:miter;stroke-width:0.3;"/>
   </g>
   <g id="patch_53">
    <path clip-path="url(#p0ffccccf40)" d="M 871.2754 547.616 
L 891.8822 547.616 
L 891.8822 408.777901 
L 871.2754 408.777901 
z
" style="fill:#000004;stroke:#ffffff;stroke-linejoin:miter;stroke-width:0.3;"/>
   </g>
   <g id="patch_54">
    <path clip-path="url(#p0ffccccf40)" d="M 912.489 547.616 
L 933.0958 547.616 
L 933.0958 405.44704 
L 912.489 405.44704 
z
" style="fill:#000004;stroke:#ffffff;stroke-linejoin:miter;stroke-width:0.3;"/>
   </g>
   <g id="patch_55">
    <path clip-path="url(#p0ffccccf40)" d="M 953.7026 547.616 
L 974.3094 547.616 
L 974.3094 393.37757 
L 953.7026 393.37757 
z
" style="fill:#000004;stroke:#ffffff;stroke-linejoin:miter;stroke-width:0.3;"/>
   </g>
   <g id="patch_56">
    <path clip-path="url(#p0ffccccf40)" d="M 994.9162 547.616 
L 1015.523 547.616 
L 1015.523 379.740635 
L 994.9162 379.740635 
z
" style="fill:#000004;stroke:#ffffff;stroke-linejoin:miter;stroke-width:0.3;"/>
   </g>
   <g id="patch_57">
    <path clip-path="url(#p0ffccccf40)" d="M 1036.1298 547.616 
L 1056.7366 547.616 
L 1056.7366 328.484571 
L 1036.1298 328.484571 
z
" style="fill:#000004;stroke:#ffffff;stroke-linejoin:miter;stroke-width:0.3;"/>
   </g>
   <g id="patch_58">
    <path d="M 36.7 547.616 
L 36.7 317.528 
" style="fill:none;"/>
   </g>
   <g id="patch_59">
    <path d="M 1067.04 547.616 
L 1067.04 317.528 
" style="fill:none;"/>
   </g>
   <g id="patch_60">
    <path d="M 36.7 547.616 
L 1067.04 547.616 
" style="fill:none;"/>
   </g>
   <g id="patch_61">
    <path d="M 36.7 317.528 
L 1067.04 317.528 
" style="fill:none;"/>
   </g>
   <g id="text_65">
    <!-- Mean Confirmed by Cured (Ascending) -->
    <defs>
     <path d="M 3.328125 25.921875 
Q 3.328125 40.328125 11.328125 47.265625 
Q 18.015625 53.03125 27.640625 53.03125 
Q 38.328125 53.03125 45.109375 46.015625 
Q 51.90625 39.015625 51.90625 26.65625 
Q 51.90625 16.65625 48.90625 10.90625 
Q 45.90625 5.171875 40.15625 2 
Q 34.421875 -1.171875 27.640625 -1.171875 
Q 16.75 -1.171875 10.03125 5.8125 
Q 3.328125 12.796875 3.328125 25.921875 
z
M 12.359375 25.921875 
Q 12.359375 15.96875 16.703125 11.015625 
Q 21.046875 6.0625 27.640625 6.0625 
Q 34.1875 6.0625 38.53125 11.03125 
Q 42.875 16.015625 42.875 26.21875 
Q 42.875 35.84375 38.5 40.796875 
Q 34.125 45.75 27.640625 45.75 
Q 21.046875 45.75 16.703125 40.8125 
Q 12.359375 35.890625 12.359375 25.921875 
z
" id="ArialMT-111"/>
     <path d="M 8.6875 0 
L 8.6875 45.015625 
L 0.921875 45.015625 
L 0.921875 51.859375 
L 8.6875 51.859375 
L 8.6875 57.375 
Q 8.6875 62.59375 9.625 65.140625 
Q 10.890625 68.5625 14.078125 70.671875 
Q 17.28125 72.796875 23.046875 72.796875 
Q 26.765625 72.796875 31.25 71.921875 
L 29.9375 64.265625 
Q 27.203125 64.75 24.75 64.75 
Q 20.75 64.75 19.09375 63.03125 
Q 17.4375 61.328125 17.4375 56.640625 
L 17.4375 51.859375 
L 27.546875 51.859375 
L 27.546875 45.015625 
L 17.4375 45.015625 
L 17.4375 0 
z
" id="ArialMT-102"/>
     <path d="M 6.59375 0 
L 6.59375 51.859375 
L 14.453125 51.859375 
L 14.453125 44.578125 
Q 16.890625 48.390625 20.9375 50.703125 
Q 25 53.03125 30.171875 53.03125 
Q 35.9375 53.03125 39.625 50.640625 
Q 43.3125 48.25 44.828125 43.953125 
Q 50.984375 53.03125 60.84375 53.03125 
Q 68.5625 53.03125 72.703125 48.75 
Q 76.859375 44.484375 76.859375 35.59375 
L 76.859375 0 
L 68.109375 0 
L 68.109375 32.671875 
Q 68.109375 37.9375 67.25 40.25 
Q 66.40625 42.578125 64.15625 43.984375 
Q 61.921875 45.40625 58.890625 45.40625 
Q 53.421875 45.40625 49.796875 41.765625 
Q 46.1875 38.140625 46.1875 30.125 
L 46.1875 0 
L 37.40625 0 
L 37.40625 33.6875 
Q 37.40625 39.546875 35.25 42.46875 
Q 33.109375 45.40625 28.21875 45.40625 
Q 24.515625 45.40625 21.359375 43.453125 
Q 18.21875 41.5 16.796875 37.734375 
Q 15.375 33.984375 15.375 26.90625 
L 15.375 0 
z
" id="ArialMT-109"/>
    </defs>
    <g style="fill:#262626;" transform="translate(447.829063 311.528)scale(0.12 -0.12)">
     <use xlink:href="#ArialMT-77"/>
     <use x="83.300781" xlink:href="#ArialMT-101"/>
     <use x="138.916016" xlink:href="#ArialMT-97"/>
     <use x="194.53125" xlink:href="#ArialMT-110"/>
     <use x="250.146484" xlink:href="#ArialMT-32"/>
     <use x="277.929688" xlink:href="#ArialMT-67"/>
     <use x="350.146484" xlink:href="#ArialMT-111"/>
     <use x="405.761719" xlink:href="#ArialMT-110"/>
     <use x="461.376953" xlink:href="#ArialMT-102"/>
     <use x="489.160156" xlink:href="#ArialMT-105"/>
     <use x="511.376953" xlink:href="#ArialMT-114"/>
     <use x="544.677734" xlink:href="#ArialMT-109"/>
     <use x="627.978516" xlink:href="#ArialMT-101"/>
     <use x="683.59375" xlink:href="#ArialMT-100"/>
     <use x="739.208984" xlink:href="#ArialMT-32"/>
     <use x="766.992188" xlink:href="#ArialMT-98"/>
     <use x="822.607422" xlink:href="#ArialMT-121"/>
     <use x="872.607422" xlink:href="#ArialMT-32"/>
     <use x="900.390625" xlink:href="#ArialMT-67"/>
     <use x="972.607422" xlink:href="#ArialMT-117"/>
     <use x="1028.222656" xlink:href="#ArialMT-114"/>
     <use x="1061.523438" xlink:href="#ArialMT-101"/>
     <use x="1117.138672" xlink:href="#ArialMT-100"/>
     <use x="1172.753906" xlink:href="#ArialMT-32"/>
     <use x="1200.537109" xlink:href="#ArialMT-40"/>
     <use x="1233.837891" xlink:href="#ArialMT-65"/>
     <use x="1300.537109" xlink:href="#ArialMT-115"/>
     <use x="1350.537109" xlink:href="#ArialMT-99"/>
     <use x="1400.537109" xlink:href="#ArialMT-101"/>
     <use x="1456.152344" xlink:href="#ArialMT-110"/>
     <use x="1511.767578" xlink:href="#ArialMT-100"/>
     <use x="1567.382812" xlink:href="#ArialMT-105"/>
     <use x="1589.599609" xlink:href="#ArialMT-110"/>
     <use x="1645.214844" xlink:href="#ArialMT-103"/>
     <use x="1700.830078" xlink:href="#ArialMT-41"/>
    </g>
   </g>
  </g>
 </g>
 <defs>
  <clipPath id="p57303f0312">
   <rect height="230.088" width="1030.34" x="36.7" y="27.6"/>
  </clipPath>
  <clipPath id="p0ffccccf40">
   <rect height="230.088" width="1030.34" x="36.7" y="317.528"/>
  </clipPath>
 </defs>
</svg>
