<?xml version="1.0" encoding="utf-8" standalone="no"?>
<!DOCTYPE svg PUBLIC "-//W3C//DTD SVG 1.1//EN"
  "http://www.w3.org/Graphics/SVG/1.1/DTD/svg11.dtd">
<!-- Created with matplotlib (https://matplotlib.org/) -->
<svg height="288pt" version="1.1" viewBox="0 0 1080 288" width="1080pt" xmlns="http://www.w3.org/2000/svg" xmlns:xlink="http://www.w3.org/1999/xlink">
 <defs>
  <style type="text/css">
*{stroke-linecap:butt;stroke-linejoin:round;}
  </style>
 </defs>
 <g id="figure_1">
  <g id="patch_1">
   <path d="M 0 288 
L 1080 288 
L 1080 0 
L 0 0 
z
" style="fill:#ffffff;"/>
  </g>
  <g id="axes_1">
   <g id="patch_2">
    <path d="M 135 256.32 
L 972 256.32 
L 972 34.56 
L 135 34.56 
z
" style="fill:#eaeaf2;"/>
   </g>
   <g id="matplotlib.axis_1">
    <g id="xtick_1">
     <g id="text_1">
      <!-- Cured -->
      <defs>
       <path d="M 58.796875 25.09375 
L 68.265625 22.703125 
Q 65.28125 11.03125 57.546875 4.90625 
Q 49.8125 -1.21875 38.625 -1.21875 
Q 27.046875 -1.21875 19.796875 3.484375 
Q 12.546875 8.203125 8.765625 17.140625 
Q 4.984375 26.078125 4.984375 36.328125 
Q 4.984375 47.515625 9.25 55.828125 
Q 13.53125 64.15625 21.40625 68.46875 
Q 29.296875 72.796875 38.765625 72.796875 
Q 49.515625 72.796875 56.828125 67.328125 
Q 64.15625 61.859375 67.046875 51.953125 
L 57.71875 49.75 
Q 55.21875 57.5625 50.484375 61.125 
Q 45.75 64.703125 38.578125 64.703125 
Q 30.328125 64.703125 24.78125 60.734375 
Q 19.234375 56.78125 16.984375 50.109375 
Q 14.75 43.453125 14.75 36.375 
Q 14.75 27.25 17.40625 20.4375 
Q 20.0625 13.625 25.671875 10.25 
Q 31.296875 6.890625 37.84375 6.890625 
Q 45.796875 6.890625 51.3125 11.46875 
Q 56.84375 16.0625 58.796875 25.09375 
z
" id="ArialMT-67"/>
       <path d="M 40.578125 0 
L 40.578125 7.625 
Q 34.515625 -1.171875 24.125 -1.171875 
Q 19.53125 -1.171875 15.546875 0.578125 
Q 11.578125 2.34375 9.640625 5 
Q 7.71875 7.671875 6.9375 11.53125 
Q 6.390625 14.109375 6.390625 19.734375 
L 6.390625 51.859375 
L 15.1875 51.859375 
L 15.1875 23.09375 
Q 15.1875 16.21875 15.71875 13.8125 
Q 16.546875 10.359375 19.234375 8.375 
Q 21.921875 6.390625 25.875 6.390625 
Q 29.828125 6.390625 33.296875 8.421875 
Q 36.765625 10.453125 38.203125 13.9375 
Q 39.65625 17.4375 39.65625 24.078125 
L 39.65625 51.859375 
L 48.4375 51.859375 
L 48.4375 0 
z
" id="ArialMT-117"/>
       <path d="M 6.5 0 
L 6.5 51.859375 
L 14.40625 51.859375 
L 14.40625 44 
Q 17.4375 49.515625 20 51.265625 
Q 22.5625 53.03125 25.640625 53.03125 
Q 30.078125 53.03125 34.671875 50.203125 
L 31.640625 42.046875 
Q 28.421875 43.953125 25.203125 43.953125 
Q 22.3125 43.953125 20.015625 42.21875 
Q 17.71875 40.484375 16.75 37.40625 
Q 15.28125 32.71875 15.28125 27.15625 
L 15.28125 0 
z
" id="ArialMT-114"/>
       <path d="M 42.09375 16.703125 
L 51.171875 15.578125 
Q 49.03125 7.625 43.21875 3.21875 
Q 37.40625 -1.171875 28.375 -1.171875 
Q 17 -1.171875 10.328125 5.828125 
Q 3.65625 12.84375 3.65625 25.484375 
Q 3.65625 38.578125 10.390625 45.796875 
Q 17.140625 53.03125 27.875 53.03125 
Q 38.28125 53.03125 44.875 45.953125 
Q 51.46875 38.875 51.46875 26.03125 
Q 51.46875 25.25 51.421875 23.6875 
L 12.75 23.6875 
Q 13.234375 15.140625 17.578125 10.59375 
Q 21.921875 6.0625 28.421875 6.0625 
Q 33.25 6.0625 36.671875 8.59375 
Q 40.09375 11.140625 42.09375 16.703125 
z
M 13.234375 30.90625 
L 42.1875 30.90625 
Q 41.609375 37.453125 38.875 40.71875 
Q 34.671875 45.796875 27.984375 45.796875 
Q 21.921875 45.796875 17.796875 41.75 
Q 13.671875 37.703125 13.234375 30.90625 
z
" id="ArialMT-101"/>
       <path d="M 40.234375 0 
L 40.234375 6.546875 
Q 35.296875 -1.171875 25.734375 -1.171875 
Q 19.53125 -1.171875 14.328125 2.25 
Q 9.125 5.671875 6.265625 11.796875 
Q 3.421875 17.921875 3.421875 25.875 
Q 3.421875 33.640625 6 39.96875 
Q 8.59375 46.296875 13.765625 49.65625 
Q 18.953125 53.03125 25.34375 53.03125 
Q 30.03125 53.03125 33.6875 51.046875 
Q 37.359375 49.078125 39.65625 45.90625 
L 39.65625 71.578125 
L 48.390625 71.578125 
L 48.390625 0 
z
M 12.453125 25.875 
Q 12.453125 15.921875 16.640625 10.984375 
Q 20.84375 6.0625 26.5625 6.0625 
Q 32.328125 6.0625 36.34375 10.765625 
Q 40.375 15.484375 40.375 25.140625 
Q 40.375 35.796875 36.265625 40.765625 
Q 32.171875 45.75 26.171875 45.75 
Q 20.3125 45.75 16.375 40.96875 
Q 12.453125 36.1875 12.453125 25.875 
z
" id="ArialMT-100"/>
      </defs>
      <g style="fill:#262626;" transform="translate(260.882812 270.477813)scale(0.1 -0.1)">
       <use xlink:href="#ArialMT-67"/>
       <use x="72.216797" xlink:href="#ArialMT-117"/>
       <use x="127.832031" xlink:href="#ArialMT-114"/>
       <use x="161.132812" xlink:href="#ArialMT-101"/>
       <use x="216.748047" xlink:href="#ArialMT-100"/>
      </g>
     </g>
    </g>
    <g id="xtick_2">
     <g id="text_2">
      <!-- Confirmed -->
      <defs>
       <path d="M 3.328125 25.921875 
Q 3.328125 40.328125 11.328125 47.265625 
Q 18.015625 53.03125 27.640625 53.03125 
Q 38.328125 53.03125 45.109375 46.015625 
Q 51.90625 39.015625 51.90625 26.65625 
Q 51.90625 16.65625 48.90625 10.90625 
Q 45.90625 5.171875 40.15625 2 
Q 34.421875 -1.171875 27.640625 -1.171875 
Q 16.75 -1.171875 10.03125 5.8125 
Q 3.328125 12.796875 3.328125 25.921875 
z
M 12.359375 25.921875 
Q 12.359375 15.96875 16.703125 11.015625 
Q 21.046875 6.0625 27.640625 6.0625 
Q 34.1875 6.0625 38.53125 11.03125 
Q 42.875 16.015625 42.875 26.21875 
Q 42.875 35.84375 38.5 40.796875 
Q 34.125 45.75 27.640625 45.75 
Q 21.046875 45.75 16.703125 40.8125 
Q 12.359375 35.890625 12.359375 25.921875 
z
" id="ArialMT-111"/>
       <path d="M 6.59375 0 
L 6.59375 51.859375 
L 14.5 51.859375 
L 14.5 44.484375 
Q 20.21875 53.03125 31 53.03125 
Q 35.6875 53.03125 39.625 51.34375 
Q 43.5625 49.65625 45.515625 46.921875 
Q 47.46875 44.1875 48.25 40.4375 
Q 48.734375 37.984375 48.734375 31.890625 
L 48.734375 0 
L 39.9375 0 
L 39.9375 31.546875 
Q 39.9375 36.921875 38.90625 39.578125 
Q 37.890625 42.234375 35.28125 43.8125 
Q 32.671875 45.40625 29.15625 45.40625 
Q 23.53125 45.40625 19.453125 41.84375 
Q 15.375 38.28125 15.375 28.328125 
L 15.375 0 
z
" id="ArialMT-110"/>
       <path d="M 8.6875 0 
L 8.6875 45.015625 
L 0.921875 45.015625 
L 0.921875 51.859375 
L 8.6875 51.859375 
L 8.6875 57.375 
Q 8.6875 62.59375 9.625 65.140625 
Q 10.890625 68.5625 14.078125 70.671875 
Q 17.28125 72.796875 23.046875 72.796875 
Q 26.765625 72.796875 31.25 71.921875 
L 29.9375 64.265625 
Q 27.203125 64.75 24.75 64.75 
Q 20.75 64.75 19.09375 63.03125 
Q 17.4375 61.328125 17.4375 56.640625 
L 17.4375 51.859375 
L 27.546875 51.859375 
L 27.546875 45.015625 
L 17.4375 45.015625 
L 17.4375 0 
z
" id="ArialMT-102"/>
       <path d="M 6.640625 61.46875 
L 6.640625 71.578125 
L 15.4375 71.578125 
L 15.4375 61.46875 
z
M 6.640625 0 
L 6.640625 51.859375 
L 15.4375 51.859375 
L 15.4375 0 
z
" id="ArialMT-105"/>
       <path d="M 6.59375 0 
L 6.59375 51.859375 
L 14.453125 51.859375 
L 14.453125 44.578125 
Q 16.890625 48.390625 20.9375 50.703125 
Q 25 53.03125 30.171875 53.03125 
Q 35.9375 53.03125 39.625 50.640625 
Q 43.3125 48.25 44.828125 43.953125 
Q 50.984375 53.03125 60.84375 53.03125 
Q 68.5625 53.03125 72.703125 48.75 
Q 76.859375 44.484375 76.859375 35.59375 
L 76.859375 0 
L 68.109375 0 
L 68.109375 32.671875 
Q 68.109375 37.9375 67.25 40.25 
Q 66.40625 42.578125 64.15625 43.984375 
Q 61.921875 45.40625 58.890625 45.40625 
Q 53.421875 45.40625 49.796875 41.765625 
Q 46.1875 38.140625 46.1875 30.125 
L 46.1875 0 
L 37.40625 0 
L 37.40625 33.6875 
Q 37.40625 39.546875 35.25 42.46875 
Q 33.109375 45.40625 28.21875 45.40625 
Q 24.515625 45.40625 21.359375 43.453125 
Q 18.21875 41.5 16.796875 37.734375 
Q 15.375 33.984375 15.375 26.90625 
L 15.375 0 
z
" id="ArialMT-109"/>
      </defs>
      <g style="fill:#262626;" transform="translate(530.4375 270.477813)scale(0.1 -0.1)">
       <use xlink:href="#ArialMT-67"/>
       <use x="72.216797" xlink:href="#ArialMT-111"/>
       <use x="127.832031" xlink:href="#ArialMT-110"/>
       <use x="183.447266" xlink:href="#ArialMT-102"/>
       <use x="211.230469" xlink:href="#ArialMT-105"/>
       <use x="233.447266" xlink:href="#ArialMT-114"/>
       <use x="266.748047" xlink:href="#ArialMT-109"/>
       <use x="350.048828" xlink:href="#ArialMT-101"/>
       <use x="405.664062" xlink:href="#ArialMT-100"/>
      </g>
     </g>
    </g>
    <g id="xtick_3">
     <g id="text_3">
      <!-- Deaths -->
      <defs>
       <path d="M 7.71875 0 
L 7.71875 71.578125 
L 32.375 71.578125 
Q 40.71875 71.578125 45.125 70.5625 
Q 51.265625 69.140625 55.609375 65.4375 
Q 61.28125 60.640625 64.078125 53.1875 
Q 66.890625 45.75 66.890625 36.1875 
Q 66.890625 28.03125 64.984375 21.734375 
Q 63.09375 15.4375 60.109375 11.296875 
Q 57.125 7.171875 53.578125 4.796875 
Q 50.046875 2.4375 45.046875 1.21875 
Q 40.046875 0 33.546875 0 
z
M 17.1875 8.453125 
L 32.46875 8.453125 
Q 39.546875 8.453125 43.578125 9.765625 
Q 47.609375 11.078125 50 13.484375 
Q 53.375 16.84375 55.25 22.53125 
Q 57.125 28.21875 57.125 36.328125 
Q 57.125 47.5625 53.4375 53.59375 
Q 49.75 59.625 44.484375 61.671875 
Q 40.671875 63.140625 32.234375 63.140625 
L 17.1875 63.140625 
z
" id="ArialMT-68"/>
       <path d="M 40.4375 6.390625 
Q 35.546875 2.25 31.03125 0.53125 
Q 26.515625 -1.171875 21.34375 -1.171875 
Q 12.796875 -1.171875 8.203125 3 
Q 3.609375 7.171875 3.609375 13.671875 
Q 3.609375 17.484375 5.34375 20.625 
Q 7.078125 23.78125 9.890625 25.6875 
Q 12.703125 27.59375 16.21875 28.5625 
Q 18.796875 29.25 24.03125 29.890625 
Q 34.671875 31.15625 39.703125 32.90625 
Q 39.75 34.71875 39.75 35.203125 
Q 39.75 40.578125 37.25 42.78125 
Q 33.890625 45.75 27.25 45.75 
Q 21.046875 45.75 18.09375 43.578125 
Q 15.140625 41.40625 13.71875 35.890625 
L 5.125 37.0625 
Q 6.296875 42.578125 8.984375 45.96875 
Q 11.671875 49.359375 16.75 51.1875 
Q 21.828125 53.03125 28.515625 53.03125 
Q 35.15625 53.03125 39.296875 51.46875 
Q 43.453125 49.90625 45.40625 47.53125 
Q 47.359375 45.171875 48.140625 41.546875 
Q 48.578125 39.3125 48.578125 33.453125 
L 48.578125 21.734375 
Q 48.578125 9.46875 49.140625 6.21875 
Q 49.703125 2.984375 51.375 0 
L 42.1875 0 
Q 40.828125 2.734375 40.4375 6.390625 
z
M 39.703125 26.03125 
Q 34.90625 24.078125 25.34375 22.703125 
Q 19.921875 21.921875 17.671875 20.9375 
Q 15.4375 19.96875 14.203125 18.09375 
Q 12.984375 16.21875 12.984375 13.921875 
Q 12.984375 10.40625 15.640625 8.0625 
Q 18.3125 5.71875 23.4375 5.71875 
Q 28.515625 5.71875 32.46875 7.9375 
Q 36.421875 10.15625 38.28125 14.015625 
Q 39.703125 17 39.703125 22.796875 
z
" id="ArialMT-97"/>
       <path d="M 25.78125 7.859375 
L 27.046875 0.09375 
Q 23.34375 -0.6875 20.40625 -0.6875 
Q 15.625 -0.6875 12.984375 0.828125 
Q 10.359375 2.34375 9.28125 4.8125 
Q 8.203125 7.28125 8.203125 15.1875 
L 8.203125 45.015625 
L 1.765625 45.015625 
L 1.765625 51.859375 
L 8.203125 51.859375 
L 8.203125 64.703125 
L 16.9375 69.96875 
L 16.9375 51.859375 
L 25.78125 51.859375 
L 25.78125 45.015625 
L 16.9375 45.015625 
L 16.9375 14.703125 
Q 16.9375 10.9375 17.40625 9.859375 
Q 17.875 8.796875 18.921875 8.15625 
Q 19.96875 7.515625 21.921875 7.515625 
Q 23.390625 7.515625 25.78125 7.859375 
z
" id="ArialMT-116"/>
       <path d="M 6.59375 0 
L 6.59375 71.578125 
L 15.375 71.578125 
L 15.375 45.90625 
Q 21.53125 53.03125 30.90625 53.03125 
Q 36.671875 53.03125 40.921875 50.75 
Q 45.171875 48.484375 47 44.484375 
Q 48.828125 40.484375 48.828125 32.859375 
L 48.828125 0 
L 40.046875 0 
L 40.046875 32.859375 
Q 40.046875 39.453125 37.1875 42.453125 
Q 34.328125 45.453125 29.109375 45.453125 
Q 25.203125 45.453125 21.75 43.421875 
Q 18.3125 41.40625 16.84375 37.9375 
Q 15.375 34.46875 15.375 28.375 
L 15.375 0 
z
" id="ArialMT-104"/>
       <path d="M 3.078125 15.484375 
L 11.765625 16.84375 
Q 12.5 11.625 15.84375 8.84375 
Q 19.1875 6.0625 25.203125 6.0625 
Q 31.25 6.0625 34.171875 8.515625 
Q 37.109375 10.984375 37.109375 14.3125 
Q 37.109375 17.28125 34.515625 19 
Q 32.71875 20.171875 25.53125 21.96875 
Q 15.875 24.421875 12.140625 26.203125 
Q 8.40625 27.984375 6.46875 31.125 
Q 4.546875 34.28125 4.546875 38.09375 
Q 4.546875 41.546875 6.125 44.5 
Q 7.71875 47.46875 10.453125 49.421875 
Q 12.5 50.921875 16.03125 51.96875 
Q 19.578125 53.03125 23.640625 53.03125 
Q 29.734375 53.03125 34.34375 51.265625 
Q 38.96875 49.515625 41.15625 46.5 
Q 43.359375 43.5 44.1875 38.484375 
L 35.59375 37.3125 
Q 35.015625 41.3125 32.203125 43.546875 
Q 29.390625 45.796875 24.265625 45.796875 
Q 18.21875 45.796875 15.625 43.796875 
Q 13.03125 41.796875 13.03125 39.109375 
Q 13.03125 37.40625 14.109375 36.03125 
Q 15.1875 34.625 17.484375 33.6875 
Q 18.796875 33.203125 25.25 31.453125 
Q 34.578125 28.953125 38.25 27.359375 
Q 41.9375 25.78125 44.03125 22.75 
Q 46.140625 19.734375 46.140625 15.234375 
Q 46.140625 10.84375 43.578125 6.953125 
Q 41.015625 3.078125 36.171875 0.953125 
Q 31.34375 -1.171875 25.25 -1.171875 
Q 15.140625 -1.171875 9.84375 3.03125 
Q 4.546875 7.234375 3.078125 15.484375 
z
" id="ArialMT-115"/>
      </defs>
      <g style="fill:#262626;" transform="translate(816.658594 270.477813)scale(0.1 -0.1)">
       <use xlink:href="#ArialMT-68"/>
       <use x="72.216797" xlink:href="#ArialMT-101"/>
       <use x="127.832031" xlink:href="#ArialMT-97"/>
       <use x="183.447266" xlink:href="#ArialMT-116"/>
       <use x="211.230469" xlink:href="#ArialMT-104"/>
       <use x="266.845703" xlink:href="#ArialMT-115"/>
      </g>
     </g>
    </g>
   </g>
   <g id="matplotlib.axis_2">
    <g id="ytick_1">
     <g id="line2d_1">
      <path clip-path="url(#pd5a12f1b3f)" d="M 135 232.885848 
L 972 232.885848 
" style="fill:none;stroke:#ffffff;stroke-linecap:round;"/>
     </g>
     <g id="text_4">
      <!-- 0 -->
      <defs>
       <path d="M 4.15625 35.296875 
Q 4.15625 48 6.765625 55.734375 
Q 9.375 63.484375 14.515625 67.671875 
Q 19.671875 71.875 27.484375 71.875 
Q 33.25 71.875 37.59375 69.546875 
Q 41.9375 67.234375 44.765625 62.859375 
Q 47.609375 58.5 49.21875 52.21875 
Q 50.828125 45.953125 50.828125 35.296875 
Q 50.828125 22.703125 48.234375 14.96875 
Q 45.65625 7.234375 40.5 3 
Q 35.359375 -1.21875 27.484375 -1.21875 
Q 17.140625 -1.21875 11.234375 6.203125 
Q 4.15625 15.140625 4.15625 35.296875 
z
M 13.1875 35.296875 
Q 13.1875 17.671875 17.3125 11.828125 
Q 21.4375 6 27.484375 6 
Q 33.546875 6 37.671875 11.859375 
Q 41.796875 17.71875 41.796875 35.296875 
Q 41.796875 52.984375 37.671875 58.78125 
Q 33.546875 64.59375 27.390625 64.59375 
Q 21.34375 64.59375 17.71875 59.46875 
Q 13.1875 52.9375 13.1875 35.296875 
z
" id="ArialMT-48"/>
      </defs>
      <g style="fill:#262626;" transform="translate(122.439063 236.464754)scale(0.1 -0.1)">
       <use xlink:href="#ArialMT-48"/>
      </g>
     </g>
    </g>
    <g id="ytick_2">
     <g id="line2d_2">
      <path clip-path="url(#pd5a12f1b3f)" d="M 135 202.861479 
L 972 202.861479 
" style="fill:none;stroke:#ffffff;stroke-linecap:round;"/>
     </g>
     <g id="text_5">
      <!-- 2 -->
      <defs>
       <path d="M 50.34375 8.453125 
L 50.34375 0 
L 3.03125 0 
Q 2.9375 3.171875 4.046875 6.109375 
Q 5.859375 10.9375 9.828125 15.625 
Q 13.8125 20.3125 21.34375 26.46875 
Q 33.015625 36.03125 37.109375 41.625 
Q 41.21875 47.21875 41.21875 52.203125 
Q 41.21875 57.421875 37.46875 61 
Q 33.734375 64.59375 27.734375 64.59375 
Q 21.390625 64.59375 17.578125 60.78125 
Q 13.765625 56.984375 13.71875 50.25 
L 4.6875 51.171875 
Q 5.609375 61.28125 11.65625 66.578125 
Q 17.71875 71.875 27.9375 71.875 
Q 38.234375 71.875 44.234375 66.15625 
Q 50.25 60.453125 50.25 52 
Q 50.25 47.703125 48.484375 43.546875 
Q 46.734375 39.40625 42.65625 34.8125 
Q 38.578125 30.21875 29.109375 22.21875 
Q 21.1875 15.578125 18.9375 13.203125 
Q 16.703125 10.84375 15.234375 8.453125 
z
" id="ArialMT-50"/>
      </defs>
      <g style="fill:#262626;" transform="translate(122.439063 206.440385)scale(0.1 -0.1)">
       <use xlink:href="#ArialMT-50"/>
      </g>
     </g>
    </g>
    <g id="ytick_3">
     <g id="line2d_3">
      <path clip-path="url(#pd5a12f1b3f)" d="M 135 172.837109 
L 972 172.837109 
" style="fill:none;stroke:#ffffff;stroke-linecap:round;"/>
     </g>
     <g id="text_6">
      <!-- 4 -->
      <defs>
       <path d="M 32.328125 0 
L 32.328125 17.140625 
L 1.265625 17.140625 
L 1.265625 25.203125 
L 33.9375 71.578125 
L 41.109375 71.578125 
L 41.109375 25.203125 
L 50.78125 25.203125 
L 50.78125 17.140625 
L 41.109375 17.140625 
L 41.109375 0 
z
M 32.328125 25.203125 
L 32.328125 57.46875 
L 9.90625 25.203125 
z
" id="ArialMT-52"/>
      </defs>
      <g style="fill:#262626;" transform="translate(122.439063 176.416015)scale(0.1 -0.1)">
       <use xlink:href="#ArialMT-52"/>
      </g>
     </g>
    </g>
    <g id="ytick_4">
     <g id="line2d_4">
      <path clip-path="url(#pd5a12f1b3f)" d="M 135 142.812739 
L 972 142.812739 
" style="fill:none;stroke:#ffffff;stroke-linecap:round;"/>
     </g>
     <g id="text_7">
      <!-- 6 -->
      <defs>
       <path d="M 49.75 54.046875 
L 41.015625 53.375 
Q 39.84375 58.546875 37.703125 60.890625 
Q 34.125 64.65625 28.90625 64.65625 
Q 24.703125 64.65625 21.53125 62.3125 
Q 17.390625 59.28125 14.984375 53.46875 
Q 12.59375 47.65625 12.5 36.921875 
Q 15.671875 41.75 20.265625 44.09375 
Q 24.859375 46.4375 29.890625 46.4375 
Q 38.671875 46.4375 44.84375 39.96875 
Q 51.03125 33.5 51.03125 23.25 
Q 51.03125 16.5 48.125 10.71875 
Q 45.21875 4.9375 40.140625 1.859375 
Q 35.0625 -1.21875 28.609375 -1.21875 
Q 17.625 -1.21875 10.6875 6.859375 
Q 3.765625 14.9375 3.765625 33.5 
Q 3.765625 54.25 11.421875 63.671875 
Q 18.109375 71.875 29.4375 71.875 
Q 37.890625 71.875 43.28125 67.140625 
Q 48.6875 62.40625 49.75 54.046875 
z
M 13.875 23.1875 
Q 13.875 18.65625 15.796875 14.5 
Q 17.71875 10.359375 21.1875 8.171875 
Q 24.65625 6 28.46875 6 
Q 34.03125 6 38.03125 10.484375 
Q 42.046875 14.984375 42.046875 22.703125 
Q 42.046875 30.125 38.078125 34.390625 
Q 34.125 38.671875 28.125 38.671875 
Q 22.171875 38.671875 18.015625 34.390625 
Q 13.875 30.125 13.875 23.1875 
z
" id="ArialMT-54"/>
      </defs>
      <g style="fill:#262626;" transform="translate(122.439063 146.391645)scale(0.1 -0.1)">
       <use xlink:href="#ArialMT-54"/>
      </g>
     </g>
    </g>
    <g id="ytick_5">
     <g id="line2d_5">
      <path clip-path="url(#pd5a12f1b3f)" d="M 135 112.788369 
L 972 112.788369 
" style="fill:none;stroke:#ffffff;stroke-linecap:round;"/>
     </g>
     <g id="text_8">
      <!-- 8 -->
      <defs>
       <path d="M 17.671875 38.8125 
Q 12.203125 40.828125 9.5625 44.53125 
Q 6.9375 48.25 6.9375 53.421875 
Q 6.9375 61.234375 12.546875 66.546875 
Q 18.171875 71.875 27.484375 71.875 
Q 36.859375 71.875 42.578125 66.421875 
Q 48.296875 60.984375 48.296875 53.171875 
Q 48.296875 48.1875 45.671875 44.5 
Q 43.0625 40.828125 37.75 38.8125 
Q 44.34375 36.671875 47.78125 31.875 
Q 51.21875 27.09375 51.21875 20.453125 
Q 51.21875 11.28125 44.71875 5.03125 
Q 38.234375 -1.21875 27.640625 -1.21875 
Q 17.046875 -1.21875 10.546875 5.046875 
Q 4.046875 11.328125 4.046875 20.703125 
Q 4.046875 27.6875 7.59375 32.390625 
Q 11.140625 37.109375 17.671875 38.8125 
z
M 15.921875 53.71875 
Q 15.921875 48.640625 19.1875 45.40625 
Q 22.46875 42.1875 27.6875 42.1875 
Q 32.765625 42.1875 36.015625 45.375 
Q 39.265625 48.578125 39.265625 53.21875 
Q 39.265625 58.0625 35.90625 61.359375 
Q 32.5625 64.65625 27.59375 64.65625 
Q 22.5625 64.65625 19.234375 61.421875 
Q 15.921875 58.203125 15.921875 53.71875 
z
M 13.09375 20.65625 
Q 13.09375 16.890625 14.875 13.375 
Q 16.65625 9.859375 20.171875 7.921875 
Q 23.6875 6 27.734375 6 
Q 34.03125 6 38.125 10.046875 
Q 42.234375 14.109375 42.234375 20.359375 
Q 42.234375 26.703125 38.015625 30.859375 
Q 33.796875 35.015625 27.4375 35.015625 
Q 21.234375 35.015625 17.15625 30.90625 
Q 13.09375 26.8125 13.09375 20.65625 
z
" id="ArialMT-56"/>
      </defs>
      <g style="fill:#262626;" transform="translate(122.439063 116.367276)scale(0.1 -0.1)">
       <use xlink:href="#ArialMT-56"/>
      </g>
     </g>
    </g>
    <g id="ytick_6">
     <g id="line2d_6">
      <path clip-path="url(#pd5a12f1b3f)" d="M 135 82.764 
L 972 82.764 
" style="fill:none;stroke:#ffffff;stroke-linecap:round;"/>
     </g>
     <g id="text_9">
      <!-- 10 -->
      <defs>
       <path d="M 37.25 0 
L 28.46875 0 
L 28.46875 56 
Q 25.296875 52.984375 20.140625 49.953125 
Q 14.984375 46.921875 10.890625 45.40625 
L 10.890625 53.90625 
Q 18.265625 57.375 23.78125 62.296875 
Q 29.296875 67.234375 31.59375 71.875 
L 37.25 71.875 
z
" id="ArialMT-49"/>
      </defs>
      <g style="fill:#262626;" transform="translate(116.878125 86.342906)scale(0.1 -0.1)">
       <use xlink:href="#ArialMT-49"/>
       <use x="55.615234" xlink:href="#ArialMT-48"/>
      </g>
     </g>
    </g>
    <g id="ytick_7">
     <g id="line2d_7">
      <path clip-path="url(#pd5a12f1b3f)" d="M 135 52.73963 
L 972 52.73963 
" style="fill:none;stroke:#ffffff;stroke-linecap:round;"/>
     </g>
     <g id="text_10">
      <!-- 12 -->
      <g style="fill:#262626;" transform="translate(116.878125 56.318536)scale(0.1 -0.1)">
       <use xlink:href="#ArialMT-49"/>
       <use x="55.615234" xlink:href="#ArialMT-50"/>
      </g>
     </g>
    </g>
   </g>
   <g id="PolyCollection_1">
    <defs>
     <path d="M 286.570369 -42.264794 
L 262.429631 -42.264794 
L 248.267909 -43.801609 
L 226.321703 -45.338423 
L 199.571056 -46.875238 
L 175.518336 -48.412053 
L 162.9 -49.948868 
L 166.250773 -51.485682 
L 182.945788 -53.022497 
L 205.416868 -54.559312 
L 226.237922 -56.096126 
L 241.628832 -57.632941 
L 251.488952 -59.169756 
L 257.451584 -60.70657 
L 261.173288 -62.243385 
L 263.711966 -63.7802 
L 265.616826 -65.317014 
L 267.153084 -66.853829 
L 268.432512 -68.390644 
L 269.482923 -69.927459 
L 270.308241 -71.464273 
L 270.929859 -73.001088 
L 271.392177 -74.537903 
L 271.745264 -76.074717 
L 272.029555 -77.611532 
L 272.272986 -79.148347 
L 272.494517 -80.685161 
L 272.705648 -82.221976 
L 272.909585 -83.758791 
L 273.101854 -85.295606 
L 273.271805 -86.83242 
L 273.403009 -88.369235 
L 273.477445 -89.90605 
L 273.489399 -91.442864 
L 273.460844 -92.979679 
L 273.438537 -94.516494 
L 273.466486 -96.053308 
L 273.555343 -97.590123 
L 273.677749 -99.126938 
L 273.794077 -100.663752 
L 273.883639 -102.200567 
L 273.953566 -103.737382 
L 274.021533 -105.274197 
L 274.092915 -106.811011 
L 274.153652 -108.347826 
L 274.179525 -109.884641 
L 274.147634 -111.421455 
L 274.043664 -112.95827 
L 273.871924 -114.495085 
L 273.66857 -116.031899 
L 273.500024 -117.568714 
L 273.432143 -119.105529 
L 273.487228 -120.642344 
L 273.627105 -122.179158 
L 273.77967 -123.715973 
L 273.885727 -125.252788 
L 273.928816 -126.789602 
L 273.932164 -128.326417 
L 273.934025 -129.863232 
L 273.962082 -131.400046 
L 274.021226 -132.936861 
L 274.097064 -134.473676 
L 274.167489 -136.01049 
L 274.21281 -137.547305 
L 274.221044 -139.08412 
L 274.190774 -140.620935 
L 274.13352 -142.157749 
L 274.073566 -143.694564 
L 274.04104 -145.231379 
L 274.057361 -146.768193 
L 274.12085 -148.305008 
L 274.205343 -149.841823 
L 274.275835 -151.378637 
L 274.309165 -152.915452 
L 274.303441 -154.452267 
L 274.272243 -155.989082 
L 274.233414 -157.525896 
L 274.202947 -159.062711 
L 274.1941 -160.599526 
L 274.215095 -162.13634 
L 274.263748 -163.673155 
L 274.325476 -165.20997 
L 274.379552 -166.746784 
L 274.409747 -168.283599 
L 274.411898 -169.820414 
L 274.394832 -171.357228 
L 274.375251 -172.894043 
L 274.368679 -174.430858 
L 274.380569 -175.967673 
L 274.403102 -177.504487 
L 274.419832 -179.041302 
L 274.41468 -180.578117 
L 274.380551 -182.114931 
L 274.324923 -183.651746 
L 274.269521 -185.188561 
L 274.240748 -186.725375 
L 274.253983 -188.26219 
L 274.303651 -189.799005 
L 274.368295 -191.33582 
L 274.425765 -192.872634 
L 274.464841 -194.409449 
L 274.535159 -194.409449 
L 274.535159 -194.409449 
L 274.574235 -192.872634 
L 274.631705 -191.33582 
L 274.696349 -189.799005 
L 274.746017 -188.26219 
L 274.759252 -186.725375 
L 274.730479 -185.188561 
L 274.675077 -183.651746 
L 274.619449 -182.114931 
L 274.58532 -180.578117 
L 274.580168 -179.041302 
L 274.596898 -177.504487 
L 274.619431 -175.967673 
L 274.631321 -174.430858 
L 274.624749 -172.894043 
L 274.605168 -171.357228 
L 274.588102 -169.820414 
L 274.590253 -168.283599 
L 274.620448 -166.746784 
L 274.674524 -165.20997 
L 274.736252 -163.673155 
L 274.784905 -162.13634 
L 274.8059 -160.599526 
L 274.797053 -159.062711 
L 274.766586 -157.525896 
L 274.727757 -155.989082 
L 274.696559 -154.452267 
L 274.690835 -152.915452 
L 274.724165 -151.378637 
L 274.794657 -149.841823 
L 274.87915 -148.305008 
L 274.942639 -146.768193 
L 274.95896 -145.231379 
L 274.926434 -143.694564 
L 274.86648 -142.157749 
L 274.809226 -140.620935 
L 274.778956 -139.08412 
L 274.78719 -137.547305 
L 274.832511 -136.01049 
L 274.902936 -134.473676 
L 274.978774 -132.936861 
L 275.037918 -131.400046 
L 275.065975 -129.863232 
L 275.067836 -128.326417 
L 275.071184 -126.789602 
L 275.114273 -125.252788 
L 275.22033 -123.715973 
L 275.372895 -122.179158 
L 275.512772 -120.642344 
L 275.567857 -119.105529 
L 275.499976 -117.568714 
L 275.33143 -116.031899 
L 275.128076 -114.495085 
L 274.956336 -112.95827 
L 274.852366 -111.421455 
L 274.820475 -109.884641 
L 274.846348 -108.347826 
L 274.907085 -106.811011 
L 274.978467 -105.274197 
L 275.046434 -103.737382 
L 275.116361 -102.200567 
L 275.205923 -100.663752 
L 275.322251 -99.126938 
L 275.444657 -97.590123 
L 275.533514 -96.053308 
L 275.561463 -94.516494 
L 275.539156 -92.979679 
L 275.510601 -91.442864 
L 275.522555 -89.90605 
L 275.596991 -88.369235 
L 275.728195 -86.83242 
L 275.898146 -85.295606 
L 276.090415 -83.758791 
L 276.294352 -82.221976 
L 276.505483 -80.685161 
L 276.727014 -79.148347 
L 276.970445 -77.611532 
L 277.254736 -76.074717 
L 277.607823 -74.537903 
L 278.070141 -73.001088 
L 278.691759 -71.464273 
L 279.517077 -69.927459 
L 280.567488 -68.390644 
L 281.846916 -66.853829 
L 283.383174 -65.317014 
L 285.288034 -63.7802 
L 287.826712 -62.243385 
L 291.548416 -60.70657 
L 297.511048 -59.169756 
L 307.371168 -57.632941 
L 322.762078 -56.096126 
L 343.583132 -54.559312 
L 366.054212 -53.022497 
L 382.749227 -51.485682 
L 386.1 -49.948868 
L 373.481664 -48.412053 
L 349.428944 -46.875238 
L 322.678297 -45.338423 
L 300.732091 -43.801609 
L 286.570369 -42.264794 
z
" id="m5e7c8e6eaa" style="stroke:#4c4c4c;stroke-width:3;"/>
    </defs>
    <g clip-path="url(#pd5a12f1b3f)">
     <use style="fill:#5875a4;stroke:#4c4c4c;stroke-width:3;" x="0" xlink:href="#m5e7c8e6eaa" y="288"/>
    </g>
   </g>
   <g id="PolyCollection_2">
    <defs>
     <path d="M 564.391133 -41.76 
L 542.608867 -41.76 
L 526.895978 -43.505504 
L 501.200447 -45.251007 
L 470.557177 -46.996511 
L 446.962581 -48.742015 
L 441.9 -50.487519 
L 456.921368 -52.233022 
L 482.682854 -53.978526 
L 507.314537 -55.72403 
L 524.459477 -57.469533 
L 534.172098 -59.215037 
L 539.216681 -60.960541 
L 542.017465 -62.706045 
L 543.889155 -64.451548 
L 545.379338 -66.197052 
L 546.65651 -67.942556 
L 547.734075 -69.688059 
L 548.60163 -71.433563 
L 549.281823 -73.179067 
L 549.820693 -74.924571 
L 550.256606 -76.670074 
L 550.610275 -78.415578 
L 550.894268 -80.161082 
L 551.11791 -81.906585 
L 551.288102 -83.652089 
L 551.417269 -85.397593 
L 551.52372 -87.143097 
L 551.615837 -88.8886 
L 551.687708 -90.634104 
L 551.738244 -92.379608 
L 551.782408 -94.125112 
L 551.837397 -95.870615 
L 551.906234 -97.616119 
L 551.97666 -99.361623 
L 552.031579 -101.107126 
L 552.065247 -102.85263 
L 552.097403 -104.598134 
L 552.168679 -106.343638 
L 552.308373 -108.089141 
L 552.496312 -109.834645 
L 552.66297 -111.580149 
L 552.743053 -113.325652 
L 552.734725 -115.071156 
L 552.700949 -116.81666 
L 552.711416 -118.562164 
L 552.788018 -120.307667 
L 552.904518 -122.053171 
L 553.023656 -123.798675 
L 553.122531 -125.544178 
L 553.191432 -127.289682 
L 553.228435 -129.035186 
L 553.24211 -130.78069 
L 553.251242 -132.526193 
L 553.274436 -134.271697 
L 553.31823 -136.017201 
L 553.37405 -137.762704 
L 553.425495 -139.508208 
L 553.458881 -141.253712 
L 553.468225 -142.999216 
L 553.454016 -144.744719 
L 553.422663 -146.490223 
L 553.388411 -148.235727 
L 553.370004 -149.98123 
L 553.378746 -151.726734 
L 553.409144 -153.472238 
L 553.443604 -155.217742 
L 553.465375 -156.963245 
L 553.465996 -158.708749 
L 553.445233 -160.454253 
L 553.41094 -162.199756 
L 553.379051 -163.94526 
L 553.36603 -165.690764 
L 553.375168 -167.436268 
L 553.391779 -169.181771 
L 553.396351 -170.927275 
L 553.383717 -172.672779 
L 553.368158 -174.418282 
L 553.368871 -176.163786 
L 553.390775 -177.90929 
L 553.419828 -179.654794 
L 553.435145 -181.400297 
L 553.424197 -183.145801 
L 553.389622 -184.891305 
L 553.346109 -186.636808 
L 553.310897 -188.382312 
L 553.295187 -190.127816 
L 553.302789 -191.87332 
L 553.332355 -193.618823 
L 553.376511 -195.364327 
L 553.421308 -197.109831 
L 553.451576 -198.855335 
L 553.457918 -200.600838 
L 553.439921 -202.346342 
L 553.407156 -204.091846 
L 553.377841 -205.837349 
L 553.370209 -207.582853 
L 553.38964 -209.328357 
L 553.425012 -211.073861 
L 553.459292 -212.819364 
L 553.482345 -214.564868 
L 553.517655 -214.564868 
L 553.517655 -214.564868 
L 553.540708 -212.819364 
L 553.574988 -211.073861 
L 553.61036 -209.328357 
L 553.629791 -207.582853 
L 553.622159 -205.837349 
L 553.592844 -204.091846 
L 553.560079 -202.346342 
L 553.542082 -200.600838 
L 553.548424 -198.855335 
L 553.578692 -197.109831 
L 553.623489 -195.364327 
L 553.667645 -193.618823 
L 553.697211 -191.87332 
L 553.704813 -190.127816 
L 553.689103 -188.382312 
L 553.653891 -186.636808 
L 553.610378 -184.891305 
L 553.575803 -183.145801 
L 553.564855 -181.400297 
L 553.580172 -179.654794 
L 553.609225 -177.90929 
L 553.631129 -176.163786 
L 553.631842 -174.418282 
L 553.616283 -172.672779 
L 553.603649 -170.927275 
L 553.608221 -169.181771 
L 553.624832 -167.436268 
L 553.63397 -165.690764 
L 553.620949 -163.94526 
L 553.58906 -162.199756 
L 553.554767 -160.454253 
L 553.534004 -158.708749 
L 553.534625 -156.963245 
L 553.556396 -155.217742 
L 553.590856 -153.472238 
L 553.621254 -151.726734 
L 553.629996 -149.98123 
L 553.611589 -148.235727 
L 553.577337 -146.490223 
L 553.545984 -144.744719 
L 553.531775 -142.999216 
L 553.541119 -141.253712 
L 553.574505 -139.508208 
L 553.62595 -137.762704 
L 553.68177 -136.017201 
L 553.725564 -134.271697 
L 553.748758 -132.526193 
L 553.75789 -130.78069 
L 553.771565 -129.035186 
L 553.808568 -127.289682 
L 553.877469 -125.544178 
L 553.976344 -123.798675 
L 554.095482 -122.053171 
L 554.211982 -120.307667 
L 554.288584 -118.562164 
L 554.299051 -116.81666 
L 554.265275 -115.071156 
L 554.256947 -113.325652 
L 554.33703 -111.580149 
L 554.503688 -109.834645 
L 554.691627 -108.089141 
L 554.831321 -106.343638 
L 554.902597 -104.598134 
L 554.934753 -102.85263 
L 554.968421 -101.107126 
L 555.02334 -99.361623 
L 555.093766 -97.616119 
L 555.162603 -95.870615 
L 555.217592 -94.125112 
L 555.261756 -92.379608 
L 555.312292 -90.634104 
L 555.384163 -88.8886 
L 555.47628 -87.143097 
L 555.582731 -85.397593 
L 555.711898 -83.652089 
L 555.88209 -81.906585 
L 556.105732 -80.161082 
L 556.389725 -78.415578 
L 556.743394 -76.670074 
L 557.179307 -74.924571 
L 557.718177 -73.179067 
L 558.39837 -71.433563 
L 559.265925 -69.688059 
L 560.34349 -67.942556 
L 561.620662 -66.197052 
L 563.110845 -64.451548 
L 564.982535 -62.706045 
L 567.783319 -60.960541 
L 572.827902 -59.215037 
L 582.540523 -57.469533 
L 599.685463 -55.72403 
L 624.317146 -53.978526 
L 650.078632 -52.233022 
L 665.1 -50.487519 
L 660.037419 -48.742015 
L 636.442823 -46.996511 
L 605.799553 -45.251007 
L 580.104022 -43.505504 
L 564.391133 -41.76 
z
" id="mfbdfa4e076" style="stroke:#4c4c4c;stroke-width:3;"/>
    </defs>
    <g clip-path="url(#pd5a12f1b3f)">
     <use style="fill:#5f9e6e;stroke:#4c4c4c;stroke-width:3;" x="0" xlink:href="#mfbdfa4e076" y="288"/>
    </g>
   </g>
   <g id="PolyCollection_3">
    <defs>
     <path d="M 844.915676 -44.059442 
L 820.084324 -44.059442 
L 799.481189 -46.072579 
L 766.753975 -48.085716 
L 734.073251 -50.098852 
L 720.9 -52.111989 
L 735.331335 -54.125126 
L 765.660917 -56.138263 
L 793.904389 -58.1514 
L 811.477643 -60.164537 
L 820.038218 -62.177674 
L 824.153812 -64.190811 
L 826.731152 -66.203948 
L 828.689721 -68.217085 
L 830.07171 -70.230222 
L 830.872493 -72.243359 
L 831.259831 -74.256496 
L 831.442145 -76.269633 
L 831.542338 -78.28277 
L 831.603153 -80.295907 
L 831.640441 -82.309044 
L 831.665892 -84.322181 
L 831.683823 -86.335318 
L 831.69598 -88.348455 
L 831.711224 -90.361592 
L 831.739158 -92.374728 
L 831.781984 -94.387865 
L 831.838575 -96.401002 
L 831.908924 -98.414139 
L 831.992649 -100.427276 
L 832.082132 -102.440413 
L 832.155693 -104.45355 
L 832.1867 -106.466687 
L 832.16795 -108.479824 
L 832.12759 -110.492961 
L 832.117398 -112.506098 
L 832.172426 -114.519235 
L 832.277116 -116.532372 
L 832.3822 -118.545509 
L 832.452185 -120.558646 
L 832.485092 -122.571783 
L 832.495765 -124.58492 
L 832.495668 -126.598057 
L 832.486473 -128.611194 
L 832.463894 -130.624331 
L 832.428087 -132.637468 
L 832.39357 -134.650605 
L 832.382241 -136.663741 
L 832.399342 -138.676878 
L 832.423256 -140.690015 
L 832.426898 -142.703152 
L 832.406222 -144.716289 
L 832.384434 -146.729426 
L 832.387548 -148.742563 
L 832.417278 -150.7557 
L 832.451963 -152.768837 
L 832.469159 -154.781974 
L 832.459604 -156.795111 
L 832.428293 -158.808248 
L 832.394522 -160.821385 
L 832.383377 -162.834522 
L 832.404202 -164.847659 
L 832.441587 -166.860796 
L 832.473349 -168.873933 
L 832.489647 -170.88707 
L 832.491307 -172.900207 
L 832.478781 -174.913344 
L 832.450407 -176.926481 
L 832.412301 -178.939617 
L 832.383613 -180.952754 
L 832.380462 -182.965891 
L 832.394269 -184.979028 
L 832.399778 -186.992165 
L 832.388037 -189.005302 
L 832.378551 -191.018439 
L 832.392969 -193.031576 
L 832.427896 -195.044713 
L 832.461476 -197.05785 
L 832.476026 -199.070987 
L 832.465778 -201.084124 
L 832.43428 -203.097261 
L 832.395938 -205.110398 
L 832.37096 -207.123535 
L 832.365574 -209.136672 
L 832.364732 -211.149809 
L 832.354652 -213.162946 
L 832.339992 -215.176083 
L 832.330108 -217.18922 
L 832.325446 -219.202357 
L 832.324049 -221.215494 
L 832.326078 -223.22863 
L 832.33232 -225.241767 
L 832.346203 -227.254904 
L 832.367009 -229.268041 
L 832.381504 -231.281178 
L 832.379607 -233.294315 
L 832.374229 -235.307452 
L 832.387542 -237.320589 
L 832.421896 -239.333726 
L 832.459227 -241.346863 
L 832.484153 -243.36 
L 832.515847 -243.36 
L 832.515847 -243.36 
L 832.540773 -241.346863 
L 832.578104 -239.333726 
L 832.612458 -237.320589 
L 832.625771 -235.307452 
L 832.620393 -233.294315 
L 832.618496 -231.281178 
L 832.632991 -229.268041 
L 832.653797 -227.254904 
L 832.66768 -225.241767 
L 832.673922 -223.22863 
L 832.675951 -221.215494 
L 832.674554 -219.202357 
L 832.669892 -217.18922 
L 832.660008 -215.176083 
L 832.645348 -213.162946 
L 832.635268 -211.149809 
L 832.634426 -209.136672 
L 832.62904 -207.123535 
L 832.604062 -205.110398 
L 832.56572 -203.097261 
L 832.534222 -201.084124 
L 832.523974 -199.070987 
L 832.538524 -197.05785 
L 832.572104 -195.044713 
L 832.607031 -193.031576 
L 832.621449 -191.018439 
L 832.611963 -189.005302 
L 832.600222 -186.992165 
L 832.605731 -184.979028 
L 832.619538 -182.965891 
L 832.616387 -180.952754 
L 832.587699 -178.939617 
L 832.549593 -176.926481 
L 832.521219 -174.913344 
L 832.508693 -172.900207 
L 832.510353 -170.88707 
L 832.526651 -168.873933 
L 832.558413 -166.860796 
L 832.595798 -164.847659 
L 832.616623 -162.834522 
L 832.605478 -160.821385 
L 832.571707 -158.808248 
L 832.540396 -156.795111 
L 832.530841 -154.781974 
L 832.548037 -152.768837 
L 832.582722 -150.7557 
L 832.612452 -148.742563 
L 832.615566 -146.729426 
L 832.593778 -144.716289 
L 832.573102 -142.703152 
L 832.576744 -140.690015 
L 832.600658 -138.676878 
L 832.617759 -136.663741 
L 832.60643 -134.650605 
L 832.571913 -132.637468 
L 832.536106 -130.624331 
L 832.513527 -128.611194 
L 832.504332 -126.598057 
L 832.504235 -124.58492 
L 832.514908 -122.571783 
L 832.547815 -120.558646 
L 832.6178 -118.545509 
L 832.722884 -116.532372 
L 832.827574 -114.519235 
L 832.882602 -112.506098 
L 832.87241 -110.492961 
L 832.83205 -108.479824 
L 832.8133 -106.466687 
L 832.844307 -104.45355 
L 832.917868 -102.440413 
L 833.007351 -100.427276 
L 833.091076 -98.414139 
L 833.161425 -96.401002 
L 833.218016 -94.387865 
L 833.260842 -92.374728 
L 833.288776 -90.361592 
L 833.30402 -88.348455 
L 833.316177 -86.335318 
L 833.334108 -84.322181 
L 833.359559 -82.309044 
L 833.396847 -80.295907 
L 833.457662 -78.28277 
L 833.557855 -76.269633 
L 833.740169 -74.256496 
L 834.127507 -72.243359 
L 834.92829 -70.230222 
L 836.310279 -68.217085 
L 838.268848 -66.203948 
L 840.846188 -64.190811 
L 844.961782 -62.177674 
L 853.522357 -60.164537 
L 871.095611 -58.1514 
L 899.339083 -56.138263 
L 929.668665 -54.125126 
L 944.1 -52.111989 
L 930.926749 -50.098852 
L 898.246025 -48.085716 
L 865.518811 -46.072579 
L 844.915676 -44.059442 
z
" id="m27e67a4825" style="stroke:#4c4c4c;stroke-width:3;"/>
    </defs>
    <g clip-path="url(#pd5a12f1b3f)">
     <use style="fill:#b55d60;stroke:#4c4c4c;stroke-width:3;" x="0" xlink:href="#m27e67a4825" y="288"/>
    </g>
   </g>
   <g id="line2d_8">
    <path clip-path="url(#pd5a12f1b3f)" d="M 274.5 238.367698 
L 274.5 229.332543 
" style="fill:none;stroke:#4c4c4c;stroke-linecap:round;stroke-width:3;"/>
   </g>
   <g id="line2d_9">
    <path clip-path="url(#pd5a12f1b3f)" d="M 274.5 238.367698 
L 274.5 234.60305 
" style="fill:none;stroke:#4c4c4c;stroke-linecap:round;stroke-width:9;"/>
   </g>
   <g id="line2d_10">
    <path clip-path="url(#pd5a12f1b3f)" d="M 553.5 238.872492 
L 553.5 229.997028 
" style="fill:none;stroke:#4c4c4c;stroke-linecap:round;stroke-width:3;"/>
   </g>
   <g id="line2d_11">
    <path clip-path="url(#pd5a12f1b3f)" d="M 553.5 238.742607 
L 553.5 235.224892 
" style="fill:none;stroke:#4c4c4c;stroke-linecap:round;stroke-width:9;"/>
   </g>
   <g id="line2d_12">
    <path clip-path="url(#pd5a12f1b3f)" d="M 832.5 236.57305 
L 832.5 233.074177 
" style="fill:none;stroke:#4c4c4c;stroke-linecap:round;stroke-width:3;"/>
   </g>
   <g id="line2d_13">
    <path clip-path="url(#pd5a12f1b3f)" d="M 832.5 236.57305 
L 832.5 234.823614 
" style="fill:none;stroke:#4c4c4c;stroke-linecap:round;stroke-width:9;"/>
   </g>
   <g id="patch_3">
    <path d="M 135 256.32 
L 135 34.56 
" style="fill:none;"/>
   </g>
   <g id="patch_4">
    <path d="M 972 256.32 
L 972 34.56 
" style="fill:none;"/>
   </g>
   <g id="patch_5">
    <path d="M 135 256.32 
L 972 256.32 
" style="fill:none;"/>
   </g>
   <g id="patch_6">
    <path d="M 135 34.56 
L 972 34.56 
" style="fill:none;"/>
   </g>
   <g id="PathCollection_1">
    <defs>
     <path d="M 0 3 
C 0.795609 3 1.55874 2.683901 2.12132 2.12132 
C 2.683901 1.55874 3 0.795609 3 0 
C 3 -0.795609 2.683901 -1.55874 2.12132 -2.12132 
C 1.55874 -2.683901 0.795609 -3 0 -3 
C -0.795609 -3 -1.55874 -2.683901 -2.12132 -2.12132 
C -2.683901 -1.55874 -3 -0.795609 -3 0 
C -3 0.795609 -2.683901 1.55874 -2.12132 2.12132 
C -1.55874 2.683901 -0.795609 3 0 3 
z
" id="mda5b733d9c" style="stroke:#4c4c4c;stroke-width:0.3;"/>
    </defs>
    <g clip-path="url(#pd5a12f1b3f)">
     <use style="fill:#ffffff;stroke:#4c4c4c;stroke-width:0.3;" x="274.5" xlink:href="#mda5b733d9c" y="237.991233"/>
    </g>
   </g>
   <g id="PathCollection_2">
    <g clip-path="url(#pd5a12f1b3f)">
     <use style="fill:#ffffff;stroke:#4c4c4c;stroke-width:0.3;" x="553.5" xlink:href="#mda5b733d9c" y="238.179773"/>
    </g>
   </g>
   <g id="PathCollection_3">
    <g clip-path="url(#pd5a12f1b3f)">
     <use style="fill:#ffffff;stroke:#4c4c4c;stroke-width:0.3;" x="832.5" xlink:href="#mda5b733d9c" y="236.57305"/>
    </g>
   </g>
  </g>
  <g id="text_11">
   <!-- Violin Plot of all Continuous Variables -->
   <defs>
    <path d="M 28.171875 0 
L 0.4375 71.578125 
L 10.6875 71.578125 
L 29.296875 19.578125 
Q 31.546875 13.328125 33.0625 7.859375 
Q 34.71875 13.71875 36.921875 19.578125 
L 56.25 71.578125 
L 65.921875 71.578125 
L 37.890625 0 
z
" id="ArialMT-86"/>
    <path d="M 6.390625 0 
L 6.390625 71.578125 
L 15.1875 71.578125 
L 15.1875 0 
z
" id="ArialMT-108"/>
    <path id="ArialMT-32"/>
    <path d="M 7.71875 0 
L 7.71875 71.578125 
L 34.71875 71.578125 
Q 41.84375 71.578125 45.609375 70.90625 
Q 50.875 70.015625 54.4375 67.546875 
Q 58.015625 65.09375 60.1875 60.640625 
Q 62.359375 56.203125 62.359375 50.875 
Q 62.359375 41.75 56.546875 35.421875 
Q 50.734375 29.109375 35.546875 29.109375 
L 17.1875 29.109375 
L 17.1875 0 
z
M 17.1875 37.546875 
L 35.6875 37.546875 
Q 44.875 37.546875 48.734375 40.96875 
Q 52.59375 44.390625 52.59375 50.59375 
Q 52.59375 55.078125 50.3125 58.265625 
Q 48.046875 61.46875 44.34375 62.5 
Q 41.9375 63.140625 35.5 63.140625 
L 17.1875 63.140625 
z
" id="ArialMT-80"/>
    <path d="M 14.703125 0 
L 6.546875 0 
L 6.546875 71.578125 
L 15.328125 71.578125 
L 15.328125 46.046875 
Q 20.90625 53.03125 29.546875 53.03125 
Q 34.328125 53.03125 38.59375 51.09375 
Q 42.875 49.171875 45.625 45.671875 
Q 48.390625 42.1875 49.953125 37.25 
Q 51.515625 32.328125 51.515625 26.703125 
Q 51.515625 13.375 44.921875 6.09375 
Q 38.328125 -1.171875 29.109375 -1.171875 
Q 19.921875 -1.171875 14.703125 6.5 
z
M 14.59375 26.3125 
Q 14.59375 17 17.140625 12.84375 
Q 21.296875 6.0625 28.375 6.0625 
Q 34.125 6.0625 38.328125 11.0625 
Q 42.53125 16.0625 42.53125 25.984375 
Q 42.53125 36.140625 38.5 40.96875 
Q 34.46875 45.796875 28.765625 45.796875 
Q 23 45.796875 18.796875 40.796875 
Q 14.59375 35.796875 14.59375 26.3125 
z
" id="ArialMT-98"/>
   </defs>
   <g style="fill:#262626;" transform="translate(373.814062 -8.724375)scale(0.2 -0.2)">
    <use xlink:href="#ArialMT-86"/>
    <use x="66.683594" xlink:href="#ArialMT-105"/>
    <use x="88.900391" xlink:href="#ArialMT-111"/>
    <use x="144.515625" xlink:href="#ArialMT-108"/>
    <use x="166.732422" xlink:href="#ArialMT-105"/>
    <use x="188.949219" xlink:href="#ArialMT-110"/>
    <use x="244.564453" xlink:href="#ArialMT-32"/>
    <use x="272.347656" xlink:href="#ArialMT-80"/>
    <use x="339.046875" xlink:href="#ArialMT-108"/>
    <use x="361.263672" xlink:href="#ArialMT-111"/>
    <use x="416.878906" xlink:href="#ArialMT-116"/>
    <use x="444.662109" xlink:href="#ArialMT-32"/>
    <use x="472.445312" xlink:href="#ArialMT-111"/>
    <use x="528.060547" xlink:href="#ArialMT-102"/>
    <use x="555.84375" xlink:href="#ArialMT-32"/>
    <use x="583.626953" xlink:href="#ArialMT-97"/>
    <use x="639.242188" xlink:href="#ArialMT-108"/>
    <use x="661.458984" xlink:href="#ArialMT-108"/>
    <use x="683.675781" xlink:href="#ArialMT-32"/>
    <use x="711.458984" xlink:href="#ArialMT-67"/>
    <use x="783.675781" xlink:href="#ArialMT-111"/>
    <use x="839.291016" xlink:href="#ArialMT-110"/>
    <use x="894.90625" xlink:href="#ArialMT-116"/>
    <use x="922.689453" xlink:href="#ArialMT-105"/>
    <use x="944.90625" xlink:href="#ArialMT-110"/>
    <use x="1000.521484" xlink:href="#ArialMT-117"/>
    <use x="1056.136719" xlink:href="#ArialMT-111"/>
    <use x="1111.751953" xlink:href="#ArialMT-117"/>
    <use x="1167.367188" xlink:href="#ArialMT-115"/>
    <use x="1217.367188" xlink:href="#ArialMT-32"/>
    <use x="1245.150391" xlink:href="#ArialMT-86"/>
    <use x="1311.740234" xlink:href="#ArialMT-97"/>
    <use x="1367.355469" xlink:href="#ArialMT-114"/>
    <use x="1400.65625" xlink:href="#ArialMT-105"/>
    <use x="1422.873047" xlink:href="#ArialMT-97"/>
    <use x="1478.488281" xlink:href="#ArialMT-98"/>
    <use x="1534.103516" xlink:href="#ArialMT-108"/>
    <use x="1556.320312" xlink:href="#ArialMT-101"/>
    <use x="1611.935547" xlink:href="#ArialMT-115"/>
   </g>
  </g>
 </g>
 <defs>
  <clipPath id="pd5a12f1b3f">
   <rect height="221.76" width="837" x="135" y="34.56"/>
  </clipPath>
 </defs>
</svg>
